%TF.GenerationSoftware,KiCad,Pcbnew,9.0.7*%
%TF.CreationDate,2026-04-22T05:31:25+05:30*%
%TF.ProjectId,Aurora Lamps-Carrier PCB,4175726f-7261-4204-9c61-6d70732d4361,rev?*%
%TF.SameCoordinates,Original*%
%TF.FileFunction,Component,L1,Top*%
%TF.FilePolarity,Positive*%
%FSLAX46Y46*%
G04 Gerber Fmt 4.6, Leading zero omitted, Abs format (unit mm)*
G04 Created by KiCad (PCBNEW 9.0.7) date 2026-04-22 05:31:25*
%MOMM*%
%LPD*%
G01*
G04 APERTURE LIST*
%TA.AperFunction,ComponentMain*%
%ADD10C,0.300000*%
%TD*%
%TA.AperFunction,ComponentOutline,Courtyard*%
%ADD11C,0.100000*%
%TD*%
%TA.AperFunction,ComponentPin*%
%ADD12P,0.360000X4X0.000000*%
%TD*%
%TA.AperFunction,ComponentPin*%
%ADD13C,0.100000*%
%TD*%
G04 APERTURE END LIST*
D10*
%TO.C,J7*%
%TO.CFtp,JST_ZH_B2B-ZR_1x02_P1.50mm_Vertical*%
%TO.CVal,USBPower EXt*%
%TO.CLbN,Connector_JST*%
%TO.CMnt,TH*%
%TO.CRot,0*%
X59360000Y-71220000D03*
D11*
X62855000Y-69425000D02*
X62855000Y-73915000D01*
X57365000Y-73915000D01*
X57365000Y-69425000D01*
X62855000Y-69425000D01*
D12*
%TO.P,J7,1,Pin_1*%
X59360000Y-71220000D03*
D13*
%TO.P,J7,2,Pin_2*%
X60860000Y-71220000D03*
%TD*%
D10*
%TO.C,J3*%
%TO.CFtp,JST_PH_B3B-PH-K_1x03_P2.00mm_Vertical*%
%TO.CVal,LED Connector*%
%TO.CLbN,Connector_JST*%
%TO.CMnt,TH*%
%TO.CRot,-90*%
X5010000Y-48350000D03*
D11*
X7205000Y-45905000D02*
X7205000Y-54795000D01*
X1715000Y-54795000D01*
X1715000Y-45905000D01*
X7205000Y-45905000D01*
D12*
%TO.P,J3,1,Pin_1*%
X5010000Y-48350000D03*
D13*
%TO.P,J3,2,Pin_2*%
X5010000Y-50350000D03*
%TO.P,J3,3,Pin_3*%
X5010000Y-52350000D03*
%TD*%
D10*
%TO.C,R1*%
%TO.CFtp,R_0603_1608Metric*%
%TO.CVal,330R*%
%TO.CLbN,Resistor_SMD*%
%TO.CMnt,SMD*%
%TO.CRot,180*%
X38015000Y-53920000D03*
D11*
X39490000Y-53195000D02*
X39490000Y-54645000D01*
X36540000Y-54645000D01*
X36540000Y-53195000D01*
X39490000Y-53195000D01*
D12*
%TO.P,R1,1*%
X38840000Y-53920000D03*
D13*
%TO.P,R1,2*%
X37190000Y-53920000D03*
%TD*%
D10*
%TO.C,U1*%
%TO.CFtp,MODULE_XIAO_ESP32C3*%
%TO.CVal,XIAO_ESP32S3*%
%TO.CLbN,SnapEDA_Footprints*%
%TO.CMnt,TH*%
%TO.CRot,0*%
X50020000Y-51316500D03*
D11*
X59155000Y-39084000D02*
X59155000Y-62039000D01*
X40885000Y-62039000D01*
X40885000Y-39084000D01*
X59155000Y-39084000D01*
D12*
%TO.P,U1,1,D0*%
X42400000Y-43760000D03*
D13*
%TO.P,U1,2,D1*%
X42400000Y-46300000D03*
%TO.P,U1,3,D2*%
X42400000Y-48840000D03*
%TO.P,U1,4,D3*%
X42400000Y-51380000D03*
%TO.P,U1,5,D4*%
X42400000Y-53920000D03*
%TO.P,U1,6,D5*%
X42400000Y-56460000D03*
%TO.P,U1,7,TX_D6*%
X42400000Y-59000000D03*
%TO.P,U1,8,RX_D7*%
X57640000Y-59000000D03*
%TO.P,U1,9,D8*%
X57640000Y-56460000D03*
%TO.P,U1,10,D9*%
X57640000Y-53920000D03*
%TO.P,U1,11,D10*%
X57640000Y-51380000D03*
%TO.P,U1,12,VCC_3V3*%
X57640000Y-48840000D03*
%TO.P,U1,13,GND*%
X57640000Y-46300000D03*
%TO.P,U1,14,VUSB*%
X57640000Y-43760000D03*
%TD*%
D10*
%TO.C,J1*%
%TO.CFtp,Molex_PicoBlade_53261-0271_1x02-1MP_P1.25mm_Horizontal*%
%TO.CVal,BATTERY*%
%TO.CLbN,Connector_Molex*%
%TO.CMnt,SMD*%
%TO.CRot,0*%
X39175000Y-71330000D03*
D11*
X40700000Y-67635000D02*
X40700000Y-69235000D01*
X41800000Y-69235000D01*
X41800000Y-69835000D01*
X43900000Y-69835000D01*
X43900000Y-73825000D01*
X43300000Y-73825000D01*
X43300000Y-74025000D01*
X41800000Y-74025000D01*
X41800000Y-74425000D01*
X36550000Y-74425000D01*
X36550000Y-74025000D01*
X35050000Y-74025000D01*
X35050000Y-73825000D01*
X34450000Y-73825000D01*
X34450000Y-69835000D01*
X36550000Y-69835000D01*
X36550000Y-69235000D01*
X37650000Y-69235000D01*
X37650000Y-67635000D01*
X40700000Y-67635000D01*
D12*
%TO.P,J1,1,Pin_1*%
X38550000Y-68930000D03*
D13*
%TO.P,J1,2,Pin_2*%
X39800000Y-68930000D03*
%TO.P,J1,MP*%
X36000000Y-71830000D03*
X42350000Y-71830000D03*
%TD*%
D10*
%TO.C,J4*%
%TO.CFtp,JST_PH_B3B-PH-K_1x03_P2.00mm_Vertical*%
%TO.CVal,led ring out*%
%TO.CLbN,Connector_JST*%
%TO.CMnt,TH*%
%TO.CRot,90*%
X92940000Y-52140000D03*
D11*
X96235000Y-45695000D02*
X96235000Y-54585000D01*
X90745000Y-54585000D01*
X90745000Y-45695000D01*
X96235000Y-45695000D01*
D12*
%TO.P,J4,1,Pin_1*%
X92940000Y-52140000D03*
D13*
%TO.P,J4,2,Pin_2*%
X92940000Y-50140000D03*
%TO.P,J4,3,Pin_3*%
X92940000Y-48140000D03*
%TD*%
D10*
%TO.C,SW2*%
%TO.CFtp,SW_SPDT_PCM12*%
%TO.CVal,SW_SPDT*%
%TO.CLbN,Button_Switch_SMD*%
%TO.CMnt,SMD*%
%TO.CRot,0*%
X50620000Y-71760000D03*
D11*
X55015000Y-69315000D02*
X55015000Y-73855000D01*
X52265000Y-73855000D01*
X52265000Y-75155000D01*
X48975000Y-75155000D01*
X48975000Y-73855000D01*
X46225000Y-73855000D01*
X46225000Y-69315000D01*
X55015000Y-69315000D01*
D12*
%TO.P,SW2,1,A*%
X48370000Y-70330000D03*
D13*
%TO.P,SW2,*%
X46970000Y-70980000D03*
X46970000Y-73190000D03*
X49120000Y-72090000D03*
X52120000Y-72090000D03*
X54270000Y-70980000D03*
X54270000Y-73190000D03*
%TO.P,SW2,2,B*%
X51370000Y-70330000D03*
%TO.P,SW2,3,C*%
X52870000Y-70330000D03*
%TD*%
D10*
%TO.C,C1*%
%TO.CFtp,C_0603_1608Metric*%
%TO.CVal,100nf*%
%TO.CLbN,Capacitor_SMD*%
%TO.CMnt,SMD*%
%TO.CRot,90*%
X11720000Y-49495000D03*
D11*
X12445000Y-48020000D02*
X12445000Y-50970000D01*
X10995000Y-50970000D01*
X10995000Y-48020000D01*
X12445000Y-48020000D01*
D12*
%TO.P,C1,1*%
X11720000Y-50270000D03*
D13*
%TO.P,C1,2*%
X11720000Y-48720000D03*
%TD*%
M02*
