%TF.GenerationSoftware,KiCad,Pcbnew,9.0.6*%
%TF.CreationDate,2026-01-02T15:29:26+05:30*%
%TF.ProjectId,A3144_Hall Sensor_Ring,41333134-345f-4486-916c-6c2053656e73,rev?*%
%TF.SameCoordinates,Original*%
%TF.FileFunction,Soldermask,Bot*%
%TF.FilePolarity,Negative*%
%FSLAX46Y46*%
G04 Gerber Fmt 4.6, Leading zero omitted, Abs format (unit mm)*
G04 Created by KiCad (PCBNEW 9.0.6) date 2026-01-02 15:29:26*
%MOMM*%
%LPD*%
G01*
G04 APERTURE LIST*
G04 Aperture macros list*
%AMRoundRect*
0 Rectangle with rounded corners*
0 $1 Rounding radius*
0 $2 $3 $4 $5 $6 $7 $8 $9 X,Y pos of 4 corners*
0 Add a 4 corners polygon primitive as box body*
4,1,4,$2,$3,$4,$5,$6,$7,$8,$9,$2,$3,0*
0 Add four circle primitives for the rounded corners*
1,1,$1+$1,$2,$3*
1,1,$1+$1,$4,$5*
1,1,$1+$1,$6,$7*
1,1,$1+$1,$8,$9*
0 Add four rect primitives between the rounded corners*
20,1,$1+$1,$2,$3,$4,$5,0*
20,1,$1+$1,$4,$5,$6,$7,0*
20,1,$1+$1,$6,$7,$8,$9,0*
20,1,$1+$1,$8,$9,$2,$3,0*%
G04 Aperture macros list end*
%ADD10C,5.500000*%
%ADD11RoundRect,0.250000X0.777817X0.000000X0.000000X0.777817X-0.777817X0.000000X0.000000X-0.777817X0*%
%ADD12C,1.600000*%
%ADD13RoundRect,0.250000X0.725000X-0.600000X0.725000X0.600000X-0.725000X0.600000X-0.725000X-0.600000X0*%
%ADD14O,1.950000X1.700000*%
%ADD15R,1.500000X1.200000*%
%ADD16O,1.500000X1.200000*%
%ADD17RoundRect,0.250000X0.730909X-0.266029X0.266029X0.730909X-0.730909X0.266029X-0.266029X-0.730909X0*%
%ADD18R,1.200000X1.500000*%
%ADD19O,1.200000X1.500000*%
%ADD20RoundRect,0.250000X-0.777817X0.000000X0.000000X-0.777817X0.777817X0.000000X0.000000X0.777817X0*%
%ADD21RoundRect,0.250000X0.000000X-0.777817X0.777817X0.000000X0.000000X0.777817X-0.777817X0.000000X0*%
%ADD22RoundRect,0.250000X0.000000X0.777817X-0.777817X0.000000X0.000000X-0.777817X0.777817X0.000000X0*%
G04 APERTURE END LIST*
D10*
%TO.C,H2*%
X176910000Y-74280000D03*
%TD*%
D11*
%TO.C,D2*%
X167764077Y-88754077D03*
D12*
X162375923Y-83365923D03*
%TD*%
D13*
%TO.C,J1*%
X124960000Y-113978153D03*
D14*
X124960000Y-111478153D03*
X124960000Y-108978153D03*
%TD*%
D12*
%TO.C,C4*%
X176730000Y-99410000D03*
X176730000Y-101910000D03*
%TD*%
D15*
%TO.C,U1*%
X130335000Y-102465000D03*
D16*
X130360000Y-100970000D03*
X130360000Y-99365000D03*
%TD*%
D10*
%TO.C,H4*%
X123650000Y-127580000D03*
%TD*%
D15*
%TO.C,U3*%
X170215000Y-99435000D03*
D16*
X170190000Y-100930000D03*
X170190000Y-102535000D03*
%TD*%
D12*
%TO.C,C1*%
X123020000Y-102330000D03*
X123020000Y-99830000D03*
%TD*%
%TO.C,C5*%
X151630000Y-127570000D03*
X149130000Y-127570000D03*
%TD*%
D17*
%TO.C,C2*%
X131808273Y-109817709D03*
D12*
X130751726Y-107551940D03*
%TD*%
D18*
%TO.C,U2*%
X148735000Y-81005000D03*
D19*
X150230000Y-81030000D03*
X151835000Y-81030000D03*
%TD*%
D10*
%TO.C,H3*%
X176900000Y-127580000D03*
%TD*%
D20*
%TO.C,D4*%
X133415923Y-113165924D03*
D12*
X138804077Y-118554078D03*
%TD*%
%TO.C,C3*%
X148860000Y-75460000D03*
X151360000Y-75460000D03*
%TD*%
D10*
%TO.C,H1*%
X123600000Y-74300000D03*
%TD*%
D18*
%TO.C,U4*%
X151715000Y-120835000D03*
D19*
X150220000Y-120810000D03*
X148615000Y-120810000D03*
%TD*%
D21*
%TO.C,D3*%
X162715924Y-117994077D03*
D12*
X168104078Y-112605923D03*
%TD*%
D22*
%TO.C,D1*%
X138874077Y-82805924D03*
D12*
X133485923Y-88194078D03*
%TD*%
M02*
