%TF.GenerationSoftware,KiCad,Pcbnew,9.0.6*%
%TF.CreationDate,2026-01-02T17:12:50+05:30*%
%TF.ProjectId,A3144_Hall Sensor_Ring_50x50_19mm,41333134-345f-4486-916c-6c2053656e73,rev?*%
%TF.SameCoordinates,Original*%
%TF.FileFunction,Copper,L1,Top*%
%TF.FilePolarity,Positive*%
%FSLAX46Y46*%
G04 Gerber Fmt 4.6, Leading zero omitted, Abs format (unit mm)*
G04 Created by KiCad (PCBNEW 9.0.6) date 2026-01-02 17:12:50*
%MOMM*%
%LPD*%
G01*
G04 APERTURE LIST*
G04 Aperture macros list*
%AMRoundRect*
0 Rectangle with rounded corners*
0 $1 Rounding radius*
0 $2 $3 $4 $5 $6 $7 $8 $9 X,Y pos of 4 corners*
0 Add a 4 corners polygon primitive as box body*
4,1,4,$2,$3,$4,$5,$6,$7,$8,$9,$2,$3,0*
0 Add four circle primitives for the rounded corners*
1,1,$1+$1,$2,$3*
1,1,$1+$1,$4,$5*
1,1,$1+$1,$6,$7*
1,1,$1+$1,$8,$9*
0 Add four rect primitives between the rounded corners*
20,1,$1+$1,$2,$3,$4,$5,0*
20,1,$1+$1,$4,$5,$6,$7,0*
20,1,$1+$1,$6,$7,$8,$9,0*
20,1,$1+$1,$8,$9,$2,$3,0*%
G04 Aperture macros list end*
%TA.AperFunction,ComponentPad*%
%ADD10RoundRect,0.250000X0.725000X-0.600000X0.725000X0.600000X-0.725000X0.600000X-0.725000X-0.600000X0*%
%TD*%
%TA.AperFunction,ComponentPad*%
%ADD11O,1.950000X1.700000*%
%TD*%
%TA.AperFunction,ComponentPad*%
%ADD12C,1.600000*%
%TD*%
%TA.AperFunction,ComponentPad*%
%ADD13R,1.500000X1.200000*%
%TD*%
%TA.AperFunction,ComponentPad*%
%ADD14O,1.500000X1.200000*%
%TD*%
%TA.AperFunction,ComponentPad*%
%ADD15RoundRect,0.250000X0.000000X0.777817X-0.777817X0.000000X0.000000X-0.777817X0.777817X0.000000X0*%
%TD*%
%TA.AperFunction,ComponentPad*%
%ADD16RoundRect,0.250000X-0.777817X0.000000X0.000000X-0.777817X0.777817X0.000000X0.000000X0.777817X0*%
%TD*%
%TA.AperFunction,ComponentPad*%
%ADD17R,1.200000X1.500000*%
%TD*%
%TA.AperFunction,ComponentPad*%
%ADD18O,1.200000X1.500000*%
%TD*%
%TA.AperFunction,ComponentPad*%
%ADD19RoundRect,0.250000X0.000000X-0.777817X0.777817X0.000000X0.000000X0.777817X-0.777817X0.000000X0*%
%TD*%
%TA.AperFunction,ComponentPad*%
%ADD20RoundRect,0.250000X0.777817X0.000000X0.000000X0.777817X-0.777817X0.000000X0.000000X-0.777817X0*%
%TD*%
%TA.AperFunction,ComponentPad*%
%ADD21RoundRect,0.250000X-0.550000X-0.550000X0.550000X-0.550000X0.550000X0.550000X-0.550000X0.550000X0*%
%TD*%
G04 APERTURE END LIST*
D10*
%TO.P,J1,1,Pin_1*%
%TO.N,VCC*%
X142800000Y-104600000D03*
D11*
%TO.P,J1,2,Pin_2*%
%TO.N,GND*%
X142800000Y-102100000D03*
%TO.P,J1,3,Pin_3*%
%TO.N,/Signal*%
X142800000Y-99600000D03*
%TD*%
D12*
%TO.P,C5,1*%
%TO.N,VCC*%
X140400000Y-94500000D03*
%TO.P,C5,2*%
%TO.N,GND*%
X140400000Y-92000000D03*
%TD*%
%TO.P,C4,1*%
%TO.N,VCC*%
X179800000Y-92400000D03*
%TO.P,C4,2*%
%TO.N,GND*%
X179800000Y-94900000D03*
%TD*%
D13*
%TO.P,U4,1,VI*%
%TO.N,VCC*%
X172800000Y-91855000D03*
D14*
%TO.P,U4,2,GND*%
%TO.N,GND*%
X172800000Y-93650000D03*
%TO.P,U4,3,VO*%
%TO.N,Net-(D4-A)*%
X172800000Y-95480000D03*
%TD*%
%TO.P,U2,3,VO*%
%TO.N,Net-(D2-A)*%
X147600000Y-91820000D03*
%TO.P,U2,2,GND*%
%TO.N,GND*%
X147600000Y-93650000D03*
D13*
%TO.P,U2,1,VI*%
%TO.N,VCC*%
X147600000Y-95445000D03*
%TD*%
D12*
%TO.P,D2,2,A*%
%TO.N,Net-(D2-A)*%
X146105923Y-84094078D03*
D15*
%TO.P,D2,1,K*%
%TO.N,/Signal*%
X151494077Y-78705924D03*
%TD*%
D16*
%TO.P,D3,1,K*%
%TO.N,/Signal*%
X148505924Y-104705924D03*
D12*
%TO.P,D3,2,A*%
%TO.N,Net-(D3-A)*%
X153894078Y-110094078D03*
%TD*%
D17*
%TO.P,U3,1,VI*%
%TO.N,VCC*%
X162350000Y-106800000D03*
D18*
%TO.P,U3,2,GND*%
%TO.N,GND*%
X160555000Y-106800000D03*
%TO.P,U3,3,VO*%
%TO.N,Net-(D3-A)*%
X158725000Y-106800000D03*
%TD*%
D17*
%TO.P,U1,1,VI*%
%TO.N,VCC*%
X158575000Y-81800000D03*
D18*
%TO.P,U1,2,GND*%
%TO.N,GND*%
X160370000Y-81800000D03*
%TO.P,U1,3,VO*%
%TO.N,Net-(D1-A)*%
X162200000Y-81800000D03*
%TD*%
D19*
%TO.P,D4,1,K*%
%TO.N,/Signal*%
X168505924Y-109494077D03*
D12*
%TO.P,D4,2,A*%
%TO.N,Net-(D4-A)*%
X173894078Y-104105923D03*
%TD*%
D20*
%TO.P,D1,1,K*%
%TO.N,/Signal*%
X174894077Y-83894077D03*
D12*
%TO.P,D1,2,A*%
%TO.N,Net-(D1-A)*%
X169505923Y-78505923D03*
%TD*%
%TO.P,C3,1*%
%TO.N,VCC*%
X162200000Y-113400000D03*
%TO.P,C3,2*%
%TO.N,GND*%
X159700000Y-113400000D03*
%TD*%
D21*
%TO.P,C2,1*%
%TO.N,VCC*%
X149594888Y-114800000D03*
D12*
%TO.P,C2,2*%
%TO.N,GND*%
X152094888Y-114800000D03*
%TD*%
%TO.P,C1,1*%
%TO.N,VCC*%
X158700000Y-75000000D03*
%TO.P,C1,2*%
%TO.N,GND*%
X161200000Y-75000000D03*
%TD*%
%TA.AperFunction,Conductor*%
%TO.N,VCC*%
G36*
X182224043Y-70320765D02*
G01*
X182472895Y-70337075D01*
X182488953Y-70339190D01*
X182696105Y-70380395D01*
X182729535Y-70387045D01*
X182745202Y-70391243D01*
X182914947Y-70448863D01*
X182977481Y-70470091D01*
X182992458Y-70476294D01*
X183201799Y-70579529D01*
X183212460Y-70584787D01*
X183226508Y-70592897D01*
X183430464Y-70729177D01*
X183443328Y-70739048D01*
X183627749Y-70900781D01*
X183639218Y-70912250D01*
X183757669Y-71047318D01*
X183800951Y-71096671D01*
X183810825Y-71109539D01*
X183947102Y-71313492D01*
X183955212Y-71327539D01*
X184063702Y-71547534D01*
X184069909Y-71562520D01*
X184148756Y-71794797D01*
X184152954Y-71810464D01*
X184200807Y-72051035D01*
X184202925Y-72067116D01*
X184219235Y-72315956D01*
X184219500Y-72324066D01*
X184219500Y-114367148D01*
X184199815Y-114434187D01*
X184147011Y-114479942D01*
X184077853Y-114489886D01*
X184014297Y-114460861D01*
X183976523Y-114402083D01*
X183972280Y-114381032D01*
X183962768Y-114296618D01*
X183962767Y-114296606D01*
X183887776Y-113968046D01*
X183776469Y-113649949D01*
X183630246Y-113346314D01*
X183450946Y-113060961D01*
X183240825Y-112797477D01*
X183002523Y-112559175D01*
X182994511Y-112552786D01*
X182935606Y-112505811D01*
X182739039Y-112349054D01*
X182493516Y-112194781D01*
X182453683Y-112169752D01*
X182150054Y-112023532D01*
X181831965Y-111912227D01*
X181831953Y-111912223D01*
X181503397Y-111837233D01*
X181503381Y-111837231D01*
X181168508Y-111799500D01*
X181168504Y-111799500D01*
X180831496Y-111799500D01*
X180831491Y-111799500D01*
X180496618Y-111837231D01*
X180496602Y-111837233D01*
X180168046Y-111912223D01*
X180168034Y-111912227D01*
X179849945Y-112023532D01*
X179546316Y-112169752D01*
X179260962Y-112349053D01*
X178997477Y-112559174D01*
X178759174Y-112797477D01*
X178549053Y-113060962D01*
X178369752Y-113346316D01*
X178223532Y-113649945D01*
X178112227Y-113968034D01*
X178112223Y-113968046D01*
X178037233Y-114296602D01*
X178037231Y-114296618D01*
X177999500Y-114631491D01*
X177999500Y-114968508D01*
X178037231Y-115303381D01*
X178037233Y-115303397D01*
X178112223Y-115631953D01*
X178112227Y-115631965D01*
X178223532Y-115950054D01*
X178369752Y-116253683D01*
X178369754Y-116253686D01*
X178549054Y-116539039D01*
X178759175Y-116802523D01*
X178997477Y-117040825D01*
X179260961Y-117250946D01*
X179546314Y-117430246D01*
X179849949Y-117576469D01*
X180088848Y-117660063D01*
X180168034Y-117687772D01*
X180168046Y-117687776D01*
X180496606Y-117762767D01*
X180831492Y-117800499D01*
X180831493Y-117800500D01*
X180831496Y-117800500D01*
X181168507Y-117800500D01*
X181168507Y-117800499D01*
X181503394Y-117762767D01*
X181831954Y-117687776D01*
X182150051Y-117576469D01*
X182453686Y-117430246D01*
X182739039Y-117250946D01*
X183002523Y-117040825D01*
X183240825Y-116802523D01*
X183450946Y-116539039D01*
X183630246Y-116253686D01*
X183776469Y-115950051D01*
X183887776Y-115631954D01*
X183962767Y-115303394D01*
X183962768Y-115303384D01*
X183962769Y-115303379D01*
X183972280Y-115218968D01*
X183999346Y-115154554D01*
X184056941Y-115114998D01*
X184126778Y-115112861D01*
X184186685Y-115148819D01*
X184217640Y-115211457D01*
X184219500Y-115232851D01*
X184219500Y-116315933D01*
X184219235Y-116324043D01*
X184202925Y-116572883D01*
X184200807Y-116588964D01*
X184152954Y-116829535D01*
X184148756Y-116845202D01*
X184069909Y-117077479D01*
X184063702Y-117092465D01*
X183955212Y-117312460D01*
X183947102Y-117326507D01*
X183810825Y-117530460D01*
X183800951Y-117543328D01*
X183639218Y-117727749D01*
X183627749Y-117739218D01*
X183443328Y-117900951D01*
X183430460Y-117910825D01*
X183226507Y-118047102D01*
X183212460Y-118055212D01*
X182992465Y-118163702D01*
X182977479Y-118169909D01*
X182745202Y-118248756D01*
X182729535Y-118252954D01*
X182488964Y-118300807D01*
X182472883Y-118302925D01*
X182224043Y-118319235D01*
X182215933Y-118319500D01*
X138224067Y-118319500D01*
X138215957Y-118319235D01*
X137967116Y-118302925D01*
X137951035Y-118300807D01*
X137710464Y-118252954D01*
X137694797Y-118248756D01*
X137462520Y-118169909D01*
X137447534Y-118163702D01*
X137227539Y-118055212D01*
X137213492Y-118047102D01*
X137009539Y-117910825D01*
X136996671Y-117900951D01*
X136812250Y-117739218D01*
X136800781Y-117727749D01*
X136739648Y-117658040D01*
X136639045Y-117543325D01*
X136629174Y-117530460D01*
X136492897Y-117326507D01*
X136484787Y-117312460D01*
X136447522Y-117236895D01*
X136376294Y-117092458D01*
X136370090Y-117077479D01*
X136291243Y-116845202D01*
X136287045Y-116829535D01*
X136241487Y-116600500D01*
X136239190Y-116588953D01*
X136237075Y-116572895D01*
X136220765Y-116324043D01*
X136220500Y-116315933D01*
X136220500Y-113431491D01*
X137999500Y-113431491D01*
X137999500Y-113768508D01*
X138037231Y-114103381D01*
X138037233Y-114103397D01*
X138112223Y-114431953D01*
X138112227Y-114431965D01*
X138223532Y-114750054D01*
X138369752Y-115053683D01*
X138369754Y-115053686D01*
X138549054Y-115339039D01*
X138759175Y-115602523D01*
X138997477Y-115840825D01*
X139260961Y-116050946D01*
X139546314Y-116230246D01*
X139849949Y-116376469D01*
X140088848Y-116460063D01*
X140168034Y-116487772D01*
X140168046Y-116487776D01*
X140496606Y-116562767D01*
X140831492Y-116600499D01*
X140831493Y-116600500D01*
X140831496Y-116600500D01*
X141168507Y-116600500D01*
X141168507Y-116600499D01*
X141503394Y-116562767D01*
X141831954Y-116487776D01*
X142150051Y-116376469D01*
X142453686Y-116230246D01*
X142739039Y-116050946D01*
X143002523Y-115840825D01*
X143240825Y-115602523D01*
X143450946Y-115339039D01*
X143630246Y-115053686D01*
X143678063Y-114954394D01*
X143682666Y-114944836D01*
X143682667Y-114944834D01*
X143776464Y-114750062D01*
X143776465Y-114750059D01*
X143776469Y-114750051D01*
X143887776Y-114431954D01*
X143940715Y-114200013D01*
X148294888Y-114200013D01*
X148294888Y-114550000D01*
X149279202Y-114550000D01*
X149274808Y-114554394D01*
X149222147Y-114645606D01*
X149194888Y-114747339D01*
X149194888Y-114852661D01*
X149222147Y-114954394D01*
X149274808Y-115045606D01*
X149279202Y-115050000D01*
X148294889Y-115050000D01*
X148294889Y-115399986D01*
X148305382Y-115502697D01*
X148360529Y-115669119D01*
X148360531Y-115669124D01*
X148452572Y-115818345D01*
X148576542Y-115942315D01*
X148725763Y-116034356D01*
X148725768Y-116034358D01*
X148892190Y-116089505D01*
X148892197Y-116089506D01*
X148994907Y-116099999D01*
X149344887Y-116099999D01*
X149344888Y-116099998D01*
X149344888Y-115115686D01*
X149349282Y-115120080D01*
X149440494Y-115172741D01*
X149542227Y-115200000D01*
X149647549Y-115200000D01*
X149749282Y-115172741D01*
X149840494Y-115120080D01*
X149844888Y-115115686D01*
X149844888Y-116099999D01*
X150194860Y-116099999D01*
X150194874Y-116099998D01*
X150297585Y-116089505D01*
X150464007Y-116034358D01*
X150464012Y-116034356D01*
X150613233Y-115942315D01*
X150737203Y-115818345D01*
X150829244Y-115669124D01*
X150829247Y-115669117D01*
X150843951Y-115624743D01*
X150883723Y-115567298D01*
X150948238Y-115540474D01*
X151017014Y-115552788D01*
X151061976Y-115590861D01*
X151102922Y-115647219D01*
X151247674Y-115791971D01*
X151402637Y-115904556D01*
X151413278Y-115912287D01*
X151487400Y-115950054D01*
X151595664Y-116005218D01*
X151595666Y-116005218D01*
X151595669Y-116005220D01*
X151685347Y-116034358D01*
X151790353Y-116068477D01*
X151891445Y-116084488D01*
X151992536Y-116100500D01*
X151992537Y-116100500D01*
X152197239Y-116100500D01*
X152197240Y-116100500D01*
X152399422Y-116068477D01*
X152594107Y-116005220D01*
X152776498Y-115912287D01*
X152874858Y-115840825D01*
X152942101Y-115791971D01*
X152942103Y-115791968D01*
X152942107Y-115791966D01*
X153086854Y-115647219D01*
X153086856Y-115647215D01*
X153086859Y-115647213D01*
X153139620Y-115574590D01*
X153207175Y-115481610D01*
X153300108Y-115299219D01*
X153363365Y-115104534D01*
X153395388Y-114902352D01*
X153395388Y-114697648D01*
X153380675Y-114604755D01*
X153363365Y-114495465D01*
X153300106Y-114300776D01*
X153248764Y-114200013D01*
X153207175Y-114118390D01*
X153180264Y-114081350D01*
X153086859Y-113952786D01*
X152942101Y-113808028D01*
X152776501Y-113687715D01*
X152776500Y-113687714D01*
X152776498Y-113687713D01*
X152702382Y-113649949D01*
X152594111Y-113594781D01*
X152399422Y-113531522D01*
X152224883Y-113503878D01*
X152197240Y-113499500D01*
X151992536Y-113499500D01*
X151968217Y-113503351D01*
X151790353Y-113531522D01*
X151595664Y-113594781D01*
X151413274Y-113687715D01*
X151247674Y-113808028D01*
X151102920Y-113952782D01*
X151061975Y-114009139D01*
X151006645Y-114051804D01*
X150937032Y-114057783D01*
X150875237Y-114025177D01*
X150843951Y-113975256D01*
X150829247Y-113930882D01*
X150829244Y-113930875D01*
X150737203Y-113781654D01*
X150613233Y-113657684D01*
X150464012Y-113565643D01*
X150464007Y-113565641D01*
X150297585Y-113510494D01*
X150297578Y-113510493D01*
X150194874Y-113500000D01*
X149844888Y-113500000D01*
X149844888Y-114484314D01*
X149840494Y-114479920D01*
X149749282Y-114427259D01*
X149647549Y-114400000D01*
X149542227Y-114400000D01*
X149440494Y-114427259D01*
X149349282Y-114479920D01*
X149344888Y-114484314D01*
X149344888Y-113500000D01*
X148994916Y-113500000D01*
X148994900Y-113500001D01*
X148892190Y-113510494D01*
X148725768Y-113565641D01*
X148725763Y-113565643D01*
X148576542Y-113657684D01*
X148452572Y-113781654D01*
X148360531Y-113930875D01*
X148360529Y-113930880D01*
X148305382Y-114097302D01*
X148305381Y-114097309D01*
X148294888Y-114200013D01*
X143940715Y-114200013D01*
X143962767Y-114103394D01*
X144000500Y-113768504D01*
X144000500Y-113431496D01*
X144000499Y-113431491D01*
X144000499Y-113431489D01*
X143986435Y-113306659D01*
X143985420Y-113297648D01*
X158399500Y-113297648D01*
X158399500Y-113502352D01*
X158400790Y-113510494D01*
X158431522Y-113704534D01*
X158494781Y-113899223D01*
X158537248Y-113982567D01*
X158587585Y-114081359D01*
X158587715Y-114081613D01*
X158708028Y-114247213D01*
X158852786Y-114391971D01*
X158987557Y-114489886D01*
X159018390Y-114512287D01*
X159101030Y-114554394D01*
X159200776Y-114605218D01*
X159200778Y-114605218D01*
X159200781Y-114605220D01*
X159281635Y-114631491D01*
X159395465Y-114668477D01*
X159496557Y-114684488D01*
X159597648Y-114700500D01*
X159597649Y-114700500D01*
X159802351Y-114700500D01*
X159802352Y-114700500D01*
X160004534Y-114668477D01*
X160199219Y-114605220D01*
X160381610Y-114512287D01*
X160498642Y-114427259D01*
X160547213Y-114391971D01*
X160547215Y-114391968D01*
X160547219Y-114391966D01*
X160691966Y-114247219D01*
X160691968Y-114247215D01*
X160691971Y-114247213D01*
X160796460Y-114103394D01*
X160812287Y-114081610D01*
X160839795Y-114027621D01*
X160887769Y-113976826D01*
X160955589Y-113960030D01*
X161021725Y-113982567D01*
X161060765Y-114027621D01*
X161088141Y-114081350D01*
X161088147Y-114081359D01*
X161120523Y-114125921D01*
X161120524Y-114125922D01*
X161800000Y-113446446D01*
X161800000Y-113452661D01*
X161827259Y-113554394D01*
X161879920Y-113645606D01*
X161954394Y-113720080D01*
X162045606Y-113772741D01*
X162147339Y-113800000D01*
X162153553Y-113800000D01*
X161474076Y-114479474D01*
X161518650Y-114511859D01*
X161700968Y-114604755D01*
X161895582Y-114667990D01*
X162097683Y-114700000D01*
X162302317Y-114700000D01*
X162504417Y-114667990D01*
X162699031Y-114604755D01*
X162881349Y-114511859D01*
X162925921Y-114479474D01*
X162246447Y-113800000D01*
X162252661Y-113800000D01*
X162354394Y-113772741D01*
X162445606Y-113720080D01*
X162520080Y-113645606D01*
X162572741Y-113554394D01*
X162600000Y-113452661D01*
X162600000Y-113446447D01*
X163279474Y-114125921D01*
X163311859Y-114081349D01*
X163404755Y-113899031D01*
X163467990Y-113704417D01*
X163500000Y-113502317D01*
X163500000Y-113297682D01*
X163467990Y-113095582D01*
X163404755Y-112900968D01*
X163311859Y-112718650D01*
X163279474Y-112674077D01*
X163279474Y-112674076D01*
X162600000Y-113353551D01*
X162600000Y-113347339D01*
X162572741Y-113245606D01*
X162520080Y-113154394D01*
X162445606Y-113079920D01*
X162354394Y-113027259D01*
X162252661Y-113000000D01*
X162246446Y-113000000D01*
X162925922Y-112320524D01*
X162925921Y-112320523D01*
X162881359Y-112288147D01*
X162881350Y-112288141D01*
X162699031Y-112195244D01*
X162504417Y-112132009D01*
X162302317Y-112100000D01*
X162097683Y-112100000D01*
X161895582Y-112132009D01*
X161700968Y-112195244D01*
X161518644Y-112288143D01*
X161474077Y-112320523D01*
X161474077Y-112320524D01*
X162153554Y-113000000D01*
X162147339Y-113000000D01*
X162045606Y-113027259D01*
X161954394Y-113079920D01*
X161879920Y-113154394D01*
X161827259Y-113245606D01*
X161800000Y-113347339D01*
X161800000Y-113353553D01*
X161120524Y-112674077D01*
X161120523Y-112674077D01*
X161088143Y-112718644D01*
X161060765Y-112772378D01*
X161012790Y-112823174D01*
X160944969Y-112839969D01*
X160878834Y-112817431D01*
X160839795Y-112772378D01*
X160812284Y-112718385D01*
X160691971Y-112552786D01*
X160547213Y-112408028D01*
X160381613Y-112287715D01*
X160381612Y-112287714D01*
X160381610Y-112287713D01*
X160324653Y-112258691D01*
X160199223Y-112194781D01*
X160004534Y-112131522D01*
X159829995Y-112103878D01*
X159802352Y-112099500D01*
X159597648Y-112099500D01*
X159573329Y-112103351D01*
X159395465Y-112131522D01*
X159200776Y-112194781D01*
X159018386Y-112287715D01*
X158852786Y-112408028D01*
X158708028Y-112552786D01*
X158587715Y-112718386D01*
X158494781Y-112900776D01*
X158431522Y-113095465D01*
X158399500Y-113297648D01*
X143985420Y-113297648D01*
X143962768Y-113096618D01*
X143962767Y-113096606D01*
X143887776Y-112768046D01*
X143870489Y-112718644D01*
X143812451Y-112552781D01*
X143776469Y-112449949D01*
X143653809Y-112195244D01*
X143630247Y-112146316D01*
X143630246Y-112146314D01*
X143450946Y-111860961D01*
X143240825Y-111597477D01*
X143002523Y-111359175D01*
X142739039Y-111149054D01*
X142453686Y-110969754D01*
X142453683Y-110969752D01*
X142150054Y-110823532D01*
X141831965Y-110712227D01*
X141831953Y-110712223D01*
X141503397Y-110637233D01*
X141503381Y-110637231D01*
X141168508Y-110599500D01*
X141168504Y-110599500D01*
X140831496Y-110599500D01*
X140831491Y-110599500D01*
X140496618Y-110637231D01*
X140496602Y-110637233D01*
X140168046Y-110712223D01*
X140168034Y-110712227D01*
X139849945Y-110823532D01*
X139546316Y-110969752D01*
X139260962Y-111149053D01*
X138997477Y-111359174D01*
X138759174Y-111597477D01*
X138549053Y-111860962D01*
X138369752Y-112146316D01*
X138223532Y-112449945D01*
X138112227Y-112768034D01*
X138112223Y-112768046D01*
X138037233Y-113096602D01*
X138037231Y-113096618D01*
X137999500Y-113431491D01*
X136220500Y-113431491D01*
X136220500Y-109991726D01*
X152593578Y-109991726D01*
X152593578Y-110196429D01*
X152625600Y-110398612D01*
X152688859Y-110593301D01*
X152781793Y-110775691D01*
X152902106Y-110941291D01*
X153046864Y-111086049D01*
X153201827Y-111198634D01*
X153212468Y-111206365D01*
X153328685Y-111265581D01*
X153394854Y-111299296D01*
X153394856Y-111299296D01*
X153394859Y-111299298D01*
X153499215Y-111333205D01*
X153589543Y-111362555D01*
X153690635Y-111378566D01*
X153791726Y-111394578D01*
X153791727Y-111394578D01*
X153996429Y-111394578D01*
X153996430Y-111394578D01*
X154198612Y-111362555D01*
X154393297Y-111299298D01*
X154575688Y-111206365D01*
X154668668Y-111138810D01*
X154741291Y-111086049D01*
X154741293Y-111086046D01*
X154741297Y-111086044D01*
X154886044Y-110941297D01*
X154886046Y-110941293D01*
X154886049Y-110941291D01*
X154961134Y-110837943D01*
X155006365Y-110775688D01*
X155099298Y-110593297D01*
X155162555Y-110398612D01*
X155194578Y-110196430D01*
X155194578Y-109991726D01*
X155162555Y-109789544D01*
X155099298Y-109594859D01*
X155099296Y-109594856D01*
X155099296Y-109594854D01*
X155028255Y-109455429D01*
X155028254Y-109455427D01*
X155006364Y-109412466D01*
X155001927Y-109406359D01*
X166977606Y-109406359D01*
X166977606Y-109581794D01*
X166977607Y-109581805D01*
X167018066Y-109752509D01*
X167036666Y-109789544D01*
X167096804Y-109909292D01*
X167162061Y-109989399D01*
X168010602Y-110837938D01*
X168090709Y-110903197D01*
X168247491Y-110981934D01*
X168418203Y-111022395D01*
X168418206Y-111022395D01*
X168593642Y-111022395D01*
X168593645Y-111022395D01*
X168764357Y-110981934D01*
X168921139Y-110903197D01*
X169001246Y-110837940D01*
X169849785Y-109989399D01*
X169915044Y-109909292D01*
X169993781Y-109752510D01*
X170034242Y-109581798D01*
X170034242Y-109406356D01*
X169993781Y-109235644D01*
X169915044Y-109078862D01*
X169849787Y-108998755D01*
X169001246Y-108150216D01*
X169001232Y-108150205D01*
X168969100Y-108124028D01*
X168921139Y-108084957D01*
X168921137Y-108084956D01*
X168921136Y-108084955D01*
X168764356Y-108006219D01*
X168593652Y-107965760D01*
X168593647Y-107965759D01*
X168593645Y-107965759D01*
X168418203Y-107965759D01*
X168418201Y-107965759D01*
X168418195Y-107965760D01*
X168247491Y-108006219D01*
X168090709Y-108084956D01*
X168010612Y-108150205D01*
X168010594Y-108150221D01*
X167162066Y-108998751D01*
X167162057Y-108998761D01*
X167096802Y-109078864D01*
X167018066Y-109235644D01*
X166977607Y-109406348D01*
X166977606Y-109406359D01*
X155001927Y-109406359D01*
X154886049Y-109246864D01*
X154741291Y-109102106D01*
X154575691Y-108981793D01*
X154575690Y-108981792D01*
X154575688Y-108981791D01*
X154518731Y-108952769D01*
X154393301Y-108888859D01*
X154198612Y-108825600D01*
X154024073Y-108797956D01*
X153996430Y-108793578D01*
X153791726Y-108793578D01*
X153767407Y-108797429D01*
X153589543Y-108825600D01*
X153394854Y-108888859D01*
X153212464Y-108981793D01*
X153046864Y-109102106D01*
X152902106Y-109246864D01*
X152781793Y-109412464D01*
X152688859Y-109594854D01*
X152625600Y-109789543D01*
X152593578Y-109991726D01*
X136220500Y-109991726D01*
X136220500Y-106563389D01*
X157624500Y-106563389D01*
X157624500Y-107036611D01*
X157651598Y-107207701D01*
X157705127Y-107372445D01*
X157783768Y-107526788D01*
X157885586Y-107666928D01*
X158008072Y-107789414D01*
X158148212Y-107891232D01*
X158302555Y-107969873D01*
X158467299Y-108023402D01*
X158638389Y-108050500D01*
X158638390Y-108050500D01*
X158811610Y-108050500D01*
X158811611Y-108050500D01*
X158982701Y-108023402D01*
X159147445Y-107969873D01*
X159301788Y-107891232D01*
X159441928Y-107789414D01*
X159552319Y-107679023D01*
X159613642Y-107645538D01*
X159683334Y-107650522D01*
X159727681Y-107679023D01*
X159838072Y-107789414D01*
X159978212Y-107891232D01*
X160132555Y-107969873D01*
X160297299Y-108023402D01*
X160468389Y-108050500D01*
X160468390Y-108050500D01*
X160641610Y-108050500D01*
X160641611Y-108050500D01*
X160812701Y-108023402D01*
X160977445Y-107969873D01*
X161131788Y-107891232D01*
X161194224Y-107845869D01*
X161260028Y-107822389D01*
X161328083Y-107838214D01*
X161366375Y-107871875D01*
X161392812Y-107907190D01*
X161507906Y-107993350D01*
X161507913Y-107993354D01*
X161642620Y-108043596D01*
X161642627Y-108043598D01*
X161702155Y-108049999D01*
X161702172Y-108050000D01*
X162100000Y-108050000D01*
X162100000Y-107175277D01*
X162176306Y-107219333D01*
X162290756Y-107250000D01*
X162409244Y-107250000D01*
X162523694Y-107219333D01*
X162600000Y-107175277D01*
X162600000Y-108050000D01*
X162997828Y-108050000D01*
X162997844Y-108049999D01*
X163057372Y-108043598D01*
X163057379Y-108043596D01*
X163192086Y-107993354D01*
X163192093Y-107993350D01*
X163307187Y-107907190D01*
X163307190Y-107907187D01*
X163393350Y-107792093D01*
X163393354Y-107792086D01*
X163443596Y-107657379D01*
X163443598Y-107657372D01*
X163449999Y-107597844D01*
X163450000Y-107597827D01*
X163450000Y-107050000D01*
X162725278Y-107050000D01*
X162769333Y-106973694D01*
X162800000Y-106859244D01*
X162800000Y-106740756D01*
X162769333Y-106626306D01*
X162725278Y-106550000D01*
X163450000Y-106550000D01*
X163450000Y-106002172D01*
X163449999Y-106002155D01*
X163443598Y-105942627D01*
X163443596Y-105942620D01*
X163393354Y-105807913D01*
X163393350Y-105807906D01*
X163307190Y-105692812D01*
X163307187Y-105692809D01*
X163192093Y-105606649D01*
X163192086Y-105606645D01*
X163057379Y-105556403D01*
X163057372Y-105556401D01*
X162997844Y-105550000D01*
X162600000Y-105550000D01*
X162600000Y-106424722D01*
X162523694Y-106380667D01*
X162409244Y-106350000D01*
X162290756Y-106350000D01*
X162176306Y-106380667D01*
X162100000Y-106424722D01*
X162100000Y-105550000D01*
X161702155Y-105550000D01*
X161642627Y-105556401D01*
X161642620Y-105556403D01*
X161507913Y-105606645D01*
X161507906Y-105606649D01*
X161392812Y-105692809D01*
X161392810Y-105692811D01*
X161366374Y-105728125D01*
X161310440Y-105769995D01*
X161240748Y-105774978D01*
X161194223Y-105754130D01*
X161158430Y-105728125D01*
X161131788Y-105708768D01*
X160977445Y-105630127D01*
X160812701Y-105576598D01*
X160812699Y-105576597D01*
X160812698Y-105576597D01*
X160681271Y-105555781D01*
X160641611Y-105549500D01*
X160468389Y-105549500D01*
X160428728Y-105555781D01*
X160297302Y-105576597D01*
X160132552Y-105630128D01*
X159978211Y-105708768D01*
X159951569Y-105728125D01*
X159838072Y-105810586D01*
X159838070Y-105810588D01*
X159838069Y-105810588D01*
X159727681Y-105920977D01*
X159666358Y-105954462D01*
X159596666Y-105949478D01*
X159552319Y-105920977D01*
X159441930Y-105810588D01*
X159441928Y-105810586D01*
X159301788Y-105708768D01*
X159147445Y-105630127D01*
X158982701Y-105576598D01*
X158982699Y-105576597D01*
X158982698Y-105576597D01*
X158851271Y-105555781D01*
X158811611Y-105549500D01*
X158638389Y-105549500D01*
X158598728Y-105555781D01*
X158467302Y-105576597D01*
X158302552Y-105630128D01*
X158148211Y-105708768D01*
X158121569Y-105728125D01*
X158008072Y-105810586D01*
X158008070Y-105810588D01*
X158008069Y-105810588D01*
X157885588Y-105933069D01*
X157885588Y-105933070D01*
X157885586Y-105933072D01*
X157841859Y-105993256D01*
X157783768Y-106073211D01*
X157705128Y-106227552D01*
X157651597Y-106392302D01*
X157644057Y-106439910D01*
X157624500Y-106563389D01*
X136220500Y-106563389D01*
X136220500Y-99493713D01*
X141324500Y-99493713D01*
X141324500Y-99706286D01*
X141357753Y-99916239D01*
X141423444Y-100118414D01*
X141519951Y-100307820D01*
X141644890Y-100479786D01*
X141795209Y-100630105D01*
X141795214Y-100630109D01*
X141959793Y-100749682D01*
X142002459Y-100805011D01*
X142008438Y-100874625D01*
X141975833Y-100936420D01*
X141959793Y-100950318D01*
X141795214Y-101069890D01*
X141795209Y-101069894D01*
X141644890Y-101220213D01*
X141519951Y-101392179D01*
X141423444Y-101581585D01*
X141357753Y-101783760D01*
X141324500Y-101993713D01*
X141324500Y-102206286D01*
X141357753Y-102416239D01*
X141423444Y-102618414D01*
X141519951Y-102807820D01*
X141644890Y-102979786D01*
X141784068Y-103118964D01*
X141817553Y-103180287D01*
X141812569Y-103249979D01*
X141770697Y-103305912D01*
X141761484Y-103312183D01*
X141606659Y-103407680D01*
X141606655Y-103407683D01*
X141482684Y-103531654D01*
X141390643Y-103680875D01*
X141390641Y-103680880D01*
X141335494Y-103847302D01*
X141335493Y-103847309D01*
X141325000Y-103950013D01*
X141325000Y-104350000D01*
X142395854Y-104350000D01*
X142357370Y-104416657D01*
X142325000Y-104537465D01*
X142325000Y-104662535D01*
X142357370Y-104783343D01*
X142395854Y-104850000D01*
X141325001Y-104850000D01*
X141325001Y-105249986D01*
X141335494Y-105352697D01*
X141390641Y-105519119D01*
X141390643Y-105519124D01*
X141482684Y-105668345D01*
X141606654Y-105792315D01*
X141755875Y-105884356D01*
X141755880Y-105884358D01*
X141922302Y-105939505D01*
X141922309Y-105939506D01*
X142025019Y-105949999D01*
X142549999Y-105949999D01*
X142550000Y-105949998D01*
X142550000Y-105004145D01*
X142616657Y-105042630D01*
X142737465Y-105075000D01*
X142862535Y-105075000D01*
X142983343Y-105042630D01*
X143050000Y-105004145D01*
X143050000Y-105949999D01*
X143574972Y-105949999D01*
X143574986Y-105949998D01*
X143677697Y-105939505D01*
X143844119Y-105884358D01*
X143844124Y-105884356D01*
X143993345Y-105792315D01*
X144117315Y-105668345D01*
X144209356Y-105519124D01*
X144209358Y-105519119D01*
X144264505Y-105352697D01*
X144264506Y-105352690D01*
X144274999Y-105249986D01*
X144275000Y-105249973D01*
X144275000Y-104850000D01*
X143204146Y-104850000D01*
X143242630Y-104783343D01*
X143275000Y-104662535D01*
X143275000Y-104618206D01*
X146977606Y-104618206D01*
X146977606Y-104793641D01*
X146977607Y-104793652D01*
X147018066Y-104964356D01*
X147085128Y-105097889D01*
X147096804Y-105121139D01*
X147162061Y-105201246D01*
X148010602Y-106049785D01*
X148090709Y-106115044D01*
X148247491Y-106193781D01*
X148418203Y-106234242D01*
X148418206Y-106234242D01*
X148593642Y-106234242D01*
X148593645Y-106234242D01*
X148764357Y-106193781D01*
X148921139Y-106115044D01*
X149001246Y-106049787D01*
X149849785Y-105201246D01*
X149915044Y-105121139D01*
X149993781Y-104964357D01*
X150034242Y-104793645D01*
X150034242Y-104618203D01*
X149993781Y-104447491D01*
X149915044Y-104290709D01*
X149849787Y-104210602D01*
X149001246Y-103362063D01*
X149001232Y-103362052D01*
X148932319Y-103305912D01*
X148921139Y-103296804D01*
X148921137Y-103296803D01*
X148921136Y-103296802D01*
X148764356Y-103218066D01*
X148593652Y-103177607D01*
X148593647Y-103177606D01*
X148593645Y-103177606D01*
X148418203Y-103177606D01*
X148418201Y-103177606D01*
X148418195Y-103177607D01*
X148247491Y-103218066D01*
X148090709Y-103296803D01*
X148010612Y-103362052D01*
X148010594Y-103362068D01*
X147162066Y-104210598D01*
X147162057Y-104210608D01*
X147096802Y-104290711D01*
X147018066Y-104447491D01*
X146977607Y-104618195D01*
X146977606Y-104618206D01*
X143275000Y-104618206D01*
X143275000Y-104537465D01*
X143242630Y-104416657D01*
X143204146Y-104350000D01*
X144274999Y-104350000D01*
X144274999Y-103950028D01*
X144274998Y-103950013D01*
X144264505Y-103847302D01*
X144209358Y-103680880D01*
X144209356Y-103680875D01*
X144117315Y-103531654D01*
X143993345Y-103407684D01*
X143838515Y-103312184D01*
X143791791Y-103260236D01*
X143780568Y-103191273D01*
X143808412Y-103127191D01*
X143815909Y-103118986D01*
X143955104Y-102979792D01*
X144080051Y-102807816D01*
X144176557Y-102618412D01*
X144242246Y-102416243D01*
X144275500Y-102206287D01*
X144275500Y-101993713D01*
X144242246Y-101783757D01*
X144176557Y-101581588D01*
X144080051Y-101392184D01*
X144080049Y-101392181D01*
X144080048Y-101392179D01*
X143955109Y-101220213D01*
X143804792Y-101069896D01*
X143771383Y-101045623D01*
X143640204Y-100950316D01*
X143597540Y-100894989D01*
X143591561Y-100825376D01*
X143624166Y-100763580D01*
X143640199Y-100749686D01*
X143804792Y-100630104D01*
X143955104Y-100479792D01*
X143955106Y-100479788D01*
X143955109Y-100479786D01*
X144080048Y-100307820D01*
X144080047Y-100307820D01*
X144080051Y-100307816D01*
X144176557Y-100118412D01*
X144242246Y-99916243D01*
X144275500Y-99706287D01*
X144275500Y-99493713D01*
X144242246Y-99283757D01*
X144176557Y-99081588D01*
X144080051Y-98892184D01*
X144080049Y-98892181D01*
X144080048Y-98892179D01*
X143955109Y-98720213D01*
X143804786Y-98569890D01*
X143632820Y-98444951D01*
X143443414Y-98348444D01*
X143443413Y-98348443D01*
X143443412Y-98348443D01*
X143241243Y-98282754D01*
X143241241Y-98282753D01*
X143241240Y-98282753D01*
X143079957Y-98257208D01*
X143031287Y-98249500D01*
X142568713Y-98249500D01*
X142520042Y-98257208D01*
X142358760Y-98282753D01*
X142156585Y-98348444D01*
X141967179Y-98444951D01*
X141795213Y-98569890D01*
X141644890Y-98720213D01*
X141519951Y-98892179D01*
X141423444Y-99081585D01*
X141357753Y-99283760D01*
X141324500Y-99493713D01*
X136220500Y-99493713D01*
X136220500Y-91897648D01*
X139099500Y-91897648D01*
X139099500Y-92102352D01*
X139101524Y-92115132D01*
X139131522Y-92304534D01*
X139194781Y-92499223D01*
X139287715Y-92681613D01*
X139408028Y-92847213D01*
X139552786Y-92991971D01*
X139718385Y-93112284D01*
X139718387Y-93112285D01*
X139718390Y-93112287D01*
X139772378Y-93139795D01*
X139823174Y-93187769D01*
X139839969Y-93255590D01*
X139817432Y-93321725D01*
X139772378Y-93360765D01*
X139718644Y-93388143D01*
X139674077Y-93420523D01*
X139674077Y-93420524D01*
X140353554Y-94100000D01*
X140347339Y-94100000D01*
X140245606Y-94127259D01*
X140154394Y-94179920D01*
X140079920Y-94254394D01*
X140027259Y-94345606D01*
X140000000Y-94447339D01*
X140000000Y-94453553D01*
X139320524Y-93774077D01*
X139320523Y-93774077D01*
X139288143Y-93818644D01*
X139195244Y-94000968D01*
X139132009Y-94195582D01*
X139100000Y-94397682D01*
X139100000Y-94602317D01*
X139132009Y-94804417D01*
X139195244Y-94999031D01*
X139288141Y-95181350D01*
X139288147Y-95181359D01*
X139320523Y-95225921D01*
X139320524Y-95225922D01*
X140000000Y-94546446D01*
X140000000Y-94552661D01*
X140027259Y-94654394D01*
X140079920Y-94745606D01*
X140154394Y-94820080D01*
X140245606Y-94872741D01*
X140347339Y-94900000D01*
X140353553Y-94900000D01*
X139674076Y-95579474D01*
X139718650Y-95611859D01*
X139900968Y-95704755D01*
X140095582Y-95767990D01*
X140297683Y-95800000D01*
X140502317Y-95800000D01*
X140704417Y-95767990D01*
X140899031Y-95704755D01*
X141081349Y-95611859D01*
X141125921Y-95579474D01*
X141125922Y-95579474D01*
X140446447Y-94900000D01*
X140452661Y-94900000D01*
X140554394Y-94872741D01*
X140645606Y-94820080D01*
X140720080Y-94745606D01*
X140772741Y-94654394D01*
X140800000Y-94552661D01*
X140800000Y-94546447D01*
X141479474Y-95225921D01*
X141511859Y-95181349D01*
X141604755Y-94999031D01*
X141667990Y-94804417D01*
X141700000Y-94602317D01*
X141700000Y-94397682D01*
X141667990Y-94195582D01*
X141604755Y-94000968D01*
X141511859Y-93818650D01*
X141479474Y-93774077D01*
X141479474Y-93774076D01*
X140800000Y-94453551D01*
X140800000Y-94447339D01*
X140772741Y-94345606D01*
X140720080Y-94254394D01*
X140645606Y-94179920D01*
X140554394Y-94127259D01*
X140452661Y-94100000D01*
X140446446Y-94100000D01*
X141125922Y-93420524D01*
X141125921Y-93420523D01*
X141081359Y-93388147D01*
X141081350Y-93388141D01*
X141027621Y-93360765D01*
X140976825Y-93312791D01*
X140960030Y-93244970D01*
X140982567Y-93178835D01*
X141027621Y-93139795D01*
X141081610Y-93112287D01*
X141135399Y-93073207D01*
X141247213Y-92991971D01*
X141247215Y-92991968D01*
X141247219Y-92991966D01*
X141391966Y-92847219D01*
X141391968Y-92847215D01*
X141391971Y-92847213D01*
X141484337Y-92720080D01*
X141512287Y-92681610D01*
X141603382Y-92502827D01*
X141605218Y-92499223D01*
X141605218Y-92499222D01*
X141605220Y-92499219D01*
X141668477Y-92304534D01*
X141700500Y-92102352D01*
X141700500Y-91897648D01*
X141674484Y-91733389D01*
X146349500Y-91733389D01*
X146349500Y-91906610D01*
X146371647Y-92046446D01*
X146376598Y-92077701D01*
X146430127Y-92242445D01*
X146508768Y-92396788D01*
X146610586Y-92536928D01*
X146610588Y-92536930D01*
X146720977Y-92647319D01*
X146754462Y-92708642D01*
X146749478Y-92778334D01*
X146720977Y-92822681D01*
X146610588Y-92933069D01*
X146610588Y-92933070D01*
X146610586Y-92933072D01*
X146608844Y-92935470D01*
X146508768Y-93073211D01*
X146430128Y-93227552D01*
X146376597Y-93392302D01*
X146349500Y-93563389D01*
X146349500Y-93736610D01*
X146376597Y-93907697D01*
X146376597Y-93907699D01*
X146376598Y-93907701D01*
X146423739Y-94052786D01*
X146430128Y-94072447D01*
X146508768Y-94226788D01*
X146554130Y-94289223D01*
X146577610Y-94355030D01*
X146561785Y-94423084D01*
X146528125Y-94461374D01*
X146492811Y-94487810D01*
X146492809Y-94487812D01*
X146406649Y-94602906D01*
X146406645Y-94602913D01*
X146356403Y-94737620D01*
X146356401Y-94737627D01*
X146350000Y-94797155D01*
X146350000Y-95195000D01*
X147224722Y-95195000D01*
X147180667Y-95271306D01*
X147150000Y-95385756D01*
X147150000Y-95504244D01*
X147180667Y-95618694D01*
X147224722Y-95695000D01*
X146350000Y-95695000D01*
X146350000Y-96092844D01*
X146356401Y-96152372D01*
X146356403Y-96152379D01*
X146406645Y-96287086D01*
X146406649Y-96287093D01*
X146492809Y-96402187D01*
X146492812Y-96402190D01*
X146607906Y-96488350D01*
X146607913Y-96488354D01*
X146742620Y-96538596D01*
X146742627Y-96538598D01*
X146802155Y-96544999D01*
X146802172Y-96545000D01*
X147350000Y-96545000D01*
X147350000Y-95820277D01*
X147426306Y-95864333D01*
X147540756Y-95895000D01*
X147659244Y-95895000D01*
X147773694Y-95864333D01*
X147850000Y-95820277D01*
X147850000Y-96545000D01*
X148397828Y-96545000D01*
X148397844Y-96544999D01*
X148457372Y-96538598D01*
X148457379Y-96538596D01*
X148592086Y-96488354D01*
X148592093Y-96488350D01*
X148707187Y-96402190D01*
X148707190Y-96402187D01*
X148793350Y-96287093D01*
X148793354Y-96287086D01*
X148843596Y-96152379D01*
X148843598Y-96152372D01*
X148849999Y-96092844D01*
X148850000Y-96092827D01*
X148850000Y-95695000D01*
X147975278Y-95695000D01*
X148019333Y-95618694D01*
X148050000Y-95504244D01*
X148050000Y-95385756D01*
X148019333Y-95271306D01*
X147975278Y-95195000D01*
X148850000Y-95195000D01*
X148850000Y-94797172D01*
X148849999Y-94797155D01*
X148843598Y-94737627D01*
X148843596Y-94737620D01*
X148793354Y-94602913D01*
X148793350Y-94602906D01*
X148707190Y-94487812D01*
X148671875Y-94461375D01*
X148630005Y-94405441D01*
X148625021Y-94335749D01*
X148645870Y-94289223D01*
X148691232Y-94226788D01*
X148769873Y-94072445D01*
X148792535Y-94002699D01*
X149699500Y-94002699D01*
X149699500Y-94637300D01*
X149737815Y-95270718D01*
X149751783Y-95385756D01*
X149814305Y-95900674D01*
X149909701Y-96421231D01*
X149928693Y-96524867D01*
X150080557Y-97141005D01*
X150080562Y-97141021D01*
X150269345Y-97746847D01*
X150494370Y-98340191D01*
X150742799Y-98892179D01*
X150754816Y-98918878D01*
X150946319Y-99283757D01*
X151049727Y-99480783D01*
X151378009Y-100023828D01*
X151378025Y-100023853D01*
X151738498Y-100546088D01*
X152129852Y-101045616D01*
X152129853Y-101045617D01*
X152550656Y-101520605D01*
X152550690Y-101520641D01*
X152999358Y-101969309D01*
X152999394Y-101969343D01*
X153474382Y-102390146D01*
X153474383Y-102390147D01*
X153973911Y-102781501D01*
X154455548Y-103113951D01*
X154496162Y-103141985D01*
X155039226Y-103470278D01*
X155601122Y-103765184D01*
X156179798Y-104025625D01*
X156179805Y-104025627D01*
X156179808Y-104025629D01*
X156278973Y-104063237D01*
X156773144Y-104250652D01*
X157378994Y-104439442D01*
X157995138Y-104591308D01*
X158619326Y-104705695D01*
X159249283Y-104782185D01*
X159882708Y-104820500D01*
X159882721Y-104820500D01*
X160517279Y-104820500D01*
X160517292Y-104820500D01*
X161150717Y-104782185D01*
X161780674Y-104705695D01*
X162404862Y-104591308D01*
X163021006Y-104439442D01*
X163626856Y-104250652D01*
X163738603Y-104208272D01*
X172593577Y-104208272D01*
X172625600Y-104410457D01*
X172688859Y-104605146D01*
X172695514Y-104618206D01*
X172779656Y-104783343D01*
X172781793Y-104787536D01*
X172902106Y-104953136D01*
X173046864Y-105097894D01*
X173201827Y-105210479D01*
X173212468Y-105218210D01*
X173328685Y-105277426D01*
X173394854Y-105311141D01*
X173394856Y-105311141D01*
X173394859Y-105311143D01*
X173499215Y-105345050D01*
X173589543Y-105374400D01*
X173690635Y-105390411D01*
X173791726Y-105406423D01*
X173791727Y-105406423D01*
X173996429Y-105406423D01*
X173996430Y-105406423D01*
X174198612Y-105374400D01*
X174393297Y-105311143D01*
X174575688Y-105218210D01*
X174709296Y-105121139D01*
X174741291Y-105097894D01*
X174741293Y-105097891D01*
X174741297Y-105097889D01*
X174886044Y-104953142D01*
X174886046Y-104953138D01*
X174886049Y-104953136D01*
X174982413Y-104820500D01*
X175006365Y-104787533D01*
X175099298Y-104605142D01*
X175162555Y-104410457D01*
X175194578Y-104208275D01*
X175194578Y-104003571D01*
X175162555Y-103801388D01*
X175099296Y-103606699D01*
X175029782Y-103470272D01*
X175006365Y-103424313D01*
X174961142Y-103362068D01*
X174886049Y-103258709D01*
X174741291Y-103113951D01*
X174575691Y-102993638D01*
X174575690Y-102993637D01*
X174575688Y-102993636D01*
X174518731Y-102964614D01*
X174393301Y-102900704D01*
X174198612Y-102837445D01*
X174024073Y-102809801D01*
X173996430Y-102805423D01*
X173791726Y-102805423D01*
X173767407Y-102809274D01*
X173589543Y-102837445D01*
X173394854Y-102900704D01*
X173212464Y-102993638D01*
X173046864Y-103113951D01*
X172902106Y-103258709D01*
X172781793Y-103424309D01*
X172688859Y-103606699D01*
X172625600Y-103801388D01*
X172593578Y-104003571D01*
X172593578Y-104208272D01*
X172593577Y-104208272D01*
X163738603Y-104208272D01*
X164220202Y-104025625D01*
X164798878Y-103765184D01*
X165360774Y-103470278D01*
X165903838Y-103141985D01*
X166426090Y-102781500D01*
X166687627Y-102576598D01*
X166925616Y-102390147D01*
X166925617Y-102390146D01*
X166925623Y-102390141D01*
X167400616Y-101969334D01*
X167849334Y-101520616D01*
X168270141Y-101045623D01*
X168270146Y-101045617D01*
X168270147Y-101045616D01*
X168458648Y-100805011D01*
X168661500Y-100546090D01*
X169021985Y-100023838D01*
X169350278Y-99480774D01*
X169645184Y-98918878D01*
X169905625Y-98340202D01*
X170130652Y-97746856D01*
X170319442Y-97141006D01*
X170471308Y-96524862D01*
X170585695Y-95900674D01*
X170662185Y-95270717D01*
X170700500Y-94637292D01*
X170700500Y-94002708D01*
X170673926Y-93563389D01*
X171549500Y-93563389D01*
X171549500Y-93736610D01*
X171576597Y-93907697D01*
X171576597Y-93907699D01*
X171576598Y-93907701D01*
X171630127Y-94072445D01*
X171708768Y-94226788D01*
X171810586Y-94366928D01*
X171810588Y-94366930D01*
X171920977Y-94477319D01*
X171954462Y-94538642D01*
X171949478Y-94608334D01*
X171920977Y-94652681D01*
X171810588Y-94763069D01*
X171810588Y-94763070D01*
X171810586Y-94763072D01*
X171785823Y-94797155D01*
X171708768Y-94903211D01*
X171630128Y-95057552D01*
X171576597Y-95222302D01*
X171576024Y-95225921D01*
X171549500Y-95393389D01*
X171549500Y-95566611D01*
X171576598Y-95737701D01*
X171630127Y-95902445D01*
X171708768Y-96056788D01*
X171810586Y-96196928D01*
X171933072Y-96319414D01*
X172073212Y-96421232D01*
X172227555Y-96499873D01*
X172392299Y-96553402D01*
X172563389Y-96580500D01*
X172563390Y-96580500D01*
X173036610Y-96580500D01*
X173036611Y-96580500D01*
X173207701Y-96553402D01*
X173372445Y-96499873D01*
X173526788Y-96421232D01*
X173666928Y-96319414D01*
X173789414Y-96196928D01*
X173891232Y-96056788D01*
X173969873Y-95902445D01*
X174023402Y-95737701D01*
X174050500Y-95566611D01*
X174050500Y-95393389D01*
X174023402Y-95222299D01*
X173969873Y-95057555D01*
X173891232Y-94903212D01*
X173814535Y-94797648D01*
X178499500Y-94797648D01*
X178499500Y-95002351D01*
X178531522Y-95204534D01*
X178594781Y-95399223D01*
X178687715Y-95581613D01*
X178808028Y-95747213D01*
X178952786Y-95891971D01*
X179107749Y-96004556D01*
X179118390Y-96012287D01*
X179205728Y-96056788D01*
X179300776Y-96105218D01*
X179300778Y-96105218D01*
X179300781Y-96105220D01*
X179405137Y-96139127D01*
X179495465Y-96168477D01*
X179596557Y-96184488D01*
X179697648Y-96200500D01*
X179697649Y-96200500D01*
X179902351Y-96200500D01*
X179902352Y-96200500D01*
X180104534Y-96168477D01*
X180299219Y-96105220D01*
X180481610Y-96012287D01*
X180574590Y-95944732D01*
X180647213Y-95891971D01*
X180647215Y-95891968D01*
X180647219Y-95891966D01*
X180791966Y-95747219D01*
X180791968Y-95747215D01*
X180791971Y-95747213D01*
X180885344Y-95618694D01*
X180912287Y-95581610D01*
X181005220Y-95399219D01*
X181068477Y-95204534D01*
X181100500Y-95002352D01*
X181100500Y-94797648D01*
X181092257Y-94745606D01*
X181068477Y-94595465D01*
X181024908Y-94461374D01*
X181005220Y-94400781D01*
X181005218Y-94400778D01*
X181005218Y-94400776D01*
X180948378Y-94289223D01*
X180912287Y-94218390D01*
X180884337Y-94179920D01*
X180791971Y-94052786D01*
X180647213Y-93908028D01*
X180481611Y-93787713D01*
X180427621Y-93760203D01*
X180376825Y-93712228D01*
X180360031Y-93644407D01*
X180382569Y-93578272D01*
X180427624Y-93539233D01*
X180481349Y-93511859D01*
X180525921Y-93479474D01*
X179846447Y-92800000D01*
X179852661Y-92800000D01*
X179954394Y-92772741D01*
X180045606Y-92720080D01*
X180120080Y-92645606D01*
X180172741Y-92554394D01*
X180200000Y-92452661D01*
X180200000Y-92446448D01*
X180879474Y-93125922D01*
X180879474Y-93125921D01*
X180911859Y-93081349D01*
X181004755Y-92899031D01*
X181067990Y-92704417D01*
X181100000Y-92502317D01*
X181100000Y-92297682D01*
X181067990Y-92095582D01*
X181004755Y-91900968D01*
X180911859Y-91718650D01*
X180879474Y-91674077D01*
X180879474Y-91674076D01*
X180200000Y-92353551D01*
X180200000Y-92347339D01*
X180172741Y-92245606D01*
X180120080Y-92154394D01*
X180045606Y-92079920D01*
X179954394Y-92027259D01*
X179852661Y-92000000D01*
X179846446Y-92000000D01*
X180525922Y-91320524D01*
X180525921Y-91320523D01*
X180481359Y-91288147D01*
X180481350Y-91288141D01*
X180299031Y-91195244D01*
X180104417Y-91132009D01*
X179902317Y-91100000D01*
X179697683Y-91100000D01*
X179495582Y-91132009D01*
X179300968Y-91195244D01*
X179118644Y-91288143D01*
X179074077Y-91320523D01*
X179074077Y-91320524D01*
X179753554Y-92000000D01*
X179747339Y-92000000D01*
X179645606Y-92027259D01*
X179554394Y-92079920D01*
X179479920Y-92154394D01*
X179427259Y-92245606D01*
X179400000Y-92347339D01*
X179400000Y-92353553D01*
X178720524Y-91674077D01*
X178720523Y-91674077D01*
X178688143Y-91718644D01*
X178595244Y-91900968D01*
X178532009Y-92095582D01*
X178500000Y-92297682D01*
X178500000Y-92502317D01*
X178532009Y-92704417D01*
X178595244Y-92899031D01*
X178688141Y-93081350D01*
X178688147Y-93081359D01*
X178720523Y-93125921D01*
X178720524Y-93125922D01*
X179400000Y-92446446D01*
X179400000Y-92452661D01*
X179427259Y-92554394D01*
X179479920Y-92645606D01*
X179554394Y-92720080D01*
X179645606Y-92772741D01*
X179747339Y-92800000D01*
X179753553Y-92800000D01*
X179074076Y-93479474D01*
X179118652Y-93511861D01*
X179172376Y-93539234D01*
X179223172Y-93587208D01*
X179239968Y-93655028D01*
X179217431Y-93721164D01*
X179172379Y-93760203D01*
X179118386Y-93787714D01*
X178952786Y-93908028D01*
X178808028Y-94052786D01*
X178687715Y-94218386D01*
X178594781Y-94400776D01*
X178531522Y-94595465D01*
X178499500Y-94797648D01*
X173814535Y-94797648D01*
X173789414Y-94763072D01*
X173679023Y-94652681D01*
X173645538Y-94591358D01*
X173650522Y-94521666D01*
X173679023Y-94477319D01*
X173733258Y-94423084D01*
X173789414Y-94366928D01*
X173891232Y-94226788D01*
X173969873Y-94072445D01*
X174023402Y-93907701D01*
X174050500Y-93736611D01*
X174050500Y-93563389D01*
X174023402Y-93392299D01*
X173969873Y-93227555D01*
X173891232Y-93073212D01*
X173845868Y-93010774D01*
X173822389Y-92944970D01*
X173838214Y-92876916D01*
X173871877Y-92838623D01*
X173907189Y-92812188D01*
X173907190Y-92812187D01*
X173993350Y-92697093D01*
X173993354Y-92697086D01*
X174043596Y-92562379D01*
X174043598Y-92562372D01*
X174049999Y-92502844D01*
X174050000Y-92502827D01*
X174050000Y-92105000D01*
X173175278Y-92105000D01*
X173219333Y-92028694D01*
X173250000Y-91914244D01*
X173250000Y-91795756D01*
X173219333Y-91681306D01*
X173175278Y-91605000D01*
X174050000Y-91605000D01*
X174050000Y-91207172D01*
X174049999Y-91207155D01*
X174043598Y-91147627D01*
X174043596Y-91147620D01*
X173993354Y-91012913D01*
X173993350Y-91012906D01*
X173907190Y-90897812D01*
X173907187Y-90897809D01*
X173792093Y-90811649D01*
X173792086Y-90811645D01*
X173657379Y-90761403D01*
X173657372Y-90761401D01*
X173597844Y-90755000D01*
X173050000Y-90755000D01*
X173050000Y-91479722D01*
X172973694Y-91435667D01*
X172859244Y-91405000D01*
X172740756Y-91405000D01*
X172626306Y-91435667D01*
X172550000Y-91479722D01*
X172550000Y-90755000D01*
X172002155Y-90755000D01*
X171942627Y-90761401D01*
X171942620Y-90761403D01*
X171807913Y-90811645D01*
X171807906Y-90811649D01*
X171692812Y-90897809D01*
X171692809Y-90897812D01*
X171606649Y-91012906D01*
X171606645Y-91012913D01*
X171556403Y-91147620D01*
X171556401Y-91147627D01*
X171550000Y-91207155D01*
X171550000Y-91605000D01*
X172424722Y-91605000D01*
X172380667Y-91681306D01*
X172350000Y-91795756D01*
X172350000Y-91914244D01*
X172380667Y-92028694D01*
X172424722Y-92105000D01*
X171550000Y-92105000D01*
X171550000Y-92502844D01*
X171556401Y-92562372D01*
X171556403Y-92562379D01*
X171606645Y-92697086D01*
X171606649Y-92697093D01*
X171692809Y-92812186D01*
X171728123Y-92838623D01*
X171769994Y-92894557D01*
X171774978Y-92964249D01*
X171754130Y-93010775D01*
X171708770Y-93073207D01*
X171630128Y-93227552D01*
X171576597Y-93392302D01*
X171549500Y-93563389D01*
X170673926Y-93563389D01*
X170662185Y-93369283D01*
X170585695Y-92739326D01*
X170471308Y-92115138D01*
X170319442Y-91498994D01*
X170299709Y-91435667D01*
X170238968Y-91240741D01*
X170166451Y-91008028D01*
X170130652Y-90893144D01*
X169905625Y-90299798D01*
X169645184Y-89721122D01*
X169350278Y-89159226D01*
X169021985Y-88616162D01*
X168661500Y-88093910D01*
X168270147Y-87594383D01*
X168270146Y-87594382D01*
X167849343Y-87119394D01*
X167849309Y-87119358D01*
X167400641Y-86670690D01*
X167400605Y-86670656D01*
X166925617Y-86249853D01*
X166925616Y-86249852D01*
X166426088Y-85858498D01*
X165903853Y-85498025D01*
X165903845Y-85498020D01*
X165903838Y-85498015D01*
X165711816Y-85381934D01*
X165360783Y-85169727D01*
X165360777Y-85169724D01*
X165360774Y-85169722D01*
X164798878Y-84874816D01*
X164798876Y-84874815D01*
X164798872Y-84874813D01*
X164220191Y-84614370D01*
X163824353Y-84464249D01*
X163626856Y-84389348D01*
X163626849Y-84389346D01*
X163626847Y-84389345D01*
X163021021Y-84200562D01*
X163021005Y-84200557D01*
X162404867Y-84048693D01*
X162404862Y-84048692D01*
X161780674Y-83934305D01*
X161353889Y-83882484D01*
X161150718Y-83857815D01*
X160517300Y-83819500D01*
X160517292Y-83819500D01*
X159882708Y-83819500D01*
X159882699Y-83819500D01*
X159249281Y-83857815D01*
X158619333Y-83934304D01*
X158619330Y-83934304D01*
X158619326Y-83934305D01*
X158360188Y-83981794D01*
X157995132Y-84048693D01*
X157378994Y-84200557D01*
X157378978Y-84200562D01*
X156773152Y-84389345D01*
X156179808Y-84614370D01*
X155601127Y-84874813D01*
X155039216Y-85169727D01*
X154496171Y-85498009D01*
X154496146Y-85498025D01*
X153973911Y-85858498D01*
X153474383Y-86249852D01*
X153474382Y-86249853D01*
X152999394Y-86670656D01*
X152999358Y-86670690D01*
X152550690Y-87119358D01*
X152550656Y-87119394D01*
X152129853Y-87594382D01*
X152129852Y-87594383D01*
X151738498Y-88093911D01*
X151378025Y-88616146D01*
X151378009Y-88616171D01*
X151049727Y-89159216D01*
X150754813Y-89721127D01*
X150494370Y-90299808D01*
X150269345Y-90893152D01*
X150080562Y-91498978D01*
X150080557Y-91498994D01*
X149928693Y-92115132D01*
X149928692Y-92115138D01*
X149820703Y-92704417D01*
X149814304Y-92739333D01*
X149737815Y-93369281D01*
X149699500Y-94002699D01*
X148792535Y-94002699D01*
X148823402Y-93907701D01*
X148850500Y-93736611D01*
X148850500Y-93563389D01*
X148823402Y-93392299D01*
X148769873Y-93227555D01*
X148691232Y-93073212D01*
X148589414Y-92933072D01*
X148479023Y-92822681D01*
X148445538Y-92761358D01*
X148450522Y-92691666D01*
X148479023Y-92647319D01*
X148496215Y-92630127D01*
X148589414Y-92536928D01*
X148691232Y-92396788D01*
X148769873Y-92242445D01*
X148823402Y-92077701D01*
X148850500Y-91906611D01*
X148850500Y-91733389D01*
X148823402Y-91562299D01*
X148769873Y-91397555D01*
X148691232Y-91243212D01*
X148589414Y-91103072D01*
X148466928Y-90980586D01*
X148326788Y-90878768D01*
X148172445Y-90800127D01*
X148007701Y-90746598D01*
X148007699Y-90746597D01*
X148007698Y-90746597D01*
X147876271Y-90725781D01*
X147836611Y-90719500D01*
X147363389Y-90719500D01*
X147323728Y-90725781D01*
X147192302Y-90746597D01*
X147027552Y-90800128D01*
X146873211Y-90878768D01*
X146847004Y-90897809D01*
X146733072Y-90980586D01*
X146733070Y-90980588D01*
X146733069Y-90980588D01*
X146610588Y-91103069D01*
X146610588Y-91103070D01*
X146610586Y-91103072D01*
X146589562Y-91132009D01*
X146508768Y-91243211D01*
X146430128Y-91397552D01*
X146376597Y-91562302D01*
X146349500Y-91733389D01*
X141674484Y-91733389D01*
X141668477Y-91695466D01*
X141661527Y-91674077D01*
X141605218Y-91500776D01*
X141556417Y-91405000D01*
X141512287Y-91318390D01*
X141504556Y-91307749D01*
X141391971Y-91152786D01*
X141247213Y-91008028D01*
X141081613Y-90887715D01*
X141081612Y-90887714D01*
X141081610Y-90887713D01*
X141024653Y-90858691D01*
X140899223Y-90794781D01*
X140704534Y-90731522D01*
X140529995Y-90703878D01*
X140502352Y-90699500D01*
X140297648Y-90699500D01*
X140273329Y-90703351D01*
X140095465Y-90731522D01*
X139900776Y-90794781D01*
X139718386Y-90887715D01*
X139552786Y-91008028D01*
X139408028Y-91152786D01*
X139287715Y-91318386D01*
X139194781Y-91500776D01*
X139131522Y-91695465D01*
X139115638Y-91795756D01*
X139099500Y-91897648D01*
X136220500Y-91897648D01*
X136220500Y-83991726D01*
X144805423Y-83991726D01*
X144805423Y-84196430D01*
X144809801Y-84224073D01*
X144837445Y-84398612D01*
X144900704Y-84593301D01*
X144993638Y-84775691D01*
X145113951Y-84941291D01*
X145258709Y-85086049D01*
X145413672Y-85198634D01*
X145424313Y-85206365D01*
X145540530Y-85265581D01*
X145606699Y-85299296D01*
X145606701Y-85299296D01*
X145606704Y-85299298D01*
X145711060Y-85333205D01*
X145801388Y-85362555D01*
X145902480Y-85378566D01*
X146003571Y-85394578D01*
X146003572Y-85394578D01*
X146208274Y-85394578D01*
X146208275Y-85394578D01*
X146410457Y-85362555D01*
X146605142Y-85299298D01*
X146787533Y-85206365D01*
X146880513Y-85138810D01*
X146953136Y-85086049D01*
X146953138Y-85086046D01*
X146953142Y-85086044D01*
X147097889Y-84941297D01*
X147097891Y-84941293D01*
X147097894Y-84941291D01*
X147150655Y-84868668D01*
X147218210Y-84775688D01*
X147311143Y-84593297D01*
X147374400Y-84398612D01*
X147406423Y-84196430D01*
X147406423Y-83991726D01*
X147377063Y-83806359D01*
X173365759Y-83806359D01*
X173365759Y-83981794D01*
X173365760Y-83981805D01*
X173406219Y-84152509D01*
X173430350Y-84200557D01*
X173484957Y-84309292D01*
X173550214Y-84389399D01*
X174398755Y-85237938D01*
X174478862Y-85303197D01*
X174635644Y-85381934D01*
X174806356Y-85422395D01*
X174806359Y-85422395D01*
X174981795Y-85422395D01*
X174981798Y-85422395D01*
X175152510Y-85381934D01*
X175309292Y-85303197D01*
X175389399Y-85237940D01*
X176237938Y-84389399D01*
X176303197Y-84309292D01*
X176381934Y-84152510D01*
X176422395Y-83981798D01*
X176422395Y-83806356D01*
X176381934Y-83635644D01*
X176303197Y-83478862D01*
X176237940Y-83398755D01*
X175389399Y-82550216D01*
X175389385Y-82550205D01*
X175357253Y-82524028D01*
X175309292Y-82484957D01*
X175309290Y-82484956D01*
X175309289Y-82484955D01*
X175152509Y-82406219D01*
X174981805Y-82365760D01*
X174981800Y-82365759D01*
X174981798Y-82365759D01*
X174806356Y-82365759D01*
X174806354Y-82365759D01*
X174806348Y-82365760D01*
X174635644Y-82406219D01*
X174478862Y-82484956D01*
X174398765Y-82550205D01*
X174398747Y-82550221D01*
X173550219Y-83398751D01*
X173550210Y-83398761D01*
X173484955Y-83478864D01*
X173406219Y-83635644D01*
X173365760Y-83806348D01*
X173365759Y-83806359D01*
X147377063Y-83806359D01*
X147374400Y-83789544D01*
X147311143Y-83594859D01*
X147311141Y-83594856D01*
X147311141Y-83594854D01*
X147277426Y-83528685D01*
X147218210Y-83412468D01*
X147208241Y-83398747D01*
X147097894Y-83246864D01*
X146953136Y-83102106D01*
X146787536Y-82981793D01*
X146787535Y-82981792D01*
X146787533Y-82981791D01*
X146730576Y-82952769D01*
X146605146Y-82888859D01*
X146410457Y-82825600D01*
X146235918Y-82797956D01*
X146208275Y-82793578D01*
X146003571Y-82793578D01*
X145979252Y-82797429D01*
X145801388Y-82825600D01*
X145606699Y-82888859D01*
X145424309Y-82981793D01*
X145258709Y-83102106D01*
X145113951Y-83246864D01*
X144993638Y-83412464D01*
X144900704Y-83594854D01*
X144837445Y-83789543D01*
X144806996Y-83981794D01*
X144805423Y-83991726D01*
X136220500Y-83991726D01*
X136220500Y-81002155D01*
X157475000Y-81002155D01*
X157475000Y-81550000D01*
X158199722Y-81550000D01*
X158155667Y-81626306D01*
X158125000Y-81740756D01*
X158125000Y-81859244D01*
X158155667Y-81973694D01*
X158199722Y-82050000D01*
X157475000Y-82050000D01*
X157475000Y-82597844D01*
X157481401Y-82657372D01*
X157481403Y-82657379D01*
X157531645Y-82792086D01*
X157531649Y-82792093D01*
X157617809Y-82907187D01*
X157617812Y-82907190D01*
X157732906Y-82993350D01*
X157732913Y-82993354D01*
X157867620Y-83043596D01*
X157867627Y-83043598D01*
X157927155Y-83049999D01*
X157927172Y-83050000D01*
X158325000Y-83050000D01*
X158325000Y-82175277D01*
X158401306Y-82219333D01*
X158515756Y-82250000D01*
X158634244Y-82250000D01*
X158748694Y-82219333D01*
X158825000Y-82175277D01*
X158825000Y-83050000D01*
X159222828Y-83050000D01*
X159222844Y-83049999D01*
X159282372Y-83043598D01*
X159282379Y-83043596D01*
X159417086Y-82993354D01*
X159417093Y-82993350D01*
X159532187Y-82907190D01*
X159532188Y-82907189D01*
X159558623Y-82871877D01*
X159614556Y-82830005D01*
X159684248Y-82825021D01*
X159730774Y-82845868D01*
X159793212Y-82891232D01*
X159947555Y-82969873D01*
X160112299Y-83023402D01*
X160283389Y-83050500D01*
X160283390Y-83050500D01*
X160456610Y-83050500D01*
X160456611Y-83050500D01*
X160627701Y-83023402D01*
X160792445Y-82969873D01*
X160946788Y-82891232D01*
X161086928Y-82789414D01*
X161197319Y-82679023D01*
X161258642Y-82645538D01*
X161328334Y-82650522D01*
X161372681Y-82679023D01*
X161483072Y-82789414D01*
X161623212Y-82891232D01*
X161777555Y-82969873D01*
X161942299Y-83023402D01*
X162113389Y-83050500D01*
X162113390Y-83050500D01*
X162286610Y-83050500D01*
X162286611Y-83050500D01*
X162457701Y-83023402D01*
X162622445Y-82969873D01*
X162776788Y-82891232D01*
X162916928Y-82789414D01*
X163039414Y-82666928D01*
X163141232Y-82526788D01*
X163219873Y-82372445D01*
X163273402Y-82207701D01*
X163300500Y-82036611D01*
X163300500Y-81563389D01*
X163273402Y-81392299D01*
X163219873Y-81227555D01*
X163141232Y-81073212D01*
X163039414Y-80933072D01*
X162916928Y-80810586D01*
X162776788Y-80708768D01*
X162622445Y-80630127D01*
X162457701Y-80576598D01*
X162457699Y-80576597D01*
X162457698Y-80576597D01*
X162326271Y-80555781D01*
X162286611Y-80549500D01*
X162113389Y-80549500D01*
X162073728Y-80555781D01*
X161942302Y-80576597D01*
X161777552Y-80630128D01*
X161623211Y-80708768D01*
X161596572Y-80728123D01*
X161483072Y-80810586D01*
X161483070Y-80810588D01*
X161483069Y-80810588D01*
X161372681Y-80920977D01*
X161311358Y-80954462D01*
X161241666Y-80949478D01*
X161197319Y-80920977D01*
X161086930Y-80810588D01*
X161086928Y-80810586D01*
X160946788Y-80708768D01*
X160792445Y-80630127D01*
X160627701Y-80576598D01*
X160627699Y-80576597D01*
X160627698Y-80576597D01*
X160496271Y-80555781D01*
X160456611Y-80549500D01*
X160283389Y-80549500D01*
X160243728Y-80555781D01*
X160112302Y-80576597D01*
X159947552Y-80630128D01*
X159793207Y-80708770D01*
X159730775Y-80754130D01*
X159664968Y-80777610D01*
X159596915Y-80761784D01*
X159558623Y-80728123D01*
X159532186Y-80692809D01*
X159417093Y-80606649D01*
X159417086Y-80606645D01*
X159282379Y-80556403D01*
X159282372Y-80556401D01*
X159222844Y-80550000D01*
X158825000Y-80550000D01*
X158825000Y-81424722D01*
X158748694Y-81380667D01*
X158634244Y-81350000D01*
X158515756Y-81350000D01*
X158401306Y-81380667D01*
X158325000Y-81424722D01*
X158325000Y-80550000D01*
X157927155Y-80550000D01*
X157867627Y-80556401D01*
X157867620Y-80556403D01*
X157732913Y-80606645D01*
X157732906Y-80606649D01*
X157617812Y-80692809D01*
X157617809Y-80692812D01*
X157531649Y-80807906D01*
X157531645Y-80807913D01*
X157481403Y-80942620D01*
X157481401Y-80942627D01*
X157475000Y-81002155D01*
X136220500Y-81002155D01*
X136220500Y-78618206D01*
X149965759Y-78618206D01*
X149965759Y-78793641D01*
X149965760Y-78793652D01*
X150006219Y-78964356D01*
X150084956Y-79121138D01*
X150150205Y-79201235D01*
X150150214Y-79201246D01*
X150998755Y-80049785D01*
X151078862Y-80115044D01*
X151235644Y-80193781D01*
X151406356Y-80234242D01*
X151406359Y-80234242D01*
X151581795Y-80234242D01*
X151581798Y-80234242D01*
X151752510Y-80193781D01*
X151909292Y-80115044D01*
X151989399Y-80049787D01*
X152837938Y-79201246D01*
X152903197Y-79121139D01*
X152981934Y-78964357D01*
X153022395Y-78793645D01*
X153022395Y-78618203D01*
X152981934Y-78447491D01*
X152981934Y-78447490D01*
X152959877Y-78403571D01*
X168205423Y-78403571D01*
X168205423Y-78608275D01*
X168206996Y-78618206D01*
X168237445Y-78810457D01*
X168300704Y-79005146D01*
X168393638Y-79187536D01*
X168513951Y-79353136D01*
X168658709Y-79497894D01*
X168813672Y-79610479D01*
X168824313Y-79618210D01*
X168940530Y-79677426D01*
X169006699Y-79711141D01*
X169006701Y-79711141D01*
X169006704Y-79711143D01*
X169111060Y-79745050D01*
X169201388Y-79774400D01*
X169302480Y-79790411D01*
X169403571Y-79806423D01*
X169403572Y-79806423D01*
X169608274Y-79806423D01*
X169608275Y-79806423D01*
X169810457Y-79774400D01*
X170005142Y-79711143D01*
X170187533Y-79618210D01*
X170280513Y-79550655D01*
X170353136Y-79497894D01*
X170353138Y-79497891D01*
X170353142Y-79497889D01*
X170497889Y-79353142D01*
X170497891Y-79353138D01*
X170497894Y-79353136D01*
X170550655Y-79280513D01*
X170618210Y-79187533D01*
X170711143Y-79005142D01*
X170774400Y-78810457D01*
X170806423Y-78608275D01*
X170806423Y-78403571D01*
X170774400Y-78201388D01*
X170711141Y-78006699D01*
X170650544Y-77887772D01*
X170618210Y-77824313D01*
X170583448Y-77776467D01*
X170497894Y-77658709D01*
X170353136Y-77513951D01*
X170187536Y-77393638D01*
X170187535Y-77393637D01*
X170187533Y-77393636D01*
X170125577Y-77362068D01*
X170005146Y-77300704D01*
X169810457Y-77237445D01*
X169635918Y-77209801D01*
X169608275Y-77205423D01*
X169403571Y-77205423D01*
X169379252Y-77209274D01*
X169201388Y-77237445D01*
X169006699Y-77300704D01*
X168824309Y-77393638D01*
X168658709Y-77513951D01*
X168513951Y-77658709D01*
X168393638Y-77824309D01*
X168300704Y-78006699D01*
X168237445Y-78201388D01*
X168205423Y-78403571D01*
X152959877Y-78403571D01*
X152903197Y-78290709D01*
X152837948Y-78210612D01*
X152837940Y-78210602D01*
X151989399Y-77362063D01*
X151989385Y-77362052D01*
X151914078Y-77300703D01*
X151909292Y-77296804D01*
X151909290Y-77296803D01*
X151909289Y-77296802D01*
X151752509Y-77218066D01*
X151581805Y-77177607D01*
X151581800Y-77177606D01*
X151581798Y-77177606D01*
X151406356Y-77177606D01*
X151406354Y-77177606D01*
X151406348Y-77177607D01*
X151235644Y-77218066D01*
X151078862Y-77296803D01*
X150998765Y-77362052D01*
X150998747Y-77362068D01*
X150150219Y-78210598D01*
X150150210Y-78210608D01*
X150084955Y-78290711D01*
X150006219Y-78447491D01*
X149965760Y-78618195D01*
X149965759Y-78618206D01*
X136220500Y-78618206D01*
X136220500Y-75031491D01*
X137999500Y-75031491D01*
X137999500Y-75368508D01*
X138037231Y-75703381D01*
X138037233Y-75703397D01*
X138112223Y-76031953D01*
X138112227Y-76031965D01*
X138223532Y-76350054D01*
X138369752Y-76653683D01*
X138369754Y-76653686D01*
X138549054Y-76939039D01*
X138759175Y-77202523D01*
X138997477Y-77440825D01*
X139260961Y-77650946D01*
X139546314Y-77830246D01*
X139849949Y-77976469D01*
X140088848Y-78060063D01*
X140168034Y-78087772D01*
X140168046Y-78087776D01*
X140496606Y-78162767D01*
X140831492Y-78200499D01*
X140831493Y-78200500D01*
X140831496Y-78200500D01*
X141168507Y-78200500D01*
X141168507Y-78200499D01*
X141503394Y-78162767D01*
X141831954Y-78087776D01*
X142150051Y-77976469D01*
X142453686Y-77830246D01*
X142739039Y-77650946D01*
X143002523Y-77440825D01*
X143240825Y-77202523D01*
X143450946Y-76939039D01*
X143630246Y-76653686D01*
X143776469Y-76350051D01*
X143887776Y-76031954D01*
X143962767Y-75703394D01*
X144000500Y-75368504D01*
X144000500Y-75031496D01*
X143985423Y-74897682D01*
X157400000Y-74897682D01*
X157400000Y-75102317D01*
X157432009Y-75304417D01*
X157495244Y-75499031D01*
X157588141Y-75681350D01*
X157588147Y-75681359D01*
X157620523Y-75725921D01*
X157620524Y-75725922D01*
X158300000Y-75046446D01*
X158300000Y-75052661D01*
X158327259Y-75154394D01*
X158379920Y-75245606D01*
X158454394Y-75320080D01*
X158545606Y-75372741D01*
X158647339Y-75400000D01*
X158653553Y-75400000D01*
X157974076Y-76079474D01*
X158018650Y-76111859D01*
X158200968Y-76204755D01*
X158395582Y-76267990D01*
X158597683Y-76300000D01*
X158802317Y-76300000D01*
X159004417Y-76267990D01*
X159199031Y-76204755D01*
X159381349Y-76111859D01*
X159425921Y-76079474D01*
X158746447Y-75400000D01*
X158752661Y-75400000D01*
X158854394Y-75372741D01*
X158945606Y-75320080D01*
X159020080Y-75245606D01*
X159072741Y-75154394D01*
X159100000Y-75052661D01*
X159100000Y-75046447D01*
X159779474Y-75725921D01*
X159811859Y-75681349D01*
X159839233Y-75627624D01*
X159887207Y-75576827D01*
X159955028Y-75560031D01*
X160021163Y-75582567D01*
X160060203Y-75627621D01*
X160087713Y-75681611D01*
X160208028Y-75847213D01*
X160352786Y-75991971D01*
X160473226Y-76079474D01*
X160518390Y-76112287D01*
X160592512Y-76150054D01*
X160700776Y-76205218D01*
X160700778Y-76205218D01*
X160700781Y-76205220D01*
X160805137Y-76239127D01*
X160895465Y-76268477D01*
X160996557Y-76284488D01*
X161097648Y-76300500D01*
X161097649Y-76300500D01*
X161302351Y-76300500D01*
X161302352Y-76300500D01*
X161504534Y-76268477D01*
X161699219Y-76205220D01*
X161881610Y-76112287D01*
X161992181Y-76031953D01*
X162047213Y-75991971D01*
X162047215Y-75991968D01*
X162047219Y-75991966D01*
X162191966Y-75847219D01*
X162191968Y-75847215D01*
X162191971Y-75847213D01*
X162244732Y-75774590D01*
X162312287Y-75681610D01*
X162405220Y-75499219D01*
X162468477Y-75304534D01*
X162500500Y-75102352D01*
X162500500Y-74897648D01*
X162492257Y-74845606D01*
X162490021Y-74831491D01*
X176599500Y-74831491D01*
X176599500Y-75168508D01*
X176637231Y-75503381D01*
X176637233Y-75503397D01*
X176712223Y-75831953D01*
X176712227Y-75831965D01*
X176823532Y-76150054D01*
X176969752Y-76453683D01*
X176969754Y-76453686D01*
X177149054Y-76739039D01*
X177359175Y-77002523D01*
X177597477Y-77240825D01*
X177860961Y-77450946D01*
X178146314Y-77630246D01*
X178449949Y-77776469D01*
X178603635Y-77830246D01*
X178768034Y-77887772D01*
X178768046Y-77887776D01*
X179096606Y-77962767D01*
X179431492Y-78000499D01*
X179431493Y-78000500D01*
X179431496Y-78000500D01*
X179768507Y-78000500D01*
X179768507Y-78000499D01*
X180103394Y-77962767D01*
X180431954Y-77887776D01*
X180750051Y-77776469D01*
X181053686Y-77630246D01*
X181339039Y-77450946D01*
X181602523Y-77240825D01*
X181840825Y-77002523D01*
X182050946Y-76739039D01*
X182230246Y-76453686D01*
X182376469Y-76150051D01*
X182487776Y-75831954D01*
X182562767Y-75503394D01*
X182600500Y-75168504D01*
X182600500Y-74831496D01*
X182562767Y-74496606D01*
X182487776Y-74168046D01*
X182376469Y-73849949D01*
X182230246Y-73546314D01*
X182050946Y-73260961D01*
X181840825Y-72997477D01*
X181602523Y-72759175D01*
X181589830Y-72749053D01*
X181535606Y-72705811D01*
X181339039Y-72549054D01*
X181053686Y-72369754D01*
X181053683Y-72369752D01*
X180750054Y-72223532D01*
X180431965Y-72112227D01*
X180431953Y-72112223D01*
X180103397Y-72037233D01*
X180103381Y-72037231D01*
X179768508Y-71999500D01*
X179768504Y-71999500D01*
X179431496Y-71999500D01*
X179431491Y-71999500D01*
X179096618Y-72037231D01*
X179096602Y-72037233D01*
X178768046Y-72112223D01*
X178768034Y-72112227D01*
X178449945Y-72223532D01*
X178146316Y-72369752D01*
X177860962Y-72549053D01*
X177597477Y-72759174D01*
X177359174Y-72997477D01*
X177149053Y-73260962D01*
X176969752Y-73546316D01*
X176823532Y-73849945D01*
X176712227Y-74168034D01*
X176712223Y-74168046D01*
X176637233Y-74496602D01*
X176637231Y-74496618D01*
X176599500Y-74831491D01*
X162490021Y-74831491D01*
X162468477Y-74695465D01*
X162437458Y-74600000D01*
X162405220Y-74500781D01*
X162405218Y-74500778D01*
X162405218Y-74500776D01*
X162362750Y-74417429D01*
X162312287Y-74318390D01*
X162280092Y-74274077D01*
X162191971Y-74152786D01*
X162047213Y-74008028D01*
X161881613Y-73887715D01*
X161881612Y-73887714D01*
X161881610Y-73887713D01*
X161807494Y-73849949D01*
X161699223Y-73794781D01*
X161504534Y-73731522D01*
X161329995Y-73703878D01*
X161302352Y-73699500D01*
X161097648Y-73699500D01*
X161073329Y-73703351D01*
X160895465Y-73731522D01*
X160700776Y-73794781D01*
X160518386Y-73887715D01*
X160352786Y-74008028D01*
X160208028Y-74152786D01*
X160087714Y-74318386D01*
X160060203Y-74372379D01*
X160012227Y-74423174D01*
X159944406Y-74439968D01*
X159878272Y-74417429D01*
X159839234Y-74372376D01*
X159811861Y-74318652D01*
X159779474Y-74274077D01*
X159779474Y-74274076D01*
X159100000Y-74953551D01*
X159100000Y-74947339D01*
X159072741Y-74845606D01*
X159020080Y-74754394D01*
X158945606Y-74679920D01*
X158854394Y-74627259D01*
X158752661Y-74600000D01*
X158746446Y-74600000D01*
X159425922Y-73920524D01*
X159425921Y-73920523D01*
X159381359Y-73888147D01*
X159381350Y-73888141D01*
X159199031Y-73795244D01*
X159004417Y-73732009D01*
X158802317Y-73700000D01*
X158597683Y-73700000D01*
X158395582Y-73732009D01*
X158200968Y-73795244D01*
X158018644Y-73888143D01*
X157974077Y-73920523D01*
X157974077Y-73920524D01*
X158653554Y-74600000D01*
X158647339Y-74600000D01*
X158545606Y-74627259D01*
X158454394Y-74679920D01*
X158379920Y-74754394D01*
X158327259Y-74845606D01*
X158300000Y-74947339D01*
X158300000Y-74953553D01*
X157620524Y-74274077D01*
X157620523Y-74274077D01*
X157588143Y-74318644D01*
X157495244Y-74500968D01*
X157432009Y-74695582D01*
X157400000Y-74897682D01*
X143985423Y-74897682D01*
X143979759Y-74847414D01*
X143962769Y-74696620D01*
X143962766Y-74696602D01*
X143962506Y-74695465D01*
X143887776Y-74368046D01*
X143870489Y-74318644D01*
X143817793Y-74168046D01*
X143776469Y-74049949D01*
X143776466Y-74049944D01*
X143776464Y-74049937D01*
X143762810Y-74021584D01*
X143630247Y-73746316D01*
X143630246Y-73746314D01*
X143450946Y-73460961D01*
X143240825Y-73197477D01*
X143002523Y-72959175D01*
X142739039Y-72749054D01*
X142453686Y-72569754D01*
X142453683Y-72569752D01*
X142150054Y-72423532D01*
X141831965Y-72312227D01*
X141831953Y-72312223D01*
X141503397Y-72237233D01*
X141503381Y-72237231D01*
X141168508Y-72199500D01*
X141168504Y-72199500D01*
X140831496Y-72199500D01*
X140831491Y-72199500D01*
X140496618Y-72237231D01*
X140496602Y-72237233D01*
X140168046Y-72312223D01*
X140168034Y-72312227D01*
X139849945Y-72423532D01*
X139546316Y-72569752D01*
X139260962Y-72749053D01*
X138997477Y-72959174D01*
X138759174Y-73197477D01*
X138549053Y-73460962D01*
X138369752Y-73746316D01*
X138223532Y-74049945D01*
X138112227Y-74368034D01*
X138112223Y-74368046D01*
X138037233Y-74696602D01*
X138037231Y-74696618D01*
X137999500Y-75031491D01*
X136220500Y-75031491D01*
X136220500Y-72324066D01*
X136220765Y-72315956D01*
X136225925Y-72237231D01*
X136237075Y-72067102D01*
X136239190Y-72051048D01*
X136287045Y-71810462D01*
X136291243Y-71794797D01*
X136314337Y-71726762D01*
X136370093Y-71562512D01*
X136376291Y-71547547D01*
X136484790Y-71327533D01*
X136492893Y-71313498D01*
X136629182Y-71109527D01*
X136639039Y-71096681D01*
X136800786Y-70912244D01*
X136812244Y-70900786D01*
X136996681Y-70739039D01*
X137009527Y-70729182D01*
X137213498Y-70592893D01*
X137227533Y-70584790D01*
X137447547Y-70476291D01*
X137462512Y-70470093D01*
X137626762Y-70414337D01*
X137694797Y-70391243D01*
X137710464Y-70387045D01*
X137951048Y-70339190D01*
X137967102Y-70337075D01*
X138215957Y-70320765D01*
X138224067Y-70320500D01*
X138312710Y-70320500D01*
X182127290Y-70320500D01*
X182215933Y-70320500D01*
X182224043Y-70320765D01*
G37*
%TD.AperFunction*%
%TD*%
M02*
