%TF.GenerationSoftware,KiCad,Pcbnew,9.0.6*%
%TF.CreationDate,2026-01-02T17:12:50+05:30*%
%TF.ProjectId,A3144_Hall Sensor_Ring_50x50_19mm,41333134-345f-4486-916c-6c2053656e73,rev?*%
%TF.SameCoordinates,Original*%
%TF.FileFunction,Legend,Top*%
%TF.FilePolarity,Positive*%
%FSLAX46Y46*%
G04 Gerber Fmt 4.6, Leading zero omitted, Abs format (unit mm)*
G04 Created by KiCad (PCBNEW 9.0.6) date 2026-01-02 17:12:50*
%MOMM*%
%LPD*%
G01*
G04 APERTURE LIST*
%ADD10C,0.150000*%
%ADD11C,0.000000*%
%ADD12C,0.120000*%
G04 APERTURE END LIST*
D10*
G36*
X145498076Y-100570911D02*
G01*
X145486975Y-100394250D01*
X145515292Y-100388597D01*
X145536756Y-100380657D01*
X145552737Y-100370876D01*
X145568561Y-100355235D01*
X145579853Y-100336783D01*
X145586863Y-100314960D01*
X145589337Y-100288921D01*
X145587007Y-100263029D01*
X145580649Y-100243046D01*
X145570799Y-100227664D01*
X145557327Y-100215379D01*
X145543169Y-100208424D01*
X145527824Y-100206122D01*
X145513209Y-100208295D01*
X145499502Y-100214898D01*
X145486242Y-100226602D01*
X145476312Y-100241989D01*
X145464744Y-100271438D01*
X145451621Y-100321710D01*
X145434876Y-100384763D01*
X145416909Y-100433130D01*
X145398188Y-100469410D01*
X145379007Y-100495880D01*
X145354554Y-100519014D01*
X145327563Y-100535184D01*
X145297486Y-100544971D01*
X145263492Y-100548343D01*
X145233518Y-100545401D01*
X145204632Y-100536565D01*
X145176334Y-100521489D01*
X145151574Y-100501232D01*
X145130099Y-100474668D01*
X145111854Y-100440742D01*
X145099670Y-100403973D01*
X145091439Y-100355624D01*
X145088370Y-100292987D01*
X145091578Y-100234130D01*
X145100390Y-100186452D01*
X145113835Y-100148074D01*
X145131308Y-100117389D01*
X145154947Y-100091087D01*
X145184778Y-100070315D01*
X145221918Y-100054937D01*
X145267962Y-100045435D01*
X145278294Y-100220447D01*
X145252031Y-100227346D01*
X145232710Y-100237230D01*
X145218833Y-100249756D01*
X145208913Y-100265654D01*
X145202564Y-100285832D01*
X145200258Y-100311452D01*
X145204061Y-100341177D01*
X145213923Y-100360252D01*
X145229223Y-100372626D01*
X145247116Y-100376628D01*
X145260286Y-100373439D01*
X145272761Y-100363109D01*
X145282680Y-100345039D01*
X145294780Y-100300791D01*
X145314465Y-100219096D01*
X145332075Y-100162962D01*
X145347610Y-100126401D01*
X145367768Y-100093201D01*
X145389859Y-100068068D01*
X145413922Y-100049758D01*
X145441179Y-100036495D01*
X145470518Y-100028491D01*
X145502472Y-100025761D01*
X145539894Y-100029324D01*
X145575058Y-100039908D01*
X145608608Y-100057745D01*
X145638131Y-100081620D01*
X145662604Y-100111155D01*
X145682283Y-100147101D01*
X145695592Y-100186169D01*
X145704249Y-100233845D01*
X145707379Y-100291778D01*
X145704289Y-100356958D01*
X145695898Y-100408594D01*
X145683315Y-100449027D01*
X145667315Y-100480299D01*
X145648285Y-100504086D01*
X145617058Y-100530174D01*
X145582050Y-100549916D01*
X145542662Y-100563551D01*
X145498076Y-100570911D01*
G37*
G36*
X145097749Y-99925011D02*
G01*
X145097749Y-99738935D01*
X145698000Y-99738935D01*
X145698000Y-99925011D01*
X145097749Y-99925011D01*
G37*
G36*
X145479940Y-99303840D02*
G01*
X145355670Y-99303840D01*
X145355670Y-99016904D01*
X145610842Y-99016904D01*
X145646340Y-99073371D01*
X145671168Y-99121567D01*
X145687156Y-99162644D01*
X145697978Y-99205312D01*
X145704914Y-99255029D01*
X145707379Y-99312816D01*
X145704784Y-99367172D01*
X145697488Y-99413677D01*
X145686100Y-99453388D01*
X145671036Y-99487242D01*
X145650750Y-99518916D01*
X145626184Y-99546724D01*
X145597044Y-99570966D01*
X145562849Y-99591766D01*
X145513686Y-99612013D01*
X145459035Y-99624511D01*
X145397875Y-99628842D01*
X145348863Y-99626126D01*
X145304491Y-99618278D01*
X145264174Y-99605618D01*
X145227406Y-99588286D01*
X145193434Y-99565697D01*
X145163965Y-99538598D01*
X145138651Y-99506675D01*
X145117350Y-99469400D01*
X145102202Y-99427606D01*
X145092102Y-99373739D01*
X145088370Y-99305049D01*
X145090846Y-99238047D01*
X145097275Y-99189740D01*
X145106359Y-99156049D01*
X145120711Y-99124678D01*
X145139247Y-99097520D01*
X145162119Y-99074093D01*
X145188667Y-99054702D01*
X145220344Y-99038320D01*
X145257924Y-99025110D01*
X145290017Y-99204226D01*
X145268595Y-99213561D01*
X145251387Y-99226031D01*
X145237774Y-99241742D01*
X145228033Y-99260168D01*
X145221874Y-99282348D01*
X145219675Y-99309153D01*
X145222478Y-99338955D01*
X145230502Y-99364612D01*
X145243555Y-99386942D01*
X145261954Y-99406496D01*
X145283711Y-99421116D01*
X145312119Y-99432456D01*
X145348784Y-99439987D01*
X145395640Y-99442766D01*
X145445735Y-99439886D01*
X145484070Y-99432165D01*
X145512993Y-99420690D01*
X145534455Y-99406093D01*
X145552331Y-99386415D01*
X145565206Y-99363316D01*
X145573238Y-99336112D01*
X145576074Y-99303840D01*
X145573803Y-99273214D01*
X145567099Y-99244416D01*
X145555636Y-99215609D01*
X145536397Y-99179643D01*
X145479940Y-99179643D01*
X145479940Y-99303840D01*
G37*
G36*
X145097749Y-105797948D02*
G01*
X145097749Y-105603665D01*
X145529729Y-105468403D01*
X145097749Y-105335193D01*
X145097749Y-105146662D01*
X145698000Y-105369631D01*
X145698000Y-105570875D01*
X145097749Y-105797948D01*
G37*
G36*
X145451804Y-104714206D02*
G01*
X145501153Y-104551467D01*
X145545498Y-104565021D01*
X145583188Y-104582318D01*
X145615092Y-104603124D01*
X145643174Y-104628611D01*
X145666074Y-104657663D01*
X145684115Y-104690648D01*
X145696428Y-104726255D01*
X145704465Y-104770048D01*
X145707379Y-104823639D01*
X145703806Y-104888670D01*
X145693993Y-104941325D01*
X145679023Y-104983703D01*
X145662836Y-105012675D01*
X145641245Y-105040100D01*
X145613655Y-105066159D01*
X145579262Y-105090901D01*
X145543010Y-105109798D01*
X145501100Y-105123882D01*
X145452604Y-105132809D01*
X145396446Y-105135964D01*
X145336001Y-105132329D01*
X145284109Y-105122054D01*
X145239509Y-105105844D01*
X145201135Y-105084048D01*
X145168164Y-105056646D01*
X145140465Y-105023764D01*
X145118521Y-104985761D01*
X145102264Y-104941873D01*
X145091995Y-104891100D01*
X145088370Y-104832248D01*
X145091680Y-104774689D01*
X145100901Y-104726724D01*
X145115208Y-104686840D01*
X145134129Y-104653756D01*
X145158997Y-104624406D01*
X145190098Y-104598544D01*
X145228280Y-104576087D01*
X145274667Y-104557219D01*
X145311120Y-104721167D01*
X145285805Y-104730688D01*
X145270966Y-104739192D01*
X145252023Y-104756610D01*
X145238177Y-104777330D01*
X145229646Y-104800895D01*
X145226710Y-104827742D01*
X145230025Y-104858106D01*
X145239506Y-104883730D01*
X145255055Y-104905651D01*
X145277378Y-104924462D01*
X145303825Y-104937447D01*
X145341926Y-104946435D01*
X145395420Y-104949888D01*
X145447781Y-104947356D01*
X145486042Y-104940727D01*
X145513275Y-104931197D01*
X145532074Y-104919553D01*
X145548042Y-104903117D01*
X145559457Y-104883851D01*
X145566543Y-104861189D01*
X145569040Y-104834300D01*
X145565332Y-104800059D01*
X145555147Y-104773849D01*
X145539035Y-104753773D01*
X145517567Y-104738173D01*
X145489032Y-104724846D01*
X145451804Y-104714206D01*
G37*
G36*
X145451804Y-104061198D02*
G01*
X145501153Y-103898459D01*
X145545498Y-103912014D01*
X145583188Y-103929311D01*
X145615092Y-103950116D01*
X145643174Y-103975604D01*
X145666074Y-104004655D01*
X145684115Y-104037641D01*
X145696428Y-104073247D01*
X145704465Y-104117040D01*
X145707379Y-104170631D01*
X145703806Y-104235662D01*
X145693993Y-104288317D01*
X145679023Y-104330696D01*
X145662836Y-104359667D01*
X145641245Y-104387092D01*
X145613655Y-104413151D01*
X145579262Y-104437894D01*
X145543010Y-104456790D01*
X145501100Y-104470874D01*
X145452604Y-104479802D01*
X145396446Y-104482957D01*
X145336001Y-104479321D01*
X145284109Y-104469046D01*
X145239509Y-104452836D01*
X145201135Y-104431040D01*
X145168164Y-104403639D01*
X145140465Y-104370756D01*
X145118521Y-104332754D01*
X145102264Y-104288866D01*
X145091995Y-104238092D01*
X145088370Y-104179241D01*
X145091680Y-104121682D01*
X145100901Y-104073716D01*
X145115208Y-104033832D01*
X145134129Y-104000748D01*
X145158997Y-103971399D01*
X145190098Y-103945536D01*
X145228280Y-103923079D01*
X145274667Y-103904211D01*
X145311120Y-104068159D01*
X145285805Y-104077680D01*
X145270966Y-104086184D01*
X145252023Y-104103602D01*
X145238177Y-104124323D01*
X145229646Y-104147887D01*
X145226710Y-104174734D01*
X145230025Y-104205099D01*
X145239506Y-104230723D01*
X145255055Y-104252644D01*
X145277378Y-104271454D01*
X145303825Y-104284440D01*
X145341926Y-104293427D01*
X145395420Y-104296880D01*
X145447781Y-104294349D01*
X145486042Y-104287720D01*
X145513275Y-104278189D01*
X145532074Y-104266545D01*
X145548042Y-104250110D01*
X145559457Y-104230843D01*
X145566543Y-104208181D01*
X145569040Y-104181292D01*
X145565332Y-104147051D01*
X145555147Y-104120841D01*
X145539035Y-104100765D01*
X145517567Y-104085165D01*
X145489032Y-104071839D01*
X145451804Y-104061198D01*
G37*
G36*
X145479940Y-102836456D02*
G01*
X145355670Y-102836456D01*
X145355670Y-102549520D01*
X145610842Y-102549520D01*
X145646340Y-102605987D01*
X145671168Y-102654183D01*
X145687156Y-102695259D01*
X145697978Y-102737928D01*
X145704914Y-102787645D01*
X145707379Y-102845432D01*
X145704784Y-102899788D01*
X145697488Y-102946293D01*
X145686100Y-102986004D01*
X145671036Y-103019858D01*
X145650750Y-103051532D01*
X145626184Y-103079340D01*
X145597044Y-103103582D01*
X145562849Y-103124382D01*
X145513686Y-103144629D01*
X145459035Y-103157127D01*
X145397875Y-103161458D01*
X145348863Y-103158742D01*
X145304491Y-103150894D01*
X145264174Y-103138233D01*
X145227406Y-103120901D01*
X145193434Y-103098313D01*
X145163965Y-103071214D01*
X145138651Y-103039291D01*
X145117350Y-103002016D01*
X145102202Y-102960222D01*
X145092102Y-102906355D01*
X145088370Y-102837665D01*
X145090846Y-102770663D01*
X145097275Y-102722356D01*
X145106359Y-102688665D01*
X145120711Y-102657294D01*
X145139247Y-102630135D01*
X145162119Y-102606709D01*
X145188667Y-102587318D01*
X145220344Y-102570936D01*
X145257924Y-102557726D01*
X145290017Y-102736842D01*
X145268595Y-102746177D01*
X145251387Y-102758647D01*
X145237774Y-102774357D01*
X145228033Y-102792784D01*
X145221874Y-102814964D01*
X145219675Y-102841769D01*
X145222478Y-102871571D01*
X145230502Y-102897228D01*
X145243555Y-102919557D01*
X145261954Y-102939112D01*
X145283711Y-102953732D01*
X145312119Y-102965072D01*
X145348784Y-102972602D01*
X145395640Y-102975382D01*
X145445735Y-102972502D01*
X145484070Y-102964781D01*
X145512993Y-102953306D01*
X145534455Y-102938709D01*
X145552331Y-102919031D01*
X145565206Y-102895932D01*
X145573238Y-102868728D01*
X145576074Y-102836456D01*
X145573803Y-102805830D01*
X145567099Y-102777032D01*
X145555636Y-102748225D01*
X145536397Y-102712259D01*
X145479940Y-102712259D01*
X145479940Y-102836456D01*
G37*
G36*
X145097749Y-102437962D02*
G01*
X145097749Y-102264598D01*
X145429749Y-102038332D01*
X145097749Y-102038332D01*
X145097749Y-101863319D01*
X145698000Y-101863319D01*
X145698000Y-102038332D01*
X145367870Y-102263353D01*
X145698000Y-102263353D01*
X145698000Y-102437962D01*
X145097749Y-102437962D01*
G37*
G36*
X145460194Y-101187432D02*
G01*
X145508918Y-101195169D01*
X145545080Y-101206465D01*
X145578981Y-101223237D01*
X145608444Y-101243502D01*
X145633923Y-101267318D01*
X145655603Y-101294586D01*
X145671316Y-101322362D01*
X145681624Y-101350922D01*
X145694162Y-101410880D01*
X145698000Y-101461601D01*
X145698000Y-101737437D01*
X145097749Y-101737437D01*
X145097749Y-101505455D01*
X145233744Y-101505455D01*
X145233744Y-101551763D01*
X145562006Y-101551763D01*
X145562006Y-101506261D01*
X145560167Y-101467088D01*
X145555514Y-101440584D01*
X145549110Y-101423463D01*
X145538806Y-101408757D01*
X145524072Y-101395940D01*
X145504011Y-101384958D01*
X145481842Y-101378002D01*
X145448302Y-101372972D01*
X145399707Y-101370999D01*
X145349737Y-101373582D01*
X145313174Y-101380357D01*
X145287076Y-101390136D01*
X145268988Y-101402177D01*
X145254556Y-101418796D01*
X145243599Y-101440625D01*
X145236397Y-101468955D01*
X145233744Y-101505455D01*
X145097749Y-101505455D01*
X145097749Y-101461601D01*
X145100572Y-101407324D01*
X145108264Y-101364037D01*
X145119878Y-101329820D01*
X145136906Y-101298045D01*
X145157994Y-101270526D01*
X145183332Y-101246838D01*
X145212087Y-101227170D01*
X145244036Y-101211318D01*
X145279576Y-101199284D01*
X145335508Y-101188281D01*
X145395823Y-101184520D01*
X145460194Y-101187432D01*
G37*
X137266666Y-95454819D02*
X137266666Y-96169104D01*
X137266666Y-96169104D02*
X137219047Y-96311961D01*
X137219047Y-96311961D02*
X137123809Y-96407200D01*
X137123809Y-96407200D02*
X136980952Y-96454819D01*
X136980952Y-96454819D02*
X136885714Y-96454819D01*
X138266666Y-96454819D02*
X137695238Y-96454819D01*
X137980952Y-96454819D02*
X137980952Y-95454819D01*
X137980952Y-95454819D02*
X137885714Y-95597676D01*
X137885714Y-95597676D02*
X137790476Y-95692914D01*
X137790476Y-95692914D02*
X137695238Y-95740533D01*
X140233333Y-90609580D02*
X140185714Y-90657200D01*
X140185714Y-90657200D02*
X140042857Y-90704819D01*
X140042857Y-90704819D02*
X139947619Y-90704819D01*
X139947619Y-90704819D02*
X139804762Y-90657200D01*
X139804762Y-90657200D02*
X139709524Y-90561961D01*
X139709524Y-90561961D02*
X139661905Y-90466723D01*
X139661905Y-90466723D02*
X139614286Y-90276247D01*
X139614286Y-90276247D02*
X139614286Y-90133390D01*
X139614286Y-90133390D02*
X139661905Y-89942914D01*
X139661905Y-89942914D02*
X139709524Y-89847676D01*
X139709524Y-89847676D02*
X139804762Y-89752438D01*
X139804762Y-89752438D02*
X139947619Y-89704819D01*
X139947619Y-89704819D02*
X140042857Y-89704819D01*
X140042857Y-89704819D02*
X140185714Y-89752438D01*
X140185714Y-89752438D02*
X140233333Y-89800057D01*
X141138095Y-89704819D02*
X140661905Y-89704819D01*
X140661905Y-89704819D02*
X140614286Y-90181009D01*
X140614286Y-90181009D02*
X140661905Y-90133390D01*
X140661905Y-90133390D02*
X140757143Y-90085771D01*
X140757143Y-90085771D02*
X140995238Y-90085771D01*
X140995238Y-90085771D02*
X141090476Y-90133390D01*
X141090476Y-90133390D02*
X141138095Y-90181009D01*
X141138095Y-90181009D02*
X141185714Y-90276247D01*
X141185714Y-90276247D02*
X141185714Y-90514342D01*
X141185714Y-90514342D02*
X141138095Y-90609580D01*
X141138095Y-90609580D02*
X141090476Y-90657200D01*
X141090476Y-90657200D02*
X140995238Y-90704819D01*
X140995238Y-90704819D02*
X140757143Y-90704819D01*
X140757143Y-90704819D02*
X140661905Y-90657200D01*
X140661905Y-90657200D02*
X140614286Y-90609580D01*
X182209580Y-93816666D02*
X182257200Y-93864285D01*
X182257200Y-93864285D02*
X182304819Y-94007142D01*
X182304819Y-94007142D02*
X182304819Y-94102380D01*
X182304819Y-94102380D02*
X182257200Y-94245237D01*
X182257200Y-94245237D02*
X182161961Y-94340475D01*
X182161961Y-94340475D02*
X182066723Y-94388094D01*
X182066723Y-94388094D02*
X181876247Y-94435713D01*
X181876247Y-94435713D02*
X181733390Y-94435713D01*
X181733390Y-94435713D02*
X181542914Y-94388094D01*
X181542914Y-94388094D02*
X181447676Y-94340475D01*
X181447676Y-94340475D02*
X181352438Y-94245237D01*
X181352438Y-94245237D02*
X181304819Y-94102380D01*
X181304819Y-94102380D02*
X181304819Y-94007142D01*
X181304819Y-94007142D02*
X181352438Y-93864285D01*
X181352438Y-93864285D02*
X181400057Y-93816666D01*
X181638152Y-92959523D02*
X182304819Y-92959523D01*
X181257200Y-93197618D02*
X181971485Y-93435713D01*
X181971485Y-93435713D02*
X181971485Y-92816666D01*
X175814819Y-94411904D02*
X176624342Y-94411904D01*
X176624342Y-94411904D02*
X176719580Y-94364285D01*
X176719580Y-94364285D02*
X176767200Y-94316666D01*
X176767200Y-94316666D02*
X176814819Y-94221428D01*
X176814819Y-94221428D02*
X176814819Y-94030952D01*
X176814819Y-94030952D02*
X176767200Y-93935714D01*
X176767200Y-93935714D02*
X176719580Y-93888095D01*
X176719580Y-93888095D02*
X176624342Y-93840476D01*
X176624342Y-93840476D02*
X175814819Y-93840476D01*
X176148152Y-92935714D02*
X176814819Y-92935714D01*
X175767200Y-93173809D02*
X176481485Y-93411904D01*
X176481485Y-93411904D02*
X176481485Y-92792857D01*
X146478095Y-89504819D02*
X146478095Y-90314342D01*
X146478095Y-90314342D02*
X146525714Y-90409580D01*
X146525714Y-90409580D02*
X146573333Y-90457200D01*
X146573333Y-90457200D02*
X146668571Y-90504819D01*
X146668571Y-90504819D02*
X146859047Y-90504819D01*
X146859047Y-90504819D02*
X146954285Y-90457200D01*
X146954285Y-90457200D02*
X147001904Y-90409580D01*
X147001904Y-90409580D02*
X147049523Y-90314342D01*
X147049523Y-90314342D02*
X147049523Y-89504819D01*
X147478095Y-89600057D02*
X147525714Y-89552438D01*
X147525714Y-89552438D02*
X147620952Y-89504819D01*
X147620952Y-89504819D02*
X147859047Y-89504819D01*
X147859047Y-89504819D02*
X147954285Y-89552438D01*
X147954285Y-89552438D02*
X148001904Y-89600057D01*
X148001904Y-89600057D02*
X148049523Y-89695295D01*
X148049523Y-89695295D02*
X148049523Y-89790533D01*
X148049523Y-89790533D02*
X148001904Y-89933390D01*
X148001904Y-89933390D02*
X147430476Y-90504819D01*
X147430476Y-90504819D02*
X148049523Y-90504819D01*
X143756482Y-85399694D02*
X144463589Y-84692588D01*
X144463589Y-84692588D02*
X144631948Y-84860946D01*
X144631948Y-84860946D02*
X144699291Y-84995633D01*
X144699291Y-84995633D02*
X144699291Y-85130320D01*
X144699291Y-85130320D02*
X144665619Y-85231336D01*
X144665619Y-85231336D02*
X144564604Y-85399694D01*
X144564604Y-85399694D02*
X144463589Y-85500710D01*
X144463589Y-85500710D02*
X144295230Y-85601725D01*
X144295230Y-85601725D02*
X144194215Y-85635397D01*
X144194215Y-85635397D02*
X144059528Y-85635397D01*
X144059528Y-85635397D02*
X143924841Y-85568053D01*
X143924841Y-85568053D02*
X143756482Y-85399694D01*
X145069680Y-85433366D02*
X145137024Y-85433366D01*
X145137024Y-85433366D02*
X145238039Y-85467038D01*
X145238039Y-85467038D02*
X145406398Y-85635397D01*
X145406398Y-85635397D02*
X145440070Y-85736412D01*
X145440070Y-85736412D02*
X145440070Y-85803755D01*
X145440070Y-85803755D02*
X145406398Y-85904771D01*
X145406398Y-85904771D02*
X145339054Y-85972114D01*
X145339054Y-85972114D02*
X145204367Y-86039458D01*
X145204367Y-86039458D02*
X144396245Y-86039458D01*
X144396245Y-86039458D02*
X144833978Y-86477190D01*
X150336410Y-77506801D02*
X149629304Y-76799694D01*
X150740472Y-77102740D02*
X150033365Y-77001724D01*
X150033365Y-76395633D02*
X150033365Y-77203755D01*
X145850560Y-105893771D02*
X146557667Y-105186665D01*
X146557667Y-105186665D02*
X146726026Y-105355023D01*
X146726026Y-105355023D02*
X146793369Y-105489710D01*
X146793369Y-105489710D02*
X146793369Y-105624397D01*
X146793369Y-105624397D02*
X146759697Y-105725413D01*
X146759697Y-105725413D02*
X146658682Y-105893771D01*
X146658682Y-105893771D02*
X146557667Y-105994787D01*
X146557667Y-105994787D02*
X146389308Y-106095802D01*
X146389308Y-106095802D02*
X146288293Y-106129474D01*
X146288293Y-106129474D02*
X146153606Y-106129474D01*
X146153606Y-106129474D02*
X146018919Y-106062130D01*
X146018919Y-106062130D02*
X145850560Y-105893771D01*
X147197430Y-105826428D02*
X147635163Y-106264161D01*
X147635163Y-106264161D02*
X147130087Y-106297832D01*
X147130087Y-106297832D02*
X147231102Y-106398848D01*
X147231102Y-106398848D02*
X147264774Y-106499863D01*
X147264774Y-106499863D02*
X147264774Y-106567206D01*
X147264774Y-106567206D02*
X147231102Y-106668222D01*
X147231102Y-106668222D02*
X147062743Y-106836580D01*
X147062743Y-106836580D02*
X146961728Y-106870252D01*
X146961728Y-106870252D02*
X146894384Y-106870252D01*
X146894384Y-106870252D02*
X146793369Y-106836580D01*
X146793369Y-106836580D02*
X146591339Y-106634550D01*
X146591339Y-106634550D02*
X146557667Y-106533535D01*
X146557667Y-106533535D02*
X146557667Y-106466191D01*
X146587277Y-103430488D02*
X147294384Y-102723382D01*
X146991338Y-103834550D02*
X147092354Y-103127443D01*
X147698445Y-103127443D02*
X146890323Y-103127443D01*
X163579819Y-107961904D02*
X164389342Y-107961904D01*
X164389342Y-107961904D02*
X164484580Y-107914285D01*
X164484580Y-107914285D02*
X164532200Y-107866666D01*
X164532200Y-107866666D02*
X164579819Y-107771428D01*
X164579819Y-107771428D02*
X164579819Y-107580952D01*
X164579819Y-107580952D02*
X164532200Y-107485714D01*
X164532200Y-107485714D02*
X164484580Y-107438095D01*
X164484580Y-107438095D02*
X164389342Y-107390476D01*
X164389342Y-107390476D02*
X163579819Y-107390476D01*
X163579819Y-107009523D02*
X163579819Y-106390476D01*
X163579819Y-106390476D02*
X163960771Y-106723809D01*
X163960771Y-106723809D02*
X163960771Y-106580952D01*
X163960771Y-106580952D02*
X164008390Y-106485714D01*
X164008390Y-106485714D02*
X164056009Y-106438095D01*
X164056009Y-106438095D02*
X164151247Y-106390476D01*
X164151247Y-106390476D02*
X164389342Y-106390476D01*
X164389342Y-106390476D02*
X164484580Y-106438095D01*
X164484580Y-106438095D02*
X164532200Y-106485714D01*
X164532200Y-106485714D02*
X164579819Y-106580952D01*
X164579819Y-106580952D02*
X164579819Y-106866666D01*
X164579819Y-106866666D02*
X164532200Y-106961904D01*
X164532200Y-106961904D02*
X164484580Y-107009523D01*
X156024819Y-82361904D02*
X156834342Y-82361904D01*
X156834342Y-82361904D02*
X156929580Y-82314285D01*
X156929580Y-82314285D02*
X156977200Y-82266666D01*
X156977200Y-82266666D02*
X157024819Y-82171428D01*
X157024819Y-82171428D02*
X157024819Y-81980952D01*
X157024819Y-81980952D02*
X156977200Y-81885714D01*
X156977200Y-81885714D02*
X156929580Y-81838095D01*
X156929580Y-81838095D02*
X156834342Y-81790476D01*
X156834342Y-81790476D02*
X156024819Y-81790476D01*
X157024819Y-80790476D02*
X157024819Y-81361904D01*
X157024819Y-81076190D02*
X156024819Y-81076190D01*
X156024819Y-81076190D02*
X156167676Y-81171428D01*
X156167676Y-81171428D02*
X156262914Y-81266666D01*
X156262914Y-81266666D02*
X156310533Y-81361904D01*
X175599693Y-106043517D02*
X174892587Y-105336410D01*
X174892587Y-105336410D02*
X175060945Y-105168051D01*
X175060945Y-105168051D02*
X175195632Y-105100708D01*
X175195632Y-105100708D02*
X175330319Y-105100708D01*
X175330319Y-105100708D02*
X175431335Y-105134380D01*
X175431335Y-105134380D02*
X175599693Y-105235395D01*
X175599693Y-105235395D02*
X175700709Y-105336410D01*
X175700709Y-105336410D02*
X175801724Y-105504769D01*
X175801724Y-105504769D02*
X175835396Y-105605784D01*
X175835396Y-105605784D02*
X175835396Y-105740471D01*
X175835396Y-105740471D02*
X175768052Y-105875158D01*
X175768052Y-105875158D02*
X175599693Y-106043517D01*
X176138441Y-104561960D02*
X176609846Y-105033364D01*
X175700709Y-104460945D02*
X176037426Y-105134380D01*
X176037426Y-105134380D02*
X176475159Y-104696647D01*
X167369542Y-108728085D02*
X166662436Y-108020978D01*
X167773604Y-108324024D02*
X167066497Y-108223008D01*
X167066497Y-107616917D02*
X167066497Y-108425039D01*
X175999693Y-86043518D02*
X175292587Y-85336411D01*
X175292587Y-85336411D02*
X175460945Y-85168052D01*
X175460945Y-85168052D02*
X175595632Y-85100709D01*
X175595632Y-85100709D02*
X175730319Y-85100709D01*
X175730319Y-85100709D02*
X175831335Y-85134381D01*
X175831335Y-85134381D02*
X175999693Y-85235396D01*
X175999693Y-85235396D02*
X176100709Y-85336411D01*
X176100709Y-85336411D02*
X176201724Y-85504770D01*
X176201724Y-85504770D02*
X176235396Y-85605785D01*
X176235396Y-85605785D02*
X176235396Y-85740472D01*
X176235396Y-85740472D02*
X176168052Y-85875159D01*
X176168052Y-85875159D02*
X175999693Y-86043518D01*
X177077189Y-84966022D02*
X176673128Y-85370083D01*
X176875159Y-85168052D02*
X176168052Y-84460946D01*
X176168052Y-84460946D02*
X176201724Y-84629304D01*
X176201724Y-84629304D02*
X176201724Y-84763991D01*
X176201724Y-84763991D02*
X176168052Y-84865007D01*
X176693199Y-83736411D02*
X177400306Y-83029305D01*
X177097260Y-84140473D02*
X177198276Y-83433366D01*
X177804367Y-83433366D02*
X176996245Y-83433366D01*
X157183333Y-113759580D02*
X157135714Y-113807200D01*
X157135714Y-113807200D02*
X156992857Y-113854819D01*
X156992857Y-113854819D02*
X156897619Y-113854819D01*
X156897619Y-113854819D02*
X156754762Y-113807200D01*
X156754762Y-113807200D02*
X156659524Y-113711961D01*
X156659524Y-113711961D02*
X156611905Y-113616723D01*
X156611905Y-113616723D02*
X156564286Y-113426247D01*
X156564286Y-113426247D02*
X156564286Y-113283390D01*
X156564286Y-113283390D02*
X156611905Y-113092914D01*
X156611905Y-113092914D02*
X156659524Y-112997676D01*
X156659524Y-112997676D02*
X156754762Y-112902438D01*
X156754762Y-112902438D02*
X156897619Y-112854819D01*
X156897619Y-112854819D02*
X156992857Y-112854819D01*
X156992857Y-112854819D02*
X157135714Y-112902438D01*
X157135714Y-112902438D02*
X157183333Y-112950057D01*
X157516667Y-112854819D02*
X158135714Y-112854819D01*
X158135714Y-112854819D02*
X157802381Y-113235771D01*
X157802381Y-113235771D02*
X157945238Y-113235771D01*
X157945238Y-113235771D02*
X158040476Y-113283390D01*
X158040476Y-113283390D02*
X158088095Y-113331009D01*
X158088095Y-113331009D02*
X158135714Y-113426247D01*
X158135714Y-113426247D02*
X158135714Y-113664342D01*
X158135714Y-113664342D02*
X158088095Y-113759580D01*
X158088095Y-113759580D02*
X158040476Y-113807200D01*
X158040476Y-113807200D02*
X157945238Y-113854819D01*
X157945238Y-113854819D02*
X157659524Y-113854819D01*
X157659524Y-113854819D02*
X157564286Y-113807200D01*
X157564286Y-113807200D02*
X157516667Y-113759580D01*
X147559580Y-115166666D02*
X147607200Y-115214285D01*
X147607200Y-115214285D02*
X147654819Y-115357142D01*
X147654819Y-115357142D02*
X147654819Y-115452380D01*
X147654819Y-115452380D02*
X147607200Y-115595237D01*
X147607200Y-115595237D02*
X147511961Y-115690475D01*
X147511961Y-115690475D02*
X147416723Y-115738094D01*
X147416723Y-115738094D02*
X147226247Y-115785713D01*
X147226247Y-115785713D02*
X147083390Y-115785713D01*
X147083390Y-115785713D02*
X146892914Y-115738094D01*
X146892914Y-115738094D02*
X146797676Y-115690475D01*
X146797676Y-115690475D02*
X146702438Y-115595237D01*
X146702438Y-115595237D02*
X146654819Y-115452380D01*
X146654819Y-115452380D02*
X146654819Y-115357142D01*
X146654819Y-115357142D02*
X146702438Y-115214285D01*
X146702438Y-115214285D02*
X146750057Y-115166666D01*
X146750057Y-114785713D02*
X146702438Y-114738094D01*
X146702438Y-114738094D02*
X146654819Y-114642856D01*
X146654819Y-114642856D02*
X146654819Y-114404761D01*
X146654819Y-114404761D02*
X146702438Y-114309523D01*
X146702438Y-114309523D02*
X146750057Y-114261904D01*
X146750057Y-114261904D02*
X146845295Y-114214285D01*
X146845295Y-114214285D02*
X146940533Y-114214285D01*
X146940533Y-114214285D02*
X147083390Y-114261904D01*
X147083390Y-114261904D02*
X147654819Y-114833332D01*
X147654819Y-114833332D02*
X147654819Y-114214285D01*
X163183333Y-75359580D02*
X163135714Y-75407200D01*
X163135714Y-75407200D02*
X162992857Y-75454819D01*
X162992857Y-75454819D02*
X162897619Y-75454819D01*
X162897619Y-75454819D02*
X162754762Y-75407200D01*
X162754762Y-75407200D02*
X162659524Y-75311961D01*
X162659524Y-75311961D02*
X162611905Y-75216723D01*
X162611905Y-75216723D02*
X162564286Y-75026247D01*
X162564286Y-75026247D02*
X162564286Y-74883390D01*
X162564286Y-74883390D02*
X162611905Y-74692914D01*
X162611905Y-74692914D02*
X162659524Y-74597676D01*
X162659524Y-74597676D02*
X162754762Y-74502438D01*
X162754762Y-74502438D02*
X162897619Y-74454819D01*
X162897619Y-74454819D02*
X162992857Y-74454819D01*
X162992857Y-74454819D02*
X163135714Y-74502438D01*
X163135714Y-74502438D02*
X163183333Y-74550057D01*
X164135714Y-75454819D02*
X163564286Y-75454819D01*
X163850000Y-75454819D02*
X163850000Y-74454819D01*
X163850000Y-74454819D02*
X163754762Y-74597676D01*
X163754762Y-74597676D02*
X163659524Y-74692914D01*
X163659524Y-74692914D02*
X163564286Y-74740533D01*
D11*
%TO.C,G\u002A\u002A\u002A*%
G36*
X137659030Y-80423648D02*
G01*
X137998649Y-80423648D01*
X137998649Y-80742048D01*
X137984659Y-81001939D01*
X137936111Y-81167151D01*
X137843136Y-81254722D01*
X137695866Y-81281692D01*
X137686083Y-81281756D01*
X137523226Y-81254536D01*
X137399085Y-81188834D01*
X137396874Y-81186674D01*
X137322081Y-81126528D01*
X137247842Y-81129933D01*
X137140831Y-81186674D01*
X137002472Y-81261569D01*
X136934551Y-81270621D01*
X136912864Y-81212280D01*
X136911712Y-81172007D01*
X136959705Y-81068580D01*
X137083737Y-80956873D01*
X137111937Y-80938513D01*
X137237945Y-80842433D01*
X137286104Y-80781193D01*
X137484660Y-80781193D01*
X137506362Y-80919840D01*
X137534420Y-80987047D01*
X137623458Y-81054173D01*
X137720349Y-81029380D01*
X137794883Y-80928648D01*
X137816350Y-80837932D01*
X137818781Y-80710789D01*
X137771628Y-80660835D01*
X137659030Y-80652477D01*
X137533856Y-80667972D01*
X137488071Y-80730551D01*
X137484660Y-80781193D01*
X137286104Y-80781193D01*
X137307424Y-80754082D01*
X137312162Y-80733622D01*
X137261133Y-80672000D01*
X137111937Y-80652477D01*
X136973938Y-80639678D01*
X136918257Y-80589714D01*
X136911712Y-80538062D01*
X136919918Y-80484885D01*
X136958687Y-80451323D01*
X137049241Y-80432909D01*
X137212805Y-80425174D01*
X137455180Y-80423648D01*
X137659030Y-80423648D01*
G37*
G36*
X137998649Y-82197071D02*
G01*
X137993602Y-82414643D01*
X137975457Y-82539166D01*
X137939703Y-82591683D01*
X137912838Y-82597522D01*
X137858875Y-82566900D01*
X137832518Y-82460882D01*
X137827027Y-82311486D01*
X137821003Y-82139920D01*
X137795435Y-82054354D01*
X137739077Y-82026674D01*
X137712613Y-82025450D01*
X137641113Y-82042293D01*
X137607303Y-82112235D01*
X137598242Y-82264388D01*
X137598198Y-82282882D01*
X137590712Y-82443757D01*
X137559627Y-82519830D01*
X137492003Y-82540216D01*
X137483784Y-82540314D01*
X137412284Y-82523471D01*
X137378474Y-82453529D01*
X137369413Y-82301376D01*
X137369370Y-82282882D01*
X137361638Y-82121574D01*
X137330154Y-82045360D01*
X137262488Y-82025481D01*
X137258090Y-82025450D01*
X137187940Y-82045039D01*
X137149666Y-82122206D01*
X137130172Y-82284544D01*
X137129373Y-82296669D01*
X137106069Y-82475420D01*
X137059328Y-82564977D01*
X137011824Y-82586900D01*
X136959303Y-82583588D01*
X136929006Y-82533739D01*
X136915090Y-82414850D01*
X136911712Y-82204413D01*
X136911712Y-82201266D01*
X136911712Y-81796621D01*
X137455180Y-81796621D01*
X137998649Y-81796621D01*
X137998649Y-82197071D01*
G37*
G36*
X137958101Y-83020447D02*
G01*
X137984670Y-83101667D01*
X137996683Y-83262322D01*
X137998649Y-83427026D01*
X137994154Y-83653341D01*
X137977910Y-83786185D01*
X137945779Y-83846250D01*
X137912838Y-83856080D01*
X137843822Y-83806350D01*
X137827027Y-83713062D01*
X137822150Y-83642131D01*
X137791957Y-83599659D01*
X137713103Y-83578351D01*
X137562244Y-83570912D01*
X137369370Y-83570044D01*
X137142390Y-83568520D01*
X137006479Y-83559085D01*
X136938294Y-83534443D01*
X136914489Y-83487299D01*
X136911712Y-83427026D01*
X136916589Y-83356095D01*
X136946782Y-83313623D01*
X137025636Y-83292315D01*
X137176495Y-83284876D01*
X137369370Y-83284008D01*
X137596349Y-83282484D01*
X137732260Y-83273049D01*
X137800445Y-83248407D01*
X137824250Y-83201263D01*
X137827027Y-83140990D01*
X137856865Y-83025964D01*
X137912838Y-82997972D01*
X137958101Y-83020447D01*
G37*
G36*
X137707773Y-84315466D02*
G01*
X137867191Y-84323627D01*
X137954659Y-84342691D01*
X137991400Y-84377126D01*
X137998649Y-84428152D01*
X137976251Y-84507009D01*
X137888814Y-84538827D01*
X137798424Y-84542567D01*
X137675396Y-84548062D01*
X137617139Y-84585308D01*
X137599433Y-84685441D01*
X137598198Y-84799999D01*
X137602473Y-84958177D01*
X137631441Y-85033079D01*
X137709323Y-85055844D01*
X137798424Y-85057432D01*
X137936423Y-85070230D01*
X137992104Y-85120194D01*
X137998649Y-85171846D01*
X137990442Y-85225023D01*
X137951674Y-85258585D01*
X137861119Y-85276999D01*
X137697556Y-85284734D01*
X137455180Y-85286260D01*
X137202588Y-85284533D01*
X137043170Y-85276371D01*
X136955702Y-85257307D01*
X136918961Y-85222872D01*
X136911712Y-85171846D01*
X136930901Y-85096992D01*
X137008461Y-85063909D01*
X137140541Y-85057432D01*
X137369370Y-85057432D01*
X137369370Y-84799999D01*
X137369370Y-84542567D01*
X137140541Y-84542567D01*
X136990833Y-84532972D01*
X136924667Y-84494192D01*
X136911712Y-84428152D01*
X136919918Y-84374975D01*
X136958687Y-84341413D01*
X137049241Y-84322999D01*
X137212805Y-84315264D01*
X137455180Y-84313738D01*
X137707773Y-84315466D01*
G37*
G36*
X137998649Y-86230179D02*
G01*
X137992920Y-86438754D01*
X137972450Y-86554680D01*
X137932313Y-86599303D01*
X137912838Y-86602026D01*
X137856279Y-86568336D01*
X137830516Y-86453781D01*
X137827027Y-86344594D01*
X137819541Y-86183719D01*
X137788456Y-86107646D01*
X137720832Y-86087260D01*
X137712613Y-86087161D01*
X137641113Y-86104005D01*
X137607303Y-86173946D01*
X137598242Y-86326100D01*
X137598198Y-86344594D01*
X137590712Y-86505469D01*
X137559627Y-86581542D01*
X137492003Y-86601928D01*
X137483784Y-86602026D01*
X137412284Y-86585182D01*
X137378474Y-86515241D01*
X137369413Y-86363087D01*
X137369370Y-86344594D01*
X137361883Y-86183719D01*
X137330798Y-86107646D01*
X137263174Y-86087260D01*
X137254955Y-86087161D01*
X137183455Y-86104005D01*
X137149645Y-86173946D01*
X137140584Y-86326100D01*
X137140541Y-86344594D01*
X137133055Y-86505469D01*
X137101970Y-86581542D01*
X137034346Y-86601928D01*
X137026126Y-86602026D01*
X136964207Y-86590437D01*
X136929686Y-86538814D01*
X136914783Y-86421877D01*
X136911712Y-86230179D01*
X136911712Y-85858332D01*
X137455180Y-85858332D01*
X137998649Y-85858332D01*
X137998649Y-86230179D01*
G37*
G36*
X137707773Y-87118619D02*
G01*
X137867191Y-87126781D01*
X137954659Y-87145845D01*
X137991400Y-87180279D01*
X137998649Y-87231305D01*
X137988515Y-87289804D01*
X137942307Y-87324128D01*
X137836315Y-87340599D01*
X137646827Y-87345540D01*
X137569595Y-87345720D01*
X137140541Y-87345720D01*
X137140541Y-87574549D01*
X137130946Y-87724257D01*
X137092166Y-87790422D01*
X137026126Y-87803378D01*
X136962223Y-87790853D01*
X136927694Y-87735837D01*
X136913815Y-87612163D01*
X136911712Y-87460134D01*
X136911712Y-87116891D01*
X137455180Y-87116891D01*
X137707773Y-87118619D01*
G37*
G36*
X137297860Y-88295544D02*
G01*
X137332229Y-88308648D01*
X137515352Y-88378468D01*
X137711458Y-88452552D01*
X137841329Y-88500874D01*
X137961626Y-88575421D01*
X137998392Y-88701558D01*
X137998649Y-88718693D01*
X137968858Y-88851918D01*
X137859018Y-88928856D01*
X137841329Y-88935485D01*
X137707954Y-88984457D01*
X137510898Y-89058166D01*
X137297860Y-89138743D01*
X136911712Y-89285638D01*
X136911712Y-89145183D01*
X136942009Y-89032079D01*
X136997523Y-89004729D01*
X137051486Y-88974108D01*
X137077842Y-88868089D01*
X137083333Y-88718693D01*
X137312162Y-88718693D01*
X137317988Y-88839306D01*
X137332019Y-88890305D01*
X137332229Y-88890314D01*
X137424342Y-88869265D01*
X137549234Y-88820024D01*
X137660669Y-88763450D01*
X137712416Y-88720403D01*
X137712613Y-88718693D01*
X137665959Y-88677133D01*
X137556820Y-88620785D01*
X137431429Y-88570507D01*
X137336020Y-88547160D01*
X137332229Y-88547071D01*
X137318127Y-88596893D01*
X137312163Y-88716894D01*
X137312162Y-88718693D01*
X137083333Y-88718693D01*
X137074147Y-88538815D01*
X137042341Y-88450960D01*
X136997523Y-88432657D01*
X136928491Y-88382953D01*
X136911712Y-88290130D01*
X136911712Y-88147604D01*
X137297860Y-88295544D01*
G37*
G36*
X141883480Y-80188306D02*
G01*
X141752536Y-80270619D01*
X141544305Y-80396164D01*
X141269915Y-80558356D01*
X140940497Y-80750609D01*
X140567179Y-80966337D01*
X140224912Y-81162524D01*
X139821585Y-81391994D01*
X139450618Y-81601344D01*
X139123449Y-81784250D01*
X138851517Y-81934389D01*
X138646263Y-82045438D01*
X138519125Y-82111073D01*
X138481061Y-82126481D01*
X138524015Y-82094379D01*
X138655284Y-82012298D01*
X138863732Y-81886830D01*
X139138220Y-81724563D01*
X139467615Y-81532090D01*
X139840778Y-81316000D01*
X140182158Y-81119769D01*
X140585166Y-80889844D01*
X140955936Y-80680189D01*
X141283023Y-80497131D01*
X141554978Y-80346998D01*
X141760355Y-80236117D01*
X141887708Y-80170816D01*
X141926009Y-80155812D01*
X141883480Y-80188306D01*
G37*
G36*
X141987208Y-80683431D02*
G01*
X141915435Y-80742337D01*
X141772466Y-80838019D01*
X141552623Y-80974088D01*
X141250233Y-81154154D01*
X140859619Y-81381829D01*
X140375106Y-81660722D01*
X140315541Y-81694850D01*
X139846756Y-81963357D01*
X139467635Y-82180296D01*
X139168484Y-82350832D01*
X138939606Y-82480129D01*
X138771309Y-82573351D01*
X138653896Y-82635663D01*
X138577673Y-82672228D01*
X138532945Y-82688210D01*
X138510017Y-82688775D01*
X138499195Y-82679086D01*
X138492000Y-82666201D01*
X138533027Y-82628008D01*
X138662491Y-82540379D01*
X138869205Y-82410140D01*
X139141983Y-82244121D01*
X139469639Y-82049150D01*
X139840987Y-81832055D01*
X140155758Y-81650618D01*
X140558994Y-81420530D01*
X140933203Y-81208808D01*
X141266200Y-81022206D01*
X141545798Y-80867480D01*
X141759813Y-80751387D01*
X141896059Y-80680681D01*
X141939865Y-80661505D01*
X141993459Y-80657690D01*
X141987208Y-80683431D01*
G37*
G36*
X141999250Y-81258636D02*
G01*
X141976809Y-81335958D01*
X141931644Y-81383674D01*
X141845602Y-81441878D01*
X141679099Y-81543684D01*
X141446143Y-81681230D01*
X141160744Y-81846656D01*
X140836909Y-82032100D01*
X140488648Y-82229703D01*
X140129970Y-82431603D01*
X139774882Y-82629940D01*
X139437394Y-82816852D01*
X139131515Y-82984480D01*
X138871253Y-83124961D01*
X138670617Y-83230437D01*
X138543615Y-83293046D01*
X138504258Y-83306891D01*
X138456921Y-83243260D01*
X138456306Y-83236350D01*
X138504122Y-83199266D01*
X138640014Y-83112328D01*
X138852648Y-82982325D01*
X139130691Y-82816044D01*
X139462808Y-82620274D01*
X139837667Y-82401804D01*
X140169840Y-82209996D01*
X140573712Y-81978695D01*
X140947109Y-81766696D01*
X141278237Y-81580553D01*
X141555305Y-81426819D01*
X141766520Y-81312045D01*
X141900089Y-81242786D01*
X141943263Y-81224549D01*
X141999250Y-81258636D01*
G37*
G36*
X141962739Y-81926393D02*
G01*
X141974550Y-81967701D01*
X141926866Y-82014957D01*
X141793150Y-82109550D01*
X141587406Y-82243292D01*
X141323640Y-82407991D01*
X141015853Y-82595457D01*
X140678052Y-82797499D01*
X140324240Y-83005927D01*
X139968421Y-83212550D01*
X139624599Y-83409178D01*
X139306779Y-83587620D01*
X139028965Y-83739686D01*
X138805161Y-83857185D01*
X138649371Y-83931927D01*
X138575600Y-83955721D01*
X138575461Y-83955698D01*
X138487940Y-83903738D01*
X138472779Y-83876974D01*
X138515447Y-83834180D01*
X138646483Y-83742269D01*
X138854562Y-83608268D01*
X139128359Y-83439199D01*
X139456548Y-83242088D01*
X139827802Y-83023958D01*
X140123005Y-82853480D01*
X140523501Y-82625153D01*
X140894883Y-82415919D01*
X141224918Y-82232476D01*
X141501371Y-82081526D01*
X141712009Y-81969768D01*
X141844598Y-81903902D01*
X141884696Y-81888667D01*
X141962739Y-81926393D01*
G37*
G36*
X141926913Y-82564675D02*
G01*
X141983403Y-82598151D01*
X141997049Y-82644144D01*
X141960623Y-82707918D01*
X141866898Y-82794736D01*
X141708645Y-82909864D01*
X141478636Y-83058566D01*
X141169644Y-83246105D01*
X140774440Y-83477747D01*
X140293180Y-83754533D01*
X139818354Y-84024691D01*
X139433210Y-84240546D01*
X139129199Y-84406452D01*
X138897769Y-84526768D01*
X138730371Y-84605848D01*
X138618454Y-84648049D01*
X138553468Y-84657728D01*
X138534443Y-84650612D01*
X138463335Y-84559395D01*
X138496264Y-84474634D01*
X138585023Y-84407535D01*
X138824279Y-84261554D01*
X139116845Y-84088729D01*
X139448867Y-83896700D01*
X139806493Y-83693105D01*
X140175869Y-83485583D01*
X140543144Y-83281773D01*
X140894464Y-83089316D01*
X141215976Y-82915848D01*
X141493827Y-82769011D01*
X141714165Y-82656442D01*
X141863137Y-82585780D01*
X141926889Y-82564666D01*
X141926913Y-82564675D01*
G37*
G36*
X141991681Y-85697485D02*
G01*
X141987425Y-86294786D01*
X141983278Y-86788892D01*
X141978638Y-87191023D01*
X141972900Y-87512395D01*
X141965461Y-87764229D01*
X141955719Y-87957741D01*
X141943069Y-88104149D01*
X141926908Y-88214673D01*
X141906632Y-88300529D01*
X141881639Y-88372937D01*
X141851324Y-88443114D01*
X141843010Y-88461260D01*
X141611003Y-88843640D01*
X141308396Y-89149575D01*
X140949994Y-89368292D01*
X140550607Y-89489020D01*
X140407084Y-89505905D01*
X139941984Y-89487363D01*
X139521460Y-89365562D01*
X139153855Y-89145258D01*
X138847512Y-88831208D01*
X138645111Y-88501455D01*
X138484910Y-88175224D01*
X138477285Y-87612064D01*
X138813779Y-87612064D01*
X138816579Y-87958716D01*
X138880646Y-88277048D01*
X138918593Y-88375450D01*
X139131823Y-88717998D01*
X139416173Y-88979059D01*
X139756023Y-89151764D01*
X140135757Y-89229241D01*
X140539758Y-89204620D01*
X140709354Y-89163250D01*
X140926321Y-89058690D01*
X141155095Y-88885098D01*
X141364959Y-88672711D01*
X141525192Y-88451768D01*
X141596875Y-88289639D01*
X141648345Y-87988244D01*
X141653387Y-87667386D01*
X141613200Y-87376008D01*
X141571306Y-87243770D01*
X141422721Y-86992678D01*
X141203755Y-86748119D01*
X140953407Y-86550187D01*
X140830406Y-86482049D01*
X140558954Y-86402366D01*
X140233198Y-86376840D01*
X139900527Y-86407196D01*
X139750106Y-86442768D01*
X139550198Y-86540266D01*
X139330354Y-86706351D01*
X139122283Y-86910403D01*
X138957694Y-87121800D01*
X138874340Y-87288513D01*
X138813779Y-87612064D01*
X138477285Y-87612064D01*
X138465068Y-86709696D01*
X138445226Y-85244168D01*
X140095473Y-84301391D01*
X140233198Y-84222767D01*
X140496302Y-84072567D01*
X140869933Y-83859592D01*
X141203577Y-83669728D01*
X141484445Y-83510243D01*
X141699748Y-83388401D01*
X141836694Y-83311468D01*
X141877267Y-83289180D01*
X142008813Y-83219747D01*
X141991681Y-85697485D01*
G37*
D12*
%TO.C,J1*%
X135990000Y-107210000D02*
X135990000Y-96990000D01*
X137210000Y-107210000D02*
X137210000Y-105990000D01*
X144410000Y-107210000D02*
X135990000Y-107210000D01*
X137210000Y-105990000D02*
X142210000Y-105990000D01*
X141210000Y-105990000D02*
X141210000Y-98210000D01*
X142210000Y-105990000D02*
X142210000Y-107210000D01*
X142210000Y-105990000D02*
X144410000Y-105990000D01*
X144410000Y-105990000D02*
X144410000Y-107210000D01*
X137790000Y-104920000D02*
X137710000Y-104600000D01*
X141210000Y-104920000D02*
X137790000Y-104920000D01*
X144900000Y-104900000D02*
X144900000Y-104300000D01*
X137710000Y-104600000D02*
X137790000Y-104280000D01*
X141210000Y-104600000D02*
X141210000Y-104920000D01*
X144300000Y-104600000D02*
X144900000Y-104900000D01*
X144900000Y-104300000D02*
X144300000Y-104600000D01*
X137790000Y-104280000D02*
X141210000Y-104280000D01*
X141210000Y-104280000D02*
X141210000Y-104600000D01*
X142210000Y-103430000D02*
X142210000Y-103270000D01*
X137790000Y-102420000D02*
X137710000Y-102100000D01*
X141210000Y-102420000D02*
X137790000Y-102420000D01*
X137710000Y-102100000D02*
X137790000Y-101780000D01*
X141210000Y-102100000D02*
X141210000Y-102420000D01*
X137790000Y-101780000D02*
X141210000Y-101780000D01*
X141210000Y-101780000D02*
X141210000Y-102100000D01*
X142210000Y-100930000D02*
X142210000Y-100770000D01*
X137790000Y-99920000D02*
X137710000Y-99600000D01*
X141210000Y-99920000D02*
X137790000Y-99920000D01*
X137710000Y-99600000D02*
X137790000Y-99280000D01*
X141210000Y-99600000D02*
X141210000Y-99920000D01*
X137790000Y-99280000D02*
X141210000Y-99280000D01*
X141210000Y-99280000D02*
X141210000Y-99600000D01*
X137210000Y-98210000D02*
X142210000Y-98210000D01*
X142210000Y-98210000D02*
X142210000Y-96990000D01*
X144410000Y-98210000D02*
X142210000Y-98210000D01*
X135990000Y-96990000D02*
X144410000Y-96990000D01*
X137210000Y-96990000D02*
X137210000Y-98210000D01*
X144410000Y-96990000D02*
X144410000Y-98210000D01*
%TO.C,C5*%
X139480000Y-94015000D02*
X139480000Y-92485000D01*
X141320000Y-92485000D02*
X141320000Y-94015000D01*
%TO.C,C4*%
X180720000Y-92885000D02*
X180720000Y-94415000D01*
X178880000Y-94415000D02*
X178880000Y-92885000D01*
%TO.C,U4*%
X170950000Y-91850000D02*
X170950000Y-95450000D01*
X170961522Y-91811522D02*
G75*
G02*
X175400001Y-93650000I1838478J-1838478D01*
G01*
X175400000Y-93650000D02*
G75*
G02*
X170961522Y-95488478I-2600000J0D01*
G01*
%TO.C,U2*%
X145000000Y-93650000D02*
G75*
G02*
X149438478Y-91811522I2600000J0D01*
G01*
X149438478Y-95488478D02*
G75*
G02*
X144999999Y-93650000I-1838478J1838478D01*
G01*
X149450000Y-95450000D02*
X149450000Y-91850000D01*
%TO.C,D2*%
X151091026Y-80692894D02*
X148092893Y-83691027D01*
X146508974Y-82107108D01*
X149507107Y-79108975D01*
X151091026Y-80692894D01*
X146841314Y-83358687D02*
X147300934Y-82899067D01*
X150497056Y-81286864D02*
X148913137Y-79702945D01*
X150581909Y-81202011D02*
X148997990Y-79618092D01*
X150666762Y-81117158D02*
X149082843Y-79533239D01*
X150758686Y-79441315D02*
X150299067Y-79900934D01*
%TO.C,D3*%
X149241315Y-105441315D02*
X149700934Y-105900934D01*
X150917158Y-105533239D02*
X149333239Y-107117158D01*
X151002011Y-105618092D02*
X149418092Y-107202011D01*
X151086864Y-105702945D02*
X149502945Y-107286864D01*
X153158687Y-109358687D02*
X152699067Y-108899067D01*
X153491027Y-108107108D02*
X151907108Y-109691027D01*
X148908975Y-106692894D01*
X150492894Y-105108975D01*
X153491027Y-108107108D01*
%TO.C,U3*%
X162355000Y-104950000D02*
X158755000Y-104950000D01*
X162393478Y-104961522D02*
G75*
G02*
X160555000Y-109400001I-1838478J-1838478D01*
G01*
X160555000Y-109400000D02*
G75*
G02*
X158716522Y-104961522I0J2600000D01*
G01*
%TO.C,U1*%
X158570000Y-83650000D02*
X162170000Y-83650000D01*
X158531522Y-83638478D02*
G75*
G02*
X160370000Y-79199999I1838478J1838478D01*
G01*
X160370000Y-79200000D02*
G75*
G02*
X162208478Y-83638478I0J-2600000D01*
G01*
%TO.C,D4*%
X169241315Y-108758686D02*
X169700934Y-108299067D01*
X169333239Y-107082843D02*
X170917158Y-108666762D01*
X169418092Y-106997990D02*
X171002011Y-108581909D01*
X169502945Y-106913137D02*
X171086864Y-108497056D01*
X173158687Y-104841314D02*
X172699067Y-105300934D01*
X173491027Y-106092893D02*
X170492894Y-109091026D01*
X168908975Y-107507107D01*
X171907108Y-104508974D01*
X173491027Y-106092893D01*
%TO.C,D1*%
X174158686Y-83158686D02*
X173699067Y-82699067D01*
X172482843Y-83066762D02*
X174066762Y-81482843D01*
X172397990Y-82981909D02*
X173981909Y-81397990D01*
X172313137Y-82897056D02*
X173897056Y-81313137D01*
X170241314Y-79241314D02*
X170700934Y-79700934D01*
X174491026Y-81907107D02*
X172907107Y-83491026D01*
X169908974Y-80492893D01*
X171492893Y-78908974D01*
X174491026Y-81907107D01*
%TO.C,C3*%
X161715000Y-114320000D02*
X160185000Y-114320000D01*
X160185000Y-112480000D02*
X161715000Y-112480000D01*
%TO.C,C2*%
X148040113Y-113325000D02*
X148540113Y-113325000D01*
X148290113Y-113075000D02*
X148290113Y-113575000D01*
X150844888Y-112220000D02*
X150844888Y-117380000D01*
X150884888Y-112220000D02*
X150884888Y-117380000D01*
X150924888Y-112221000D02*
X150924888Y-117379000D01*
X150964888Y-112223000D02*
X150964888Y-117377000D01*
X151004888Y-112225000D02*
X151004888Y-117375000D01*
X151044888Y-112228000D02*
X151044888Y-117372000D01*
X151084888Y-112231000D02*
X151084888Y-113760000D01*
X151084888Y-115840000D02*
X151084888Y-117369000D01*
X151124888Y-112235000D02*
X151124888Y-113760000D01*
X151124888Y-115840000D02*
X151124888Y-117365000D01*
X151164888Y-112240000D02*
X151164888Y-113760000D01*
X151164888Y-115840000D02*
X151164888Y-117360000D01*
X151204888Y-112245000D02*
X151204888Y-113760000D01*
X151204888Y-115840000D02*
X151204888Y-117355000D01*
X151244888Y-112251000D02*
X151244888Y-113760000D01*
X151244888Y-115840000D02*
X151244888Y-117349000D01*
X151284888Y-112257000D02*
X151284888Y-113760000D01*
X151284888Y-115840000D02*
X151284888Y-117343000D01*
X151324888Y-112264000D02*
X151324888Y-113760000D01*
X151324888Y-115840000D02*
X151324888Y-117336000D01*
X151364888Y-112272000D02*
X151364888Y-113760000D01*
X151364888Y-115840000D02*
X151364888Y-117328000D01*
X151404888Y-112281000D02*
X151404888Y-113760000D01*
X151404888Y-115840000D02*
X151404888Y-117319000D01*
X151444888Y-112290000D02*
X151444888Y-113760000D01*
X151444888Y-115840000D02*
X151444888Y-117310000D01*
X151484888Y-112299000D02*
X151484888Y-113760000D01*
X151484888Y-115840000D02*
X151484888Y-117301000D01*
X151524888Y-112310000D02*
X151524888Y-113760000D01*
X151524888Y-115840000D02*
X151524888Y-117290000D01*
X151564888Y-112321000D02*
X151564888Y-113760000D01*
X151564888Y-115840000D02*
X151564888Y-117279000D01*
X151604888Y-112333000D02*
X151604888Y-113760000D01*
X151604888Y-115840000D02*
X151604888Y-117267000D01*
X151644888Y-112345000D02*
X151644888Y-113760000D01*
X151644888Y-115840000D02*
X151644888Y-117255000D01*
X151684888Y-112358000D02*
X151684888Y-113760000D01*
X151684888Y-115840000D02*
X151684888Y-117242000D01*
X151724888Y-112372000D02*
X151724888Y-113760000D01*
X151724888Y-115840000D02*
X151724888Y-117228000D01*
X151764888Y-112387000D02*
X151764888Y-113760000D01*
X151764888Y-115840000D02*
X151764888Y-117213000D01*
X151804888Y-112402000D02*
X151804888Y-113760000D01*
X151804888Y-115840000D02*
X151804888Y-117198000D01*
X151844888Y-112418000D02*
X151844888Y-113760000D01*
X151844888Y-115840000D02*
X151844888Y-117182000D01*
X151884888Y-112435000D02*
X151884888Y-113760000D01*
X151884888Y-115840000D02*
X151884888Y-117165000D01*
X151924888Y-112453000D02*
X151924888Y-113760000D01*
X151924888Y-115840000D02*
X151924888Y-117147000D01*
X151964888Y-112471000D02*
X151964888Y-113760000D01*
X151964888Y-115840000D02*
X151964888Y-117129000D01*
X152004888Y-112491000D02*
X152004888Y-113760000D01*
X152004888Y-115840000D02*
X152004888Y-117109000D01*
X152044888Y-112511000D02*
X152044888Y-113760000D01*
X152044888Y-115840000D02*
X152044888Y-117089000D01*
X152084888Y-112532000D02*
X152084888Y-113760000D01*
X152084888Y-115840000D02*
X152084888Y-117068000D01*
X152124888Y-112554000D02*
X152124888Y-113760000D01*
X152124888Y-115840000D02*
X152124888Y-117046000D01*
X152164888Y-112577000D02*
X152164888Y-113760000D01*
X152164888Y-115840000D02*
X152164888Y-117023000D01*
X152204888Y-112601000D02*
X152204888Y-113760000D01*
X152204888Y-115840000D02*
X152204888Y-116999000D01*
X152244888Y-112625000D02*
X152244888Y-113760000D01*
X152244888Y-115840000D02*
X152244888Y-116975000D01*
X152284888Y-112651000D02*
X152284888Y-113760000D01*
X152284888Y-115840000D02*
X152284888Y-116949000D01*
X152324888Y-112678000D02*
X152324888Y-113760000D01*
X152324888Y-115840000D02*
X152324888Y-116922000D01*
X152364888Y-112706000D02*
X152364888Y-113760000D01*
X152364888Y-115840000D02*
X152364888Y-116894000D01*
X152404888Y-112735000D02*
X152404888Y-113760000D01*
X152404888Y-115840000D02*
X152404888Y-116865000D01*
X152444888Y-112765000D02*
X152444888Y-113760000D01*
X152444888Y-115840000D02*
X152444888Y-116835000D01*
X152484888Y-112797000D02*
X152484888Y-113760000D01*
X152484888Y-115840000D02*
X152484888Y-116803000D01*
X152524888Y-112830000D02*
X152524888Y-113760000D01*
X152524888Y-115840000D02*
X152524888Y-116770000D01*
X152564888Y-112864000D02*
X152564888Y-113760000D01*
X152564888Y-115840000D02*
X152564888Y-116736000D01*
X152604888Y-112899000D02*
X152604888Y-113760000D01*
X152604888Y-115840000D02*
X152604888Y-116701000D01*
X152644888Y-112936000D02*
X152644888Y-113760000D01*
X152644888Y-115840000D02*
X152644888Y-116664000D01*
X152684888Y-112975000D02*
X152684888Y-113760000D01*
X152684888Y-115840000D02*
X152684888Y-116625000D01*
X152724888Y-113015000D02*
X152724888Y-113760000D01*
X152724888Y-115840000D02*
X152724888Y-116585000D01*
X152764888Y-113057000D02*
X152764888Y-113760000D01*
X152764888Y-115840000D02*
X152764888Y-116543000D01*
X152804888Y-113101000D02*
X152804888Y-113760000D01*
X152804888Y-115840000D02*
X152804888Y-116499000D01*
X152844888Y-113148000D02*
X152844888Y-113760000D01*
X152844888Y-115840000D02*
X152844888Y-116452000D01*
X152884888Y-113196000D02*
X152884888Y-113760000D01*
X152884888Y-115840000D02*
X152884888Y-116404000D01*
X152924888Y-113247000D02*
X152924888Y-113760000D01*
X152924888Y-115840000D02*
X152924888Y-116353000D01*
X152964888Y-113301000D02*
X152964888Y-113760000D01*
X152964888Y-115840000D02*
X152964888Y-116299000D01*
X153004888Y-113357000D02*
X153004888Y-113760000D01*
X153004888Y-115840000D02*
X153004888Y-116243000D01*
X153044888Y-113417000D02*
X153044888Y-113760000D01*
X153044888Y-115840000D02*
X153044888Y-116183000D01*
X153084888Y-113481000D02*
X153084888Y-113760000D01*
X153084888Y-115840000D02*
X153084888Y-116119000D01*
X153124888Y-113549000D02*
X153124888Y-113760000D01*
X153124888Y-115840000D02*
X153124888Y-116051000D01*
X153164888Y-113623000D02*
X153164888Y-115977000D01*
X153204888Y-113702000D02*
X153204888Y-115898000D01*
X153244888Y-113789000D02*
X153244888Y-115811000D01*
X153284888Y-113886000D02*
X153284888Y-115714000D01*
X153324888Y-113995000D02*
X153324888Y-115605000D01*
X153364888Y-114123000D02*
X153364888Y-115477000D01*
X153404888Y-114283000D02*
X153404888Y-115317000D01*
X153444888Y-114517000D02*
X153444888Y-115083000D01*
X153464888Y-114800000D02*
G75*
G02*
X148224888Y-114800000I-2620000J0D01*
G01*
X148224888Y-114800000D02*
G75*
G02*
X153464888Y-114800000I2620000J0D01*
G01*
%TO.C,C1*%
X159185000Y-74080000D02*
X160715000Y-74080000D01*
X160715000Y-75920000D02*
X159185000Y-75920000D01*
%TD*%
M02*
