%TF.GenerationSoftware,KiCad,Pcbnew,8.0.5*%
%TF.CreationDate,2024-10-16T14:37:30+05:30*%
%TF.ProjectId,SensorNorth,53656e73-6f72-44e6-9f72-74682e6b6963,rev?*%
%TF.SameCoordinates,Original*%
%TF.FileFunction,Copper,L1,Top*%
%TF.FilePolarity,Positive*%
%FSLAX46Y46*%
G04 Gerber Fmt 4.6, Leading zero omitted, Abs format (unit mm)*
G04 Created by KiCad (PCBNEW 8.0.5) date 2024-10-16 14:37:30*
%MOMM*%
%LPD*%
G01*
G04 APERTURE LIST*
G04 Aperture macros list*
%AMRoundRect*
0 Rectangle with rounded corners*
0 $1 Rounding radius*
0 $2 $3 $4 $5 $6 $7 $8 $9 X,Y pos of 4 corners*
0 Add a 4 corners polygon primitive as box body*
4,1,4,$2,$3,$4,$5,$6,$7,$8,$9,$2,$3,0*
0 Add four circle primitives for the rounded corners*
1,1,$1+$1,$2,$3*
1,1,$1+$1,$4,$5*
1,1,$1+$1,$6,$7*
1,1,$1+$1,$8,$9*
0 Add four rect primitives between the rounded corners*
20,1,$1+$1,$2,$3,$4,$5,0*
20,1,$1+$1,$4,$5,$6,$7,0*
20,1,$1+$1,$6,$7,$8,$9,0*
20,1,$1+$1,$8,$9,$2,$3,0*%
G04 Aperture macros list end*
%TA.AperFunction,SMDPad,CuDef*%
%ADD10RoundRect,0.250000X0.337500X0.475000X-0.337500X0.475000X-0.337500X-0.475000X0.337500X-0.475000X0*%
%TD*%
%TA.AperFunction,SMDPad,CuDef*%
%ADD11RoundRect,0.250000X0.475000X-0.337500X0.475000X0.337500X-0.475000X0.337500X-0.475000X-0.337500X0*%
%TD*%
%TA.AperFunction,ComponentPad*%
%ADD12R,1.700000X1.700000*%
%TD*%
%TA.AperFunction,ComponentPad*%
%ADD13O,1.700000X1.700000*%
%TD*%
%TA.AperFunction,SMDPad,CuDef*%
%ADD14RoundRect,0.250000X-0.350000X-0.450000X0.350000X-0.450000X0.350000X0.450000X-0.350000X0.450000X0*%
%TD*%
%TA.AperFunction,SMDPad,CuDef*%
%ADD15RoundRect,0.200000X-0.200000X0.750000X-0.200000X-0.750000X0.200000X-0.750000X0.200000X0.750000X0*%
%TD*%
%TA.AperFunction,SMDPad,CuDef*%
%ADD16RoundRect,0.150000X-0.825000X-0.150000X0.825000X-0.150000X0.825000X0.150000X-0.825000X0.150000X0*%
%TD*%
%TA.AperFunction,HeatsinkPad*%
%ADD17R,2.290000X3.000000*%
%TD*%
%TA.AperFunction,ComponentPad*%
%ADD18R,1.600000X1.600000*%
%TD*%
%TA.AperFunction,ComponentPad*%
%ADD19C,1.600000*%
%TD*%
%TA.AperFunction,SMDPad,CuDef*%
%ADD20RoundRect,0.237500X-0.300000X-0.237500X0.300000X-0.237500X0.300000X0.237500X-0.300000X0.237500X0*%
%TD*%
%TA.AperFunction,ViaPad*%
%ADD21C,0.600000*%
%TD*%
%TA.AperFunction,Conductor*%
%ADD22C,0.200000*%
%TD*%
%TA.AperFunction,Conductor*%
%ADD23C,2.000000*%
%TD*%
G04 APERTURE END LIST*
D10*
%TO.P,C3,1*%
%TO.N,+5V*%
X187500000Y-87000000D03*
%TO.P,C3,2*%
%TO.N,GND*%
X185425000Y-87000000D03*
%TD*%
D11*
%TO.P,C2,1*%
%TO.N,-5V*%
X178000000Y-95325000D03*
%TO.P,C2,2*%
%TO.N,GND*%
X178000000Y-93250000D03*
%TD*%
D12*
%TO.P,J1,1,Pin_1*%
%TO.N,Net-(D1-K)*%
X197960000Y-87920000D03*
D13*
%TO.P,J1,2,Pin_2*%
%TO.N,+5V*%
X200500000Y-87920000D03*
%TO.P,J1,3,Pin_3*%
%TO.N,unconnected-(J1-Pin_3-Pad3)*%
X197960000Y-90460000D03*
%TO.P,J1,4,Pin_4*%
%TO.N,+5V*%
X200500000Y-90460000D03*
%TO.P,J1,5,Pin_5*%
%TO.N,unconnected-(J1-Pin_5-Pad5)*%
X197960000Y-93000000D03*
%TO.P,J1,6,Pin_6*%
%TO.N,GND*%
X200500000Y-93000000D03*
%TO.P,J1,7,Pin_7*%
%TO.N,unconnected-(J1-Pin_7-Pad7)*%
X197960000Y-95540000D03*
%TO.P,J1,8,Pin_8*%
%TO.N,GND*%
X200500000Y-95540000D03*
%TO.P,J1,9,Pin_9*%
%TO.N,unconnected-(J1-Pin_9-Pad9)*%
X197960000Y-98080000D03*
%TO.P,J1,10,Pin_10*%
%TO.N,-5V*%
X200500000Y-98080000D03*
%TD*%
D14*
%TO.P,R2,1*%
%TO.N,Net-(C1-Pad2)*%
X173750000Y-90500000D03*
%TO.P,R2,2*%
%TO.N,Net-(U1--)*%
X175750000Y-90500000D03*
%TD*%
%TO.P,R4,1*%
%TO.N,Net-(R3-Pad2)*%
X189750000Y-94000000D03*
%TO.P,R4,2*%
%TO.N,Net-(D1-K)*%
X191750000Y-94000000D03*
%TD*%
D15*
%TO.P,D1,1,A*%
%TO.N,GND*%
X192750000Y-87687500D03*
%TO.P,D1,2,NC*%
%TO.N,unconnected-(D1-NC-Pad2)*%
X190850000Y-87687500D03*
%TO.P,D1,3,K*%
%TO.N,Net-(D1-K)*%
X191800000Y-90687500D03*
%TD*%
D14*
%TO.P,R3,1*%
%TO.N,Net-(U1--)*%
X181000000Y-87000000D03*
%TO.P,R3,2*%
%TO.N,Net-(R3-Pad2)*%
X183000000Y-87000000D03*
%TD*%
D16*
%TO.P,U1,1,NC*%
%TO.N,unconnected-(U1-NC-Pad1)*%
X181595000Y-90500000D03*
%TO.P,U1,2,-*%
%TO.N,Net-(U1--)*%
X181595000Y-91770000D03*
%TO.P,U1,3,+*%
%TO.N,GND*%
X181595000Y-93040000D03*
%TO.P,U1,4,V-*%
%TO.N,-5V*%
X181595000Y-94310000D03*
%TO.P,U1,5,NC*%
%TO.N,unconnected-(U1-NC-Pad5)*%
X186545000Y-94310000D03*
%TO.P,U1,6*%
%TO.N,Net-(R3-Pad2)*%
X186545000Y-93040000D03*
%TO.P,U1,7,V+*%
%TO.N,+5V*%
X186545000Y-91770000D03*
%TO.P,U1,8,NC*%
%TO.N,unconnected-(U1-NC-Pad8)*%
X186545000Y-90500000D03*
D17*
%TO.P,U1,9*%
%TO.N,N/C*%
X184070000Y-92405000D03*
%TD*%
D14*
%TO.P,R1,1*%
%TO.N,Net-(MK1--)*%
X168500000Y-87250000D03*
%TO.P,R1,2*%
%TO.N,+5V*%
X170500000Y-87250000D03*
%TD*%
D18*
%TO.P,MK1,1,-*%
%TO.N,Net-(MK1--)*%
X168500000Y-97000000D03*
D19*
%TO.P,MK1,2,+*%
%TO.N,GND*%
X168500000Y-99500000D03*
%TD*%
D20*
%TO.P,C1,1*%
%TO.N,Net-(MK1--)*%
X168637500Y-90500000D03*
%TO.P,C1,2*%
%TO.N,Net-(C1-Pad2)*%
X170362500Y-90500000D03*
%TD*%
D21*
%TO.N,GND*%
X185250000Y-85562500D03*
X193500000Y-85500000D03*
X179500000Y-93000000D03*
%TD*%
D22*
%TO.N,Net-(MK1--)*%
X168500000Y-90362500D02*
X168637500Y-90500000D01*
X168500000Y-87250000D02*
X168500000Y-90362500D01*
X168500000Y-97000000D02*
X168500000Y-90637500D01*
X168500000Y-90637500D02*
X168637500Y-90500000D01*
%TO.N,Net-(C1-Pad2)*%
X170362500Y-90500000D02*
X173750000Y-90500000D01*
D23*
%TO.N,-5V*%
X180425000Y-96500000D02*
X193161522Y-96500000D01*
X179250000Y-95325000D02*
X178000000Y-95325000D01*
X200500000Y-98439138D02*
X200500000Y-98080000D01*
X193161522Y-96500000D02*
X196791522Y-100130000D01*
X196791522Y-100130000D02*
X198809138Y-100130000D01*
X180810000Y-95325000D02*
X181595000Y-94540000D01*
X180425000Y-96500000D02*
X179250000Y-95325000D01*
X178000000Y-95325000D02*
X180810000Y-95325000D01*
X198809138Y-100130000D02*
X200500000Y-98439138D01*
D22*
%TO.N,GND*%
X192750000Y-86250000D02*
X193500000Y-85500000D01*
X185425000Y-87000000D02*
X185425000Y-85737500D01*
X185425000Y-85737500D02*
X185250000Y-85562500D01*
X192750000Y-87687500D02*
X192750000Y-86250000D01*
X179250000Y-93250000D02*
X179500000Y-93000000D01*
X179540000Y-93040000D02*
X179500000Y-93000000D01*
X181595000Y-93040000D02*
X179540000Y-93040000D01*
X178000000Y-93250000D02*
X179250000Y-93250000D01*
X178500000Y-93000000D02*
X178000000Y-93500000D01*
%TO.N,+5V*%
X186545000Y-91770000D02*
X187519999Y-91770000D01*
X182100000Y-84600000D02*
X181750000Y-84250000D01*
X187650000Y-89650000D02*
X184065256Y-89650000D01*
X187500000Y-84500000D02*
X187250000Y-84250000D01*
X182100000Y-87684744D02*
X182100000Y-84600000D01*
X188000000Y-90000000D02*
X187650000Y-89650000D01*
X188000000Y-91289999D02*
X188000000Y-90000000D01*
X187519999Y-91770000D02*
X188000000Y-91289999D01*
X196830000Y-84250000D02*
X196000000Y-84250000D01*
X184065256Y-89650000D02*
X182100000Y-87684744D01*
X187500000Y-87000000D02*
X187500000Y-84500000D01*
X200500000Y-87920000D02*
X196830000Y-84250000D01*
X170500000Y-87250000D02*
X173500000Y-84250000D01*
X173500000Y-84250000D02*
X181750000Y-84250000D01*
X200500000Y-90460000D02*
X200500000Y-87920000D01*
X181750000Y-84250000D02*
X187250000Y-84250000D01*
X196000000Y-84250000D02*
X187250000Y-84250000D01*
%TO.N,Net-(D1-K)*%
X193812500Y-90687500D02*
X196580000Y-87920000D01*
X191750000Y-94000000D02*
X191750000Y-90237500D01*
X191750000Y-90237500D02*
X191800000Y-90187500D01*
X196580000Y-87920000D02*
X197960000Y-87920000D01*
X191800000Y-90687500D02*
X193812500Y-90687500D01*
X192027500Y-90460000D02*
X191800000Y-90687500D01*
%TO.N,Net-(U1--)*%
X181000000Y-87750000D02*
X178250000Y-90500000D01*
X178250000Y-90500000D02*
X175750000Y-90500000D01*
X177020000Y-91770000D02*
X181595000Y-91770000D01*
X181000000Y-87000000D02*
X181000000Y-87750000D01*
X175750000Y-90500000D02*
X177020000Y-91770000D01*
%TO.N,Net-(R3-Pad2)*%
X187850552Y-94000000D02*
X186890552Y-93040000D01*
X186890552Y-93040000D02*
X186545000Y-93040000D01*
X183000000Y-87000000D02*
X184250000Y-88250000D01*
X189250000Y-88250000D02*
X189750000Y-88750000D01*
X184250000Y-88250000D02*
X189250000Y-88250000D01*
X189750000Y-88750000D02*
X189750000Y-94000000D01*
X189750000Y-94000000D02*
X187850552Y-94000000D01*
%TD*%
%TA.AperFunction,Conductor*%
%TO.N,+5V*%
G36*
X200750000Y-90026988D02*
G01*
X200692993Y-89994075D01*
X200565826Y-89960000D01*
X200434174Y-89960000D01*
X200307007Y-89994075D01*
X200250000Y-90026988D01*
X200250000Y-88353012D01*
X200307007Y-88385925D01*
X200434174Y-88420000D01*
X200565826Y-88420000D01*
X200692993Y-88385925D01*
X200750000Y-88353012D01*
X200750000Y-90026988D01*
G37*
%TD.AperFunction*%
%TA.AperFunction,Conductor*%
G36*
X210942539Y-82020185D02*
G01*
X210988294Y-82072989D01*
X210999500Y-82124500D01*
X210999500Y-103375500D01*
X210979815Y-103442539D01*
X210927011Y-103488294D01*
X210875500Y-103499500D01*
X193874000Y-103499500D01*
X193806961Y-103479815D01*
X193761206Y-103427011D01*
X193750000Y-103375500D01*
X193750000Y-99250000D01*
X175250000Y-99250000D01*
X175250000Y-103375500D01*
X175230315Y-103442539D01*
X175177511Y-103488294D01*
X175126000Y-103499500D01*
X163624500Y-103499500D01*
X163557461Y-103479815D01*
X163511706Y-103427011D01*
X163500500Y-103375500D01*
X163500500Y-99500000D01*
X167494659Y-99500000D01*
X167513975Y-99696129D01*
X167571188Y-99884733D01*
X167664086Y-100058532D01*
X167664090Y-100058539D01*
X167789116Y-100210883D01*
X167941460Y-100335909D01*
X167941467Y-100335913D01*
X168115266Y-100428811D01*
X168115269Y-100428811D01*
X168115273Y-100428814D01*
X168303868Y-100486024D01*
X168500000Y-100505341D01*
X168696132Y-100486024D01*
X168884727Y-100428814D01*
X169058538Y-100335910D01*
X169210883Y-100210883D01*
X169335910Y-100058538D01*
X169428814Y-99884727D01*
X169486024Y-99696132D01*
X169505341Y-99500000D01*
X169486024Y-99303868D01*
X169428814Y-99115273D01*
X169428811Y-99115269D01*
X169428811Y-99115266D01*
X169335913Y-98941467D01*
X169335909Y-98941460D01*
X169210883Y-98789116D01*
X169058539Y-98664090D01*
X169058532Y-98664086D01*
X168884733Y-98571188D01*
X168884727Y-98571186D01*
X168696132Y-98513976D01*
X168696129Y-98513975D01*
X168500000Y-98494659D01*
X168303870Y-98513975D01*
X168115266Y-98571188D01*
X167941467Y-98664086D01*
X167941460Y-98664090D01*
X167789116Y-98789116D01*
X167664090Y-98941460D01*
X167664086Y-98941467D01*
X167571188Y-99115266D01*
X167513975Y-99303870D01*
X167494659Y-99500000D01*
X163500500Y-99500000D01*
X163500500Y-96180247D01*
X167499500Y-96180247D01*
X167499500Y-97819752D01*
X167511131Y-97878229D01*
X167511132Y-97878230D01*
X167555447Y-97944552D01*
X167621769Y-97988867D01*
X167621770Y-97988868D01*
X167680247Y-98000499D01*
X167680250Y-98000500D01*
X167680252Y-98000500D01*
X169319750Y-98000500D01*
X169319751Y-98000499D01*
X169334568Y-97997552D01*
X169378229Y-97988868D01*
X169378229Y-97988867D01*
X169378231Y-97988867D01*
X169444552Y-97944552D01*
X169488867Y-97878231D01*
X169488867Y-97878229D01*
X169488868Y-97878229D01*
X169500499Y-97819752D01*
X169500500Y-97819750D01*
X169500500Y-96180249D01*
X169500499Y-96180247D01*
X169488868Y-96121770D01*
X169488867Y-96121769D01*
X169444552Y-96055447D01*
X169378230Y-96011132D01*
X169378229Y-96011131D01*
X169319752Y-95999500D01*
X169319748Y-95999500D01*
X168924500Y-95999500D01*
X168857461Y-95979815D01*
X168811706Y-95927011D01*
X168800500Y-95875500D01*
X168800500Y-91299500D01*
X168820185Y-91232461D01*
X168872989Y-91186706D01*
X168924500Y-91175500D01*
X168990260Y-91175500D01*
X169019849Y-91172725D01*
X169047984Y-91162880D01*
X169144475Y-91129116D01*
X169250711Y-91050711D01*
X169329116Y-90944475D01*
X169372725Y-90819849D01*
X169374460Y-90801349D01*
X169375500Y-90790260D01*
X169375500Y-90209739D01*
X169624500Y-90209739D01*
X169624500Y-90790260D01*
X169627274Y-90819849D01*
X169670884Y-90944476D01*
X169749288Y-91050710D01*
X169749289Y-91050711D01*
X169855523Y-91129115D01*
X169855524Y-91129115D01*
X169855525Y-91129116D01*
X169980151Y-91172725D01*
X169980150Y-91172725D01*
X170009740Y-91175500D01*
X170009744Y-91175500D01*
X170715260Y-91175500D01*
X170744849Y-91172725D01*
X170772984Y-91162880D01*
X170869475Y-91129116D01*
X170975711Y-91050711D01*
X171054116Y-90944475D01*
X171061106Y-90924500D01*
X171075437Y-90883545D01*
X171116159Y-90826769D01*
X171181112Y-90801022D01*
X171192478Y-90800500D01*
X172825500Y-90800500D01*
X172892539Y-90820185D01*
X172938294Y-90872989D01*
X172949500Y-90924500D01*
X172949500Y-91004269D01*
X172952353Y-91034699D01*
X172952353Y-91034701D01*
X172993837Y-91153251D01*
X172997207Y-91162882D01*
X173077850Y-91272150D01*
X173187118Y-91352793D01*
X173207146Y-91359801D01*
X173315299Y-91397646D01*
X173345730Y-91400500D01*
X173345734Y-91400500D01*
X174154270Y-91400500D01*
X174184699Y-91397646D01*
X174184701Y-91397646D01*
X174248790Y-91375219D01*
X174312882Y-91352793D01*
X174422150Y-91272150D01*
X174502793Y-91162882D01*
X174541638Y-91051870D01*
X174547646Y-91034701D01*
X174547646Y-91034699D01*
X174550500Y-91004269D01*
X174550500Y-89995730D01*
X174949500Y-89995730D01*
X174949500Y-91004269D01*
X174952353Y-91034699D01*
X174952353Y-91034701D01*
X174993837Y-91153251D01*
X174997207Y-91162882D01*
X175077850Y-91272150D01*
X175187118Y-91352793D01*
X175207146Y-91359801D01*
X175315299Y-91397646D01*
X175345730Y-91400500D01*
X175345734Y-91400500D01*
X176154267Y-91400500D01*
X176161379Y-91399833D01*
X176229963Y-91413171D01*
X176260639Y-91435610D01*
X176779540Y-91954511D01*
X176835489Y-92010460D01*
X176835491Y-92010461D01*
X176835495Y-92010464D01*
X176904004Y-92050017D01*
X176904011Y-92050021D01*
X176980438Y-92070500D01*
X177059562Y-92070500D01*
X180377003Y-92070500D01*
X180444042Y-92090185D01*
X180477923Y-92122450D01*
X180480805Y-92126487D01*
X180563514Y-92209196D01*
X180563515Y-92209196D01*
X180563517Y-92209198D01*
X180668607Y-92260573D01*
X180702673Y-92265536D01*
X180736739Y-92270500D01*
X180736740Y-92270500D01*
X182453261Y-92270500D01*
X182470293Y-92268018D01*
X182521393Y-92260573D01*
X182546040Y-92248523D01*
X182614911Y-92236764D01*
X182679208Y-92264107D01*
X182718517Y-92321870D01*
X182724500Y-92359924D01*
X182724500Y-92450075D01*
X182704815Y-92517114D01*
X182652011Y-92562869D01*
X182582853Y-92572813D01*
X182546041Y-92561476D01*
X182521393Y-92549426D01*
X182453261Y-92539500D01*
X182453260Y-92539500D01*
X180736740Y-92539500D01*
X180736739Y-92539500D01*
X180668608Y-92549426D01*
X180563514Y-92600803D01*
X180480805Y-92683512D01*
X180477923Y-92687550D01*
X180422949Y-92730674D01*
X180377003Y-92739500D01*
X179993161Y-92739500D01*
X179926122Y-92719815D01*
X179899448Y-92696703D01*
X179880085Y-92674357D01*
X179831128Y-92617857D01*
X179710053Y-92540047D01*
X179710051Y-92540046D01*
X179710049Y-92540045D01*
X179710050Y-92540045D01*
X179571963Y-92499500D01*
X179571961Y-92499500D01*
X179428039Y-92499500D01*
X179428036Y-92499500D01*
X179289949Y-92540045D01*
X179168872Y-92617857D01*
X179168869Y-92617858D01*
X179079897Y-92720538D01*
X179021119Y-92758312D01*
X178951249Y-92758312D01*
X178892472Y-92720537D01*
X178882808Y-92706414D01*
X178877793Y-92699619D01*
X178877793Y-92699618D01*
X178797150Y-92590350D01*
X178687882Y-92509707D01*
X178687880Y-92509706D01*
X178559700Y-92464853D01*
X178529270Y-92462000D01*
X178529266Y-92462000D01*
X177470734Y-92462000D01*
X177470730Y-92462000D01*
X177440300Y-92464853D01*
X177440298Y-92464853D01*
X177312119Y-92509706D01*
X177312117Y-92509707D01*
X177202850Y-92590350D01*
X177122207Y-92699617D01*
X177122206Y-92699619D01*
X177077353Y-92827798D01*
X177077353Y-92827800D01*
X177074500Y-92858230D01*
X177074500Y-93641769D01*
X177077353Y-93672199D01*
X177077353Y-93672201D01*
X177116743Y-93784767D01*
X177122207Y-93800382D01*
X177202850Y-93909650D01*
X177312118Y-93990293D01*
X177398795Y-94020622D01*
X177431387Y-94032027D01*
X177488163Y-94072748D01*
X177513910Y-94137701D01*
X177500454Y-94206263D01*
X177452066Y-94256665D01*
X177446728Y-94259552D01*
X177370803Y-94298238D01*
X177340596Y-94320185D01*
X177217927Y-94409310D01*
X177217925Y-94409312D01*
X177217924Y-94409312D01*
X177084312Y-94542924D01*
X177084312Y-94542925D01*
X177084310Y-94542927D01*
X177070895Y-94561391D01*
X176973240Y-94695800D01*
X176887454Y-94864163D01*
X176829059Y-95043881D01*
X176799500Y-95230513D01*
X176799500Y-95419486D01*
X176829059Y-95606118D01*
X176887454Y-95785836D01*
X176959387Y-95927011D01*
X176973240Y-95954199D01*
X177084310Y-96107073D01*
X177217927Y-96240690D01*
X177370801Y-96351760D01*
X177450347Y-96392290D01*
X177539163Y-96437545D01*
X177539165Y-96437545D01*
X177539168Y-96437547D01*
X177635497Y-96468846D01*
X177718881Y-96495940D01*
X177905514Y-96525500D01*
X177905519Y-96525500D01*
X178701374Y-96525500D01*
X178768413Y-96545185D01*
X178789055Y-96561819D01*
X179642927Y-97415690D01*
X179795801Y-97526760D01*
X179875347Y-97567290D01*
X179964163Y-97612545D01*
X179964165Y-97612545D01*
X179964168Y-97612547D01*
X180060497Y-97643846D01*
X180143881Y-97670940D01*
X180330514Y-97700500D01*
X180330519Y-97700500D01*
X180519482Y-97700500D01*
X192612896Y-97700500D01*
X192679935Y-97720185D01*
X192700577Y-97736819D01*
X196009448Y-101045690D01*
X196162323Y-101156760D01*
X196330690Y-101242547D01*
X196510404Y-101300940D01*
X196580392Y-101312025D01*
X196697035Y-101330500D01*
X196697040Y-101330500D01*
X198903624Y-101330500D01*
X199090256Y-101300940D01*
X199269970Y-101242547D01*
X199438337Y-101156760D01*
X199591212Y-101045690D01*
X201415690Y-99221212D01*
X201526760Y-99068337D01*
X201612547Y-98899970D01*
X201670940Y-98720256D01*
X201679836Y-98664090D01*
X201700500Y-98533624D01*
X201700500Y-97985513D01*
X201670940Y-97798881D01*
X201643846Y-97715497D01*
X201612547Y-97619168D01*
X201612545Y-97619165D01*
X201612545Y-97619163D01*
X201565462Y-97526759D01*
X201526760Y-97450801D01*
X201415690Y-97297927D01*
X201282073Y-97164310D01*
X201129199Y-97053240D01*
X201112436Y-97044699D01*
X200960836Y-96967454D01*
X200781118Y-96909059D01*
X200594486Y-96879500D01*
X200594481Y-96879500D01*
X200405519Y-96879500D01*
X200405514Y-96879500D01*
X200218881Y-96909059D01*
X200039163Y-96967454D01*
X199870800Y-97053240D01*
X199799879Y-97104768D01*
X199717927Y-97164310D01*
X199717925Y-97164312D01*
X199717924Y-97164312D01*
X199584312Y-97297924D01*
X199584312Y-97297925D01*
X199584310Y-97297927D01*
X199558400Y-97333589D01*
X199473240Y-97450800D01*
X199387454Y-97619165D01*
X199329059Y-97798884D01*
X199314015Y-97893867D01*
X199284085Y-97957001D01*
X199279223Y-97962149D01*
X199214040Y-98027332D01*
X199152717Y-98060817D01*
X199083025Y-98055833D01*
X199027092Y-98013961D01*
X199002956Y-97951806D01*
X198995300Y-97874066D01*
X198935232Y-97676046D01*
X198837685Y-97493550D01*
X198773785Y-97415687D01*
X198706410Y-97333589D01*
X198546452Y-97202317D01*
X198546453Y-97202317D01*
X198546450Y-97202315D01*
X198363954Y-97104768D01*
X198165934Y-97044700D01*
X198165932Y-97044699D01*
X198165934Y-97044699D01*
X197960000Y-97024417D01*
X197754067Y-97044699D01*
X197556043Y-97104769D01*
X197445898Y-97163643D01*
X197373550Y-97202315D01*
X197373548Y-97202316D01*
X197373547Y-97202317D01*
X197213589Y-97333589D01*
X197082317Y-97493547D01*
X196984769Y-97676043D01*
X196924699Y-97874067D01*
X196904417Y-98080000D01*
X196921265Y-98251060D01*
X196908246Y-98319706D01*
X196860181Y-98370416D01*
X196792330Y-98387091D01*
X196726236Y-98364435D01*
X196710181Y-98350895D01*
X193943598Y-95584312D01*
X193943596Y-95584310D01*
X193882608Y-95540000D01*
X196904417Y-95540000D01*
X196924699Y-95745932D01*
X196924700Y-95745934D01*
X196984768Y-95943954D01*
X197082315Y-96126450D01*
X197082317Y-96126452D01*
X197213589Y-96286410D01*
X197293218Y-96351759D01*
X197373550Y-96417685D01*
X197556046Y-96515232D01*
X197754066Y-96575300D01*
X197754065Y-96575300D01*
X197772529Y-96577118D01*
X197960000Y-96595583D01*
X198165934Y-96575300D01*
X198363954Y-96515232D01*
X198546450Y-96417685D01*
X198706410Y-96286410D01*
X198837685Y-96126450D01*
X198935232Y-95943954D01*
X198995300Y-95745934D01*
X199015583Y-95540000D01*
X199444417Y-95540000D01*
X199464699Y-95745932D01*
X199464700Y-95745934D01*
X199524768Y-95943954D01*
X199622315Y-96126450D01*
X199622317Y-96126452D01*
X199753589Y-96286410D01*
X199833218Y-96351759D01*
X199913550Y-96417685D01*
X200096046Y-96515232D01*
X200294066Y-96575300D01*
X200294065Y-96575300D01*
X200312529Y-96577118D01*
X200500000Y-96595583D01*
X200705934Y-96575300D01*
X200903954Y-96515232D01*
X201086450Y-96417685D01*
X201246410Y-96286410D01*
X201377685Y-96126450D01*
X201475232Y-95943954D01*
X201535300Y-95745934D01*
X201555583Y-95540000D01*
X201535300Y-95334066D01*
X201475232Y-95136046D01*
X201377685Y-94953550D01*
X201304332Y-94864168D01*
X201246410Y-94793589D01*
X201091531Y-94666485D01*
X201086450Y-94662315D01*
X200903954Y-94564768D01*
X200705934Y-94504700D01*
X200705932Y-94504699D01*
X200705934Y-94504699D01*
X200500000Y-94484417D01*
X200294067Y-94504699D01*
X200096043Y-94564769D01*
X199985898Y-94623643D01*
X199913550Y-94662315D01*
X199913548Y-94662316D01*
X199913547Y-94662317D01*
X199753589Y-94793589D01*
X199622317Y-94953547D01*
X199524769Y-95136043D01*
X199464699Y-95334067D01*
X199444417Y-95540000D01*
X199015583Y-95540000D01*
X198995300Y-95334066D01*
X198935232Y-95136046D01*
X198837685Y-94953550D01*
X198764332Y-94864168D01*
X198706410Y-94793589D01*
X198551531Y-94666485D01*
X198546450Y-94662315D01*
X198363954Y-94564768D01*
X198165934Y-94504700D01*
X198165932Y-94504699D01*
X198165934Y-94504699D01*
X197960000Y-94484417D01*
X197754067Y-94504699D01*
X197556043Y-94564769D01*
X197445898Y-94623643D01*
X197373550Y-94662315D01*
X197373548Y-94662316D01*
X197373547Y-94662317D01*
X197213589Y-94793589D01*
X197082317Y-94953547D01*
X196984769Y-95136043D01*
X196924699Y-95334067D01*
X196904417Y-95540000D01*
X193882608Y-95540000D01*
X193790721Y-95473240D01*
X193622358Y-95387454D01*
X193442640Y-95329059D01*
X193256008Y-95299500D01*
X193256003Y-95299500D01*
X182757718Y-95299500D01*
X182690679Y-95279815D01*
X182644924Y-95227011D01*
X182634980Y-95157853D01*
X182647233Y-95119205D01*
X182685613Y-95043881D01*
X182707547Y-95000832D01*
X182765940Y-94821118D01*
X182777331Y-94749196D01*
X182795500Y-94634486D01*
X182795500Y-94445512D01*
X182772027Y-94297312D01*
X182770500Y-94277914D01*
X182770500Y-94229041D01*
X182790185Y-94162002D01*
X182842989Y-94116247D01*
X182899160Y-94106886D01*
X182899160Y-94105500D01*
X185240840Y-94105500D01*
X185240840Y-94107059D01*
X185301991Y-94118656D01*
X185352702Y-94166721D01*
X185369500Y-94229041D01*
X185369500Y-94493260D01*
X185379426Y-94561391D01*
X185430803Y-94666485D01*
X185513514Y-94749196D01*
X185513515Y-94749196D01*
X185513517Y-94749198D01*
X185618607Y-94800573D01*
X185652673Y-94805536D01*
X185686739Y-94810500D01*
X185686740Y-94810500D01*
X187403261Y-94810500D01*
X187425971Y-94807191D01*
X187471393Y-94800573D01*
X187576483Y-94749198D01*
X187659198Y-94666483D01*
X187710573Y-94561393D01*
X187720500Y-94493260D01*
X187720500Y-94424500D01*
X187740185Y-94357461D01*
X187792989Y-94311706D01*
X187844500Y-94300500D01*
X188825500Y-94300500D01*
X188892539Y-94320185D01*
X188938294Y-94372989D01*
X188949500Y-94424500D01*
X188949500Y-94504269D01*
X188952353Y-94534699D01*
X188952353Y-94534701D01*
X188997009Y-94662317D01*
X188997207Y-94662882D01*
X189077850Y-94772150D01*
X189187118Y-94852793D01*
X189219612Y-94864163D01*
X189315299Y-94897646D01*
X189345730Y-94900500D01*
X189345734Y-94900500D01*
X190154270Y-94900500D01*
X190184699Y-94897646D01*
X190184701Y-94897646D01*
X190248790Y-94875219D01*
X190312882Y-94852793D01*
X190422150Y-94772150D01*
X190502793Y-94662882D01*
X190537124Y-94564769D01*
X190547646Y-94534701D01*
X190547646Y-94534699D01*
X190550500Y-94504269D01*
X190550500Y-93495730D01*
X190949500Y-93495730D01*
X190949500Y-94504269D01*
X190952353Y-94534699D01*
X190952353Y-94534701D01*
X190997009Y-94662317D01*
X190997207Y-94662882D01*
X191077850Y-94772150D01*
X191187118Y-94852793D01*
X191219612Y-94864163D01*
X191315299Y-94897646D01*
X191345730Y-94900500D01*
X191345734Y-94900500D01*
X192154270Y-94900500D01*
X192184699Y-94897646D01*
X192184701Y-94897646D01*
X192248790Y-94875219D01*
X192312882Y-94852793D01*
X192422150Y-94772150D01*
X192502793Y-94662882D01*
X192537124Y-94564769D01*
X192547646Y-94534701D01*
X192547646Y-94534699D01*
X192550500Y-94504269D01*
X192550500Y-93495730D01*
X192547646Y-93465300D01*
X192547646Y-93465298D01*
X192502793Y-93337119D01*
X192502792Y-93337117D01*
X192422150Y-93227850D01*
X192312882Y-93147207D01*
X192312880Y-93147206D01*
X192184700Y-93102353D01*
X192162921Y-93100311D01*
X192098013Y-93074453D01*
X192057388Y-93017607D01*
X192054412Y-93000000D01*
X196904417Y-93000000D01*
X196924699Y-93205932D01*
X196931348Y-93227850D01*
X196984768Y-93403954D01*
X197082315Y-93586450D01*
X197091807Y-93598016D01*
X197213589Y-93746410D01*
X197260328Y-93784767D01*
X197373550Y-93877685D01*
X197556046Y-93975232D01*
X197754066Y-94035300D01*
X197754065Y-94035300D01*
X197772529Y-94037118D01*
X197960000Y-94055583D01*
X198165934Y-94035300D01*
X198363954Y-93975232D01*
X198546450Y-93877685D01*
X198706410Y-93746410D01*
X198837685Y-93586450D01*
X198935232Y-93403954D01*
X198995300Y-93205934D01*
X199015583Y-93000000D01*
X198995300Y-92794066D01*
X198935232Y-92596046D01*
X198837685Y-92413550D01*
X198720288Y-92270500D01*
X198706410Y-92253589D01*
X198588677Y-92156969D01*
X198546450Y-92122315D01*
X198363954Y-92024768D01*
X198165934Y-91964700D01*
X198165932Y-91964699D01*
X198165934Y-91964699D01*
X197960000Y-91944417D01*
X197754067Y-91964699D01*
X197578692Y-92017898D01*
X197556050Y-92024767D01*
X197556043Y-92024769D01*
X197508803Y-92050020D01*
X197373550Y-92122315D01*
X197373548Y-92122316D01*
X197373547Y-92122317D01*
X197213589Y-92253589D01*
X197126324Y-92359924D01*
X197082315Y-92413550D01*
X197062792Y-92450075D01*
X196984769Y-92596043D01*
X196924699Y-92794067D01*
X196904417Y-93000000D01*
X192054412Y-93000000D01*
X192050500Y-92976853D01*
X192050500Y-91937248D01*
X192070185Y-91870209D01*
X192118205Y-91826763D01*
X192125304Y-91823146D01*
X192238342Y-91765550D01*
X192328050Y-91675842D01*
X192385646Y-91562804D01*
X192385646Y-91562802D01*
X192385647Y-91562801D01*
X192400500Y-91469024D01*
X192400500Y-91112000D01*
X192420185Y-91044961D01*
X192472989Y-90999206D01*
X192524500Y-90988000D01*
X193852060Y-90988000D01*
X193852062Y-90988000D01*
X193928489Y-90967521D01*
X193997011Y-90927960D01*
X194052960Y-90872011D01*
X196668152Y-88256819D01*
X196729475Y-88223334D01*
X196755833Y-88220500D01*
X196785500Y-88220500D01*
X196852539Y-88240185D01*
X196898294Y-88292989D01*
X196909500Y-88344500D01*
X196909500Y-88789752D01*
X196921131Y-88848229D01*
X196921132Y-88848230D01*
X196965447Y-88914552D01*
X197031769Y-88958867D01*
X197031770Y-88958868D01*
X197090247Y-88970499D01*
X197090250Y-88970500D01*
X197090252Y-88970500D01*
X198829750Y-88970500D01*
X198829751Y-88970499D01*
X198844568Y-88967552D01*
X198888229Y-88958868D01*
X198888229Y-88958867D01*
X198888231Y-88958867D01*
X198954552Y-88914552D01*
X198998867Y-88848231D01*
X198998867Y-88848229D01*
X198998868Y-88848229D01*
X199007552Y-88804568D01*
X199010500Y-88789748D01*
X199010500Y-88479456D01*
X199030185Y-88412417D01*
X199082989Y-88366662D01*
X199152147Y-88356718D01*
X199215703Y-88385743D01*
X199246882Y-88427051D01*
X199326400Y-88597578D01*
X199461894Y-88791082D01*
X199628917Y-88958105D01*
X199815031Y-89088425D01*
X199858656Y-89143003D01*
X199865848Y-89212501D01*
X199834326Y-89274856D01*
X199815031Y-89291575D01*
X199628922Y-89421890D01*
X199628920Y-89421891D01*
X199461891Y-89588920D01*
X199461886Y-89588926D01*
X199326400Y-89782420D01*
X199326399Y-89782422D01*
X199226570Y-89996507D01*
X199226567Y-89996514D01*
X199193841Y-90118650D01*
X199157476Y-90178310D01*
X199094629Y-90208839D01*
X199025253Y-90200544D01*
X198971375Y-90156059D01*
X198955406Y-90122553D01*
X198935232Y-90056046D01*
X198934952Y-90055523D01*
X198903411Y-89996514D01*
X198837685Y-89873550D01*
X198762897Y-89782420D01*
X198706410Y-89713589D01*
X198579519Y-89609454D01*
X198546450Y-89582315D01*
X198363954Y-89484768D01*
X198165934Y-89424700D01*
X198165932Y-89424699D01*
X198165934Y-89424699D01*
X197960000Y-89404417D01*
X197754067Y-89424699D01*
X197556043Y-89484769D01*
X197458328Y-89537000D01*
X197373550Y-89582315D01*
X197373548Y-89582316D01*
X197373547Y-89582317D01*
X197213589Y-89713589D01*
X197084502Y-89870885D01*
X197082315Y-89873550D01*
X197064980Y-89905981D01*
X196984769Y-90056043D01*
X196924699Y-90254067D01*
X196904417Y-90460000D01*
X196924699Y-90665932D01*
X196941438Y-90721112D01*
X196984768Y-90863954D01*
X197082315Y-91046450D01*
X197085811Y-91050710D01*
X197213589Y-91206410D01*
X197245333Y-91232461D01*
X197373550Y-91337685D01*
X197556046Y-91435232D01*
X197754066Y-91495300D01*
X197754065Y-91495300D01*
X197772529Y-91497118D01*
X197960000Y-91515583D01*
X198165934Y-91495300D01*
X198363954Y-91435232D01*
X198546450Y-91337685D01*
X198706410Y-91206410D01*
X198837685Y-91046450D01*
X198935232Y-90863954D01*
X198955406Y-90797446D01*
X198993702Y-90739010D01*
X199057514Y-90710553D01*
X199126581Y-90721112D01*
X199178975Y-90767336D01*
X199193841Y-90801349D01*
X199226567Y-90923486D01*
X199226570Y-90923492D01*
X199326399Y-91137578D01*
X199461894Y-91331082D01*
X199628917Y-91498105D01*
X199822421Y-91633600D01*
X200036507Y-91733429D01*
X200036516Y-91733433D01*
X200158649Y-91766158D01*
X200218310Y-91802523D01*
X200248839Y-91865369D01*
X200240545Y-91934745D01*
X200196059Y-91988623D01*
X200162552Y-92004593D01*
X200096046Y-92024767D01*
X200010488Y-92070500D01*
X199913550Y-92122315D01*
X199913548Y-92122316D01*
X199913547Y-92122317D01*
X199753589Y-92253589D01*
X199666324Y-92359924D01*
X199622315Y-92413550D01*
X199602792Y-92450075D01*
X199524769Y-92596043D01*
X199464699Y-92794067D01*
X199444417Y-93000000D01*
X199464699Y-93205932D01*
X199471348Y-93227850D01*
X199524768Y-93403954D01*
X199622315Y-93586450D01*
X199631807Y-93598016D01*
X199753589Y-93746410D01*
X199800328Y-93784767D01*
X199913550Y-93877685D01*
X200096046Y-93975232D01*
X200294066Y-94035300D01*
X200294065Y-94035300D01*
X200312529Y-94037118D01*
X200500000Y-94055583D01*
X200705934Y-94035300D01*
X200903954Y-93975232D01*
X201086450Y-93877685D01*
X201246410Y-93746410D01*
X201377685Y-93586450D01*
X201475232Y-93403954D01*
X201535300Y-93205934D01*
X201555583Y-93000000D01*
X201535300Y-92794066D01*
X201475232Y-92596046D01*
X201377685Y-92413550D01*
X201260288Y-92270500D01*
X201246410Y-92253589D01*
X201128677Y-92156969D01*
X201086450Y-92122315D01*
X200903954Y-92024768D01*
X200837447Y-92004593D01*
X200779009Y-91966296D01*
X200750553Y-91902484D01*
X200761113Y-91833417D01*
X200807337Y-91781023D01*
X200841350Y-91766158D01*
X200963483Y-91733433D01*
X200963492Y-91733429D01*
X201177578Y-91633600D01*
X201371082Y-91498105D01*
X201538105Y-91331082D01*
X201673600Y-91137578D01*
X201773429Y-90923492D01*
X201773432Y-90923486D01*
X201830636Y-90710000D01*
X200933012Y-90710000D01*
X200965925Y-90652993D01*
X201000000Y-90525826D01*
X201000000Y-90394174D01*
X200965925Y-90267007D01*
X200933012Y-90210000D01*
X201830636Y-90210000D01*
X201830635Y-90209999D01*
X201773432Y-89996513D01*
X201773429Y-89996507D01*
X201673600Y-89782422D01*
X201673599Y-89782420D01*
X201538113Y-89588926D01*
X201538108Y-89588920D01*
X201371082Y-89421894D01*
X201184968Y-89291575D01*
X201141344Y-89236998D01*
X201134151Y-89167499D01*
X201165673Y-89105145D01*
X201184968Y-89088425D01*
X201371082Y-88958105D01*
X201538105Y-88791082D01*
X201673600Y-88597578D01*
X201773429Y-88383492D01*
X201773432Y-88383486D01*
X201830636Y-88170000D01*
X200933012Y-88170000D01*
X200965925Y-88112993D01*
X201000000Y-87985826D01*
X201000000Y-87854174D01*
X200965925Y-87727007D01*
X200933012Y-87670000D01*
X201830636Y-87670000D01*
X201830635Y-87669999D01*
X201773432Y-87456513D01*
X201773429Y-87456507D01*
X201673600Y-87242422D01*
X201673599Y-87242420D01*
X201538113Y-87048926D01*
X201538108Y-87048920D01*
X201371082Y-86881894D01*
X201177578Y-86746399D01*
X200963492Y-86646570D01*
X200963486Y-86646567D01*
X200750000Y-86589364D01*
X200750000Y-87486988D01*
X200692993Y-87454075D01*
X200565826Y-87420000D01*
X200434174Y-87420000D01*
X200307007Y-87454075D01*
X200250000Y-87486988D01*
X200250000Y-86589364D01*
X200249999Y-86589364D01*
X200036513Y-86646567D01*
X200036507Y-86646570D01*
X199822422Y-86746399D01*
X199822420Y-86746400D01*
X199628926Y-86881886D01*
X199628920Y-86881891D01*
X199461891Y-87048920D01*
X199461886Y-87048926D01*
X199326400Y-87242420D01*
X199326399Y-87242422D01*
X199246882Y-87412948D01*
X199200710Y-87465387D01*
X199133516Y-87484539D01*
X199066635Y-87464323D01*
X199021300Y-87411158D01*
X199010500Y-87360543D01*
X199010500Y-87050249D01*
X199010499Y-87050247D01*
X198998868Y-86991770D01*
X198998867Y-86991769D01*
X198954552Y-86925447D01*
X198888230Y-86881132D01*
X198888229Y-86881131D01*
X198829752Y-86869500D01*
X198829748Y-86869500D01*
X197090252Y-86869500D01*
X197090247Y-86869500D01*
X197031770Y-86881131D01*
X197031769Y-86881132D01*
X196965447Y-86925447D01*
X196921132Y-86991769D01*
X196921131Y-86991770D01*
X196909500Y-87050247D01*
X196909500Y-87495500D01*
X196889815Y-87562539D01*
X196837011Y-87608294D01*
X196785500Y-87619500D01*
X196540438Y-87619500D01*
X196509873Y-87627690D01*
X196464008Y-87639979D01*
X196464007Y-87639980D01*
X196424343Y-87662881D01*
X196424342Y-87662881D01*
X196395495Y-87679535D01*
X196395487Y-87679541D01*
X193724348Y-90350681D01*
X193663025Y-90384166D01*
X193636667Y-90387000D01*
X192524499Y-90387000D01*
X192457460Y-90367315D01*
X192411705Y-90314511D01*
X192400499Y-90263000D01*
X192400499Y-89905982D01*
X192400498Y-89905975D01*
X192385646Y-89812196D01*
X192328050Y-89699158D01*
X192328046Y-89699154D01*
X192328045Y-89699152D01*
X192238347Y-89609454D01*
X192238344Y-89609452D01*
X192238342Y-89609450D01*
X192161517Y-89570305D01*
X192125301Y-89551852D01*
X192031524Y-89537000D01*
X191568482Y-89537000D01*
X191487519Y-89549823D01*
X191474696Y-89551854D01*
X191361658Y-89609450D01*
X191361657Y-89609451D01*
X191361652Y-89609454D01*
X191271954Y-89699152D01*
X191271951Y-89699157D01*
X191271950Y-89699158D01*
X191257331Y-89727850D01*
X191214352Y-89812198D01*
X191199500Y-89905975D01*
X191199500Y-91469017D01*
X191207181Y-91517513D01*
X191214354Y-91562804D01*
X191271950Y-91675842D01*
X191361658Y-91765550D01*
X191361660Y-91765551D01*
X191381793Y-91775809D01*
X191432590Y-91823783D01*
X191449500Y-91886295D01*
X191449500Y-92976853D01*
X191429815Y-93043892D01*
X191377011Y-93089647D01*
X191337079Y-93100311D01*
X191315300Y-93102353D01*
X191315298Y-93102353D01*
X191187119Y-93147206D01*
X191187117Y-93147207D01*
X191077850Y-93227850D01*
X190997207Y-93337117D01*
X190997206Y-93337119D01*
X190952353Y-93465298D01*
X190952353Y-93465300D01*
X190949500Y-93495730D01*
X190550500Y-93495730D01*
X190547646Y-93465300D01*
X190547646Y-93465298D01*
X190502793Y-93337119D01*
X190502792Y-93337117D01*
X190422150Y-93227850D01*
X190312882Y-93147207D01*
X190312880Y-93147206D01*
X190184700Y-93102353D01*
X190162921Y-93100311D01*
X190098013Y-93074453D01*
X190057388Y-93017607D01*
X190050500Y-92976853D01*
X190050500Y-88710440D01*
X190050499Y-88710436D01*
X190041232Y-88675848D01*
X190039508Y-88669416D01*
X190035214Y-88653389D01*
X190035475Y-88642399D01*
X190033959Y-88640832D01*
X190030022Y-88634013D01*
X190030022Y-88634012D01*
X189990460Y-88565489D01*
X189434511Y-88009540D01*
X189434509Y-88009539D01*
X189434504Y-88009535D01*
X189365995Y-87969982D01*
X189365990Y-87969979D01*
X189340513Y-87963152D01*
X189289562Y-87949500D01*
X189289560Y-87949500D01*
X188642091Y-87949500D01*
X188575052Y-87929815D01*
X188529297Y-87877011D01*
X188519353Y-87807853D01*
X188524385Y-87786496D01*
X188577005Y-87627697D01*
X188577006Y-87627690D01*
X188587499Y-87524986D01*
X188587500Y-87524973D01*
X188587500Y-87250000D01*
X187374000Y-87250000D01*
X187306961Y-87230315D01*
X187261206Y-87177511D01*
X187250000Y-87126000D01*
X187250000Y-86905975D01*
X190249500Y-86905975D01*
X190249500Y-88469018D01*
X190263820Y-88559436D01*
X190263546Y-88561551D01*
X190265471Y-88564998D01*
X190321947Y-88675838D01*
X190321954Y-88675847D01*
X190411652Y-88765545D01*
X190411654Y-88765546D01*
X190411658Y-88765550D01*
X190524694Y-88823145D01*
X190524698Y-88823147D01*
X190618475Y-88837999D01*
X190618481Y-88838000D01*
X191081518Y-88837999D01*
X191175304Y-88823146D01*
X191288342Y-88765550D01*
X191378050Y-88675842D01*
X191435646Y-88562804D01*
X191435646Y-88562802D01*
X191435647Y-88562801D01*
X191450499Y-88469024D01*
X191450500Y-88469019D01*
X191450499Y-86905982D01*
X191450498Y-86905975D01*
X192149500Y-86905975D01*
X192149500Y-88469017D01*
X192152897Y-88490464D01*
X192164354Y-88562804D01*
X192221950Y-88675842D01*
X192221952Y-88675844D01*
X192221954Y-88675847D01*
X192311652Y-88765545D01*
X192311654Y-88765546D01*
X192311658Y-88765550D01*
X192424694Y-88823145D01*
X192424698Y-88823147D01*
X192518475Y-88837999D01*
X192518481Y-88838000D01*
X192981518Y-88837999D01*
X193075304Y-88823146D01*
X193188342Y-88765550D01*
X193278050Y-88675842D01*
X193335646Y-88562804D01*
X193335646Y-88562802D01*
X193335647Y-88562801D01*
X193350499Y-88469024D01*
X193350500Y-88469019D01*
X193350499Y-86905982D01*
X193335646Y-86812196D01*
X193278050Y-86699158D01*
X193278046Y-86699154D01*
X193278045Y-86699152D01*
X193188347Y-86609454D01*
X193188343Y-86609451D01*
X193188342Y-86609450D01*
X193165721Y-86597924D01*
X193118204Y-86573712D01*
X193067408Y-86525737D01*
X193050500Y-86463228D01*
X193050500Y-86425832D01*
X193070185Y-86358793D01*
X193086815Y-86338155D01*
X193388151Y-86036818D01*
X193449474Y-86003334D01*
X193475832Y-86000500D01*
X193571962Y-86000500D01*
X193571962Y-86000499D01*
X193710053Y-85959953D01*
X193831128Y-85882143D01*
X193925377Y-85773373D01*
X193985165Y-85642457D01*
X194005647Y-85500000D01*
X193985165Y-85357543D01*
X193925377Y-85226627D01*
X193831128Y-85117857D01*
X193710053Y-85040047D01*
X193710051Y-85040046D01*
X193710049Y-85040045D01*
X193710050Y-85040045D01*
X193571963Y-84999500D01*
X193571961Y-84999500D01*
X193428039Y-84999500D01*
X193428036Y-84999500D01*
X193289949Y-85040045D01*
X193168873Y-85117856D01*
X193074623Y-85226626D01*
X193074622Y-85226628D01*
X193014834Y-85357543D01*
X192994353Y-85500000D01*
X192994353Y-85500001D01*
X192995661Y-85509103D01*
X192985713Y-85578261D01*
X192960603Y-85614424D01*
X192565489Y-86009540D01*
X192509541Y-86065487D01*
X192509535Y-86065495D01*
X192469982Y-86134004D01*
X192469979Y-86134009D01*
X192466443Y-86147206D01*
X192450722Y-86205880D01*
X192449500Y-86210439D01*
X192449500Y-86463228D01*
X192429815Y-86530267D01*
X192381796Y-86573712D01*
X192311659Y-86609449D01*
X192311652Y-86609454D01*
X192221954Y-86699152D01*
X192221951Y-86699157D01*
X192221950Y-86699158D01*
X192213725Y-86715300D01*
X192164352Y-86812198D01*
X192149500Y-86905975D01*
X191450498Y-86905975D01*
X191435646Y-86812196D01*
X191378050Y-86699158D01*
X191378046Y-86699154D01*
X191378045Y-86699152D01*
X191288347Y-86609454D01*
X191288344Y-86609452D01*
X191288342Y-86609450D01*
X191192471Y-86560601D01*
X191175301Y-86551852D01*
X191081524Y-86537000D01*
X190618482Y-86537000D01*
X190537519Y-86549823D01*
X190524696Y-86551854D01*
X190411658Y-86609450D01*
X190411657Y-86609451D01*
X190411652Y-86609454D01*
X190321954Y-86699152D01*
X190321951Y-86699157D01*
X190321950Y-86699158D01*
X190313725Y-86715300D01*
X190264352Y-86812198D01*
X190249500Y-86905975D01*
X187250000Y-86905975D01*
X187250000Y-86750000D01*
X187750000Y-86750000D01*
X188587499Y-86750000D01*
X188587499Y-86475028D01*
X188587498Y-86475013D01*
X188577005Y-86372302D01*
X188521858Y-86205880D01*
X188521856Y-86205875D01*
X188429815Y-86056654D01*
X188305845Y-85932684D01*
X188156624Y-85840643D01*
X188156619Y-85840641D01*
X187990197Y-85785494D01*
X187990190Y-85785493D01*
X187887486Y-85775000D01*
X187750000Y-85775000D01*
X187750000Y-86750000D01*
X187250000Y-86750000D01*
X187250000Y-85775000D01*
X187112527Y-85775000D01*
X187112512Y-85775001D01*
X187009802Y-85785494D01*
X186843380Y-85840641D01*
X186843375Y-85840643D01*
X186694154Y-85932684D01*
X186570184Y-86056654D01*
X186478143Y-86205875D01*
X186478141Y-86205880D01*
X186422405Y-86374082D01*
X186382632Y-86431527D01*
X186318117Y-86458350D01*
X186249341Y-86446035D01*
X186198141Y-86398492D01*
X186187658Y-86376033D01*
X186165293Y-86312119D01*
X186165292Y-86312117D01*
X186084650Y-86202850D01*
X185975382Y-86122207D01*
X185975380Y-86122206D01*
X185847201Y-86077353D01*
X185837918Y-86076483D01*
X185773010Y-86050623D01*
X185732387Y-85993776D01*
X185725500Y-85953025D01*
X185725500Y-85753094D01*
X185734035Y-85713863D01*
X185732667Y-85713462D01*
X185735161Y-85704964D01*
X185735165Y-85704957D01*
X185755647Y-85562500D01*
X185735165Y-85420043D01*
X185675377Y-85289127D01*
X185581128Y-85180357D01*
X185460053Y-85102547D01*
X185460051Y-85102546D01*
X185460049Y-85102545D01*
X185460050Y-85102545D01*
X185321963Y-85062000D01*
X185321961Y-85062000D01*
X185178039Y-85062000D01*
X185178036Y-85062000D01*
X185039949Y-85102545D01*
X184918873Y-85180356D01*
X184824623Y-85289126D01*
X184824622Y-85289128D01*
X184764834Y-85420043D01*
X184744353Y-85562500D01*
X184764834Y-85704956D01*
X184796079Y-85773371D01*
X184824623Y-85835873D01*
X184908323Y-85932469D01*
X184937347Y-85996022D01*
X184927404Y-86065180D01*
X184881649Y-86117984D01*
X184875369Y-86121652D01*
X184765350Y-86202850D01*
X184684707Y-86312117D01*
X184684706Y-86312119D01*
X184639853Y-86440298D01*
X184639853Y-86440300D01*
X184637000Y-86470730D01*
X184637000Y-87529269D01*
X184639853Y-87559699D01*
X184639853Y-87559701D01*
X184681786Y-87679535D01*
X184684707Y-87687882D01*
X184730532Y-87749973D01*
X184731930Y-87751867D01*
X184755900Y-87817496D01*
X184740584Y-87885666D01*
X184690844Y-87934734D01*
X184632159Y-87949500D01*
X184425833Y-87949500D01*
X184358794Y-87929815D01*
X184338152Y-87913181D01*
X183836819Y-87411848D01*
X183803334Y-87350525D01*
X183800500Y-87324167D01*
X183800500Y-86495730D01*
X183797646Y-86465300D01*
X183797646Y-86465298D01*
X183758124Y-86352353D01*
X183752793Y-86337118D01*
X183672150Y-86227850D01*
X183562882Y-86147207D01*
X183562880Y-86147206D01*
X183434700Y-86102353D01*
X183404270Y-86099500D01*
X183404266Y-86099500D01*
X182595734Y-86099500D01*
X182595730Y-86099500D01*
X182565300Y-86102353D01*
X182565298Y-86102353D01*
X182437119Y-86147206D01*
X182437117Y-86147207D01*
X182327850Y-86227850D01*
X182247207Y-86337117D01*
X182247206Y-86337119D01*
X182202353Y-86465298D01*
X182202353Y-86465300D01*
X182199500Y-86495730D01*
X182199500Y-87504269D01*
X182202353Y-87534699D01*
X182202353Y-87534701D01*
X182239193Y-87639980D01*
X182247207Y-87662882D01*
X182327850Y-87772150D01*
X182437118Y-87852793D01*
X182463133Y-87861896D01*
X182565299Y-87897646D01*
X182595730Y-87900500D01*
X182595734Y-87900500D01*
X183404267Y-87900500D01*
X183411379Y-87899833D01*
X183479963Y-87913171D01*
X183510639Y-87935610D01*
X184009540Y-88434511D01*
X184065489Y-88490460D01*
X184065491Y-88490461D01*
X184065495Y-88490464D01*
X184134004Y-88530017D01*
X184134011Y-88530021D01*
X184210438Y-88550500D01*
X189074167Y-88550500D01*
X189141206Y-88570185D01*
X189161848Y-88586819D01*
X189413181Y-88838152D01*
X189446666Y-88899475D01*
X189449500Y-88925833D01*
X189449500Y-92976853D01*
X189429815Y-93043892D01*
X189377011Y-93089647D01*
X189337079Y-93100311D01*
X189315300Y-93102353D01*
X189315298Y-93102353D01*
X189187119Y-93147206D01*
X189187117Y-93147207D01*
X189077850Y-93227850D01*
X188997207Y-93337117D01*
X188997206Y-93337119D01*
X188952353Y-93465298D01*
X188952353Y-93465300D01*
X188949500Y-93495730D01*
X188949500Y-93575500D01*
X188929815Y-93642539D01*
X188877011Y-93688294D01*
X188825500Y-93699500D01*
X188026385Y-93699500D01*
X187959346Y-93679815D01*
X187938704Y-93663181D01*
X187726006Y-93450483D01*
X187692521Y-93389160D01*
X187697505Y-93319468D01*
X187702280Y-93308355D01*
X187710573Y-93291393D01*
X187720500Y-93223260D01*
X187720500Y-92856740D01*
X187710573Y-92788607D01*
X187659198Y-92683517D01*
X187659195Y-92683514D01*
X187659195Y-92683513D01*
X187653227Y-92675153D01*
X187654340Y-92674357D01*
X187626029Y-92622509D01*
X187631013Y-92552817D01*
X187672885Y-92496884D01*
X187684075Y-92489419D01*
X187771550Y-92437687D01*
X187771561Y-92437678D01*
X187887678Y-92321561D01*
X187887685Y-92321552D01*
X187971281Y-92180198D01*
X188017100Y-92022486D01*
X188017295Y-92020001D01*
X188017295Y-92020000D01*
X186419000Y-92020000D01*
X186351961Y-92000315D01*
X186306206Y-91947511D01*
X186295000Y-91896000D01*
X186295000Y-91644000D01*
X186314685Y-91576961D01*
X186367489Y-91531206D01*
X186419000Y-91520000D01*
X188017295Y-91520000D01*
X188017295Y-91519998D01*
X188017100Y-91517513D01*
X187971281Y-91359801D01*
X187887685Y-91218447D01*
X187887678Y-91218438D01*
X187771561Y-91102321D01*
X187771552Y-91102314D01*
X187684074Y-91050580D01*
X187636390Y-90999511D01*
X187623887Y-90930769D01*
X187650532Y-90866180D01*
X187659074Y-90856656D01*
X187659195Y-90856486D01*
X187659198Y-90856483D01*
X187710573Y-90751393D01*
X187720500Y-90683260D01*
X187720500Y-90316740D01*
X187710573Y-90248607D01*
X187659198Y-90143517D01*
X187659196Y-90143515D01*
X187659196Y-90143514D01*
X187576485Y-90060803D01*
X187471391Y-90009426D01*
X187403261Y-89999500D01*
X187403260Y-89999500D01*
X185686740Y-89999500D01*
X185686739Y-89999500D01*
X185618608Y-90009426D01*
X185513514Y-90060803D01*
X185430803Y-90143514D01*
X185379426Y-90248608D01*
X185369500Y-90316739D01*
X185369500Y-90580958D01*
X185349815Y-90647997D01*
X185297011Y-90693752D01*
X185240840Y-90703117D01*
X185240840Y-90704500D01*
X182899160Y-90704500D01*
X182899160Y-90702944D01*
X182837985Y-90691330D01*
X182787285Y-90643255D01*
X182770500Y-90580958D01*
X182770500Y-90316739D01*
X182762670Y-90263000D01*
X182760573Y-90248607D01*
X182709198Y-90143517D01*
X182709196Y-90143515D01*
X182709196Y-90143514D01*
X182626485Y-90060803D01*
X182521391Y-90009426D01*
X182453261Y-89999500D01*
X182453260Y-89999500D01*
X180736740Y-89999500D01*
X180736739Y-89999500D01*
X180668608Y-90009426D01*
X180563514Y-90060803D01*
X180480803Y-90143514D01*
X180429426Y-90248608D01*
X180419500Y-90316739D01*
X180419500Y-90683260D01*
X180429426Y-90751391D01*
X180480803Y-90856485D01*
X180563514Y-90939196D01*
X180563515Y-90939196D01*
X180563517Y-90939198D01*
X180668607Y-90990573D01*
X180702673Y-90995536D01*
X180736739Y-91000500D01*
X180736740Y-91000500D01*
X182453261Y-91000500D01*
X182470293Y-90998018D01*
X182521393Y-90990573D01*
X182546040Y-90978523D01*
X182614911Y-90966764D01*
X182679208Y-90994107D01*
X182718517Y-91051870D01*
X182724500Y-91089924D01*
X182724500Y-91180075D01*
X182704815Y-91247114D01*
X182652011Y-91292869D01*
X182582853Y-91302813D01*
X182546041Y-91291476D01*
X182521393Y-91279426D01*
X182453261Y-91269500D01*
X182453260Y-91269500D01*
X180736740Y-91269500D01*
X180736739Y-91269500D01*
X180668608Y-91279426D01*
X180563514Y-91330803D01*
X180480805Y-91413512D01*
X180477923Y-91417550D01*
X180422949Y-91460674D01*
X180377003Y-91469500D01*
X177195833Y-91469500D01*
X177128794Y-91449815D01*
X177108152Y-91433181D01*
X176687152Y-91012181D01*
X176653667Y-90950858D01*
X176658651Y-90881166D01*
X176700523Y-90825233D01*
X176765987Y-90800816D01*
X176774833Y-90800500D01*
X178289560Y-90800500D01*
X178289562Y-90800500D01*
X178365989Y-90780021D01*
X178434511Y-90740460D01*
X178490460Y-90684511D01*
X181238152Y-87936819D01*
X181299475Y-87903334D01*
X181325833Y-87900500D01*
X181404270Y-87900500D01*
X181434699Y-87897646D01*
X181434701Y-87897646D01*
X181498790Y-87875219D01*
X181562882Y-87852793D01*
X181672150Y-87772150D01*
X181752793Y-87662882D01*
X181775219Y-87598790D01*
X181797646Y-87534701D01*
X181797646Y-87534699D01*
X181800500Y-87504269D01*
X181800500Y-86495730D01*
X181797646Y-86465300D01*
X181797646Y-86465298D01*
X181758124Y-86352353D01*
X181752793Y-86337118D01*
X181672150Y-86227850D01*
X181562882Y-86147207D01*
X181562880Y-86147206D01*
X181434700Y-86102353D01*
X181404270Y-86099500D01*
X181404266Y-86099500D01*
X180595734Y-86099500D01*
X180595730Y-86099500D01*
X180565300Y-86102353D01*
X180565298Y-86102353D01*
X180437119Y-86147206D01*
X180437117Y-86147207D01*
X180327850Y-86227850D01*
X180247207Y-86337117D01*
X180247206Y-86337119D01*
X180202353Y-86465298D01*
X180202353Y-86465300D01*
X180199500Y-86495730D01*
X180199500Y-87504269D01*
X180202353Y-87534699D01*
X180202353Y-87534701D01*
X180239193Y-87639980D01*
X180247207Y-87662882D01*
X180327850Y-87772150D01*
X180341388Y-87782142D01*
X180383638Y-87837788D01*
X180389097Y-87907444D01*
X180356030Y-87968994D01*
X180355435Y-87969592D01*
X178161848Y-90163181D01*
X178100525Y-90196666D01*
X178074167Y-90199500D01*
X176674500Y-90199500D01*
X176607461Y-90179815D01*
X176561706Y-90127011D01*
X176550500Y-90075500D01*
X176550500Y-89995730D01*
X176547646Y-89965300D01*
X176547646Y-89965298D01*
X176512634Y-89865241D01*
X176502793Y-89837118D01*
X176422150Y-89727850D01*
X176312882Y-89647207D01*
X176312880Y-89647206D01*
X176184700Y-89602353D01*
X176154270Y-89599500D01*
X176154266Y-89599500D01*
X175345734Y-89599500D01*
X175345730Y-89599500D01*
X175315300Y-89602353D01*
X175315298Y-89602353D01*
X175187119Y-89647206D01*
X175187117Y-89647207D01*
X175077850Y-89727850D01*
X174997207Y-89837117D01*
X174997206Y-89837119D01*
X174952353Y-89965298D01*
X174952353Y-89965300D01*
X174949500Y-89995730D01*
X174550500Y-89995730D01*
X174547646Y-89965300D01*
X174547646Y-89965298D01*
X174512634Y-89865241D01*
X174502793Y-89837118D01*
X174422150Y-89727850D01*
X174312882Y-89647207D01*
X174312880Y-89647206D01*
X174184700Y-89602353D01*
X174154270Y-89599500D01*
X174154266Y-89599500D01*
X173345734Y-89599500D01*
X173345730Y-89599500D01*
X173315300Y-89602353D01*
X173315298Y-89602353D01*
X173187119Y-89647206D01*
X173187117Y-89647207D01*
X173077850Y-89727850D01*
X172997207Y-89837117D01*
X172997206Y-89837119D01*
X172952353Y-89965298D01*
X172952353Y-89965300D01*
X172949500Y-89995730D01*
X172949500Y-90075500D01*
X172929815Y-90142539D01*
X172877011Y-90188294D01*
X172825500Y-90199500D01*
X171192478Y-90199500D01*
X171125439Y-90179815D01*
X171079684Y-90127011D01*
X171075437Y-90116455D01*
X171054116Y-90055524D01*
X171054115Y-90055523D01*
X170975711Y-89949289D01*
X170975710Y-89949288D01*
X170869476Y-89870884D01*
X170744848Y-89827274D01*
X170744849Y-89827274D01*
X170715260Y-89824500D01*
X170715256Y-89824500D01*
X170009744Y-89824500D01*
X170009740Y-89824500D01*
X169980150Y-89827274D01*
X169855523Y-89870884D01*
X169749289Y-89949288D01*
X169749288Y-89949289D01*
X169670884Y-90055523D01*
X169627274Y-90180150D01*
X169624500Y-90209739D01*
X169375500Y-90209739D01*
X169372725Y-90180150D01*
X169349251Y-90113067D01*
X169329116Y-90055525D01*
X169295094Y-90009427D01*
X169250711Y-89949289D01*
X169250710Y-89949288D01*
X169144476Y-89870884D01*
X169019848Y-89827274D01*
X169019849Y-89827274D01*
X168990260Y-89824500D01*
X168990256Y-89824500D01*
X168924500Y-89824500D01*
X168857461Y-89804815D01*
X168811706Y-89752011D01*
X168800500Y-89700500D01*
X168800500Y-88273146D01*
X168820185Y-88206107D01*
X168872989Y-88160352D01*
X168912919Y-88149688D01*
X168934699Y-88147646D01*
X168934701Y-88147645D01*
X168934704Y-88147645D01*
X169000991Y-88124449D01*
X169062882Y-88102793D01*
X169172150Y-88022150D01*
X169233225Y-87939395D01*
X169288870Y-87897147D01*
X169358526Y-87891688D01*
X169420075Y-87924755D01*
X169450699Y-87974026D01*
X169465642Y-88019121D01*
X169465643Y-88019124D01*
X169557684Y-88168345D01*
X169681654Y-88292315D01*
X169830875Y-88384356D01*
X169830880Y-88384358D01*
X169997302Y-88439505D01*
X169997309Y-88439506D01*
X170100019Y-88449999D01*
X170249999Y-88449999D01*
X170750000Y-88449999D01*
X170899972Y-88449999D01*
X170899986Y-88449998D01*
X171002697Y-88439505D01*
X171169119Y-88384358D01*
X171169124Y-88384356D01*
X171318345Y-88292315D01*
X171442315Y-88168345D01*
X171534356Y-88019124D01*
X171534358Y-88019119D01*
X171589505Y-87852697D01*
X171589506Y-87852690D01*
X171599999Y-87749986D01*
X171600000Y-87749973D01*
X171600000Y-87500000D01*
X170750000Y-87500000D01*
X170750000Y-88449999D01*
X170249999Y-88449999D01*
X170250000Y-88449998D01*
X170250000Y-87000000D01*
X170750000Y-87000000D01*
X171599999Y-87000000D01*
X171599999Y-86750028D01*
X171599998Y-86750013D01*
X171589505Y-86647302D01*
X171534358Y-86480880D01*
X171534356Y-86480875D01*
X171442315Y-86331654D01*
X171318345Y-86207684D01*
X171169124Y-86115643D01*
X171169119Y-86115641D01*
X171002697Y-86060494D01*
X171002690Y-86060493D01*
X170899986Y-86050000D01*
X170750000Y-86050000D01*
X170750000Y-87000000D01*
X170250000Y-87000000D01*
X170250000Y-86050000D01*
X170100027Y-86050000D01*
X170100012Y-86050001D01*
X169997302Y-86060494D01*
X169830880Y-86115641D01*
X169830875Y-86115643D01*
X169681654Y-86207684D01*
X169557684Y-86331654D01*
X169465643Y-86480875D01*
X169465640Y-86480883D01*
X169450698Y-86525974D01*
X169410925Y-86583418D01*
X169346409Y-86610240D01*
X169277633Y-86597924D01*
X169233223Y-86560601D01*
X169172151Y-86477851D01*
X169162502Y-86470730D01*
X169062882Y-86397207D01*
X169062880Y-86397206D01*
X168934700Y-86352353D01*
X168904270Y-86349500D01*
X168904266Y-86349500D01*
X168095734Y-86349500D01*
X168095730Y-86349500D01*
X168065300Y-86352353D01*
X168065298Y-86352353D01*
X167937119Y-86397206D01*
X167937117Y-86397207D01*
X167827850Y-86477850D01*
X167747207Y-86587117D01*
X167747206Y-86587119D01*
X167702353Y-86715298D01*
X167702353Y-86715300D01*
X167699500Y-86745730D01*
X167699500Y-87754269D01*
X167702353Y-87784699D01*
X167702353Y-87784701D01*
X167742641Y-87899833D01*
X167747207Y-87912882D01*
X167827850Y-88022150D01*
X167937118Y-88102793D01*
X167966268Y-88112993D01*
X168065295Y-88147645D01*
X168065299Y-88147645D01*
X168065301Y-88147646D01*
X168087078Y-88149688D01*
X168151984Y-88175544D01*
X168192610Y-88232388D01*
X168199500Y-88273146D01*
X168199500Y-89759712D01*
X168179815Y-89826751D01*
X168137908Y-89865241D01*
X168138001Y-89865366D01*
X168136839Y-89866223D01*
X168133446Y-89869340D01*
X168130522Y-89870885D01*
X168024289Y-89949288D01*
X168024288Y-89949289D01*
X167945884Y-90055523D01*
X167902274Y-90180150D01*
X167899500Y-90209739D01*
X167899500Y-90790260D01*
X167902274Y-90819849D01*
X167945884Y-90944476D01*
X168024287Y-91050709D01*
X168024288Y-91050709D01*
X168024289Y-91050711D01*
X168077421Y-91089924D01*
X168130523Y-91129115D01*
X168133434Y-91130653D01*
X168136029Y-91133178D01*
X168138003Y-91134635D01*
X168137803Y-91134904D01*
X168183510Y-91179379D01*
X168199500Y-91240287D01*
X168199500Y-95875500D01*
X168179815Y-95942539D01*
X168127011Y-95988294D01*
X168075500Y-95999500D01*
X167680247Y-95999500D01*
X167621770Y-96011131D01*
X167621769Y-96011132D01*
X167555447Y-96055447D01*
X167511132Y-96121769D01*
X167511131Y-96121770D01*
X167499500Y-96180247D01*
X163500500Y-96180247D01*
X163500500Y-82124500D01*
X163520185Y-82057461D01*
X163572989Y-82011706D01*
X163624500Y-82000500D01*
X210875500Y-82000500D01*
X210942539Y-82020185D01*
G37*
%TD.AperFunction*%
%TD*%
M02*
