%TF.GenerationSoftware,KiCad,Pcbnew,8.0.5*%
%TF.CreationDate,2024-10-16T14:41:56+05:30*%
%TF.ProjectId,Sensors,53656e73-6f72-4732-9e6b-696361645f70,rev?*%
%TF.SameCoordinates,Original*%
%TF.FileFunction,AssemblyDrawing,Top*%
%FSLAX46Y46*%
G04 Gerber Fmt 4.6, Leading zero omitted, Abs format (unit mm)*
G04 Created by KiCad (PCBNEW 8.0.5) date 2024-10-16 14:41:56*
%MOMM*%
%LPD*%
G01*
G04 APERTURE LIST*
%ADD10C,0.080000*%
%ADD11C,0.150000*%
%ADD12C,0.075000*%
%ADD13C,0.060000*%
%ADD14C,0.100000*%
G04 APERTURE END LIST*
D10*
X186379166Y-87179530D02*
X186355357Y-87203340D01*
X186355357Y-87203340D02*
X186283928Y-87227149D01*
X186283928Y-87227149D02*
X186236309Y-87227149D01*
X186236309Y-87227149D02*
X186164881Y-87203340D01*
X186164881Y-87203340D02*
X186117262Y-87155720D01*
X186117262Y-87155720D02*
X186093452Y-87108101D01*
X186093452Y-87108101D02*
X186069643Y-87012863D01*
X186069643Y-87012863D02*
X186069643Y-86941435D01*
X186069643Y-86941435D02*
X186093452Y-86846197D01*
X186093452Y-86846197D02*
X186117262Y-86798578D01*
X186117262Y-86798578D02*
X186164881Y-86750959D01*
X186164881Y-86750959D02*
X186236309Y-86727149D01*
X186236309Y-86727149D02*
X186283928Y-86727149D01*
X186283928Y-86727149D02*
X186355357Y-86750959D01*
X186355357Y-86750959D02*
X186379166Y-86774768D01*
X186545833Y-86727149D02*
X186855357Y-86727149D01*
X186855357Y-86727149D02*
X186688690Y-86917625D01*
X186688690Y-86917625D02*
X186760119Y-86917625D01*
X186760119Y-86917625D02*
X186807738Y-86941435D01*
X186807738Y-86941435D02*
X186831547Y-86965244D01*
X186831547Y-86965244D02*
X186855357Y-87012863D01*
X186855357Y-87012863D02*
X186855357Y-87131911D01*
X186855357Y-87131911D02*
X186831547Y-87179530D01*
X186831547Y-87179530D02*
X186807738Y-87203340D01*
X186807738Y-87203340D02*
X186760119Y-87227149D01*
X186760119Y-87227149D02*
X186617262Y-87227149D01*
X186617262Y-87227149D02*
X186569643Y-87203340D01*
X186569643Y-87203340D02*
X186545833Y-87179530D01*
X178179530Y-94370833D02*
X178203340Y-94394642D01*
X178203340Y-94394642D02*
X178227149Y-94466071D01*
X178227149Y-94466071D02*
X178227149Y-94513690D01*
X178227149Y-94513690D02*
X178203340Y-94585118D01*
X178203340Y-94585118D02*
X178155720Y-94632737D01*
X178155720Y-94632737D02*
X178108101Y-94656547D01*
X178108101Y-94656547D02*
X178012863Y-94680356D01*
X178012863Y-94680356D02*
X177941435Y-94680356D01*
X177941435Y-94680356D02*
X177846197Y-94656547D01*
X177846197Y-94656547D02*
X177798578Y-94632737D01*
X177798578Y-94632737D02*
X177750959Y-94585118D01*
X177750959Y-94585118D02*
X177727149Y-94513690D01*
X177727149Y-94513690D02*
X177727149Y-94466071D01*
X177727149Y-94466071D02*
X177750959Y-94394642D01*
X177750959Y-94394642D02*
X177774768Y-94370833D01*
X177774768Y-94180356D02*
X177750959Y-94156547D01*
X177750959Y-94156547D02*
X177727149Y-94108928D01*
X177727149Y-94108928D02*
X177727149Y-93989880D01*
X177727149Y-93989880D02*
X177750959Y-93942261D01*
X177750959Y-93942261D02*
X177774768Y-93918452D01*
X177774768Y-93918452D02*
X177822387Y-93894642D01*
X177822387Y-93894642D02*
X177870006Y-93894642D01*
X177870006Y-93894642D02*
X177941435Y-93918452D01*
X177941435Y-93918452D02*
X178227149Y-94204166D01*
X178227149Y-94204166D02*
X178227149Y-93894642D01*
D11*
X198684819Y-93333333D02*
X199399104Y-93333333D01*
X199399104Y-93333333D02*
X199541961Y-93380952D01*
X199541961Y-93380952D02*
X199637200Y-93476190D01*
X199637200Y-93476190D02*
X199684819Y-93619047D01*
X199684819Y-93619047D02*
X199684819Y-93714285D01*
X199684819Y-92333333D02*
X199684819Y-92904761D01*
X199684819Y-92619047D02*
X198684819Y-92619047D01*
X198684819Y-92619047D02*
X198827676Y-92714285D01*
X198827676Y-92714285D02*
X198922914Y-92809523D01*
X198922914Y-92809523D02*
X198970533Y-92904761D01*
D10*
X174666666Y-90727149D02*
X174500000Y-90489054D01*
X174380952Y-90727149D02*
X174380952Y-90227149D01*
X174380952Y-90227149D02*
X174571428Y-90227149D01*
X174571428Y-90227149D02*
X174619047Y-90250959D01*
X174619047Y-90250959D02*
X174642857Y-90274768D01*
X174642857Y-90274768D02*
X174666666Y-90322387D01*
X174666666Y-90322387D02*
X174666666Y-90393816D01*
X174666666Y-90393816D02*
X174642857Y-90441435D01*
X174642857Y-90441435D02*
X174619047Y-90465244D01*
X174619047Y-90465244D02*
X174571428Y-90489054D01*
X174571428Y-90489054D02*
X174380952Y-90489054D01*
X174857143Y-90274768D02*
X174880952Y-90250959D01*
X174880952Y-90250959D02*
X174928571Y-90227149D01*
X174928571Y-90227149D02*
X175047619Y-90227149D01*
X175047619Y-90227149D02*
X175095238Y-90250959D01*
X175095238Y-90250959D02*
X175119047Y-90274768D01*
X175119047Y-90274768D02*
X175142857Y-90322387D01*
X175142857Y-90322387D02*
X175142857Y-90370006D01*
X175142857Y-90370006D02*
X175119047Y-90441435D01*
X175119047Y-90441435D02*
X174833333Y-90727149D01*
X174833333Y-90727149D02*
X175142857Y-90727149D01*
X190666666Y-94227149D02*
X190500000Y-93989054D01*
X190380952Y-94227149D02*
X190380952Y-93727149D01*
X190380952Y-93727149D02*
X190571428Y-93727149D01*
X190571428Y-93727149D02*
X190619047Y-93750959D01*
X190619047Y-93750959D02*
X190642857Y-93774768D01*
X190642857Y-93774768D02*
X190666666Y-93822387D01*
X190666666Y-93822387D02*
X190666666Y-93893816D01*
X190666666Y-93893816D02*
X190642857Y-93941435D01*
X190642857Y-93941435D02*
X190619047Y-93965244D01*
X190619047Y-93965244D02*
X190571428Y-93989054D01*
X190571428Y-93989054D02*
X190380952Y-93989054D01*
X191095238Y-93893816D02*
X191095238Y-94227149D01*
X190976190Y-93703340D02*
X190857143Y-94060482D01*
X190857143Y-94060482D02*
X191166666Y-94060482D01*
D11*
X189231009Y-91258928D02*
X189278628Y-91116071D01*
X189278628Y-91116071D02*
X189326247Y-91068452D01*
X189326247Y-91068452D02*
X189421485Y-91020833D01*
X189421485Y-91020833D02*
X189564342Y-91020833D01*
X189564342Y-91020833D02*
X189659580Y-91068452D01*
X189659580Y-91068452D02*
X189707200Y-91116071D01*
X189707200Y-91116071D02*
X189754819Y-91211309D01*
X189754819Y-91211309D02*
X189754819Y-91592261D01*
X189754819Y-91592261D02*
X188754819Y-91592261D01*
X188754819Y-91592261D02*
X188754819Y-91258928D01*
X188754819Y-91258928D02*
X188802438Y-91163690D01*
X188802438Y-91163690D02*
X188850057Y-91116071D01*
X188850057Y-91116071D02*
X188945295Y-91068452D01*
X188945295Y-91068452D02*
X189040533Y-91068452D01*
X189040533Y-91068452D02*
X189135771Y-91116071D01*
X189135771Y-91116071D02*
X189183390Y-91163690D01*
X189183390Y-91163690D02*
X189231009Y-91258928D01*
X189231009Y-91258928D02*
X189231009Y-91592261D01*
X189469104Y-90639880D02*
X189469104Y-90163690D01*
X189754819Y-90735118D02*
X188754819Y-90401785D01*
X188754819Y-90401785D02*
X189754819Y-90068452D01*
X188754819Y-89877975D02*
X188754819Y-89306547D01*
X189754819Y-89592261D02*
X188754819Y-89592261D01*
X188754819Y-88497023D02*
X188754819Y-88973213D01*
X188754819Y-88973213D02*
X189231009Y-89020832D01*
X189231009Y-89020832D02*
X189183390Y-88973213D01*
X189183390Y-88973213D02*
X189135771Y-88877975D01*
X189135771Y-88877975D02*
X189135771Y-88639880D01*
X189135771Y-88639880D02*
X189183390Y-88544642D01*
X189183390Y-88544642D02*
X189231009Y-88497023D01*
X189231009Y-88497023D02*
X189326247Y-88449404D01*
X189326247Y-88449404D02*
X189564342Y-88449404D01*
X189564342Y-88449404D02*
X189659580Y-88497023D01*
X189659580Y-88497023D02*
X189707200Y-88544642D01*
X189707200Y-88544642D02*
X189754819Y-88639880D01*
X189754819Y-88639880D02*
X189754819Y-88877975D01*
X189754819Y-88877975D02*
X189707200Y-88973213D01*
X189707200Y-88973213D02*
X189659580Y-89020832D01*
X189088152Y-87592261D02*
X189754819Y-87592261D01*
X188707200Y-87830356D02*
X189421485Y-88068451D01*
X189421485Y-88068451D02*
X189421485Y-87449404D01*
X188754819Y-86782737D02*
X189469104Y-86782737D01*
X189469104Y-86782737D02*
X189611961Y-86830356D01*
X189611961Y-86830356D02*
X189707200Y-86925594D01*
X189707200Y-86925594D02*
X189754819Y-87068451D01*
X189754819Y-87068451D02*
X189754819Y-87163689D01*
D12*
X191430952Y-89414909D02*
X191430952Y-88914909D01*
X191430952Y-88914909D02*
X191550000Y-88914909D01*
X191550000Y-88914909D02*
X191621428Y-88938719D01*
X191621428Y-88938719D02*
X191669047Y-88986338D01*
X191669047Y-88986338D02*
X191692857Y-89033957D01*
X191692857Y-89033957D02*
X191716666Y-89129195D01*
X191716666Y-89129195D02*
X191716666Y-89200623D01*
X191716666Y-89200623D02*
X191692857Y-89295861D01*
X191692857Y-89295861D02*
X191669047Y-89343480D01*
X191669047Y-89343480D02*
X191621428Y-89391100D01*
X191621428Y-89391100D02*
X191550000Y-89414909D01*
X191550000Y-89414909D02*
X191430952Y-89414909D01*
X192192857Y-89414909D02*
X191907143Y-89414909D01*
X192050000Y-89414909D02*
X192050000Y-88914909D01*
X192050000Y-88914909D02*
X192002381Y-88986338D01*
X192002381Y-88986338D02*
X191954762Y-89033957D01*
X191954762Y-89033957D02*
X191907143Y-89057766D01*
D10*
X181916666Y-87227149D02*
X181750000Y-86989054D01*
X181630952Y-87227149D02*
X181630952Y-86727149D01*
X181630952Y-86727149D02*
X181821428Y-86727149D01*
X181821428Y-86727149D02*
X181869047Y-86750959D01*
X181869047Y-86750959D02*
X181892857Y-86774768D01*
X181892857Y-86774768D02*
X181916666Y-86822387D01*
X181916666Y-86822387D02*
X181916666Y-86893816D01*
X181916666Y-86893816D02*
X181892857Y-86941435D01*
X181892857Y-86941435D02*
X181869047Y-86965244D01*
X181869047Y-86965244D02*
X181821428Y-86989054D01*
X181821428Y-86989054D02*
X181630952Y-86989054D01*
X182083333Y-86727149D02*
X182392857Y-86727149D01*
X182392857Y-86727149D02*
X182226190Y-86917625D01*
X182226190Y-86917625D02*
X182297619Y-86917625D01*
X182297619Y-86917625D02*
X182345238Y-86941435D01*
X182345238Y-86941435D02*
X182369047Y-86965244D01*
X182369047Y-86965244D02*
X182392857Y-87012863D01*
X182392857Y-87012863D02*
X182392857Y-87131911D01*
X182392857Y-87131911D02*
X182369047Y-87179530D01*
X182369047Y-87179530D02*
X182345238Y-87203340D01*
X182345238Y-87203340D02*
X182297619Y-87227149D01*
X182297619Y-87227149D02*
X182154762Y-87227149D01*
X182154762Y-87227149D02*
X182107143Y-87203340D01*
X182107143Y-87203340D02*
X182083333Y-87179530D01*
D11*
X183323333Y-91870566D02*
X183323333Y-92663900D01*
X183323333Y-92663900D02*
X183370000Y-92757233D01*
X183370000Y-92757233D02*
X183416666Y-92803900D01*
X183416666Y-92803900D02*
X183510000Y-92850566D01*
X183510000Y-92850566D02*
X183696666Y-92850566D01*
X183696666Y-92850566D02*
X183790000Y-92803900D01*
X183790000Y-92803900D02*
X183836666Y-92757233D01*
X183836666Y-92757233D02*
X183883333Y-92663900D01*
X183883333Y-92663900D02*
X183883333Y-91870566D01*
X184863333Y-92850566D02*
X184303333Y-92850566D01*
X184583333Y-92850566D02*
X184583333Y-91870566D01*
X184583333Y-91870566D02*
X184490000Y-92010566D01*
X184490000Y-92010566D02*
X184396667Y-92103900D01*
X184396667Y-92103900D02*
X184303333Y-92150566D01*
D10*
X169416666Y-87477149D02*
X169250000Y-87239054D01*
X169130952Y-87477149D02*
X169130952Y-86977149D01*
X169130952Y-86977149D02*
X169321428Y-86977149D01*
X169321428Y-86977149D02*
X169369047Y-87000959D01*
X169369047Y-87000959D02*
X169392857Y-87024768D01*
X169392857Y-87024768D02*
X169416666Y-87072387D01*
X169416666Y-87072387D02*
X169416666Y-87143816D01*
X169416666Y-87143816D02*
X169392857Y-87191435D01*
X169392857Y-87191435D02*
X169369047Y-87215244D01*
X169369047Y-87215244D02*
X169321428Y-87239054D01*
X169321428Y-87239054D02*
X169130952Y-87239054D01*
X169892857Y-87477149D02*
X169607143Y-87477149D01*
X169750000Y-87477149D02*
X169750000Y-86977149D01*
X169750000Y-86977149D02*
X169702381Y-87048578D01*
X169702381Y-87048578D02*
X169654762Y-87096197D01*
X169654762Y-87096197D02*
X169607143Y-87120006D01*
D11*
X164500000Y-102954819D02*
X164500000Y-101954819D01*
X164500000Y-101954819D02*
X164833333Y-102669104D01*
X164833333Y-102669104D02*
X165166666Y-101954819D01*
X165166666Y-101954819D02*
X165166666Y-102954819D01*
X165642857Y-102954819D02*
X165642857Y-102288152D01*
X165642857Y-101954819D02*
X165595238Y-102002438D01*
X165595238Y-102002438D02*
X165642857Y-102050057D01*
X165642857Y-102050057D02*
X165690476Y-102002438D01*
X165690476Y-102002438D02*
X165642857Y-101954819D01*
X165642857Y-101954819D02*
X165642857Y-102050057D01*
X166547618Y-102907200D02*
X166452380Y-102954819D01*
X166452380Y-102954819D02*
X166261904Y-102954819D01*
X166261904Y-102954819D02*
X166166666Y-102907200D01*
X166166666Y-102907200D02*
X166119047Y-102859580D01*
X166119047Y-102859580D02*
X166071428Y-102764342D01*
X166071428Y-102764342D02*
X166071428Y-102478628D01*
X166071428Y-102478628D02*
X166119047Y-102383390D01*
X166119047Y-102383390D02*
X166166666Y-102335771D01*
X166166666Y-102335771D02*
X166261904Y-102288152D01*
X166261904Y-102288152D02*
X166452380Y-102288152D01*
X166452380Y-102288152D02*
X166547618Y-102335771D01*
X166976190Y-102954819D02*
X166976190Y-102288152D01*
X166976190Y-102478628D02*
X167023809Y-102383390D01*
X167023809Y-102383390D02*
X167071428Y-102335771D01*
X167071428Y-102335771D02*
X167166666Y-102288152D01*
X167166666Y-102288152D02*
X167261904Y-102288152D01*
X167738095Y-102954819D02*
X167642857Y-102907200D01*
X167642857Y-102907200D02*
X167595238Y-102859580D01*
X167595238Y-102859580D02*
X167547619Y-102764342D01*
X167547619Y-102764342D02*
X167547619Y-102478628D01*
X167547619Y-102478628D02*
X167595238Y-102383390D01*
X167595238Y-102383390D02*
X167642857Y-102335771D01*
X167642857Y-102335771D02*
X167738095Y-102288152D01*
X167738095Y-102288152D02*
X167880952Y-102288152D01*
X167880952Y-102288152D02*
X167976190Y-102335771D01*
X167976190Y-102335771D02*
X168023809Y-102383390D01*
X168023809Y-102383390D02*
X168071428Y-102478628D01*
X168071428Y-102478628D02*
X168071428Y-102764342D01*
X168071428Y-102764342D02*
X168023809Y-102859580D01*
X168023809Y-102859580D02*
X167976190Y-102907200D01*
X167976190Y-102907200D02*
X167880952Y-102954819D01*
X167880952Y-102954819D02*
X167738095Y-102954819D01*
X168500000Y-102288152D02*
X168500000Y-103288152D01*
X168500000Y-102335771D02*
X168595238Y-102288152D01*
X168595238Y-102288152D02*
X168785714Y-102288152D01*
X168785714Y-102288152D02*
X168880952Y-102335771D01*
X168880952Y-102335771D02*
X168928571Y-102383390D01*
X168928571Y-102383390D02*
X168976190Y-102478628D01*
X168976190Y-102478628D02*
X168976190Y-102764342D01*
X168976190Y-102764342D02*
X168928571Y-102859580D01*
X168928571Y-102859580D02*
X168880952Y-102907200D01*
X168880952Y-102907200D02*
X168785714Y-102954819D01*
X168785714Y-102954819D02*
X168595238Y-102954819D01*
X168595238Y-102954819D02*
X168500000Y-102907200D01*
X169404762Y-102954819D02*
X169404762Y-101954819D01*
X169833333Y-102954819D02*
X169833333Y-102431009D01*
X169833333Y-102431009D02*
X169785714Y-102335771D01*
X169785714Y-102335771D02*
X169690476Y-102288152D01*
X169690476Y-102288152D02*
X169547619Y-102288152D01*
X169547619Y-102288152D02*
X169452381Y-102335771D01*
X169452381Y-102335771D02*
X169404762Y-102383390D01*
X170452381Y-102954819D02*
X170357143Y-102907200D01*
X170357143Y-102907200D02*
X170309524Y-102859580D01*
X170309524Y-102859580D02*
X170261905Y-102764342D01*
X170261905Y-102764342D02*
X170261905Y-102478628D01*
X170261905Y-102478628D02*
X170309524Y-102383390D01*
X170309524Y-102383390D02*
X170357143Y-102335771D01*
X170357143Y-102335771D02*
X170452381Y-102288152D01*
X170452381Y-102288152D02*
X170595238Y-102288152D01*
X170595238Y-102288152D02*
X170690476Y-102335771D01*
X170690476Y-102335771D02*
X170738095Y-102383390D01*
X170738095Y-102383390D02*
X170785714Y-102478628D01*
X170785714Y-102478628D02*
X170785714Y-102764342D01*
X170785714Y-102764342D02*
X170738095Y-102859580D01*
X170738095Y-102859580D02*
X170690476Y-102907200D01*
X170690476Y-102907200D02*
X170595238Y-102954819D01*
X170595238Y-102954819D02*
X170452381Y-102954819D01*
X171214286Y-102288152D02*
X171214286Y-102954819D01*
X171214286Y-102383390D02*
X171261905Y-102335771D01*
X171261905Y-102335771D02*
X171357143Y-102288152D01*
X171357143Y-102288152D02*
X171500000Y-102288152D01*
X171500000Y-102288152D02*
X171595238Y-102335771D01*
X171595238Y-102335771D02*
X171642857Y-102431009D01*
X171642857Y-102431009D02*
X171642857Y-102954819D01*
X172500000Y-102907200D02*
X172404762Y-102954819D01*
X172404762Y-102954819D02*
X172214286Y-102954819D01*
X172214286Y-102954819D02*
X172119048Y-102907200D01*
X172119048Y-102907200D02*
X172071429Y-102811961D01*
X172071429Y-102811961D02*
X172071429Y-102431009D01*
X172071429Y-102431009D02*
X172119048Y-102335771D01*
X172119048Y-102335771D02*
X172214286Y-102288152D01*
X172214286Y-102288152D02*
X172404762Y-102288152D01*
X172404762Y-102288152D02*
X172500000Y-102335771D01*
X172500000Y-102335771D02*
X172547619Y-102431009D01*
X172547619Y-102431009D02*
X172547619Y-102526247D01*
X172547619Y-102526247D02*
X172071429Y-102621485D01*
X168954819Y-99559523D02*
X167954819Y-99559523D01*
X167954819Y-99559523D02*
X168669104Y-99226190D01*
X168669104Y-99226190D02*
X167954819Y-98892857D01*
X167954819Y-98892857D02*
X168954819Y-98892857D01*
X168954819Y-98416666D02*
X167954819Y-98416666D01*
X168954819Y-97845238D02*
X168383390Y-98273809D01*
X167954819Y-97845238D02*
X168526247Y-98416666D01*
X168954819Y-96892857D02*
X168954819Y-97464285D01*
X168954819Y-97178571D02*
X167954819Y-97178571D01*
X167954819Y-97178571D02*
X168097676Y-97273809D01*
X168097676Y-97273809D02*
X168192914Y-97369047D01*
X168192914Y-97369047D02*
X168240533Y-97464285D01*
D13*
X169433333Y-90643832D02*
X169414285Y-90662880D01*
X169414285Y-90662880D02*
X169357143Y-90681927D01*
X169357143Y-90681927D02*
X169319047Y-90681927D01*
X169319047Y-90681927D02*
X169261904Y-90662880D01*
X169261904Y-90662880D02*
X169223809Y-90624784D01*
X169223809Y-90624784D02*
X169204762Y-90586689D01*
X169204762Y-90586689D02*
X169185714Y-90510499D01*
X169185714Y-90510499D02*
X169185714Y-90453356D01*
X169185714Y-90453356D02*
X169204762Y-90377165D01*
X169204762Y-90377165D02*
X169223809Y-90339070D01*
X169223809Y-90339070D02*
X169261904Y-90300975D01*
X169261904Y-90300975D02*
X169319047Y-90281927D01*
X169319047Y-90281927D02*
X169357143Y-90281927D01*
X169357143Y-90281927D02*
X169414285Y-90300975D01*
X169414285Y-90300975D02*
X169433333Y-90320022D01*
X169814285Y-90681927D02*
X169585714Y-90681927D01*
X169700000Y-90681927D02*
X169700000Y-90281927D01*
X169700000Y-90281927D02*
X169661904Y-90339070D01*
X169661904Y-90339070D02*
X169623809Y-90377165D01*
X169623809Y-90377165D02*
X169585714Y-90396213D01*
D14*
%TO.C,C3*%
X185462500Y-86375000D02*
X187462500Y-86375000D01*
X185462500Y-87625000D02*
X185462500Y-86375000D01*
X187462500Y-86375000D02*
X187462500Y-87625000D01*
X187462500Y-87625000D02*
X185462500Y-87625000D01*
%TO.C,C2*%
X177375000Y-93287500D02*
X178625000Y-93287500D01*
X177375000Y-95287500D02*
X177375000Y-93287500D01*
X178625000Y-93287500D02*
X178625000Y-95287500D01*
X178625000Y-95287500D02*
X177375000Y-95287500D01*
%TO.C,J1*%
X196690000Y-87920000D02*
X197960000Y-86650000D01*
X196690000Y-99350000D02*
X196690000Y-87920000D01*
X197960000Y-86650000D02*
X201770000Y-86650000D01*
X201770000Y-86650000D02*
X201770000Y-99350000D01*
X201770000Y-99350000D02*
X196690000Y-99350000D01*
%TO.C,R2*%
X173750000Y-89875000D02*
X175750000Y-89875000D01*
X173750000Y-91125000D02*
X173750000Y-89875000D01*
X175750000Y-89875000D02*
X175750000Y-91125000D01*
X175750000Y-91125000D02*
X173750000Y-91125000D01*
%TO.C,R4*%
X189750000Y-93375000D02*
X191750000Y-93375000D01*
X189750000Y-94625000D02*
X189750000Y-93375000D01*
X191750000Y-93375000D02*
X191750000Y-94625000D01*
X191750000Y-94625000D02*
X189750000Y-94625000D01*
%TO.C,D1*%
X190280000Y-88487500D02*
X190280000Y-89887500D01*
X192750000Y-88487500D02*
X190300000Y-88487500D01*
X192750000Y-88487500D02*
X193320000Y-89037500D01*
X193320000Y-89037500D02*
X193320000Y-89887500D01*
X193320000Y-89887500D02*
X190280000Y-89887500D01*
%TO.C,R3*%
X181000000Y-86375000D02*
X183000000Y-86375000D01*
X181000000Y-87625000D02*
X181000000Y-86375000D01*
X183000000Y-86375000D02*
X183000000Y-87625000D01*
X183000000Y-87625000D02*
X181000000Y-87625000D01*
%TO.C,U1*%
X182120000Y-90930000D02*
X183095000Y-89955000D01*
X182120000Y-94855000D02*
X182120000Y-90930000D01*
X183095000Y-89955000D02*
X186020000Y-89955000D01*
X186020000Y-89955000D02*
X186020000Y-94855000D01*
X186020000Y-94855000D02*
X182120000Y-94855000D01*
%TO.C,R1*%
X168500000Y-86625000D02*
X170500000Y-86625000D01*
X168500000Y-87875000D02*
X168500000Y-86625000D01*
X170500000Y-86625000D02*
X170500000Y-87875000D01*
X170500000Y-87875000D02*
X168500000Y-87875000D01*
%TO.C,MK1*%
X169873500Y-95556028D02*
X169873500Y-96186028D01*
X170188500Y-95871028D02*
X169558500Y-95871028D01*
X171650000Y-98250000D02*
G75*
G02*
X165350000Y-98250000I-3150000J0D01*
G01*
X165350000Y-98250000D02*
G75*
G02*
X171650000Y-98250000I3150000J0D01*
G01*
%TO.C,C1*%
X168700000Y-90100000D02*
X170300000Y-90100000D01*
X168700000Y-90900000D02*
X168700000Y-90100000D01*
X170300000Y-90100000D02*
X170300000Y-90900000D01*
X170300000Y-90900000D02*
X168700000Y-90900000D01*
%TD*%
M02*
