%TF.GenerationSoftware,KiCad,Pcbnew,8.0.5*%
%TF.CreationDate,2024-10-16T14:39:01+05:30*%
%TF.ProjectId,SensorEast,53656e73-6f72-4456-9173-742e6b696361,rev?*%
%TF.SameCoordinates,Original*%
%TF.FileFunction,Drillmap*%
%TF.FilePolarity,Positive*%
%FSLAX45Y45*%
G04 Gerber Fmt 4.5, Leading zero omitted, Abs format (unit mm)*
G04 Created by KiCad (PCBNEW 8.0.5) date 2024-10-16 14:39:01*
%MOMM*%
%LPD*%
G01*
G04 APERTURE LIST*
%ADD10C,0.050000*%
%ADD11C,0.200000*%
G04 APERTURE END LIST*
D10*
X19300000Y-10137500D02*
G75*
G02*
X19000000Y-10137500I-150000J0D01*
G01*
X19000000Y-10137500D02*
G75*
G02*
X19300000Y-10137500I150000J0D01*
G01*
X21150000Y-8150000D02*
X21150000Y-10400000D01*
X16300000Y-8150000D02*
X21150000Y-8150000D01*
X21150000Y-10400000D02*
X16300000Y-10400000D01*
X16300000Y-10400000D02*
X16300000Y-8150000D01*
X17900000Y-10137500D02*
G75*
G02*
X17600000Y-10137500I-150000J0D01*
G01*
X17600000Y-10137500D02*
G75*
G02*
X17900000Y-10137500I150000J0D01*
G01*
D11*
X16558277Y-10713984D02*
X16558277Y-10513984D01*
X16558277Y-10513984D02*
X16605896Y-10513984D01*
X16605896Y-10513984D02*
X16634467Y-10523508D01*
X16634467Y-10523508D02*
X16653515Y-10542555D01*
X16653515Y-10542555D02*
X16663039Y-10561603D01*
X16663039Y-10561603D02*
X16672562Y-10599698D01*
X16672562Y-10599698D02*
X16672562Y-10628270D01*
X16672562Y-10628270D02*
X16663039Y-10666365D01*
X16663039Y-10666365D02*
X16653515Y-10685412D01*
X16653515Y-10685412D02*
X16634467Y-10704460D01*
X16634467Y-10704460D02*
X16605896Y-10713984D01*
X16605896Y-10713984D02*
X16558277Y-10713984D01*
X16758277Y-10713984D02*
X16758277Y-10580650D01*
X16758277Y-10618746D02*
X16767801Y-10599698D01*
X16767801Y-10599698D02*
X16777324Y-10590174D01*
X16777324Y-10590174D02*
X16796372Y-10580650D01*
X16796372Y-10580650D02*
X16815420Y-10580650D01*
X16882086Y-10713984D02*
X16882086Y-10580650D01*
X16882086Y-10513984D02*
X16872563Y-10523508D01*
X16872563Y-10523508D02*
X16882086Y-10533031D01*
X16882086Y-10533031D02*
X16891610Y-10523508D01*
X16891610Y-10523508D02*
X16882086Y-10513984D01*
X16882086Y-10513984D02*
X16882086Y-10533031D01*
X17005896Y-10713984D02*
X16986848Y-10704460D01*
X16986848Y-10704460D02*
X16977324Y-10685412D01*
X16977324Y-10685412D02*
X16977324Y-10513984D01*
X17110658Y-10713984D02*
X17091610Y-10704460D01*
X17091610Y-10704460D02*
X17082086Y-10685412D01*
X17082086Y-10685412D02*
X17082086Y-10513984D01*
X17339229Y-10713984D02*
X17339229Y-10513984D01*
X17339229Y-10513984D02*
X17405896Y-10656841D01*
X17405896Y-10656841D02*
X17472563Y-10513984D01*
X17472563Y-10513984D02*
X17472563Y-10713984D01*
X17653515Y-10713984D02*
X17653515Y-10609222D01*
X17653515Y-10609222D02*
X17643991Y-10590174D01*
X17643991Y-10590174D02*
X17624944Y-10580650D01*
X17624944Y-10580650D02*
X17586848Y-10580650D01*
X17586848Y-10580650D02*
X17567801Y-10590174D01*
X17653515Y-10704460D02*
X17634467Y-10713984D01*
X17634467Y-10713984D02*
X17586848Y-10713984D01*
X17586848Y-10713984D02*
X17567801Y-10704460D01*
X17567801Y-10704460D02*
X17558277Y-10685412D01*
X17558277Y-10685412D02*
X17558277Y-10666365D01*
X17558277Y-10666365D02*
X17567801Y-10647317D01*
X17567801Y-10647317D02*
X17586848Y-10637793D01*
X17586848Y-10637793D02*
X17634467Y-10637793D01*
X17634467Y-10637793D02*
X17653515Y-10628270D01*
X17748753Y-10580650D02*
X17748753Y-10780650D01*
X17748753Y-10590174D02*
X17767801Y-10580650D01*
X17767801Y-10580650D02*
X17805896Y-10580650D01*
X17805896Y-10580650D02*
X17824944Y-10590174D01*
X17824944Y-10590174D02*
X17834467Y-10599698D01*
X17834467Y-10599698D02*
X17843991Y-10618746D01*
X17843991Y-10618746D02*
X17843991Y-10675889D01*
X17843991Y-10675889D02*
X17834467Y-10694936D01*
X17834467Y-10694936D02*
X17824944Y-10704460D01*
X17824944Y-10704460D02*
X17805896Y-10713984D01*
X17805896Y-10713984D02*
X17767801Y-10713984D01*
X17767801Y-10713984D02*
X17748753Y-10704460D01*
X17929705Y-10694936D02*
X17939229Y-10704460D01*
X17939229Y-10704460D02*
X17929705Y-10713984D01*
X17929705Y-10713984D02*
X17920182Y-10704460D01*
X17920182Y-10704460D02*
X17929705Y-10694936D01*
X17929705Y-10694936D02*
X17929705Y-10713984D01*
X17929705Y-10590174D02*
X17939229Y-10599698D01*
X17939229Y-10599698D02*
X17929705Y-10609222D01*
X17929705Y-10609222D02*
X17920182Y-10599698D01*
X17920182Y-10599698D02*
X17929705Y-10590174D01*
X17929705Y-10590174D02*
X17929705Y-10609222D01*
M02*
