%TF.GenerationSoftware,KiCad,Pcbnew,8.0.5*%
%TF.CreationDate,2024-10-16T14:39:01+05:30*%
%TF.ProjectId,SensorEast,53656e73-6f72-4456-9173-742e6b696361,rev?*%
%TF.SameCoordinates,Original*%
%TF.FileFunction,Drillmap*%
%TF.FilePolarity,Positive*%
%FSLAX45Y45*%
G04 Gerber Fmt 4.5, Leading zero omitted, Abs format (unit mm)*
G04 Created by KiCad (PCBNEW 8.0.5) date 2024-10-16 14:39:01*
%MOMM*%
%LPD*%
G01*
G04 APERTURE LIST*
%ADD10C,0.050000*%
%ADD11C,0.200000*%
%ADD12C,0.100000*%
G04 APERTURE END LIST*
D10*
X19300000Y-10137500D02*
G75*
G02*
X19000000Y-10137500I-150000J0D01*
G01*
X19000000Y-10137500D02*
G75*
G02*
X19300000Y-10137500I150000J0D01*
G01*
X21150000Y-8150000D02*
X21150000Y-10400000D01*
X16300000Y-8150000D02*
X21150000Y-8150000D01*
X21150000Y-10400000D02*
X16300000Y-10400000D01*
X16300000Y-10400000D02*
X16300000Y-8150000D01*
X17900000Y-10137500D02*
G75*
G02*
X17600000Y-10137500I-150000J0D01*
G01*
X17600000Y-10137500D02*
G75*
G02*
X17900000Y-10137500I150000J0D01*
G01*
D11*
D12*
X17935000Y-9285000D02*
X17965000Y-9315000D01*
X17965000Y-9285000D02*
X17935000Y-9315000D01*
X18510000Y-8541250D02*
X18540000Y-8571250D01*
X18540000Y-8541250D02*
X18510000Y-8571250D01*
X19335000Y-8535000D02*
X19365000Y-8565000D01*
X19365000Y-8535000D02*
X19335000Y-8565000D01*
X16890000Y-9700000D02*
G75*
G02*
X16810000Y-9700000I-40000J0D01*
G01*
X16810000Y-9700000D02*
G75*
G02*
X16890000Y-9700000I40000J0D01*
G01*
X16890000Y-9950000D02*
G75*
G02*
X16810000Y-9950000I-40000J0D01*
G01*
X16810000Y-9950000D02*
G75*
G02*
X16890000Y-9950000I40000J0D01*
G01*
X19796000Y-8742000D02*
X19796000Y-8842000D01*
X19746000Y-8792000D02*
X19846000Y-8792000D01*
X19796000Y-8996000D02*
X19796000Y-9096000D01*
X19746000Y-9046000D02*
X19846000Y-9046000D01*
X19796000Y-9250000D02*
X19796000Y-9350000D01*
X19746000Y-9300000D02*
X19846000Y-9300000D01*
X19796000Y-9504000D02*
X19796000Y-9604000D01*
X19746000Y-9554000D02*
X19846000Y-9554000D01*
X19796000Y-9758000D02*
X19796000Y-9858000D01*
X19746000Y-9808000D02*
X19846000Y-9808000D01*
X20050000Y-8742000D02*
X20050000Y-8842000D01*
X20000000Y-8792000D02*
X20100000Y-8792000D01*
X20050000Y-8996000D02*
X20050000Y-9096000D01*
X20000000Y-9046000D02*
X20100000Y-9046000D01*
X20050000Y-9250000D02*
X20050000Y-9350000D01*
X20000000Y-9300000D02*
X20100000Y-9300000D01*
X20050000Y-9504000D02*
X20050000Y-9604000D01*
X20000000Y-9554000D02*
X20100000Y-9554000D01*
X20050000Y-9758000D02*
X20050000Y-9858000D01*
X20000000Y-9808000D02*
X20100000Y-9808000D01*
D11*
X16558277Y-10713984D02*
X16558277Y-10513984D01*
X16558277Y-10513984D02*
X16605896Y-10513984D01*
X16605896Y-10513984D02*
X16634467Y-10523508D01*
X16634467Y-10523508D02*
X16653515Y-10542555D01*
X16653515Y-10542555D02*
X16663039Y-10561603D01*
X16663039Y-10561603D02*
X16672562Y-10599698D01*
X16672562Y-10599698D02*
X16672562Y-10628270D01*
X16672562Y-10628270D02*
X16663039Y-10666365D01*
X16663039Y-10666365D02*
X16653515Y-10685412D01*
X16653515Y-10685412D02*
X16634467Y-10704460D01*
X16634467Y-10704460D02*
X16605896Y-10713984D01*
X16605896Y-10713984D02*
X16558277Y-10713984D01*
X16758277Y-10713984D02*
X16758277Y-10580650D01*
X16758277Y-10618746D02*
X16767801Y-10599698D01*
X16767801Y-10599698D02*
X16777324Y-10590174D01*
X16777324Y-10590174D02*
X16796372Y-10580650D01*
X16796372Y-10580650D02*
X16815420Y-10580650D01*
X16882086Y-10713984D02*
X16882086Y-10580650D01*
X16882086Y-10513984D02*
X16872563Y-10523508D01*
X16872563Y-10523508D02*
X16882086Y-10533031D01*
X16882086Y-10533031D02*
X16891610Y-10523508D01*
X16891610Y-10523508D02*
X16882086Y-10513984D01*
X16882086Y-10513984D02*
X16882086Y-10533031D01*
X17005896Y-10713984D02*
X16986848Y-10704460D01*
X16986848Y-10704460D02*
X16977324Y-10685412D01*
X16977324Y-10685412D02*
X16977324Y-10513984D01*
X17110658Y-10713984D02*
X17091610Y-10704460D01*
X17091610Y-10704460D02*
X17082086Y-10685412D01*
X17082086Y-10685412D02*
X17082086Y-10513984D01*
X17339229Y-10713984D02*
X17339229Y-10513984D01*
X17339229Y-10513984D02*
X17405896Y-10656841D01*
X17405896Y-10656841D02*
X17472563Y-10513984D01*
X17472563Y-10513984D02*
X17472563Y-10713984D01*
X17653515Y-10713984D02*
X17653515Y-10609222D01*
X17653515Y-10609222D02*
X17643991Y-10590174D01*
X17643991Y-10590174D02*
X17624944Y-10580650D01*
X17624944Y-10580650D02*
X17586848Y-10580650D01*
X17586848Y-10580650D02*
X17567801Y-10590174D01*
X17653515Y-10704460D02*
X17634467Y-10713984D01*
X17634467Y-10713984D02*
X17586848Y-10713984D01*
X17586848Y-10713984D02*
X17567801Y-10704460D01*
X17567801Y-10704460D02*
X17558277Y-10685412D01*
X17558277Y-10685412D02*
X17558277Y-10666365D01*
X17558277Y-10666365D02*
X17567801Y-10647317D01*
X17567801Y-10647317D02*
X17586848Y-10637793D01*
X17586848Y-10637793D02*
X17634467Y-10637793D01*
X17634467Y-10637793D02*
X17653515Y-10628270D01*
X17748753Y-10580650D02*
X17748753Y-10780650D01*
X17748753Y-10590174D02*
X17767801Y-10580650D01*
X17767801Y-10580650D02*
X17805896Y-10580650D01*
X17805896Y-10580650D02*
X17824944Y-10590174D01*
X17824944Y-10590174D02*
X17834467Y-10599698D01*
X17834467Y-10599698D02*
X17843991Y-10618746D01*
X17843991Y-10618746D02*
X17843991Y-10675889D01*
X17843991Y-10675889D02*
X17834467Y-10694936D01*
X17834467Y-10694936D02*
X17824944Y-10704460D01*
X17824944Y-10704460D02*
X17805896Y-10713984D01*
X17805896Y-10713984D02*
X17767801Y-10713984D01*
X17767801Y-10713984D02*
X17748753Y-10704460D01*
X17929705Y-10694936D02*
X17939229Y-10704460D01*
X17939229Y-10704460D02*
X17929705Y-10713984D01*
X17929705Y-10713984D02*
X17920182Y-10704460D01*
X17920182Y-10704460D02*
X17929705Y-10694936D01*
X17929705Y-10694936D02*
X17929705Y-10713984D01*
X17929705Y-10590174D02*
X17939229Y-10599698D01*
X17939229Y-10599698D02*
X17929705Y-10609222D01*
X17929705Y-10609222D02*
X17920182Y-10599698D01*
X17920182Y-10599698D02*
X17929705Y-10590174D01*
X17929705Y-10590174D02*
X17929705Y-10609222D01*
D12*
X16267500Y-11027500D02*
X16297500Y-11057500D01*
X16297500Y-11027500D02*
X16267500Y-11057500D01*
D11*
X16596372Y-10933984D02*
X16615420Y-10933984D01*
X16615420Y-10933984D02*
X16634467Y-10943508D01*
X16634467Y-10943508D02*
X16643991Y-10953031D01*
X16643991Y-10953031D02*
X16653515Y-10972079D01*
X16653515Y-10972079D02*
X16663039Y-11010174D01*
X16663039Y-11010174D02*
X16663039Y-11057793D01*
X16663039Y-11057793D02*
X16653515Y-11095889D01*
X16653515Y-11095889D02*
X16643991Y-11114936D01*
X16643991Y-11114936D02*
X16634467Y-11124460D01*
X16634467Y-11124460D02*
X16615420Y-11133984D01*
X16615420Y-11133984D02*
X16596372Y-11133984D01*
X16596372Y-11133984D02*
X16577324Y-11124460D01*
X16577324Y-11124460D02*
X16567801Y-11114936D01*
X16567801Y-11114936D02*
X16558277Y-11095889D01*
X16558277Y-11095889D02*
X16548753Y-11057793D01*
X16548753Y-11057793D02*
X16548753Y-11010174D01*
X16548753Y-11010174D02*
X16558277Y-10972079D01*
X16558277Y-10972079D02*
X16567801Y-10953031D01*
X16567801Y-10953031D02*
X16577324Y-10943508D01*
X16577324Y-10943508D02*
X16596372Y-10933984D01*
X16748753Y-11114936D02*
X16758277Y-11124460D01*
X16758277Y-11124460D02*
X16748753Y-11133984D01*
X16748753Y-11133984D02*
X16739229Y-11124460D01*
X16739229Y-11124460D02*
X16748753Y-11114936D01*
X16748753Y-11114936D02*
X16748753Y-11133984D01*
X16824944Y-10933984D02*
X16948753Y-10933984D01*
X16948753Y-10933984D02*
X16882086Y-11010174D01*
X16882086Y-11010174D02*
X16910658Y-11010174D01*
X16910658Y-11010174D02*
X16929705Y-11019698D01*
X16929705Y-11019698D02*
X16939229Y-11029222D01*
X16939229Y-11029222D02*
X16948753Y-11048270D01*
X16948753Y-11048270D02*
X16948753Y-11095889D01*
X16948753Y-11095889D02*
X16939229Y-11114936D01*
X16939229Y-11114936D02*
X16929705Y-11124460D01*
X16929705Y-11124460D02*
X16910658Y-11133984D01*
X16910658Y-11133984D02*
X16853515Y-11133984D01*
X16853515Y-11133984D02*
X16834467Y-11124460D01*
X16834467Y-11124460D02*
X16824944Y-11114936D01*
X17072563Y-10933984D02*
X17091610Y-10933984D01*
X17091610Y-10933984D02*
X17110658Y-10943508D01*
X17110658Y-10943508D02*
X17120182Y-10953031D01*
X17120182Y-10953031D02*
X17129705Y-10972079D01*
X17129705Y-10972079D02*
X17139229Y-11010174D01*
X17139229Y-11010174D02*
X17139229Y-11057793D01*
X17139229Y-11057793D02*
X17129705Y-11095889D01*
X17129705Y-11095889D02*
X17120182Y-11114936D01*
X17120182Y-11114936D02*
X17110658Y-11124460D01*
X17110658Y-11124460D02*
X17091610Y-11133984D01*
X17091610Y-11133984D02*
X17072563Y-11133984D01*
X17072563Y-11133984D02*
X17053515Y-11124460D01*
X17053515Y-11124460D02*
X17043991Y-11114936D01*
X17043991Y-11114936D02*
X17034467Y-11095889D01*
X17034467Y-11095889D02*
X17024944Y-11057793D01*
X17024944Y-11057793D02*
X17024944Y-11010174D01*
X17024944Y-11010174D02*
X17034467Y-10972079D01*
X17034467Y-10972079D02*
X17043991Y-10953031D01*
X17043991Y-10953031D02*
X17053515Y-10943508D01*
X17053515Y-10943508D02*
X17072563Y-10933984D01*
X17263039Y-10933984D02*
X17282086Y-10933984D01*
X17282086Y-10933984D02*
X17301134Y-10943508D01*
X17301134Y-10943508D02*
X17310658Y-10953031D01*
X17310658Y-10953031D02*
X17320182Y-10972079D01*
X17320182Y-10972079D02*
X17329705Y-11010174D01*
X17329705Y-11010174D02*
X17329705Y-11057793D01*
X17329705Y-11057793D02*
X17320182Y-11095889D01*
X17320182Y-11095889D02*
X17310658Y-11114936D01*
X17310658Y-11114936D02*
X17301134Y-11124460D01*
X17301134Y-11124460D02*
X17282086Y-11133984D01*
X17282086Y-11133984D02*
X17263039Y-11133984D01*
X17263039Y-11133984D02*
X17243991Y-11124460D01*
X17243991Y-11124460D02*
X17234467Y-11114936D01*
X17234467Y-11114936D02*
X17224944Y-11095889D01*
X17224944Y-11095889D02*
X17215420Y-11057793D01*
X17215420Y-11057793D02*
X17215420Y-11010174D01*
X17215420Y-11010174D02*
X17224944Y-10972079D01*
X17224944Y-10972079D02*
X17234467Y-10953031D01*
X17234467Y-10953031D02*
X17243991Y-10943508D01*
X17243991Y-10943508D02*
X17263039Y-10933984D01*
X17415420Y-11133984D02*
X17415420Y-11000650D01*
X17415420Y-11019698D02*
X17424944Y-11010174D01*
X17424944Y-11010174D02*
X17443991Y-11000650D01*
X17443991Y-11000650D02*
X17472563Y-11000650D01*
X17472563Y-11000650D02*
X17491610Y-11010174D01*
X17491610Y-11010174D02*
X17501134Y-11029222D01*
X17501134Y-11029222D02*
X17501134Y-11133984D01*
X17501134Y-11029222D02*
X17510658Y-11010174D01*
X17510658Y-11010174D02*
X17529705Y-11000650D01*
X17529705Y-11000650D02*
X17558277Y-11000650D01*
X17558277Y-11000650D02*
X17577325Y-11010174D01*
X17577325Y-11010174D02*
X17586848Y-11029222D01*
X17586848Y-11029222D02*
X17586848Y-11133984D01*
X17682086Y-11133984D02*
X17682086Y-11000650D01*
X17682086Y-11019698D02*
X17691610Y-11010174D01*
X17691610Y-11010174D02*
X17710658Y-11000650D01*
X17710658Y-11000650D02*
X17739229Y-11000650D01*
X17739229Y-11000650D02*
X17758277Y-11010174D01*
X17758277Y-11010174D02*
X17767801Y-11029222D01*
X17767801Y-11029222D02*
X17767801Y-11133984D01*
X17767801Y-11029222D02*
X17777325Y-11010174D01*
X17777325Y-11010174D02*
X17796372Y-11000650D01*
X17796372Y-11000650D02*
X17824944Y-11000650D01*
X17824944Y-11000650D02*
X17843991Y-11010174D01*
X17843991Y-11010174D02*
X17853515Y-11029222D01*
X17853515Y-11029222D02*
X17853515Y-11133984D01*
X18243991Y-10924460D02*
X18072563Y-11181603D01*
X18501134Y-10933984D02*
X18520182Y-10933984D01*
X18520182Y-10933984D02*
X18539229Y-10943508D01*
X18539229Y-10943508D02*
X18548753Y-10953031D01*
X18548753Y-10953031D02*
X18558277Y-10972079D01*
X18558277Y-10972079D02*
X18567801Y-11010174D01*
X18567801Y-11010174D02*
X18567801Y-11057793D01*
X18567801Y-11057793D02*
X18558277Y-11095889D01*
X18558277Y-11095889D02*
X18548753Y-11114936D01*
X18548753Y-11114936D02*
X18539229Y-11124460D01*
X18539229Y-11124460D02*
X18520182Y-11133984D01*
X18520182Y-11133984D02*
X18501134Y-11133984D01*
X18501134Y-11133984D02*
X18482087Y-11124460D01*
X18482087Y-11124460D02*
X18472563Y-11114936D01*
X18472563Y-11114936D02*
X18463039Y-11095889D01*
X18463039Y-11095889D02*
X18453515Y-11057793D01*
X18453515Y-11057793D02*
X18453515Y-11010174D01*
X18453515Y-11010174D02*
X18463039Y-10972079D01*
X18463039Y-10972079D02*
X18472563Y-10953031D01*
X18472563Y-10953031D02*
X18482087Y-10943508D01*
X18482087Y-10943508D02*
X18501134Y-10933984D01*
X18653515Y-11114936D02*
X18663039Y-11124460D01*
X18663039Y-11124460D02*
X18653515Y-11133984D01*
X18653515Y-11133984D02*
X18643991Y-11124460D01*
X18643991Y-11124460D02*
X18653515Y-11114936D01*
X18653515Y-11114936D02*
X18653515Y-11133984D01*
X18786848Y-10933984D02*
X18805896Y-10933984D01*
X18805896Y-10933984D02*
X18824944Y-10943508D01*
X18824944Y-10943508D02*
X18834468Y-10953031D01*
X18834468Y-10953031D02*
X18843991Y-10972079D01*
X18843991Y-10972079D02*
X18853515Y-11010174D01*
X18853515Y-11010174D02*
X18853515Y-11057793D01*
X18853515Y-11057793D02*
X18843991Y-11095889D01*
X18843991Y-11095889D02*
X18834468Y-11114936D01*
X18834468Y-11114936D02*
X18824944Y-11124460D01*
X18824944Y-11124460D02*
X18805896Y-11133984D01*
X18805896Y-11133984D02*
X18786848Y-11133984D01*
X18786848Y-11133984D02*
X18767801Y-11124460D01*
X18767801Y-11124460D02*
X18758277Y-11114936D01*
X18758277Y-11114936D02*
X18748753Y-11095889D01*
X18748753Y-11095889D02*
X18739229Y-11057793D01*
X18739229Y-11057793D02*
X18739229Y-11010174D01*
X18739229Y-11010174D02*
X18748753Y-10972079D01*
X18748753Y-10972079D02*
X18758277Y-10953031D01*
X18758277Y-10953031D02*
X18767801Y-10943508D01*
X18767801Y-10943508D02*
X18786848Y-10933984D01*
X19043991Y-11133984D02*
X18929706Y-11133984D01*
X18986848Y-11133984D02*
X18986848Y-10933984D01*
X18986848Y-10933984D02*
X18967801Y-10962555D01*
X18967801Y-10962555D02*
X18948753Y-10981603D01*
X18948753Y-10981603D02*
X18929706Y-10991127D01*
X19234468Y-11133984D02*
X19120182Y-11133984D01*
X19177325Y-11133984D02*
X19177325Y-10933984D01*
X19177325Y-10933984D02*
X19158277Y-10962555D01*
X19158277Y-10962555D02*
X19139229Y-10981603D01*
X19139229Y-10981603D02*
X19120182Y-10991127D01*
X19348753Y-11019698D02*
X19329706Y-11010174D01*
X19329706Y-11010174D02*
X19320182Y-11000650D01*
X19320182Y-11000650D02*
X19310658Y-10981603D01*
X19310658Y-10981603D02*
X19310658Y-10972079D01*
X19310658Y-10972079D02*
X19320182Y-10953031D01*
X19320182Y-10953031D02*
X19329706Y-10943508D01*
X19329706Y-10943508D02*
X19348753Y-10933984D01*
X19348753Y-10933984D02*
X19386849Y-10933984D01*
X19386849Y-10933984D02*
X19405896Y-10943508D01*
X19405896Y-10943508D02*
X19415420Y-10953031D01*
X19415420Y-10953031D02*
X19424944Y-10972079D01*
X19424944Y-10972079D02*
X19424944Y-10981603D01*
X19424944Y-10981603D02*
X19415420Y-11000650D01*
X19415420Y-11000650D02*
X19405896Y-11010174D01*
X19405896Y-11010174D02*
X19386849Y-11019698D01*
X19386849Y-11019698D02*
X19348753Y-11019698D01*
X19348753Y-11019698D02*
X19329706Y-11029222D01*
X19329706Y-11029222D02*
X19320182Y-11038746D01*
X19320182Y-11038746D02*
X19310658Y-11057793D01*
X19310658Y-11057793D02*
X19310658Y-11095889D01*
X19310658Y-11095889D02*
X19320182Y-11114936D01*
X19320182Y-11114936D02*
X19329706Y-11124460D01*
X19329706Y-11124460D02*
X19348753Y-11133984D01*
X19348753Y-11133984D02*
X19386849Y-11133984D01*
X19386849Y-11133984D02*
X19405896Y-11124460D01*
X19405896Y-11124460D02*
X19415420Y-11114936D01*
X19415420Y-11114936D02*
X19424944Y-11095889D01*
X19424944Y-11095889D02*
X19424944Y-11057793D01*
X19424944Y-11057793D02*
X19415420Y-11038746D01*
X19415420Y-11038746D02*
X19405896Y-11029222D01*
X19405896Y-11029222D02*
X19386849Y-11019698D01*
X19501134Y-10933984D02*
X19501134Y-10972079D01*
X19577325Y-10933984D02*
X19577325Y-10972079D01*
X19872563Y-11210174D02*
X19863039Y-11200650D01*
X19863039Y-11200650D02*
X19843991Y-11172079D01*
X19843991Y-11172079D02*
X19834468Y-11153031D01*
X19834468Y-11153031D02*
X19824944Y-11124460D01*
X19824944Y-11124460D02*
X19815420Y-11076841D01*
X19815420Y-11076841D02*
X19815420Y-11038746D01*
X19815420Y-11038746D02*
X19824944Y-10991127D01*
X19824944Y-10991127D02*
X19834468Y-10962555D01*
X19834468Y-10962555D02*
X19843991Y-10943508D01*
X19843991Y-10943508D02*
X19863039Y-10914936D01*
X19863039Y-10914936D02*
X19872563Y-10905412D01*
X19929706Y-10933984D02*
X20053515Y-10933984D01*
X20053515Y-10933984D02*
X19986849Y-11010174D01*
X19986849Y-11010174D02*
X20015420Y-11010174D01*
X20015420Y-11010174D02*
X20034468Y-11019698D01*
X20034468Y-11019698D02*
X20043991Y-11029222D01*
X20043991Y-11029222D02*
X20053515Y-11048270D01*
X20053515Y-11048270D02*
X20053515Y-11095889D01*
X20053515Y-11095889D02*
X20043991Y-11114936D01*
X20043991Y-11114936D02*
X20034468Y-11124460D01*
X20034468Y-11124460D02*
X20015420Y-11133984D01*
X20015420Y-11133984D02*
X19958277Y-11133984D01*
X19958277Y-11133984D02*
X19939230Y-11124460D01*
X19939230Y-11124460D02*
X19929706Y-11114936D01*
X20291611Y-11133984D02*
X20291611Y-10933984D01*
X20377325Y-11133984D02*
X20377325Y-11029222D01*
X20377325Y-11029222D02*
X20367801Y-11010174D01*
X20367801Y-11010174D02*
X20348753Y-11000650D01*
X20348753Y-11000650D02*
X20320182Y-11000650D01*
X20320182Y-11000650D02*
X20301134Y-11010174D01*
X20301134Y-11010174D02*
X20291611Y-11019698D01*
X20501134Y-11133984D02*
X20482087Y-11124460D01*
X20482087Y-11124460D02*
X20472563Y-11114936D01*
X20472563Y-11114936D02*
X20463039Y-11095889D01*
X20463039Y-11095889D02*
X20463039Y-11038746D01*
X20463039Y-11038746D02*
X20472563Y-11019698D01*
X20472563Y-11019698D02*
X20482087Y-11010174D01*
X20482087Y-11010174D02*
X20501134Y-11000650D01*
X20501134Y-11000650D02*
X20529706Y-11000650D01*
X20529706Y-11000650D02*
X20548753Y-11010174D01*
X20548753Y-11010174D02*
X20558277Y-11019698D01*
X20558277Y-11019698D02*
X20567801Y-11038746D01*
X20567801Y-11038746D02*
X20567801Y-11095889D01*
X20567801Y-11095889D02*
X20558277Y-11114936D01*
X20558277Y-11114936D02*
X20548753Y-11124460D01*
X20548753Y-11124460D02*
X20529706Y-11133984D01*
X20529706Y-11133984D02*
X20501134Y-11133984D01*
X20682087Y-11133984D02*
X20663039Y-11124460D01*
X20663039Y-11124460D02*
X20653515Y-11105412D01*
X20653515Y-11105412D02*
X20653515Y-10933984D01*
X20834468Y-11124460D02*
X20815420Y-11133984D01*
X20815420Y-11133984D02*
X20777325Y-11133984D01*
X20777325Y-11133984D02*
X20758277Y-11124460D01*
X20758277Y-11124460D02*
X20748753Y-11105412D01*
X20748753Y-11105412D02*
X20748753Y-11029222D01*
X20748753Y-11029222D02*
X20758277Y-11010174D01*
X20758277Y-11010174D02*
X20777325Y-11000650D01*
X20777325Y-11000650D02*
X20815420Y-11000650D01*
X20815420Y-11000650D02*
X20834468Y-11010174D01*
X20834468Y-11010174D02*
X20843992Y-11029222D01*
X20843992Y-11029222D02*
X20843992Y-11048270D01*
X20843992Y-11048270D02*
X20748753Y-11067317D01*
X20920182Y-11124460D02*
X20939230Y-11133984D01*
X20939230Y-11133984D02*
X20977325Y-11133984D01*
X20977325Y-11133984D02*
X20996373Y-11124460D01*
X20996373Y-11124460D02*
X21005896Y-11105412D01*
X21005896Y-11105412D02*
X21005896Y-11095889D01*
X21005896Y-11095889D02*
X20996373Y-11076841D01*
X20996373Y-11076841D02*
X20977325Y-11067317D01*
X20977325Y-11067317D02*
X20948753Y-11067317D01*
X20948753Y-11067317D02*
X20929706Y-11057793D01*
X20929706Y-11057793D02*
X20920182Y-11038746D01*
X20920182Y-11038746D02*
X20920182Y-11029222D01*
X20920182Y-11029222D02*
X20929706Y-11010174D01*
X20929706Y-11010174D02*
X20948753Y-11000650D01*
X20948753Y-11000650D02*
X20977325Y-11000650D01*
X20977325Y-11000650D02*
X20996373Y-11010174D01*
X21072563Y-11210174D02*
X21082087Y-11200650D01*
X21082087Y-11200650D02*
X21101134Y-11172079D01*
X21101134Y-11172079D02*
X21110658Y-11153031D01*
X21110658Y-11153031D02*
X21120182Y-11124460D01*
X21120182Y-11124460D02*
X21129706Y-11076841D01*
X21129706Y-11076841D02*
X21129706Y-11038746D01*
X21129706Y-11038746D02*
X21120182Y-10991127D01*
X21120182Y-10991127D02*
X21110658Y-10962555D01*
X21110658Y-10962555D02*
X21101134Y-10943508D01*
X21101134Y-10943508D02*
X21082087Y-10914936D01*
X21082087Y-10914936D02*
X21072563Y-10905412D01*
D12*
X16297500Y-11306500D02*
G75*
G02*
X16217500Y-11306500I-40000J0D01*
G01*
X16217500Y-11306500D02*
G75*
G02*
X16297500Y-11306500I40000J0D01*
G01*
D11*
X16596372Y-11197984D02*
X16615420Y-11197984D01*
X16615420Y-11197984D02*
X16634467Y-11207508D01*
X16634467Y-11207508D02*
X16643991Y-11217031D01*
X16643991Y-11217031D02*
X16653515Y-11236079D01*
X16653515Y-11236079D02*
X16663039Y-11274174D01*
X16663039Y-11274174D02*
X16663039Y-11321793D01*
X16663039Y-11321793D02*
X16653515Y-11359888D01*
X16653515Y-11359888D02*
X16643991Y-11378936D01*
X16643991Y-11378936D02*
X16634467Y-11388460D01*
X16634467Y-11388460D02*
X16615420Y-11397984D01*
X16615420Y-11397984D02*
X16596372Y-11397984D01*
X16596372Y-11397984D02*
X16577324Y-11388460D01*
X16577324Y-11388460D02*
X16567801Y-11378936D01*
X16567801Y-11378936D02*
X16558277Y-11359888D01*
X16558277Y-11359888D02*
X16548753Y-11321793D01*
X16548753Y-11321793D02*
X16548753Y-11274174D01*
X16548753Y-11274174D02*
X16558277Y-11236079D01*
X16558277Y-11236079D02*
X16567801Y-11217031D01*
X16567801Y-11217031D02*
X16577324Y-11207508D01*
X16577324Y-11207508D02*
X16596372Y-11197984D01*
X16748753Y-11378936D02*
X16758277Y-11388460D01*
X16758277Y-11388460D02*
X16748753Y-11397984D01*
X16748753Y-11397984D02*
X16739229Y-11388460D01*
X16739229Y-11388460D02*
X16748753Y-11378936D01*
X16748753Y-11378936D02*
X16748753Y-11397984D01*
X16872563Y-11283698D02*
X16853515Y-11274174D01*
X16853515Y-11274174D02*
X16843991Y-11264650D01*
X16843991Y-11264650D02*
X16834467Y-11245603D01*
X16834467Y-11245603D02*
X16834467Y-11236079D01*
X16834467Y-11236079D02*
X16843991Y-11217031D01*
X16843991Y-11217031D02*
X16853515Y-11207508D01*
X16853515Y-11207508D02*
X16872563Y-11197984D01*
X16872563Y-11197984D02*
X16910658Y-11197984D01*
X16910658Y-11197984D02*
X16929705Y-11207508D01*
X16929705Y-11207508D02*
X16939229Y-11217031D01*
X16939229Y-11217031D02*
X16948753Y-11236079D01*
X16948753Y-11236079D02*
X16948753Y-11245603D01*
X16948753Y-11245603D02*
X16939229Y-11264650D01*
X16939229Y-11264650D02*
X16929705Y-11274174D01*
X16929705Y-11274174D02*
X16910658Y-11283698D01*
X16910658Y-11283698D02*
X16872563Y-11283698D01*
X16872563Y-11283698D02*
X16853515Y-11293222D01*
X16853515Y-11293222D02*
X16843991Y-11302746D01*
X16843991Y-11302746D02*
X16834467Y-11321793D01*
X16834467Y-11321793D02*
X16834467Y-11359888D01*
X16834467Y-11359888D02*
X16843991Y-11378936D01*
X16843991Y-11378936D02*
X16853515Y-11388460D01*
X16853515Y-11388460D02*
X16872563Y-11397984D01*
X16872563Y-11397984D02*
X16910658Y-11397984D01*
X16910658Y-11397984D02*
X16929705Y-11388460D01*
X16929705Y-11388460D02*
X16939229Y-11378936D01*
X16939229Y-11378936D02*
X16948753Y-11359888D01*
X16948753Y-11359888D02*
X16948753Y-11321793D01*
X16948753Y-11321793D02*
X16939229Y-11302746D01*
X16939229Y-11302746D02*
X16929705Y-11293222D01*
X16929705Y-11293222D02*
X16910658Y-11283698D01*
X17072563Y-11197984D02*
X17091610Y-11197984D01*
X17091610Y-11197984D02*
X17110658Y-11207508D01*
X17110658Y-11207508D02*
X17120182Y-11217031D01*
X17120182Y-11217031D02*
X17129705Y-11236079D01*
X17129705Y-11236079D02*
X17139229Y-11274174D01*
X17139229Y-11274174D02*
X17139229Y-11321793D01*
X17139229Y-11321793D02*
X17129705Y-11359888D01*
X17129705Y-11359888D02*
X17120182Y-11378936D01*
X17120182Y-11378936D02*
X17110658Y-11388460D01*
X17110658Y-11388460D02*
X17091610Y-11397984D01*
X17091610Y-11397984D02*
X17072563Y-11397984D01*
X17072563Y-11397984D02*
X17053515Y-11388460D01*
X17053515Y-11388460D02*
X17043991Y-11378936D01*
X17043991Y-11378936D02*
X17034467Y-11359888D01*
X17034467Y-11359888D02*
X17024944Y-11321793D01*
X17024944Y-11321793D02*
X17024944Y-11274174D01*
X17024944Y-11274174D02*
X17034467Y-11236079D01*
X17034467Y-11236079D02*
X17043991Y-11217031D01*
X17043991Y-11217031D02*
X17053515Y-11207508D01*
X17053515Y-11207508D02*
X17072563Y-11197984D01*
X17263039Y-11197984D02*
X17282086Y-11197984D01*
X17282086Y-11197984D02*
X17301134Y-11207508D01*
X17301134Y-11207508D02*
X17310658Y-11217031D01*
X17310658Y-11217031D02*
X17320182Y-11236079D01*
X17320182Y-11236079D02*
X17329705Y-11274174D01*
X17329705Y-11274174D02*
X17329705Y-11321793D01*
X17329705Y-11321793D02*
X17320182Y-11359888D01*
X17320182Y-11359888D02*
X17310658Y-11378936D01*
X17310658Y-11378936D02*
X17301134Y-11388460D01*
X17301134Y-11388460D02*
X17282086Y-11397984D01*
X17282086Y-11397984D02*
X17263039Y-11397984D01*
X17263039Y-11397984D02*
X17243991Y-11388460D01*
X17243991Y-11388460D02*
X17234467Y-11378936D01*
X17234467Y-11378936D02*
X17224944Y-11359888D01*
X17224944Y-11359888D02*
X17215420Y-11321793D01*
X17215420Y-11321793D02*
X17215420Y-11274174D01*
X17215420Y-11274174D02*
X17224944Y-11236079D01*
X17224944Y-11236079D02*
X17234467Y-11217031D01*
X17234467Y-11217031D02*
X17243991Y-11207508D01*
X17243991Y-11207508D02*
X17263039Y-11197984D01*
X17415420Y-11397984D02*
X17415420Y-11264650D01*
X17415420Y-11283698D02*
X17424944Y-11274174D01*
X17424944Y-11274174D02*
X17443991Y-11264650D01*
X17443991Y-11264650D02*
X17472563Y-11264650D01*
X17472563Y-11264650D02*
X17491610Y-11274174D01*
X17491610Y-11274174D02*
X17501134Y-11293222D01*
X17501134Y-11293222D02*
X17501134Y-11397984D01*
X17501134Y-11293222D02*
X17510658Y-11274174D01*
X17510658Y-11274174D02*
X17529705Y-11264650D01*
X17529705Y-11264650D02*
X17558277Y-11264650D01*
X17558277Y-11264650D02*
X17577325Y-11274174D01*
X17577325Y-11274174D02*
X17586848Y-11293222D01*
X17586848Y-11293222D02*
X17586848Y-11397984D01*
X17682086Y-11397984D02*
X17682086Y-11264650D01*
X17682086Y-11283698D02*
X17691610Y-11274174D01*
X17691610Y-11274174D02*
X17710658Y-11264650D01*
X17710658Y-11264650D02*
X17739229Y-11264650D01*
X17739229Y-11264650D02*
X17758277Y-11274174D01*
X17758277Y-11274174D02*
X17767801Y-11293222D01*
X17767801Y-11293222D02*
X17767801Y-11397984D01*
X17767801Y-11293222D02*
X17777325Y-11274174D01*
X17777325Y-11274174D02*
X17796372Y-11264650D01*
X17796372Y-11264650D02*
X17824944Y-11264650D01*
X17824944Y-11264650D02*
X17843991Y-11274174D01*
X17843991Y-11274174D02*
X17853515Y-11293222D01*
X17853515Y-11293222D02*
X17853515Y-11397984D01*
X18243991Y-11188460D02*
X18072563Y-11445603D01*
X18501134Y-11197984D02*
X18520182Y-11197984D01*
X18520182Y-11197984D02*
X18539229Y-11207508D01*
X18539229Y-11207508D02*
X18548753Y-11217031D01*
X18548753Y-11217031D02*
X18558277Y-11236079D01*
X18558277Y-11236079D02*
X18567801Y-11274174D01*
X18567801Y-11274174D02*
X18567801Y-11321793D01*
X18567801Y-11321793D02*
X18558277Y-11359888D01*
X18558277Y-11359888D02*
X18548753Y-11378936D01*
X18548753Y-11378936D02*
X18539229Y-11388460D01*
X18539229Y-11388460D02*
X18520182Y-11397984D01*
X18520182Y-11397984D02*
X18501134Y-11397984D01*
X18501134Y-11397984D02*
X18482087Y-11388460D01*
X18482087Y-11388460D02*
X18472563Y-11378936D01*
X18472563Y-11378936D02*
X18463039Y-11359888D01*
X18463039Y-11359888D02*
X18453515Y-11321793D01*
X18453515Y-11321793D02*
X18453515Y-11274174D01*
X18453515Y-11274174D02*
X18463039Y-11236079D01*
X18463039Y-11236079D02*
X18472563Y-11217031D01*
X18472563Y-11217031D02*
X18482087Y-11207508D01*
X18482087Y-11207508D02*
X18501134Y-11197984D01*
X18653515Y-11378936D02*
X18663039Y-11388460D01*
X18663039Y-11388460D02*
X18653515Y-11397984D01*
X18653515Y-11397984D02*
X18643991Y-11388460D01*
X18643991Y-11388460D02*
X18653515Y-11378936D01*
X18653515Y-11378936D02*
X18653515Y-11397984D01*
X18786848Y-11197984D02*
X18805896Y-11197984D01*
X18805896Y-11197984D02*
X18824944Y-11207508D01*
X18824944Y-11207508D02*
X18834468Y-11217031D01*
X18834468Y-11217031D02*
X18843991Y-11236079D01*
X18843991Y-11236079D02*
X18853515Y-11274174D01*
X18853515Y-11274174D02*
X18853515Y-11321793D01*
X18853515Y-11321793D02*
X18843991Y-11359888D01*
X18843991Y-11359888D02*
X18834468Y-11378936D01*
X18834468Y-11378936D02*
X18824944Y-11388460D01*
X18824944Y-11388460D02*
X18805896Y-11397984D01*
X18805896Y-11397984D02*
X18786848Y-11397984D01*
X18786848Y-11397984D02*
X18767801Y-11388460D01*
X18767801Y-11388460D02*
X18758277Y-11378936D01*
X18758277Y-11378936D02*
X18748753Y-11359888D01*
X18748753Y-11359888D02*
X18739229Y-11321793D01*
X18739229Y-11321793D02*
X18739229Y-11274174D01*
X18739229Y-11274174D02*
X18748753Y-11236079D01*
X18748753Y-11236079D02*
X18758277Y-11217031D01*
X18758277Y-11217031D02*
X18767801Y-11207508D01*
X18767801Y-11207508D02*
X18786848Y-11197984D01*
X18920182Y-11197984D02*
X19043991Y-11197984D01*
X19043991Y-11197984D02*
X18977325Y-11274174D01*
X18977325Y-11274174D02*
X19005896Y-11274174D01*
X19005896Y-11274174D02*
X19024944Y-11283698D01*
X19024944Y-11283698D02*
X19034468Y-11293222D01*
X19034468Y-11293222D02*
X19043991Y-11312269D01*
X19043991Y-11312269D02*
X19043991Y-11359888D01*
X19043991Y-11359888D02*
X19034468Y-11378936D01*
X19034468Y-11378936D02*
X19024944Y-11388460D01*
X19024944Y-11388460D02*
X19005896Y-11397984D01*
X19005896Y-11397984D02*
X18948753Y-11397984D01*
X18948753Y-11397984D02*
X18929706Y-11388460D01*
X18929706Y-11388460D02*
X18920182Y-11378936D01*
X19234468Y-11397984D02*
X19120182Y-11397984D01*
X19177325Y-11397984D02*
X19177325Y-11197984D01*
X19177325Y-11197984D02*
X19158277Y-11226555D01*
X19158277Y-11226555D02*
X19139229Y-11245603D01*
X19139229Y-11245603D02*
X19120182Y-11255127D01*
X19415420Y-11197984D02*
X19320182Y-11197984D01*
X19320182Y-11197984D02*
X19310658Y-11293222D01*
X19310658Y-11293222D02*
X19320182Y-11283698D01*
X19320182Y-11283698D02*
X19339229Y-11274174D01*
X19339229Y-11274174D02*
X19386849Y-11274174D01*
X19386849Y-11274174D02*
X19405896Y-11283698D01*
X19405896Y-11283698D02*
X19415420Y-11293222D01*
X19415420Y-11293222D02*
X19424944Y-11312269D01*
X19424944Y-11312269D02*
X19424944Y-11359888D01*
X19424944Y-11359888D02*
X19415420Y-11378936D01*
X19415420Y-11378936D02*
X19405896Y-11388460D01*
X19405896Y-11388460D02*
X19386849Y-11397984D01*
X19386849Y-11397984D02*
X19339229Y-11397984D01*
X19339229Y-11397984D02*
X19320182Y-11388460D01*
X19320182Y-11388460D02*
X19310658Y-11378936D01*
X19501134Y-11197984D02*
X19501134Y-11236079D01*
X19577325Y-11197984D02*
X19577325Y-11236079D01*
X19872563Y-11474174D02*
X19863039Y-11464650D01*
X19863039Y-11464650D02*
X19843991Y-11436079D01*
X19843991Y-11436079D02*
X19834468Y-11417031D01*
X19834468Y-11417031D02*
X19824944Y-11388460D01*
X19824944Y-11388460D02*
X19815420Y-11340841D01*
X19815420Y-11340841D02*
X19815420Y-11302746D01*
X19815420Y-11302746D02*
X19824944Y-11255127D01*
X19824944Y-11255127D02*
X19834468Y-11226555D01*
X19834468Y-11226555D02*
X19843991Y-11207508D01*
X19843991Y-11207508D02*
X19863039Y-11178936D01*
X19863039Y-11178936D02*
X19872563Y-11169412D01*
X19939230Y-11217031D02*
X19948753Y-11207508D01*
X19948753Y-11207508D02*
X19967801Y-11197984D01*
X19967801Y-11197984D02*
X20015420Y-11197984D01*
X20015420Y-11197984D02*
X20034468Y-11207508D01*
X20034468Y-11207508D02*
X20043991Y-11217031D01*
X20043991Y-11217031D02*
X20053515Y-11236079D01*
X20053515Y-11236079D02*
X20053515Y-11255127D01*
X20053515Y-11255127D02*
X20043991Y-11283698D01*
X20043991Y-11283698D02*
X19929706Y-11397984D01*
X19929706Y-11397984D02*
X20053515Y-11397984D01*
X20291611Y-11397984D02*
X20291611Y-11197984D01*
X20377325Y-11397984D02*
X20377325Y-11293222D01*
X20377325Y-11293222D02*
X20367801Y-11274174D01*
X20367801Y-11274174D02*
X20348753Y-11264650D01*
X20348753Y-11264650D02*
X20320182Y-11264650D01*
X20320182Y-11264650D02*
X20301134Y-11274174D01*
X20301134Y-11274174D02*
X20291611Y-11283698D01*
X20501134Y-11397984D02*
X20482087Y-11388460D01*
X20482087Y-11388460D02*
X20472563Y-11378936D01*
X20472563Y-11378936D02*
X20463039Y-11359888D01*
X20463039Y-11359888D02*
X20463039Y-11302746D01*
X20463039Y-11302746D02*
X20472563Y-11283698D01*
X20472563Y-11283698D02*
X20482087Y-11274174D01*
X20482087Y-11274174D02*
X20501134Y-11264650D01*
X20501134Y-11264650D02*
X20529706Y-11264650D01*
X20529706Y-11264650D02*
X20548753Y-11274174D01*
X20548753Y-11274174D02*
X20558277Y-11283698D01*
X20558277Y-11283698D02*
X20567801Y-11302746D01*
X20567801Y-11302746D02*
X20567801Y-11359888D01*
X20567801Y-11359888D02*
X20558277Y-11378936D01*
X20558277Y-11378936D02*
X20548753Y-11388460D01*
X20548753Y-11388460D02*
X20529706Y-11397984D01*
X20529706Y-11397984D02*
X20501134Y-11397984D01*
X20682087Y-11397984D02*
X20663039Y-11388460D01*
X20663039Y-11388460D02*
X20653515Y-11369412D01*
X20653515Y-11369412D02*
X20653515Y-11197984D01*
X20834468Y-11388460D02*
X20815420Y-11397984D01*
X20815420Y-11397984D02*
X20777325Y-11397984D01*
X20777325Y-11397984D02*
X20758277Y-11388460D01*
X20758277Y-11388460D02*
X20748753Y-11369412D01*
X20748753Y-11369412D02*
X20748753Y-11293222D01*
X20748753Y-11293222D02*
X20758277Y-11274174D01*
X20758277Y-11274174D02*
X20777325Y-11264650D01*
X20777325Y-11264650D02*
X20815420Y-11264650D01*
X20815420Y-11264650D02*
X20834468Y-11274174D01*
X20834468Y-11274174D02*
X20843992Y-11293222D01*
X20843992Y-11293222D02*
X20843992Y-11312269D01*
X20843992Y-11312269D02*
X20748753Y-11331317D01*
X20920182Y-11388460D02*
X20939230Y-11397984D01*
X20939230Y-11397984D02*
X20977325Y-11397984D01*
X20977325Y-11397984D02*
X20996373Y-11388460D01*
X20996373Y-11388460D02*
X21005896Y-11369412D01*
X21005896Y-11369412D02*
X21005896Y-11359888D01*
X21005896Y-11359888D02*
X20996373Y-11340841D01*
X20996373Y-11340841D02*
X20977325Y-11331317D01*
X20977325Y-11331317D02*
X20948753Y-11331317D01*
X20948753Y-11331317D02*
X20929706Y-11321793D01*
X20929706Y-11321793D02*
X20920182Y-11302746D01*
X20920182Y-11302746D02*
X20920182Y-11293222D01*
X20920182Y-11293222D02*
X20929706Y-11274174D01*
X20929706Y-11274174D02*
X20948753Y-11264650D01*
X20948753Y-11264650D02*
X20977325Y-11264650D01*
X20977325Y-11264650D02*
X20996373Y-11274174D01*
X21072563Y-11474174D02*
X21082087Y-11464650D01*
X21082087Y-11464650D02*
X21101134Y-11436079D01*
X21101134Y-11436079D02*
X21110658Y-11417031D01*
X21110658Y-11417031D02*
X21120182Y-11388460D01*
X21120182Y-11388460D02*
X21129706Y-11340841D01*
X21129706Y-11340841D02*
X21129706Y-11302746D01*
X21129706Y-11302746D02*
X21120182Y-11255127D01*
X21120182Y-11255127D02*
X21110658Y-11226555D01*
X21110658Y-11226555D02*
X21101134Y-11207508D01*
X21101134Y-11207508D02*
X21082087Y-11178936D01*
X21082087Y-11178936D02*
X21072563Y-11169412D01*
D12*
X16247500Y-11520500D02*
X16247500Y-11620500D01*
X16197500Y-11570500D02*
X16297500Y-11570500D01*
D11*
X16663039Y-11661984D02*
X16548753Y-11661984D01*
X16605896Y-11661984D02*
X16605896Y-11461984D01*
X16605896Y-11461984D02*
X16586848Y-11490555D01*
X16586848Y-11490555D02*
X16567801Y-11509603D01*
X16567801Y-11509603D02*
X16548753Y-11519127D01*
X16748753Y-11642936D02*
X16758277Y-11652460D01*
X16758277Y-11652460D02*
X16748753Y-11661984D01*
X16748753Y-11661984D02*
X16739229Y-11652460D01*
X16739229Y-11652460D02*
X16748753Y-11642936D01*
X16748753Y-11642936D02*
X16748753Y-11661984D01*
X16882086Y-11461984D02*
X16901134Y-11461984D01*
X16901134Y-11461984D02*
X16920182Y-11471508D01*
X16920182Y-11471508D02*
X16929705Y-11481031D01*
X16929705Y-11481031D02*
X16939229Y-11500079D01*
X16939229Y-11500079D02*
X16948753Y-11538174D01*
X16948753Y-11538174D02*
X16948753Y-11585793D01*
X16948753Y-11585793D02*
X16939229Y-11623888D01*
X16939229Y-11623888D02*
X16929705Y-11642936D01*
X16929705Y-11642936D02*
X16920182Y-11652460D01*
X16920182Y-11652460D02*
X16901134Y-11661984D01*
X16901134Y-11661984D02*
X16882086Y-11661984D01*
X16882086Y-11661984D02*
X16863039Y-11652460D01*
X16863039Y-11652460D02*
X16853515Y-11642936D01*
X16853515Y-11642936D02*
X16843991Y-11623888D01*
X16843991Y-11623888D02*
X16834467Y-11585793D01*
X16834467Y-11585793D02*
X16834467Y-11538174D01*
X16834467Y-11538174D02*
X16843991Y-11500079D01*
X16843991Y-11500079D02*
X16853515Y-11481031D01*
X16853515Y-11481031D02*
X16863039Y-11471508D01*
X16863039Y-11471508D02*
X16882086Y-11461984D01*
X17072563Y-11461984D02*
X17091610Y-11461984D01*
X17091610Y-11461984D02*
X17110658Y-11471508D01*
X17110658Y-11471508D02*
X17120182Y-11481031D01*
X17120182Y-11481031D02*
X17129705Y-11500079D01*
X17129705Y-11500079D02*
X17139229Y-11538174D01*
X17139229Y-11538174D02*
X17139229Y-11585793D01*
X17139229Y-11585793D02*
X17129705Y-11623888D01*
X17129705Y-11623888D02*
X17120182Y-11642936D01*
X17120182Y-11642936D02*
X17110658Y-11652460D01*
X17110658Y-11652460D02*
X17091610Y-11661984D01*
X17091610Y-11661984D02*
X17072563Y-11661984D01*
X17072563Y-11661984D02*
X17053515Y-11652460D01*
X17053515Y-11652460D02*
X17043991Y-11642936D01*
X17043991Y-11642936D02*
X17034467Y-11623888D01*
X17034467Y-11623888D02*
X17024944Y-11585793D01*
X17024944Y-11585793D02*
X17024944Y-11538174D01*
X17024944Y-11538174D02*
X17034467Y-11500079D01*
X17034467Y-11500079D02*
X17043991Y-11481031D01*
X17043991Y-11481031D02*
X17053515Y-11471508D01*
X17053515Y-11471508D02*
X17072563Y-11461984D01*
X17263039Y-11461984D02*
X17282086Y-11461984D01*
X17282086Y-11461984D02*
X17301134Y-11471508D01*
X17301134Y-11471508D02*
X17310658Y-11481031D01*
X17310658Y-11481031D02*
X17320182Y-11500079D01*
X17320182Y-11500079D02*
X17329705Y-11538174D01*
X17329705Y-11538174D02*
X17329705Y-11585793D01*
X17329705Y-11585793D02*
X17320182Y-11623888D01*
X17320182Y-11623888D02*
X17310658Y-11642936D01*
X17310658Y-11642936D02*
X17301134Y-11652460D01*
X17301134Y-11652460D02*
X17282086Y-11661984D01*
X17282086Y-11661984D02*
X17263039Y-11661984D01*
X17263039Y-11661984D02*
X17243991Y-11652460D01*
X17243991Y-11652460D02*
X17234467Y-11642936D01*
X17234467Y-11642936D02*
X17224944Y-11623888D01*
X17224944Y-11623888D02*
X17215420Y-11585793D01*
X17215420Y-11585793D02*
X17215420Y-11538174D01*
X17215420Y-11538174D02*
X17224944Y-11500079D01*
X17224944Y-11500079D02*
X17234467Y-11481031D01*
X17234467Y-11481031D02*
X17243991Y-11471508D01*
X17243991Y-11471508D02*
X17263039Y-11461984D01*
X17415420Y-11661984D02*
X17415420Y-11528650D01*
X17415420Y-11547698D02*
X17424944Y-11538174D01*
X17424944Y-11538174D02*
X17443991Y-11528650D01*
X17443991Y-11528650D02*
X17472563Y-11528650D01*
X17472563Y-11528650D02*
X17491610Y-11538174D01*
X17491610Y-11538174D02*
X17501134Y-11557222D01*
X17501134Y-11557222D02*
X17501134Y-11661984D01*
X17501134Y-11557222D02*
X17510658Y-11538174D01*
X17510658Y-11538174D02*
X17529705Y-11528650D01*
X17529705Y-11528650D02*
X17558277Y-11528650D01*
X17558277Y-11528650D02*
X17577325Y-11538174D01*
X17577325Y-11538174D02*
X17586848Y-11557222D01*
X17586848Y-11557222D02*
X17586848Y-11661984D01*
X17682086Y-11661984D02*
X17682086Y-11528650D01*
X17682086Y-11547698D02*
X17691610Y-11538174D01*
X17691610Y-11538174D02*
X17710658Y-11528650D01*
X17710658Y-11528650D02*
X17739229Y-11528650D01*
X17739229Y-11528650D02*
X17758277Y-11538174D01*
X17758277Y-11538174D02*
X17767801Y-11557222D01*
X17767801Y-11557222D02*
X17767801Y-11661984D01*
X17767801Y-11557222D02*
X17777325Y-11538174D01*
X17777325Y-11538174D02*
X17796372Y-11528650D01*
X17796372Y-11528650D02*
X17824944Y-11528650D01*
X17824944Y-11528650D02*
X17843991Y-11538174D01*
X17843991Y-11538174D02*
X17853515Y-11557222D01*
X17853515Y-11557222D02*
X17853515Y-11661984D01*
X18243991Y-11452460D02*
X18072563Y-11709603D01*
X18501134Y-11461984D02*
X18520182Y-11461984D01*
X18520182Y-11461984D02*
X18539229Y-11471508D01*
X18539229Y-11471508D02*
X18548753Y-11481031D01*
X18548753Y-11481031D02*
X18558277Y-11500079D01*
X18558277Y-11500079D02*
X18567801Y-11538174D01*
X18567801Y-11538174D02*
X18567801Y-11585793D01*
X18567801Y-11585793D02*
X18558277Y-11623888D01*
X18558277Y-11623888D02*
X18548753Y-11642936D01*
X18548753Y-11642936D02*
X18539229Y-11652460D01*
X18539229Y-11652460D02*
X18520182Y-11661984D01*
X18520182Y-11661984D02*
X18501134Y-11661984D01*
X18501134Y-11661984D02*
X18482087Y-11652460D01*
X18482087Y-11652460D02*
X18472563Y-11642936D01*
X18472563Y-11642936D02*
X18463039Y-11623888D01*
X18463039Y-11623888D02*
X18453515Y-11585793D01*
X18453515Y-11585793D02*
X18453515Y-11538174D01*
X18453515Y-11538174D02*
X18463039Y-11500079D01*
X18463039Y-11500079D02*
X18472563Y-11481031D01*
X18472563Y-11481031D02*
X18482087Y-11471508D01*
X18482087Y-11471508D02*
X18501134Y-11461984D01*
X18653515Y-11642936D02*
X18663039Y-11652460D01*
X18663039Y-11652460D02*
X18653515Y-11661984D01*
X18653515Y-11661984D02*
X18643991Y-11652460D01*
X18643991Y-11652460D02*
X18653515Y-11642936D01*
X18653515Y-11642936D02*
X18653515Y-11661984D01*
X18786848Y-11461984D02*
X18805896Y-11461984D01*
X18805896Y-11461984D02*
X18824944Y-11471508D01*
X18824944Y-11471508D02*
X18834468Y-11481031D01*
X18834468Y-11481031D02*
X18843991Y-11500079D01*
X18843991Y-11500079D02*
X18853515Y-11538174D01*
X18853515Y-11538174D02*
X18853515Y-11585793D01*
X18853515Y-11585793D02*
X18843991Y-11623888D01*
X18843991Y-11623888D02*
X18834468Y-11642936D01*
X18834468Y-11642936D02*
X18824944Y-11652460D01*
X18824944Y-11652460D02*
X18805896Y-11661984D01*
X18805896Y-11661984D02*
X18786848Y-11661984D01*
X18786848Y-11661984D02*
X18767801Y-11652460D01*
X18767801Y-11652460D02*
X18758277Y-11642936D01*
X18758277Y-11642936D02*
X18748753Y-11623888D01*
X18748753Y-11623888D02*
X18739229Y-11585793D01*
X18739229Y-11585793D02*
X18739229Y-11538174D01*
X18739229Y-11538174D02*
X18748753Y-11500079D01*
X18748753Y-11500079D02*
X18758277Y-11481031D01*
X18758277Y-11481031D02*
X18767801Y-11471508D01*
X18767801Y-11471508D02*
X18786848Y-11461984D01*
X18920182Y-11461984D02*
X19043991Y-11461984D01*
X19043991Y-11461984D02*
X18977325Y-11538174D01*
X18977325Y-11538174D02*
X19005896Y-11538174D01*
X19005896Y-11538174D02*
X19024944Y-11547698D01*
X19024944Y-11547698D02*
X19034468Y-11557222D01*
X19034468Y-11557222D02*
X19043991Y-11576269D01*
X19043991Y-11576269D02*
X19043991Y-11623888D01*
X19043991Y-11623888D02*
X19034468Y-11642936D01*
X19034468Y-11642936D02*
X19024944Y-11652460D01*
X19024944Y-11652460D02*
X19005896Y-11661984D01*
X19005896Y-11661984D02*
X18948753Y-11661984D01*
X18948753Y-11661984D02*
X18929706Y-11652460D01*
X18929706Y-11652460D02*
X18920182Y-11642936D01*
X19139229Y-11661984D02*
X19177325Y-11661984D01*
X19177325Y-11661984D02*
X19196372Y-11652460D01*
X19196372Y-11652460D02*
X19205896Y-11642936D01*
X19205896Y-11642936D02*
X19224944Y-11614365D01*
X19224944Y-11614365D02*
X19234468Y-11576269D01*
X19234468Y-11576269D02*
X19234468Y-11500079D01*
X19234468Y-11500079D02*
X19224944Y-11481031D01*
X19224944Y-11481031D02*
X19215420Y-11471508D01*
X19215420Y-11471508D02*
X19196372Y-11461984D01*
X19196372Y-11461984D02*
X19158277Y-11461984D01*
X19158277Y-11461984D02*
X19139229Y-11471508D01*
X19139229Y-11471508D02*
X19129706Y-11481031D01*
X19129706Y-11481031D02*
X19120182Y-11500079D01*
X19120182Y-11500079D02*
X19120182Y-11547698D01*
X19120182Y-11547698D02*
X19129706Y-11566746D01*
X19129706Y-11566746D02*
X19139229Y-11576269D01*
X19139229Y-11576269D02*
X19158277Y-11585793D01*
X19158277Y-11585793D02*
X19196372Y-11585793D01*
X19196372Y-11585793D02*
X19215420Y-11576269D01*
X19215420Y-11576269D02*
X19224944Y-11566746D01*
X19224944Y-11566746D02*
X19234468Y-11547698D01*
X19405896Y-11528650D02*
X19405896Y-11661984D01*
X19358277Y-11452460D02*
X19310658Y-11595317D01*
X19310658Y-11595317D02*
X19434468Y-11595317D01*
X19501134Y-11461984D02*
X19501134Y-11500079D01*
X19577325Y-11461984D02*
X19577325Y-11500079D01*
X19872563Y-11738174D02*
X19863039Y-11728650D01*
X19863039Y-11728650D02*
X19843991Y-11700079D01*
X19843991Y-11700079D02*
X19834468Y-11681031D01*
X19834468Y-11681031D02*
X19824944Y-11652460D01*
X19824944Y-11652460D02*
X19815420Y-11604841D01*
X19815420Y-11604841D02*
X19815420Y-11566746D01*
X19815420Y-11566746D02*
X19824944Y-11519127D01*
X19824944Y-11519127D02*
X19834468Y-11490555D01*
X19834468Y-11490555D02*
X19843991Y-11471508D01*
X19843991Y-11471508D02*
X19863039Y-11442936D01*
X19863039Y-11442936D02*
X19872563Y-11433412D01*
X20053515Y-11661984D02*
X19939230Y-11661984D01*
X19996372Y-11661984D02*
X19996372Y-11461984D01*
X19996372Y-11461984D02*
X19977325Y-11490555D01*
X19977325Y-11490555D02*
X19958277Y-11509603D01*
X19958277Y-11509603D02*
X19939230Y-11519127D01*
X20177325Y-11461984D02*
X20196372Y-11461984D01*
X20196372Y-11461984D02*
X20215420Y-11471508D01*
X20215420Y-11471508D02*
X20224944Y-11481031D01*
X20224944Y-11481031D02*
X20234468Y-11500079D01*
X20234468Y-11500079D02*
X20243991Y-11538174D01*
X20243991Y-11538174D02*
X20243991Y-11585793D01*
X20243991Y-11585793D02*
X20234468Y-11623888D01*
X20234468Y-11623888D02*
X20224944Y-11642936D01*
X20224944Y-11642936D02*
X20215420Y-11652460D01*
X20215420Y-11652460D02*
X20196372Y-11661984D01*
X20196372Y-11661984D02*
X20177325Y-11661984D01*
X20177325Y-11661984D02*
X20158277Y-11652460D01*
X20158277Y-11652460D02*
X20148753Y-11642936D01*
X20148753Y-11642936D02*
X20139230Y-11623888D01*
X20139230Y-11623888D02*
X20129706Y-11585793D01*
X20129706Y-11585793D02*
X20129706Y-11538174D01*
X20129706Y-11538174D02*
X20139230Y-11500079D01*
X20139230Y-11500079D02*
X20148753Y-11481031D01*
X20148753Y-11481031D02*
X20158277Y-11471508D01*
X20158277Y-11471508D02*
X20177325Y-11461984D01*
X20482087Y-11661984D02*
X20482087Y-11461984D01*
X20567801Y-11661984D02*
X20567801Y-11557222D01*
X20567801Y-11557222D02*
X20558277Y-11538174D01*
X20558277Y-11538174D02*
X20539230Y-11528650D01*
X20539230Y-11528650D02*
X20510658Y-11528650D01*
X20510658Y-11528650D02*
X20491611Y-11538174D01*
X20491611Y-11538174D02*
X20482087Y-11547698D01*
X20691611Y-11661984D02*
X20672563Y-11652460D01*
X20672563Y-11652460D02*
X20663039Y-11642936D01*
X20663039Y-11642936D02*
X20653515Y-11623888D01*
X20653515Y-11623888D02*
X20653515Y-11566746D01*
X20653515Y-11566746D02*
X20663039Y-11547698D01*
X20663039Y-11547698D02*
X20672563Y-11538174D01*
X20672563Y-11538174D02*
X20691611Y-11528650D01*
X20691611Y-11528650D02*
X20720182Y-11528650D01*
X20720182Y-11528650D02*
X20739230Y-11538174D01*
X20739230Y-11538174D02*
X20748753Y-11547698D01*
X20748753Y-11547698D02*
X20758277Y-11566746D01*
X20758277Y-11566746D02*
X20758277Y-11623888D01*
X20758277Y-11623888D02*
X20748753Y-11642936D01*
X20748753Y-11642936D02*
X20739230Y-11652460D01*
X20739230Y-11652460D02*
X20720182Y-11661984D01*
X20720182Y-11661984D02*
X20691611Y-11661984D01*
X20872563Y-11661984D02*
X20853515Y-11652460D01*
X20853515Y-11652460D02*
X20843992Y-11633412D01*
X20843992Y-11633412D02*
X20843992Y-11461984D01*
X21024944Y-11652460D02*
X21005896Y-11661984D01*
X21005896Y-11661984D02*
X20967801Y-11661984D01*
X20967801Y-11661984D02*
X20948753Y-11652460D01*
X20948753Y-11652460D02*
X20939230Y-11633412D01*
X20939230Y-11633412D02*
X20939230Y-11557222D01*
X20939230Y-11557222D02*
X20948753Y-11538174D01*
X20948753Y-11538174D02*
X20967801Y-11528650D01*
X20967801Y-11528650D02*
X21005896Y-11528650D01*
X21005896Y-11528650D02*
X21024944Y-11538174D01*
X21024944Y-11538174D02*
X21034468Y-11557222D01*
X21034468Y-11557222D02*
X21034468Y-11576269D01*
X21034468Y-11576269D02*
X20939230Y-11595317D01*
X21110658Y-11652460D02*
X21129706Y-11661984D01*
X21129706Y-11661984D02*
X21167801Y-11661984D01*
X21167801Y-11661984D02*
X21186849Y-11652460D01*
X21186849Y-11652460D02*
X21196373Y-11633412D01*
X21196373Y-11633412D02*
X21196373Y-11623888D01*
X21196373Y-11623888D02*
X21186849Y-11604841D01*
X21186849Y-11604841D02*
X21167801Y-11595317D01*
X21167801Y-11595317D02*
X21139230Y-11595317D01*
X21139230Y-11595317D02*
X21120182Y-11585793D01*
X21120182Y-11585793D02*
X21110658Y-11566746D01*
X21110658Y-11566746D02*
X21110658Y-11557222D01*
X21110658Y-11557222D02*
X21120182Y-11538174D01*
X21120182Y-11538174D02*
X21139230Y-11528650D01*
X21139230Y-11528650D02*
X21167801Y-11528650D01*
X21167801Y-11528650D02*
X21186849Y-11538174D01*
X21263039Y-11738174D02*
X21272563Y-11728650D01*
X21272563Y-11728650D02*
X21291611Y-11700079D01*
X21291611Y-11700079D02*
X21301134Y-11681031D01*
X21301134Y-11681031D02*
X21310658Y-11652460D01*
X21310658Y-11652460D02*
X21320182Y-11604841D01*
X21320182Y-11604841D02*
X21320182Y-11566746D01*
X21320182Y-11566746D02*
X21310658Y-11519127D01*
X21310658Y-11519127D02*
X21301134Y-11490555D01*
X21301134Y-11490555D02*
X21291611Y-11471508D01*
X21291611Y-11471508D02*
X21272563Y-11442936D01*
X21272563Y-11442936D02*
X21263039Y-11433412D01*
M02*
