%TF.GenerationSoftware,KiCad,Pcbnew,9.0.2*%
%TF.CreationDate,2025-09-29T10:12:53+02:00*%
%TF.ProjectId,plantpal,706c616e-7470-4616-9c2e-6b696361645f,1*%
%TF.SameCoordinates,Original*%
%TF.FileFunction,Soldermask,Top*%
%TF.FilePolarity,Negative*%
%FSLAX46Y46*%
G04 Gerber Fmt 4.6, Leading zero omitted, Abs format (unit mm)*
G04 Created by KiCad (PCBNEW 9.0.2) date 2025-09-29 10:12:53*
%MOMM*%
%LPD*%
G01*
G04 APERTURE LIST*
G04 Aperture macros list*
%AMRoundRect*
0 Rectangle with rounded corners*
0 $1 Rounding radius*
0 $2 $3 $4 $5 $6 $7 $8 $9 X,Y pos of 4 corners*
0 Add a 4 corners polygon primitive as box body*
4,1,4,$2,$3,$4,$5,$6,$7,$8,$9,$2,$3,0*
0 Add four circle primitives for the rounded corners*
1,1,$1+$1,$2,$3*
1,1,$1+$1,$4,$5*
1,1,$1+$1,$6,$7*
1,1,$1+$1,$8,$9*
0 Add four rect primitives between the rounded corners*
20,1,$1+$1,$2,$3,$4,$5,0*
20,1,$1+$1,$4,$5,$6,$7,0*
20,1,$1+$1,$6,$7,$8,$9,0*
20,1,$1+$1,$8,$9,$2,$3,0*%
G04 Aperture macros list end*
%ADD10C,0.000000*%
%ADD11C,0.000100*%
%ADD12C,1.000000*%
%ADD13RoundRect,0.140000X-0.140000X-0.170000X0.140000X-0.170000X0.140000X0.170000X-0.140000X0.170000X0*%
%ADD14RoundRect,0.225000X-0.225000X-0.250000X0.225000X-0.250000X0.225000X0.250000X-0.225000X0.250000X0*%
%ADD15RoundRect,0.140000X0.170000X-0.140000X0.170000X0.140000X-0.170000X0.140000X-0.170000X-0.140000X0*%
%ADD16RoundRect,0.140000X0.140000X0.170000X-0.140000X0.170000X-0.140000X-0.170000X0.140000X-0.170000X0*%
%ADD17RoundRect,0.225000X-0.250000X0.225000X-0.250000X-0.225000X0.250000X-0.225000X0.250000X0.225000X0*%
%ADD18RoundRect,0.062500X-0.337500X-0.062500X0.337500X-0.062500X0.337500X0.062500X-0.337500X0.062500X0*%
%ADD19RoundRect,0.062500X-0.062500X-0.337500X0.062500X-0.337500X0.062500X0.337500X-0.062500X0.337500X0*%
%ADD20R,3.350000X3.350000*%
%ADD21RoundRect,0.062500X-0.062500X0.337500X-0.062500X-0.337500X0.062500X-0.337500X0.062500X0.337500X0*%
%ADD22RoundRect,0.062500X-0.337500X0.062500X-0.337500X-0.062500X0.337500X-0.062500X0.337500X0.062500X0*%
%ADD23R,3.600000X3.600000*%
%ADD24RoundRect,0.225000X0.250000X-0.225000X0.250000X0.225000X-0.250000X0.225000X-0.250000X-0.225000X0*%
%ADD25RoundRect,0.140000X-0.170000X0.140000X-0.170000X-0.140000X0.170000X-0.140000X0.170000X0.140000X0*%
%ADD26RoundRect,0.135000X-0.135000X-0.185000X0.135000X-0.185000X0.135000X0.185000X-0.135000X0.185000X0*%
%ADD27C,0.650000*%
%ADD28R,1.150000X0.300000*%
%ADD29O,2.100000X1.000000*%
%ADD30O,1.600000X1.000000*%
%ADD31RoundRect,0.022160X-0.454840X-0.254840X0.454840X-0.254840X0.454840X0.254840X-0.454840X0.254840X0*%
%ADD32RoundRect,0.135000X0.185000X-0.135000X0.185000X0.135000X-0.185000X0.135000X-0.185000X-0.135000X0*%
%ADD33R,1.100000X3.700000*%
%ADD34RoundRect,0.135000X0.135000X0.185000X-0.135000X0.185000X-0.135000X-0.185000X0.135000X-0.185000X0*%
%ADD35RoundRect,0.135000X-0.185000X0.135000X-0.185000X-0.135000X0.185000X-0.135000X0.185000X0.135000X0*%
%ADD36R,0.700000X0.450000*%
%ADD37R,7.400000X3.000000*%
%ADD38R,1.800000X1.000000*%
%ADD39RoundRect,0.150000X-0.587500X-0.150000X0.587500X-0.150000X0.587500X0.150000X-0.587500X0.150000X0*%
%ADD40RoundRect,0.150000X0.150000X-0.587500X0.150000X0.587500X-0.150000X0.587500X-0.150000X-0.587500X0*%
%ADD41RoundRect,0.250000X-0.400000X-0.600000X0.400000X-0.600000X0.400000X0.600000X-0.400000X0.600000X0*%
%ADD42RoundRect,0.225000X0.225000X0.250000X-0.225000X0.250000X-0.225000X-0.250000X0.225000X-0.250000X0*%
%ADD43RoundRect,0.225000X-0.375000X0.225000X-0.375000X-0.225000X0.375000X-0.225000X0.375000X0.225000X0*%
%ADD44RoundRect,0.150000X-0.150000X0.587500X-0.150000X-0.587500X0.150000X-0.587500X0.150000X0.587500X0*%
%ADD45RoundRect,0.147500X-0.172500X0.147500X-0.172500X-0.147500X0.172500X-0.147500X0.172500X0.147500X0*%
%ADD46R,0.900000X0.800000*%
%ADD47RoundRect,0.225000X0.375000X-0.225000X0.375000X0.225000X-0.375000X0.225000X-0.375000X-0.225000X0*%
%ADD48R,1.700000X0.900000*%
%ADD49R,0.450000X0.700000*%
%ADD50RoundRect,0.225000X0.225000X0.375000X-0.225000X0.375000X-0.225000X-0.375000X0.225000X-0.375000X0*%
%ADD51R,0.300000X0.800000*%
%ADD52R,0.400000X0.800000*%
%ADD53RoundRect,0.150000X-0.150000X0.512500X-0.150000X-0.512500X0.150000X-0.512500X0.150000X0.512500X0*%
%ADD54RoundRect,0.150000X0.587500X0.150000X-0.587500X0.150000X-0.587500X-0.150000X0.587500X-0.150000X0*%
%ADD55RoundRect,0.243750X-0.243750X-0.456250X0.243750X-0.456250X0.243750X0.456250X-0.243750X0.456250X0*%
%ADD56RoundRect,0.218750X0.256250X-0.218750X0.256250X0.218750X-0.256250X0.218750X-0.256250X-0.218750X0*%
%ADD57RoundRect,0.150000X-0.512500X-0.150000X0.512500X-0.150000X0.512500X0.150000X-0.512500X0.150000X0*%
%ADD58RoundRect,0.218750X-0.256250X0.218750X-0.256250X-0.218750X0.256250X-0.218750X0.256250X0.218750X0*%
G04 APERTURE END LIST*
D10*
%TO.C,AE1*%
G36*
X111249800Y-34668200D02*
G01*
X110699800Y-34668200D01*
X110699800Y-34068200D01*
X111249800Y-34068200D01*
X111249800Y-34668200D01*
G37*
G36*
X112199800Y-34668200D02*
G01*
X111649800Y-34668200D01*
X111649800Y-34068200D01*
X112199800Y-34068200D01*
X112199800Y-34668200D01*
G37*
G36*
X113449800Y-35268200D02*
G01*
X112649800Y-35268200D01*
X112649800Y-33468200D01*
X113449800Y-33468200D01*
X113449800Y-35268200D01*
G37*
G36*
X116024800Y-34093200D02*
G01*
X115349800Y-34093200D01*
X115349800Y-33468200D01*
X116024800Y-33468200D01*
X116024800Y-34093200D01*
G37*
G36*
X116024800Y-35268200D02*
G01*
X115349800Y-35268200D01*
X115349800Y-34643200D01*
X116024800Y-34643200D01*
X116024800Y-35268200D01*
G37*
D11*
%TO.C,L3*%
X105405000Y-50040000D02*
X104855000Y-50590000D01*
X104855000Y-51690000D01*
X105405000Y-52240000D01*
X105405000Y-53190000D01*
X104355000Y-53190000D01*
X103755000Y-52590000D01*
X103755000Y-49690000D01*
X104355000Y-49090000D01*
X105405000Y-49090000D01*
X105405000Y-50040000D01*
G36*
X105405000Y-50040000D02*
G01*
X104855000Y-50590000D01*
X104855000Y-51690000D01*
X105405000Y-52240000D01*
X105405000Y-53190000D01*
X104355000Y-53190000D01*
X103755000Y-52590000D01*
X103755000Y-49690000D01*
X104355000Y-49090000D01*
X105405000Y-49090000D01*
X105405000Y-50040000D01*
G37*
X108355000Y-49690000D02*
X108355000Y-52590000D01*
X107755000Y-53190000D01*
X107705000Y-53190000D01*
X106705000Y-53190000D01*
X106705000Y-52240000D01*
X107255000Y-51690000D01*
X107255000Y-50590000D01*
X106705000Y-50040000D01*
X106705000Y-49090000D01*
X107755000Y-49090000D01*
X108355000Y-49690000D01*
G36*
X108355000Y-49690000D02*
G01*
X108355000Y-52590000D01*
X107755000Y-53190000D01*
X107705000Y-53190000D01*
X106705000Y-53190000D01*
X106705000Y-52240000D01*
X107255000Y-51690000D01*
X107255000Y-50590000D01*
X106705000Y-50040000D01*
X106705000Y-49090000D01*
X107755000Y-49090000D01*
X108355000Y-49690000D01*
G37*
%TD*%
D12*
%TO.C,TP10*%
X121005600Y-60121800D03*
%TD*%
D13*
%TO.C,C8*%
X122898000Y-39837000D03*
X123858000Y-39837000D03*
%TD*%
D14*
%TO.C,C25*%
X114390000Y-56080000D03*
X115940000Y-56080000D03*
%TD*%
D12*
%TO.C,J2*%
X93240000Y-61110000D03*
%TD*%
D15*
%TO.C,C4*%
X123878000Y-41732000D03*
X123878000Y-40772000D03*
%TD*%
D16*
%TO.C,C1*%
X116463000Y-38754000D03*
X115503000Y-38754000D03*
%TD*%
D17*
%TO.C,C21*%
X109276800Y-51636200D03*
X109276800Y-53186200D03*
%TD*%
D18*
%TO.C,U4*%
X104260000Y-55510000D03*
X104260000Y-56010000D03*
X104260000Y-56510000D03*
X104260000Y-57010000D03*
X104260000Y-57510000D03*
X104260000Y-58010000D03*
X104260000Y-58510000D03*
D19*
X105210000Y-59460000D03*
X105710000Y-59460000D03*
X106210000Y-59460000D03*
X106710000Y-59460000D03*
X107210000Y-59460000D03*
X107710000Y-59460000D03*
X108210000Y-59460000D03*
D18*
X109160000Y-58510000D03*
X109160000Y-58010000D03*
X109160000Y-57510000D03*
X109160000Y-57010000D03*
X109160000Y-56510000D03*
X109160000Y-56010000D03*
X109160000Y-55510000D03*
D19*
X108210000Y-54560000D03*
X107710000Y-54560000D03*
X107210000Y-54560000D03*
X106710000Y-54560000D03*
X106210000Y-54560000D03*
X105710000Y-54560000D03*
X105210000Y-54560000D03*
D20*
X106710000Y-57010000D03*
%TD*%
D21*
%TO.C,U1*%
X120405000Y-42124000D03*
X119905000Y-42124000D03*
X119405000Y-42124000D03*
X118905000Y-42124000D03*
X118405000Y-42124000D03*
X117905000Y-42124000D03*
X117405000Y-42124000D03*
X116905000Y-42124000D03*
D22*
X116205000Y-42824000D03*
X116205000Y-43324000D03*
X116205000Y-43824000D03*
X116205000Y-44324000D03*
X116205000Y-44824000D03*
X116205000Y-45324000D03*
X116205000Y-45824000D03*
X116205000Y-46324000D03*
D21*
X116905000Y-47024000D03*
X117405000Y-47024000D03*
X117905000Y-47024000D03*
X118405000Y-47024000D03*
X118905000Y-47024000D03*
X119405000Y-47024000D03*
X119905000Y-47024000D03*
X120405000Y-47024000D03*
D22*
X121105000Y-46324000D03*
X121105000Y-45824000D03*
X121105000Y-45324000D03*
X121105000Y-44824000D03*
X121105000Y-44324000D03*
X121105000Y-43824000D03*
X121105000Y-43324000D03*
X121105000Y-42824000D03*
D23*
X118655000Y-44574000D03*
%TD*%
D24*
%TO.C,C20*%
X98730000Y-52640000D03*
X98730000Y-51090000D03*
%TD*%
D15*
%TO.C,C27*%
X102640000Y-35407600D03*
X102640000Y-34447600D03*
%TD*%
D25*
%TO.C,C10*%
X118220000Y-49560000D03*
X118220000Y-50520000D03*
%TD*%
D26*
%TO.C,R8*%
X127080000Y-42845000D03*
X128100000Y-42845000D03*
%TD*%
D16*
%TO.C,C7*%
X119255000Y-40091000D03*
X118295000Y-40091000D03*
%TD*%
D12*
%TO.C,TP6*%
X93325000Y-52552000D03*
%TD*%
D27*
%TO.C,J1*%
X97297000Y-40771000D03*
X97297000Y-46551000D03*
D28*
X98362000Y-40311000D03*
X98362000Y-41111000D03*
X98362000Y-42411000D03*
X98362000Y-43411000D03*
X98362000Y-43911000D03*
X98362000Y-44911000D03*
X98362000Y-46211000D03*
X98362000Y-47011000D03*
X98362000Y-46711000D03*
X98362000Y-45911000D03*
X98362000Y-45411000D03*
X98362000Y-44411000D03*
X98362000Y-42911000D03*
X98362000Y-41911000D03*
X98362000Y-41411000D03*
X98362000Y-40611000D03*
D29*
X97797000Y-39341000D03*
D30*
X93617000Y-39341000D03*
D29*
X97797000Y-47981000D03*
D30*
X93617000Y-47981000D03*
%TD*%
D31*
%TO.C,U2*%
X101540000Y-43130000D03*
X101540000Y-43630000D03*
X101540000Y-44130000D03*
X102920000Y-44130000D03*
X102920000Y-43630000D03*
X102920000Y-43130000D03*
%TD*%
D32*
%TO.C,R28*%
X116660000Y-53540000D03*
X116660000Y-52520000D03*
%TD*%
D33*
%TO.C,L5*%
X100570000Y-62375000D03*
X103570000Y-62375000D03*
%TD*%
D34*
%TO.C,R13*%
X99060000Y-49880000D03*
X98040000Y-49880000D03*
%TD*%
D35*
%TO.C,R25*%
X107915000Y-62105000D03*
X107915000Y-63125000D03*
%TD*%
D34*
%TO.C,R5*%
X111500000Y-50080000D03*
X110480000Y-50080000D03*
%TD*%
D36*
%TO.C,Q5*%
X94570000Y-58340000D03*
X94570000Y-59640000D03*
X96570000Y-58990000D03*
%TD*%
D25*
%TO.C,C17*%
X99910000Y-46120000D03*
X99910000Y-47080000D03*
%TD*%
D35*
%TO.C,R4*%
X112230000Y-39924800D03*
X112230000Y-40944800D03*
%TD*%
D16*
%TO.C,C28*%
X102308600Y-36525200D03*
X101348600Y-36525200D03*
%TD*%
D37*
%TO.C,SC4*%
X97190000Y-77460000D03*
X97190000Y-99460000D03*
%TD*%
D38*
%TO.C,Y1*%
X113920000Y-40345000D03*
X113920000Y-37845000D03*
%TD*%
D16*
%TO.C,C14*%
X123855000Y-37015000D03*
X122895000Y-37015000D03*
%TD*%
%TO.C,C38*%
X111350000Y-64420000D03*
X110390000Y-64420000D03*
%TD*%
D39*
%TO.C,Q3*%
X125405000Y-48925000D03*
X125405000Y-50825000D03*
X127280000Y-49875000D03*
%TD*%
D40*
%TO.C,Q6*%
X95340000Y-52867500D03*
X97240000Y-52867500D03*
X96290000Y-50992500D03*
%TD*%
D14*
%TO.C,C26*%
X114390000Y-57540000D03*
X115940000Y-57540000D03*
%TD*%
D41*
%TO.C,D3*%
X123870000Y-52720000D03*
X127370000Y-52720000D03*
%TD*%
D25*
%TO.C,C36*%
X105575000Y-64335000D03*
X105575000Y-65295000D03*
%TD*%
D13*
%TO.C,C12*%
X110964800Y-34362200D03*
X111924800Y-34362200D03*
%TD*%
D42*
%TO.C,C5*%
X117327000Y-37562000D03*
X115777000Y-37562000D03*
%TD*%
D43*
%TO.C,D4*%
X115630000Y-58990000D03*
X115630000Y-62290000D03*
%TD*%
D26*
%TO.C,R26*%
X103310000Y-65160000D03*
X104330000Y-65160000D03*
%TD*%
D44*
%TO.C,Q8*%
X115370000Y-52150000D03*
X113470000Y-52150000D03*
X114420000Y-54025000D03*
%TD*%
D45*
%TO.C,L2*%
X120665000Y-38206000D03*
X120665000Y-39176000D03*
%TD*%
D35*
%TO.C,R17*%
X103962200Y-35509200D03*
X103962200Y-36529200D03*
%TD*%
D32*
%TO.C,R12*%
X104000000Y-48100000D03*
X104000000Y-47080000D03*
%TD*%
D34*
%TO.C,R23*%
X95420000Y-57170000D03*
X94400000Y-57170000D03*
%TD*%
D46*
%TO.C,Y2*%
X124135000Y-42950000D03*
X122735000Y-42950000D03*
X122735000Y-44050000D03*
X124135000Y-44050000D03*
%TD*%
D16*
%TO.C,C30*%
X123890000Y-50120000D03*
X122930000Y-50120000D03*
%TD*%
D42*
%TO.C,C19*%
X102880000Y-53150000D03*
X101330000Y-53150000D03*
%TD*%
D47*
%TO.C,D5*%
X117980000Y-62285000D03*
X117980000Y-58985000D03*
%TD*%
D32*
%TO.C,R20*%
X95370000Y-56260000D03*
X95370000Y-55240000D03*
%TD*%
D12*
%TO.C,J3*%
X93240000Y-63620000D03*
%TD*%
D16*
%TO.C,C3*%
X124406000Y-45262000D03*
X123446000Y-45262000D03*
%TD*%
D48*
%TO.C,SW1*%
X126500000Y-44020000D03*
X126500000Y-47420000D03*
%TD*%
D17*
%TO.C,C24*%
X117440000Y-55955000D03*
X117440000Y-57505000D03*
%TD*%
D16*
%TO.C,C13*%
X126230000Y-42845000D03*
X125270000Y-42845000D03*
%TD*%
D25*
%TO.C,C34*%
X113171000Y-64385400D03*
X113171000Y-65345400D03*
%TD*%
D49*
%TO.C,Q7*%
X105490000Y-62840000D03*
X106790000Y-62840000D03*
X106140000Y-60840000D03*
%TD*%
D37*
%TO.C,SC1*%
X122400000Y-77480000D03*
X122400000Y-99480000D03*
%TD*%
D50*
%TO.C,D6*%
X113730000Y-61840000D03*
X110430000Y-61840000D03*
%TD*%
D32*
%TO.C,R1*%
X122930000Y-41760000D03*
X122930000Y-40740000D03*
%TD*%
D25*
%TO.C,C31*%
X112246000Y-64385400D03*
X112246000Y-65345400D03*
%TD*%
D15*
%TO.C,C11*%
X117403000Y-40119000D03*
X117403000Y-39159000D03*
%TD*%
D12*
%TO.C,TP5*%
X122140000Y-66740000D03*
%TD*%
D32*
%TO.C,R18*%
X123430000Y-47165000D03*
X123430000Y-46145000D03*
%TD*%
D35*
%TO.C,R22*%
X100190200Y-55820000D03*
X100190200Y-56840000D03*
%TD*%
D45*
%TO.C,L1*%
X119215000Y-38211000D03*
X119215000Y-39181000D03*
%TD*%
D14*
%TO.C,C41*%
X100620000Y-65355000D03*
X102170000Y-65355000D03*
%TD*%
D12*
%TO.C,TP7*%
X111210000Y-42980000D03*
%TD*%
D34*
%TO.C,R24*%
X123900000Y-51050000D03*
X122880000Y-51050000D03*
%TD*%
D25*
%TO.C,C33*%
X114671000Y-64365400D03*
X114671000Y-65325400D03*
%TD*%
D35*
%TO.C,R7*%
X109040000Y-49430000D03*
X109040000Y-50450000D03*
%TD*%
D25*
%TO.C,C29*%
X94440000Y-55290000D03*
X94440000Y-56250000D03*
%TD*%
D26*
%TO.C,R21*%
X94410000Y-54340000D03*
X95430000Y-54340000D03*
%TD*%
D51*
%TO.C,J4*%
X103930000Y-67115000D03*
X104430000Y-67115000D03*
X104930000Y-67115000D03*
X105430000Y-67115000D03*
X105930000Y-67115000D03*
X106430000Y-67115000D03*
X106930000Y-67115000D03*
X107430000Y-67115000D03*
X107930000Y-67115000D03*
X108430000Y-67115000D03*
X108930000Y-67115000D03*
X109430000Y-67115000D03*
X109930000Y-67115000D03*
X110430000Y-67115000D03*
X110930000Y-67115000D03*
X111430000Y-67115000D03*
X111930000Y-67115000D03*
X112430000Y-67115000D03*
X112930000Y-67115000D03*
X113430000Y-67115000D03*
X113930000Y-67115000D03*
X114430000Y-67115000D03*
X114930000Y-67115000D03*
X115430000Y-67115000D03*
D52*
X116430000Y-69615000D03*
X102930000Y-69615000D03*
%TD*%
D32*
%TO.C,R19*%
X124380000Y-47165000D03*
X124380000Y-46145000D03*
%TD*%
D12*
%TO.C,TP9*%
X124660000Y-66250000D03*
%TD*%
D32*
%TO.C,R6*%
X106800000Y-48460000D03*
X106800000Y-47440000D03*
%TD*%
D53*
%TO.C,U6*%
X112920000Y-55980000D03*
X111970000Y-55980000D03*
X111020000Y-55980000D03*
X111020000Y-58255000D03*
X112920000Y-58255000D03*
%TD*%
D34*
%TO.C,R29*%
X112240000Y-48990000D03*
X111220000Y-48990000D03*
%TD*%
D24*
%TO.C,C23*%
X101393600Y-57635200D03*
X101393600Y-56085200D03*
%TD*%
D12*
%TO.C,TP8*%
X101230000Y-38910000D03*
%TD*%
%TO.C,TP3*%
X99310000Y-68180000D03*
%TD*%
D13*
%TO.C,C39*%
X112805000Y-63465000D03*
X113765000Y-63465000D03*
%TD*%
D25*
%TO.C,C2*%
X115543000Y-39688000D03*
X115543000Y-40648000D03*
%TD*%
D16*
%TO.C,C6*%
X119423000Y-37290000D03*
X118463000Y-37290000D03*
%TD*%
D54*
%TO.C,Q4*%
X98720000Y-56870000D03*
X98720000Y-54970000D03*
X96845000Y-55920000D03*
%TD*%
D16*
%TO.C,C15*%
X121595000Y-37291000D03*
X120635000Y-37291000D03*
%TD*%
D55*
%TO.C,F1*%
X102572500Y-45690000D03*
X104447500Y-45690000D03*
%TD*%
D26*
%TO.C,R11*%
X99880000Y-45220000D03*
X100900000Y-45220000D03*
%TD*%
D56*
%TO.C,L4*%
X102866800Y-57647700D03*
X102866800Y-56072700D03*
%TD*%
D12*
%TO.C,TP4*%
X96460000Y-69080000D03*
%TD*%
D48*
%TO.C,SW2*%
X126500000Y-38270000D03*
X126500000Y-41670000D03*
%TD*%
D25*
%TO.C,C32*%
X116096000Y-64370400D03*
X116096000Y-65330400D03*
%TD*%
D13*
%TO.C,C9*%
X122898000Y-38915000D03*
X123858000Y-38915000D03*
%TD*%
D32*
%TO.C,R2*%
X116473000Y-40657000D03*
X116473000Y-39637000D03*
%TD*%
D25*
%TO.C,C37*%
X106525000Y-64325000D03*
X106525000Y-65285000D03*
%TD*%
D12*
%TO.C,TP1*%
X119810000Y-51750000D03*
%TD*%
D57*
%TO.C,U3*%
X100412500Y-49770000D03*
X100412500Y-50720000D03*
X100412500Y-51670000D03*
X102687500Y-51670000D03*
X102687500Y-49770000D03*
%TD*%
D37*
%TO.C,SC2*%
X113990000Y-77480000D03*
X113990000Y-99480000D03*
%TD*%
D12*
%TO.C,TP2*%
X119860000Y-49780000D03*
%TD*%
D13*
%TO.C,C16*%
X120625000Y-40081000D03*
X121585000Y-40081000D03*
%TD*%
D36*
%TO.C,Q1*%
X110030000Y-48240000D03*
X110030000Y-46940000D03*
X108030000Y-47590000D03*
%TD*%
D26*
%TO.C,R14*%
X110480000Y-54540000D03*
X111500000Y-54540000D03*
%TD*%
D37*
%TO.C,SC3*%
X105590000Y-77470000D03*
X105590000Y-99470000D03*
%TD*%
D42*
%TO.C,C22*%
X102879800Y-54625000D03*
X101329800Y-54625000D03*
%TD*%
D56*
%TO.C,D1*%
X91420000Y-51250000D03*
X91420000Y-49675000D03*
%TD*%
D58*
%TO.C,FB1*%
X101100000Y-46390000D03*
X101100000Y-47965000D03*
%TD*%
D36*
%TO.C,Q9*%
X113420000Y-49160000D03*
X113420000Y-50460000D03*
X115420000Y-49810000D03*
%TD*%
D42*
%TO.C,C40*%
X113730000Y-59940000D03*
X112180000Y-59940000D03*
%TD*%
D15*
%TO.C,C18*%
X102290000Y-48030000D03*
X102290000Y-47070000D03*
%TD*%
D26*
%TO.C,R10*%
X99876000Y-42056000D03*
X100896000Y-42056000D03*
%TD*%
%TO.C,R3*%
X108964000Y-41808400D03*
X109984000Y-41808400D03*
%TD*%
D35*
%TO.C,R16*%
X101549200Y-34407600D03*
X101549200Y-35427600D03*
%TD*%
D26*
%TO.C,R9*%
X122880000Y-37965000D03*
X123900000Y-37965000D03*
%TD*%
D49*
%TO.C,Q2*%
X110710000Y-53310000D03*
X112010000Y-53310000D03*
X111360000Y-51310000D03*
%TD*%
D13*
%TO.C,C35*%
X114641000Y-63470400D03*
X115601000Y-63470400D03*
%TD*%
M02*
