%TF.GenerationSoftware,KiCad,Pcbnew,9.0.2*%
%TF.CreationDate,2025-09-29T10:12:53+02:00*%
%TF.ProjectId,plantpal,706c616e-7470-4616-9c2e-6b696361645f,1*%
%TF.SameCoordinates,Original*%
%TF.FileFunction,Copper,L4,Bot*%
%TF.FilePolarity,Positive*%
%FSLAX46Y46*%
G04 Gerber Fmt 4.6, Leading zero omitted, Abs format (unit mm)*
G04 Created by KiCad (PCBNEW 9.0.2) date 2025-09-29 10:12:53*
%MOMM*%
%LPD*%
G01*
G04 APERTURE LIST*
G04 Aperture macros list*
%AMRoundRect*
0 Rectangle with rounded corners*
0 $1 Rounding radius*
0 $2 $3 $4 $5 $6 $7 $8 $9 X,Y pos of 4 corners*
0 Add a 4 corners polygon primitive as box body*
4,1,4,$2,$3,$4,$5,$6,$7,$8,$9,$2,$3,0*
0 Add four circle primitives for the rounded corners*
1,1,$1+$1,$2,$3*
1,1,$1+$1,$4,$5*
1,1,$1+$1,$6,$7*
1,1,$1+$1,$8,$9*
0 Add four rect primitives between the rounded corners*
20,1,$1+$1,$2,$3,$4,$5,0*
20,1,$1+$1,$4,$5,$6,$7,0*
20,1,$1+$1,$6,$7,$8,$9,0*
20,1,$1+$1,$8,$9,$2,$3,0*%
G04 Aperture macros list end*
%TA.AperFunction,ComponentPad*%
%ADD10C,1.000000*%
%TD*%
%TA.AperFunction,ComponentPad*%
%ADD11O,2.100000X1.000000*%
%TD*%
%TA.AperFunction,ComponentPad*%
%ADD12O,1.600000X1.000000*%
%TD*%
%TA.AperFunction,SMDPad,CuDef*%
%ADD13C,1.000000*%
%TD*%
%TA.AperFunction,SMDPad,CuDef*%
%ADD14RoundRect,0.250000X0.350000X0.450000X-0.350000X0.450000X-0.350000X-0.450000X0.350000X-0.450000X0*%
%TD*%
%TA.AperFunction,SMDPad,CuDef*%
%ADD15RoundRect,0.030000X-0.220000X-0.220000X0.220000X-0.220000X0.220000X0.220000X-0.220000X0.220000X0*%
%TD*%
%TA.AperFunction,SMDPad,CuDef*%
%ADD16RoundRect,0.250000X-0.250000X-1.500000X0.250000X-1.500000X0.250000X1.500000X-0.250000X1.500000X0*%
%TD*%
%TA.AperFunction,SMDPad,CuDef*%
%ADD17RoundRect,0.250001X-0.499999X-1.449999X0.499999X-1.449999X0.499999X1.449999X-0.499999X1.449999X0*%
%TD*%
%TA.AperFunction,SMDPad,CuDef*%
%ADD18RoundRect,0.175000X0.725000X0.175000X-0.725000X0.175000X-0.725000X-0.175000X0.725000X-0.175000X0*%
%TD*%
%TA.AperFunction,SMDPad,CuDef*%
%ADD19RoundRect,0.175000X0.175000X-0.725000X0.175000X0.725000X-0.175000X0.725000X-0.175000X-0.725000X0*%
%TD*%
%TA.AperFunction,ViaPad*%
%ADD20C,0.600000*%
%TD*%
%TA.AperFunction,Conductor*%
%ADD21C,0.150000*%
%TD*%
%TA.AperFunction,Conductor*%
%ADD22C,0.200000*%
%TD*%
%TA.AperFunction,Conductor*%
%ADD23C,0.600000*%
%TD*%
%TA.AperFunction,Conductor*%
%ADD24C,0.250000*%
%TD*%
%TA.AperFunction,Conductor*%
%ADD25C,0.300000*%
%TD*%
%TA.AperFunction,Conductor*%
%ADD26C,0.400000*%
%TD*%
%TA.AperFunction,Conductor*%
%ADD27C,0.500000*%
%TD*%
%TA.AperFunction,Conductor*%
%ADD28C,10.000000*%
%TD*%
%TA.AperFunction,Conductor*%
%ADD29C,1.000000*%
%TD*%
G04 APERTURE END LIST*
D10*
%TO.P,J2,1,Pin_1*%
%TO.N,Net-(BT1-+)*%
X93240000Y-61110000D03*
%TD*%
D11*
%TO.P,J1,S1,SHIELD*%
%TO.N,unconnected-(J1-SHIELD-PadS1)*%
X97797000Y-39341000D03*
D12*
%TO.N,N/C*%
X93617000Y-39341000D03*
D11*
X97797000Y-47981000D03*
D12*
X93617000Y-47981000D03*
%TD*%
D10*
%TO.P,J3,1,Pin_1*%
%TO.N,GND*%
X93240000Y-63620000D03*
%TD*%
D13*
%TO.P,TP15,1,1*%
%TO.N,N/C*%
X119370000Y-98920000D03*
%TD*%
D14*
%TO.P,REF\u002A\u002A,1*%
%TO.N,N/C*%
X123080000Y-73260000D03*
%TO.P,REF\u002A\u002A,2*%
X121080000Y-73260000D03*
%TD*%
D13*
%TO.P,TP16,1,1*%
%TO.N,N/C*%
X121600000Y-98920000D03*
%TD*%
D15*
%TO.P,U7,1,GND*%
%TO.N,GND*%
X106140000Y-36380000D03*
%TO.P,U7,2,CSB*%
%TO.N,Net-(U7-CSB)*%
X106140000Y-35580000D03*
%TO.P,U7,3,SDI*%
%TO.N,/SDA*%
X106140000Y-34780000D03*
%TO.P,U7,4,SCK*%
%TO.N,/SCL*%
X106140000Y-33980000D03*
%TO.P,U7,5,SDO*%
%TO.N,Net-(U7-SDO)*%
X103740000Y-33960000D03*
%TO.P,U7,6,VDDIO*%
%TO.N,+3V3*%
X103740000Y-34780000D03*
%TO.P,U7,7,GND*%
%TO.N,GND*%
X103740000Y-35580000D03*
%TO.P,U7,8,VDD*%
%TO.N,+3V3*%
X103740000Y-36380000D03*
%TD*%
D13*
%TO.P,TP14,1,1*%
%TO.N,N/C*%
X116970000Y-98810000D03*
%TD*%
%TO.P,TP13,1,1*%
%TO.N,N/C*%
X114770000Y-98840000D03*
%TD*%
%TO.P,TP12,1,1*%
%TO.N,N/C*%
X112640000Y-98850000D03*
%TD*%
D16*
%TO.P,BT1,1,+*%
%TO.N,Net-(BT1-+)*%
X97840000Y-96890000D03*
%TO.P,BT1,2,-*%
%TO.N,GND*%
X99840000Y-96890000D03*
D17*
%TO.P,BT1,MP*%
%TO.N,N/C*%
X95490000Y-91140000D03*
X102190000Y-91140000D03*
%TD*%
D18*
%TO.P,U5,1*%
%TO.N,N/C*%
X111850000Y-94170000D03*
%TO.P,U5,2*%
X111850000Y-93170000D03*
%TO.P,U5,3*%
X111850000Y-92170000D03*
%TO.P,U5,4*%
X111850000Y-91170000D03*
%TO.P,U5,5*%
X111850000Y-90170000D03*
%TO.P,U5,6*%
X111850000Y-89170000D03*
%TO.P,U5,7*%
X111850000Y-88170000D03*
%TO.P,U5,8*%
X111850000Y-87170000D03*
%TO.P,U5,9*%
X111850000Y-86170000D03*
%TO.P,U5,10*%
X111850000Y-85170000D03*
%TO.P,U5,11*%
X111850000Y-84170000D03*
%TO.P,U5,12*%
X111850000Y-83170000D03*
D19*
%TO.P,U5,13*%
X119750000Y-81020000D03*
%TO.P,U5,14*%
X120750000Y-81020000D03*
%TO.P,U5,15*%
X121750000Y-81020000D03*
%TO.P,U5,16*%
X122750000Y-81020000D03*
D18*
%TO.P,U5,17*%
X126650000Y-83170000D03*
%TO.P,U5,18*%
X126650000Y-84170000D03*
%TO.P,U5,19*%
X126650000Y-85170000D03*
%TO.P,U5,20*%
X126650000Y-90170000D03*
%TO.P,U5,21*%
X126650000Y-91170000D03*
%TO.P,U5,22*%
X126650000Y-92170000D03*
%TO.P,U5,23*%
X126650000Y-93170000D03*
%TO.P,U5,24*%
X126650000Y-94170000D03*
D19*
%TO.P,U5,25*%
X122750000Y-95820000D03*
%TO.P,U5,26*%
X121750000Y-95820000D03*
%TO.P,U5,27*%
X120750000Y-95820000D03*
%TO.P,U5,28*%
X119750000Y-95820000D03*
%TO.P,U5,29*%
X118750000Y-95820000D03*
%TO.P,U5,30*%
X117750000Y-95820000D03*
%TO.P,U5,31*%
X116750000Y-95820000D03*
%TO.P,U5,32*%
X115750000Y-95820000D03*
%TD*%
D20*
%TO.N,GND*%
X118605400Y-43129200D03*
X102770000Y-38120000D03*
X100120000Y-43630000D03*
X128000000Y-62140000D03*
X91770000Y-58150000D03*
X120091200Y-43129200D03*
X105333800Y-47879000D03*
X127230000Y-34770000D03*
X113896800Y-36484200D03*
X128030000Y-67670000D03*
X95681800Y-73329800D03*
X126010000Y-35150000D03*
X102820000Y-39760000D03*
X118468800Y-36484200D03*
X128040000Y-55460000D03*
X128000000Y-56860000D03*
X125940000Y-60270000D03*
X117195600Y-44958000D03*
X101854000Y-62687200D03*
X94680000Y-62860000D03*
X99830000Y-48170000D03*
X95199200Y-70561200D03*
X100900000Y-41270000D03*
X101710000Y-50860000D03*
X93726000Y-35407600D03*
X127590000Y-36130000D03*
X97990000Y-64450000D03*
X99136200Y-35839400D03*
X121158000Y-35534600D03*
X110094800Y-33324200D03*
X127200000Y-45920000D03*
X119230800Y-33330200D03*
X102330000Y-63830000D03*
X124700000Y-36030000D03*
X126270000Y-72150000D03*
X98090000Y-65780000D03*
X125960000Y-55450000D03*
X99880000Y-33470000D03*
X125380000Y-53180000D03*
X92300000Y-46400000D03*
X100180000Y-34790000D03*
X99620000Y-39100000D03*
X114452400Y-51562000D03*
X93400000Y-36860000D03*
X123220000Y-42530000D03*
X124050000Y-67500000D03*
X101640000Y-44930000D03*
X122980000Y-68760000D03*
X116944800Y-36484200D03*
X110750000Y-69330000D03*
X93650000Y-74080000D03*
X125890000Y-64820000D03*
X100950000Y-72770000D03*
X127920000Y-60150000D03*
X121570000Y-70020000D03*
X96800000Y-59790000D03*
X100960000Y-70080000D03*
X126100000Y-36160000D03*
X119970000Y-39620000D03*
X108762800Y-36474400D03*
X111277400Y-47523400D03*
X125850000Y-56930000D03*
X119230800Y-34044200D03*
X109143800Y-33578800D03*
X125850000Y-33790000D03*
X96164400Y-34950400D03*
X122072400Y-38760400D03*
X121894600Y-64719200D03*
X114452400Y-48031400D03*
X110094800Y-34086200D03*
X121440000Y-39300000D03*
X127910000Y-74260000D03*
X112680000Y-62130000D03*
X94869000Y-64236600D03*
X97409000Y-36220400D03*
X92460000Y-34420000D03*
X103340000Y-68460000D03*
X127970000Y-72010000D03*
X111610800Y-36484200D03*
X94840000Y-41260000D03*
X110094800Y-34848200D03*
X91230000Y-60850000D03*
X119938800Y-38709600D03*
X120675400Y-34798000D03*
X94540000Y-45900000D03*
X122869500Y-49510000D03*
X108910000Y-62000000D03*
X117221000Y-44145200D03*
X113134800Y-36484200D03*
X108310000Y-69440000D03*
X121630000Y-38080000D03*
X118605400Y-44145200D03*
X124760000Y-34830000D03*
X125810000Y-58370000D03*
X99593400Y-37566600D03*
X119227600Y-56997600D03*
X94640400Y-34036000D03*
X120726200Y-65735200D03*
X105410000Y-55720000D03*
X106060000Y-49720000D03*
X102750000Y-73820000D03*
X117221000Y-43129200D03*
X92380000Y-44180000D03*
X120065800Y-44958000D03*
X125850000Y-54420000D03*
X110693200Y-39497000D03*
X116240000Y-67720000D03*
X127610000Y-48800000D03*
X125160000Y-43690000D03*
X106720000Y-56960000D03*
X103220000Y-41250000D03*
X121742200Y-34518600D03*
X100340000Y-58030000D03*
X118580000Y-44958000D03*
X111023400Y-37388800D03*
X110970000Y-74140000D03*
X122301000Y-35839400D03*
X91973400Y-37795200D03*
X123560000Y-33780000D03*
X127890000Y-69790000D03*
X105440000Y-74030000D03*
X128030000Y-63800000D03*
X113290000Y-69380000D03*
X116182800Y-36484200D03*
X125870000Y-62140000D03*
X97330000Y-50840000D03*
X104820000Y-69220000D03*
X120065800Y-45999400D03*
X106800000Y-44490000D03*
X106410000Y-68740000D03*
X105500000Y-58200000D03*
X96220000Y-33560000D03*
X122810000Y-34780000D03*
X108204000Y-34467800D03*
X119964200Y-34340800D03*
X96000000Y-60950000D03*
X127381000Y-40513000D03*
X128050000Y-65750000D03*
X124680000Y-33590000D03*
X118580000Y-45999400D03*
X113538000Y-39370000D03*
X117734800Y-36484200D03*
X106908600Y-39446200D03*
X91670000Y-36280000D03*
X113309400Y-54406800D03*
X91280000Y-71300000D03*
X110094800Y-35610200D03*
X110848800Y-36484200D03*
X121285000Y-36474400D03*
X110032800Y-59029600D03*
X117282158Y-66142706D03*
X115140000Y-74090000D03*
X117195600Y-45999400D03*
X92390000Y-41510000D03*
X118400000Y-61090000D03*
X100930000Y-67630000D03*
X91360000Y-67940000D03*
X114658800Y-36484200D03*
X120310000Y-67230000D03*
X94692000Y-43661000D03*
X107510000Y-64120000D03*
X119659400Y-35737800D03*
X120520000Y-69930000D03*
X122330000Y-33600000D03*
X124780000Y-68320000D03*
X108250000Y-74030000D03*
X115420800Y-36484200D03*
X106629200Y-46253400D03*
X123723400Y-64897000D03*
X127980000Y-58320000D03*
X119253000Y-36499800D03*
X105880000Y-51700000D03*
X97866200Y-34645600D03*
X120091200Y-44145200D03*
X106140000Y-61840000D03*
X107940000Y-58210000D03*
X107543600Y-40970200D03*
X112372800Y-36484200D03*
X113120000Y-74140000D03*
X95377000Y-36271200D03*
X107950000Y-55730000D03*
X119151400Y-58267600D03*
X91760000Y-74140000D03*
X96494600Y-37515800D03*
X111805000Y-66140000D03*
X114420000Y-49810000D03*
X123610000Y-35650000D03*
X110060000Y-36470000D03*
X127254000Y-39319200D03*
X115300000Y-69410000D03*
X98540000Y-33750000D03*
X97490000Y-55100000D03*
X106010000Y-50710000D03*
X91380000Y-64760000D03*
X120040400Y-36499800D03*
X109143800Y-35204400D03*
X120802400Y-33782000D03*
%TO.N,+3V3*%
X103124000Y-36499800D03*
X118220000Y-54254400D03*
X122245978Y-41231710D03*
X128117600Y-41960800D03*
X119640000Y-73260000D03*
X124510000Y-73260000D03*
X118220000Y-48760000D03*
X104851200Y-34086800D03*
X122890000Y-69940000D03*
X117976000Y-38211000D03*
X114473852Y-58778352D03*
X125030000Y-94200000D03*
X107696000Y-48463200D03*
X121833035Y-44324000D03*
X117937835Y-40803660D03*
X111785400Y-39547800D03*
%TO.N,/Main Controller/BOOT_MODE1*%
X114804500Y-45720955D03*
X125130000Y-45730000D03*
%TO.N,/Main Controller/CHIP_EN*%
X124663200Y-54178200D03*
X118835500Y-41075153D03*
X126415800Y-37211000D03*
%TO.N,VBUS*%
X104210000Y-43590000D03*
X102098759Y-48754114D03*
X105170000Y-46760000D03*
X102860000Y-50710000D03*
X105840000Y-45200000D03*
%TO.N,+BATT*%
X113284000Y-57175400D03*
X99940000Y-52820000D03*
X109763177Y-58010176D03*
%TO.N,/+3V3D*%
X117440000Y-54702000D03*
X101860000Y-60730000D03*
X111556800Y-62153800D03*
%TO.N,/Main Controller/BATT_MEAS*%
X96100000Y-53730000D03*
X115820000Y-42025500D03*
%TO.N,/Main Controller/SENSE_OUT*%
X115316000Y-43169500D03*
X122901133Y-48649540D03*
%TO.N,/Sensor/CAP_TRACK*%
X126970000Y-54270000D03*
%TO.N,/SCL*%
X107061000Y-34163000D03*
%TO.N,/SDA*%
X107111800Y-35331400D03*
%TO.N,/Display/BUSY*%
X119421228Y-53851292D03*
X107420000Y-65880000D03*
%TO.N,/Display/RST*%
X108430000Y-68360000D03*
X120170497Y-53870000D03*
%TO.N,/Display/DC*%
X108650000Y-65880000D03*
X120920000Y-53870000D03*
%TO.N,/Display/CS*%
X121669503Y-53870000D03*
X109440000Y-68360000D03*
%TO.N,/Display/SCLK*%
X109940000Y-65920000D03*
X122419006Y-53870000D03*
%TO.N,/Display/SDI*%
X123168509Y-53969026D03*
X110430000Y-68340000D03*
%TO.N,/Main Controller/PWR_STATUS*%
X109990000Y-49150000D03*
X110093725Y-55936381D03*
%TO.N,/Main Controller/BOOT_MODE0*%
X107823000Y-46736000D03*
X113650936Y-45204915D03*
%TO.N,/Main Controller/BATT_MEAS_EN*%
X96040000Y-57040000D03*
X114615110Y-42600000D03*
%TO.N,/Main Controller/MPP_STATUS*%
X110570000Y-52390000D03*
X110210600Y-56743600D03*
%TO.N,/Main Controller/MPP_STS_READ*%
X114681000Y-43662600D03*
X112471200Y-52324000D03*
%TO.N,Net-(U7-SDO)*%
X101650800Y-33731200D03*
%TO.N,Net-(U7-CSB)*%
X105283000Y-35509200D03*
%TO.N,/Solar Power/SOLAR+*%
X99250000Y-64200000D03*
X99260000Y-65020000D03*
X99260000Y-65810000D03*
X106470000Y-53890000D03*
%TO.N,/Main Controller/DL_TXD0*%
X113960000Y-94200000D03*
X119810000Y-51750000D03*
%TO.N,/Main Controller/DL_RXD0*%
X119860000Y-49780000D03*
X113890000Y-93200000D03*
%TO.N,/Main Controller/DISPLAY_EN*%
X116230400Y-48691800D03*
X122869500Y-47752000D03*
%TD*%
D21*
%TO.N,*%
X120620000Y-97740000D02*
X121560000Y-98680000D01*
X112950000Y-89200000D02*
X115180000Y-91430000D01*
X119290000Y-98380000D02*
X119290000Y-98720000D01*
X112000000Y-91200000D02*
X113750000Y-91200000D01*
X114790000Y-91910000D02*
X114790000Y-98710000D01*
X115900000Y-95850000D02*
X115900000Y-97060000D01*
X116900000Y-96750000D02*
X117540000Y-97390000D01*
X115180000Y-91430000D02*
X115180000Y-97320000D01*
X116900000Y-95850000D02*
X116900000Y-96750000D01*
X117540000Y-97390000D02*
X119840000Y-97390000D01*
X118900000Y-95850000D02*
X118900000Y-96750000D01*
X115770000Y-97910000D02*
X116240000Y-97910000D01*
X120190000Y-97740000D02*
X120620000Y-97740000D01*
X117900000Y-95850000D02*
X117900000Y-96750000D01*
X118540000Y-97630000D02*
X119290000Y-98380000D01*
X115900000Y-97060000D02*
X116470000Y-97630000D01*
X116470000Y-97630000D02*
X118540000Y-97630000D01*
X113180000Y-90200000D02*
X114840000Y-91860000D01*
X114580000Y-96700000D02*
X112560000Y-98720000D01*
X113750000Y-91200000D02*
X114580000Y-92030000D01*
X119840000Y-97390000D02*
X120190000Y-97740000D01*
X114840000Y-91860000D02*
X114790000Y-91910000D01*
X115180000Y-97320000D02*
X115770000Y-97910000D01*
X116240000Y-97910000D02*
X117020000Y-98690000D01*
X112000000Y-89200000D02*
X112950000Y-89200000D01*
X112000000Y-90200000D02*
X113180000Y-90200000D01*
X114580000Y-92030000D02*
X114580000Y-96700000D01*
D22*
%TO.N,GND*%
X101640000Y-43910000D02*
X101360000Y-43630000D01*
X101640000Y-44930000D02*
X101640000Y-43910000D01*
X101360000Y-43630000D02*
X100120000Y-43630000D01*
D23*
%TO.N,+3V3*%
X111709200Y-39471600D02*
X111785400Y-39547800D01*
X111572800Y-38658800D02*
X111125000Y-38211000D01*
D24*
X118547551Y-41644653D02*
X117937835Y-41034937D01*
D25*
X104564400Y-34780000D02*
X103740000Y-34780000D01*
D26*
X119640000Y-73260000D02*
X121080000Y-73260000D01*
D24*
X121833035Y-41644653D02*
X118547551Y-41644653D01*
D25*
X104851200Y-34086800D02*
X104851200Y-34493200D01*
X104851200Y-34493200D02*
X104564400Y-34780000D01*
D26*
X125030000Y-94200000D02*
X126800000Y-94200000D01*
D25*
X103620200Y-36499800D02*
X103740000Y-36380000D01*
X104564400Y-35655219D02*
X104564400Y-34780000D01*
D23*
X104650850Y-37290050D02*
X105571800Y-38211000D01*
D27*
X117937835Y-40803660D02*
X117937835Y-38249165D01*
D23*
X111572800Y-38658800D02*
X111794800Y-38658800D01*
D24*
X121833035Y-41960800D02*
X121833035Y-41644653D01*
D23*
X111709200Y-38211000D02*
X111709200Y-38658800D01*
D25*
X103740000Y-36380000D02*
X103839619Y-36380000D01*
D23*
X104625450Y-37290050D02*
X104650850Y-37290050D01*
D25*
X103124000Y-36499800D02*
X103620200Y-36499800D01*
X103839619Y-36380000D02*
X104056909Y-36162709D01*
D24*
X117937835Y-41034937D02*
X117937835Y-40803660D01*
D26*
X124510000Y-73260000D02*
X123080000Y-73260000D01*
D23*
X112242600Y-38211000D02*
X111709200Y-38211000D01*
X111709200Y-38658800D02*
X111709200Y-39471600D01*
X117976000Y-38211000D02*
X116916200Y-38211000D01*
X111709200Y-38658800D02*
X111572800Y-38658800D01*
D24*
X121833035Y-44324000D02*
X121833035Y-41960800D01*
D25*
X104056909Y-36162709D02*
X104564400Y-35655219D01*
D24*
X121539000Y-41666765D02*
X121833035Y-41960800D01*
D23*
X111794800Y-38658800D02*
X112242600Y-38211000D01*
X104625450Y-37290050D02*
X103806950Y-36471550D01*
X116916200Y-38211000D02*
X112242600Y-38211000D01*
D24*
X121833035Y-41644653D02*
X122245978Y-41231710D01*
D23*
X111709200Y-38211000D02*
X111125000Y-38211000D01*
X111125000Y-38211000D02*
X105571800Y-38211000D01*
D24*
%TO.N,/Main Controller/CHIP_EN*%
X126420000Y-42087800D02*
X126420000Y-42595800D01*
X126420000Y-42595800D02*
X126420000Y-46046000D01*
X118857000Y-41148000D02*
X121361200Y-41148000D01*
X126420000Y-40538400D02*
X126420000Y-40767000D01*
X126420000Y-37215200D02*
X126420000Y-40309800D01*
X126420000Y-40309800D02*
X126365000Y-40309800D01*
X126420000Y-40309800D02*
X126420000Y-40538400D01*
X126365000Y-40309800D02*
X126161800Y-40513000D01*
X126394600Y-40513000D02*
X126420000Y-40538400D01*
X124663200Y-47802800D02*
X124663200Y-54178200D01*
X121361200Y-41148000D02*
X121996200Y-40513000D01*
X126161800Y-40513000D02*
X126166000Y-40513000D01*
X121996200Y-40513000D02*
X126161800Y-40513000D01*
X126161800Y-40513000D02*
X126394600Y-40513000D01*
X126166000Y-40513000D02*
X126420000Y-40767000D01*
X126415800Y-37211000D02*
X126420000Y-37215200D01*
X126420000Y-40767000D02*
X126420000Y-42087800D01*
X126420000Y-46046000D02*
X124663200Y-47802800D01*
D25*
%TO.N,VBUS*%
X102850000Y-46660000D02*
X102850000Y-47000000D01*
X105070000Y-46660000D02*
X105170000Y-46760000D01*
X102850000Y-50700000D02*
X102860000Y-50710000D01*
D24*
X102570000Y-48754114D02*
X102755886Y-48754114D01*
X102570000Y-48754114D02*
X102570000Y-48790000D01*
D25*
X103130000Y-46660000D02*
X103130000Y-46720000D01*
X102850000Y-50400000D02*
X102850000Y-50700000D01*
X102850000Y-49070000D02*
X102850000Y-49830000D01*
X102850000Y-46030000D02*
X102510000Y-45690000D01*
X102834114Y-48490000D02*
X102570000Y-48754114D01*
D24*
X102098759Y-48754114D02*
X102570000Y-48754114D01*
D22*
X105840000Y-45200000D02*
X105840000Y-43940000D01*
D25*
X103130000Y-46660000D02*
X105070000Y-46660000D01*
X102850000Y-48660000D02*
X102850000Y-49070000D01*
D22*
X105490000Y-43590000D02*
X105840000Y-43940000D01*
D25*
X102850000Y-49830000D02*
X102850000Y-50400000D01*
X102850000Y-46240000D02*
X102850000Y-46660000D01*
X102850000Y-47000000D02*
X102850000Y-48490000D01*
X102850000Y-46380000D02*
X102850000Y-46240000D01*
X102850000Y-46660000D02*
X103130000Y-46660000D01*
X103130000Y-46720000D02*
X102850000Y-47000000D01*
X102850000Y-48490000D02*
X102850000Y-48660000D01*
X102850000Y-46030000D02*
X102850000Y-46240000D01*
X102850000Y-48490000D02*
X102834114Y-48490000D01*
X103130000Y-46660000D02*
X102850000Y-46380000D01*
D22*
X104210000Y-43590000D02*
X105490000Y-43590000D01*
D24*
X102755886Y-48754114D02*
X102850000Y-48660000D01*
D25*
X102510000Y-45690000D02*
X102420000Y-45690000D01*
D24*
X102570000Y-48790000D02*
X102850000Y-49070000D01*
D25*
X101590000Y-45690000D02*
X102420000Y-45690000D01*
D23*
%TO.N,+BATT*%
X99940000Y-52820000D02*
X108440000Y-52820000D01*
X109210000Y-53570000D02*
X109210000Y-57456999D01*
X108460000Y-52820000D02*
X108440000Y-52820000D01*
X112449224Y-58010176D02*
X113284000Y-57175400D01*
X109210000Y-53570000D02*
X108460000Y-52820000D01*
X111449824Y-58010176D02*
X112449224Y-58010176D01*
X109763177Y-58010176D02*
X111449824Y-58010176D01*
X109210000Y-57456999D02*
X109763177Y-58010176D01*
D27*
%TO.N,/+3V3D*%
X111150400Y-59944000D02*
X111556800Y-60350400D01*
D25*
X112039400Y-60121800D02*
X111556800Y-60604400D01*
D27*
X112039400Y-59944000D02*
X111150400Y-59944000D01*
X102646000Y-59944000D02*
X101860000Y-60730000D01*
X116687600Y-59944000D02*
X112039400Y-59944000D01*
X111150400Y-59944000D02*
X102646000Y-59944000D01*
X111556800Y-60604400D02*
X111556800Y-62153800D01*
X111556800Y-60350400D02*
X111556800Y-60604400D01*
X117440000Y-59191600D02*
X116687600Y-59944000D01*
X117440000Y-54702000D02*
X117440000Y-59191600D01*
D24*
%TO.N,/Main Controller/BATT_MEAS*%
X95640000Y-53270000D02*
X96100000Y-53730000D01*
X95640000Y-42841386D02*
X95640000Y-53270000D01*
X96546386Y-41935000D02*
X95640000Y-42841386D01*
X115820000Y-42025500D02*
X115729500Y-41935000D01*
X115729500Y-41935000D02*
X96546386Y-41935000D01*
%TO.N,/Main Controller/SENSE_OUT*%
X115374500Y-43228000D02*
X115374500Y-49029700D01*
X122836593Y-48585000D02*
X119303800Y-48585000D01*
X115684800Y-49340000D02*
X115374500Y-49029700D01*
X122901133Y-48649540D02*
X122836593Y-48585000D01*
X119303800Y-48585000D02*
X118548800Y-49340000D01*
X118548800Y-49340000D02*
X115684800Y-49340000D01*
X115316000Y-43169500D02*
X115374500Y-43228000D01*
D22*
%TO.N,/Sensor/CAP_TRACK*%
X109650000Y-109960000D02*
X109680000Y-109990000D01*
X123702793Y-71870000D02*
X111599949Y-71870000D01*
X109650000Y-73819949D02*
X109650000Y-109960000D01*
X126627207Y-68952793D02*
X126620000Y-68952793D01*
X126970000Y-54270000D02*
X126970000Y-68610000D01*
X126620000Y-68952793D02*
X123702793Y-71870000D01*
X111104975Y-72075025D02*
X109855026Y-73324974D01*
X126970000Y-68610000D02*
X126627207Y-68952793D01*
D28*
X109680000Y-109990000D02*
X109680000Y-149990000D01*
D22*
X111599949Y-71870000D02*
G75*
G03*
X111105000Y-72075050I51J-700000D01*
G01*
X109855026Y-73324974D02*
G75*
G03*
X109649964Y-73819949I494974J-495026D01*
G01*
D29*
%TO.N,Net-(BT1-+)*%
X96393000Y-66802000D02*
X96393000Y-63236568D01*
X94266432Y-61110000D02*
X93240000Y-61110000D01*
X96393000Y-63236568D02*
X94266432Y-61110000D01*
X97840000Y-68249000D02*
X96393000Y-66802000D01*
X97840000Y-96890000D02*
X97840000Y-68249000D01*
D27*
%TO.N,/SCL*%
X106965868Y-34067868D02*
X107061000Y-34163000D01*
X106140000Y-33980000D02*
X106753736Y-33980000D01*
X106965868Y-34067868D02*
G75*
G03*
X106753736Y-33979975I-212168J-212132D01*
G01*
%TO.N,/SDA*%
X106140000Y-34780000D02*
X106436136Y-34780000D01*
X106648268Y-34867868D02*
X107111800Y-35331400D01*
X106436136Y-34780000D02*
G75*
G02*
X106648250Y-34867886I-36J-300000D01*
G01*
D25*
%TO.N,/Display/BUSY*%
X110210812Y-62790000D02*
X119090000Y-62790000D01*
X107420000Y-65880000D02*
X107420000Y-65580812D01*
X119421228Y-53969260D02*
X119421228Y-53851292D01*
X119090000Y-62790000D02*
X120030631Y-61849369D01*
X107420000Y-65580812D02*
X110210812Y-62790000D01*
X120030631Y-54578663D02*
X119421228Y-53969260D01*
X120030631Y-61849369D02*
X120030631Y-54578663D01*
%TO.N,/Display/RST*%
X108430000Y-68360000D02*
X108430000Y-66880000D01*
X119276396Y-63240000D02*
X120480631Y-62035765D01*
X120170497Y-53969026D02*
X120170497Y-53870000D01*
X108430000Y-66880000D02*
X108050000Y-66500000D01*
X120480631Y-62035765D02*
X120480631Y-54279160D01*
X120480631Y-54279160D02*
X120170497Y-53969026D01*
X110397208Y-63240000D02*
X119276396Y-63240000D01*
X108050000Y-65587208D02*
X110397208Y-63240000D01*
X108050000Y-66500000D02*
X108050000Y-65587208D01*
%TO.N,/Display/DC*%
X120930631Y-53880631D02*
X120920000Y-53870000D01*
X120930631Y-62222161D02*
X120930631Y-53880631D01*
X110583604Y-63690000D02*
X119462792Y-63690000D01*
X108650000Y-65880000D02*
X108650000Y-65623604D01*
X108650000Y-65623604D02*
X110583604Y-63690000D01*
X119462792Y-63690000D02*
X120930631Y-62222161D01*
%TO.N,/Display/CS*%
X121669503Y-53969026D02*
X121669503Y-53870000D01*
X109340000Y-65570000D02*
X110770000Y-64140000D01*
X109440000Y-68360000D02*
X109340000Y-68260000D01*
X121410000Y-54228529D02*
X121669503Y-53969026D01*
X121410000Y-62379188D02*
X121410000Y-54228529D01*
X109340000Y-68260000D02*
X109340000Y-65570000D01*
X110770000Y-64140000D02*
X119649188Y-64140000D01*
X119649188Y-64140000D02*
X121410000Y-62379188D01*
%TO.N,/Display/SCLK*%
X109940000Y-65793604D02*
X111143604Y-64590000D01*
X122419006Y-53969026D02*
X122419006Y-53870000D01*
X109940000Y-65920000D02*
X109940000Y-65793604D01*
X121860000Y-54528032D02*
X122419006Y-53969026D01*
X121860000Y-62565584D02*
X121860000Y-54528032D01*
X111143604Y-64590000D02*
X119835584Y-64590000D01*
X119835584Y-64590000D02*
X121860000Y-62565584D01*
%TO.N,/Display/SDI*%
X122310000Y-54714428D02*
X122542214Y-54482214D01*
X122310000Y-62751980D02*
X122310000Y-54714428D01*
X122542214Y-54482214D02*
X122655321Y-54482214D01*
X110430000Y-68340000D02*
X110430000Y-66666471D01*
X110800000Y-65570000D02*
X111330000Y-65040000D01*
X111330000Y-65040000D02*
X120021980Y-65040000D01*
X110800000Y-66296471D02*
X110800000Y-65570000D01*
X120021980Y-65040000D02*
X122310000Y-62751980D01*
X110430000Y-66666471D02*
X110800000Y-66296471D01*
X122655321Y-54482214D02*
X123168509Y-53969026D01*
D24*
%TO.N,/Main Controller/PWR_STATUS*%
X109780000Y-53180000D02*
X109780000Y-49360000D01*
X109780000Y-49360000D02*
X109990000Y-49150000D01*
X109780000Y-55622656D02*
X109780000Y-55230000D01*
X109780000Y-55230000D02*
X109780000Y-53180000D01*
X110093725Y-55936381D02*
X109780000Y-55622656D01*
%TO.N,/Main Controller/BOOT_MODE0*%
X107823000Y-45847000D02*
X107823000Y-46736000D01*
X108465085Y-45204915D02*
X108077000Y-45593000D01*
X108077000Y-45593000D02*
X107823000Y-45847000D01*
X113650936Y-45204915D02*
X108465085Y-45204915D01*
%TO.N,/Main Controller/BATT_MEAS_EN*%
X113600000Y-42330000D02*
X96710000Y-42330000D01*
X114615110Y-42600000D02*
X113870000Y-42600000D01*
X113870000Y-42600000D02*
X113600000Y-42330000D01*
X96710000Y-42330000D02*
X96035000Y-43005000D01*
X96670000Y-56620000D02*
X96250000Y-57040000D01*
X96670000Y-53405000D02*
X96670000Y-56620000D01*
X96035000Y-52770000D02*
X96670000Y-53405000D01*
X96035000Y-43005000D02*
X96035000Y-52770000D01*
X96250000Y-57040000D02*
X96040000Y-57040000D01*
%TO.N,/Main Controller/MPP_STATUS*%
X110720000Y-55715000D02*
X110175000Y-55170000D01*
X110175000Y-55170000D02*
X110175000Y-52785000D01*
X110466400Y-56743600D02*
X110720000Y-56490000D01*
X110210600Y-56743600D02*
X110466400Y-56743600D01*
X110720000Y-56490000D02*
X110720000Y-55715000D01*
X110175000Y-52785000D02*
X110570000Y-52390000D01*
%TO.N,/Main Controller/MPP_STS_READ*%
X114234500Y-44109100D02*
X114681000Y-43662600D01*
X114234500Y-46674500D02*
X114234500Y-44109100D01*
X112471200Y-52324000D02*
X112496600Y-52298600D01*
X112496600Y-52298600D02*
X112496600Y-48412400D01*
X112496600Y-48412400D02*
X114234500Y-46674500D01*
D25*
%TO.N,Net-(U7-SDO)*%
X101650800Y-33731200D02*
X103511200Y-33731200D01*
X103511200Y-33731200D02*
X103740000Y-33960000D01*
%TO.N,Net-(U7-CSB)*%
X105283000Y-35509200D02*
X106069200Y-35509200D01*
D29*
%TO.N,/Solar Power/SOLAR+*%
X99940000Y-53890000D02*
X99270000Y-54560000D01*
X99270000Y-65800000D02*
X99260000Y-65810000D01*
X106470000Y-53890000D02*
X99940000Y-53890000D01*
X99270000Y-54560000D02*
X99270000Y-65800000D01*
D21*
%TO.N,/Main Controller/DL_TXD0*%
X113960000Y-94200000D02*
X112000000Y-94200000D01*
%TO.N,/Main Controller/DL_RXD0*%
X113890000Y-93200000D02*
X112000000Y-93200000D01*
D25*
%TO.N,/Main Controller/DISPLAY_EN*%
X117925600Y-48165000D02*
X122456500Y-48165000D01*
X117398800Y-48691800D02*
X117925600Y-48165000D01*
X116230400Y-48691800D02*
X117398800Y-48691800D01*
X122456500Y-48165000D02*
X122869500Y-47752000D01*
%TD*%
%TA.AperFunction,Conductor*%
%TO.N,GND*%
G36*
X110700126Y-32972174D02*
G01*
X110721800Y-33024500D01*
X110721800Y-36144200D01*
X118849800Y-36144200D01*
X118849800Y-33024500D01*
X118871474Y-32972174D01*
X118923800Y-32950500D01*
X125876588Y-32950500D01*
X125878054Y-32950500D01*
X125881927Y-32950601D01*
X126188621Y-32966674D01*
X126196319Y-32967483D01*
X126497740Y-33015224D01*
X126505287Y-33016828D01*
X126800064Y-33095814D01*
X126807415Y-33098202D01*
X127092329Y-33207570D01*
X127099391Y-33210715D01*
X127371295Y-33349257D01*
X127377995Y-33353124D01*
X127589904Y-33490740D01*
X127633929Y-33519330D01*
X127640195Y-33523882D01*
X127844803Y-33689571D01*
X127877353Y-33715929D01*
X127883109Y-33721112D01*
X128098887Y-33936890D01*
X128104070Y-33942646D01*
X128296116Y-34179803D01*
X128300669Y-34186070D01*
X128308271Y-34197776D01*
X128458231Y-34428694D01*
X128466870Y-34441996D01*
X128470742Y-34448704D01*
X128609284Y-34720608D01*
X128612433Y-34727679D01*
X128652757Y-34832727D01*
X128721794Y-35012576D01*
X128724187Y-35019942D01*
X128803167Y-35314697D01*
X128804778Y-35322274D01*
X128852515Y-35623678D01*
X128853325Y-35631381D01*
X128869399Y-35938072D01*
X128869500Y-35941945D01*
X128869500Y-100906735D01*
X128869399Y-100910608D01*
X128853327Y-101217299D01*
X128852517Y-101225001D01*
X128804783Y-101526401D01*
X128803173Y-101533979D01*
X128724190Y-101828748D01*
X128721796Y-101836114D01*
X128612440Y-102121002D01*
X128609290Y-102128078D01*
X128470750Y-102399983D01*
X128466877Y-102406691D01*
X128300672Y-102662624D01*
X128296119Y-102668890D01*
X128104082Y-102906040D01*
X128098899Y-102911797D01*
X127883116Y-103127581D01*
X127877360Y-103132764D01*
X127640200Y-103324814D01*
X127633933Y-103329367D01*
X127378004Y-103495570D01*
X127371296Y-103499442D01*
X127099403Y-103637979D01*
X127092327Y-103641130D01*
X126807427Y-103750493D01*
X126800061Y-103752886D01*
X126505305Y-103831867D01*
X126497728Y-103833478D01*
X126196322Y-103881215D01*
X126188619Y-103882025D01*
X125882309Y-103898079D01*
X125878436Y-103898180D01*
X123660983Y-103898180D01*
X123660883Y-103898200D01*
X123522227Y-103898200D01*
X123365318Y-103914692D01*
X123208405Y-103931184D01*
X123208402Y-103931185D01*
X122899757Y-103996789D01*
X122599654Y-104094299D01*
X122599641Y-104094303D01*
X122311402Y-104222635D01*
X122311386Y-104222644D01*
X122038122Y-104380412D01*
X122038117Y-104380415D01*
X121782845Y-104565880D01*
X121782840Y-104565884D01*
X121548345Y-104777022D01*
X121337195Y-105011526D01*
X121151726Y-105266800D01*
X121151723Y-105266805D01*
X120993953Y-105540068D01*
X120993948Y-105540077D01*
X120865606Y-105828334D01*
X120865604Y-105828339D01*
X120768094Y-106128436D01*
X120702487Y-106437085D01*
X120669500Y-106750912D01*
X120669500Y-150954997D01*
X120647826Y-151007323D01*
X110674627Y-160980520D01*
X110670360Y-160984464D01*
X110509508Y-161121844D01*
X110500114Y-161128669D01*
X110322239Y-161237671D01*
X110311893Y-161242943D01*
X110119149Y-161322781D01*
X110108105Y-161326369D01*
X109905255Y-161375068D01*
X109893786Y-161376885D01*
X109685806Y-161393254D01*
X109674194Y-161393254D01*
X109466213Y-161376885D01*
X109454744Y-161375068D01*
X109251894Y-161326369D01*
X109240850Y-161322781D01*
X109048106Y-161242943D01*
X109037760Y-161237671D01*
X108859885Y-161128669D01*
X108850491Y-161121844D01*
X108689633Y-160984459D01*
X108685366Y-160980515D01*
X108685002Y-160980151D01*
X98712172Y-151007323D01*
X98690498Y-150954999D01*
X98690488Y-150637013D01*
X98689266Y-109773885D01*
X104179500Y-109773885D01*
X104179500Y-150206114D01*
X104213411Y-150637007D01*
X104213411Y-150637010D01*
X104281026Y-151063915D01*
X104281031Y-151063940D01*
X104381925Y-151484192D01*
X104381933Y-151484220D01*
X104515490Y-151895266D01*
X104515505Y-151895306D01*
X104680900Y-152294608D01*
X104680910Y-152294629D01*
X104877126Y-152679723D01*
X104877138Y-152679744D01*
X105102964Y-153048257D01*
X105102974Y-153048273D01*
X105357029Y-153397952D01*
X105357031Y-153397954D01*
X105637743Y-153726624D01*
X105943376Y-154032257D01*
X106272046Y-154312969D01*
X106621728Y-154567027D01*
X106990265Y-154792867D01*
X106990269Y-154792869D01*
X106990276Y-154792873D01*
X107375370Y-154989089D01*
X107375391Y-154989099D01*
X107627185Y-155093394D01*
X107774714Y-155154503D01*
X108185790Y-155288070D01*
X108185807Y-155288074D01*
X108606059Y-155388968D01*
X108606073Y-155388970D01*
X108606078Y-155388972D01*
X109032987Y-155456588D01*
X109463885Y-155490500D01*
X109896115Y-155490500D01*
X110327013Y-155456588D01*
X110753922Y-155388972D01*
X110753931Y-155388969D01*
X110753940Y-155388968D01*
X110964066Y-155338521D01*
X111174210Y-155288070D01*
X111585286Y-155154503D01*
X111984615Y-154989096D01*
X112369735Y-154792867D01*
X112738272Y-154567027D01*
X113087954Y-154312969D01*
X113416624Y-154032257D01*
X113722257Y-153726624D01*
X114002969Y-153397954D01*
X114257027Y-153048272D01*
X114482867Y-152679735D01*
X114679096Y-152294615D01*
X114844503Y-151895286D01*
X114978070Y-151484210D01*
X115078972Y-151063922D01*
X115146588Y-150637013D01*
X115180500Y-150206115D01*
X115180500Y-109773885D01*
X115146588Y-109342987D01*
X115078972Y-108916078D01*
X115078970Y-108916073D01*
X115078968Y-108916059D01*
X114978074Y-108495807D01*
X114978070Y-108495790D01*
X114844503Y-108084714D01*
X114783394Y-107937185D01*
X114679099Y-107685391D01*
X114679089Y-107685370D01*
X114482873Y-107300276D01*
X114482861Y-107300255D01*
X114441984Y-107233551D01*
X114257027Y-106931728D01*
X114002969Y-106582046D01*
X113722257Y-106253376D01*
X113416624Y-105947743D01*
X113244757Y-105800954D01*
X113087952Y-105667029D01*
X112738273Y-105412974D01*
X112738272Y-105412973D01*
X112499748Y-105266805D01*
X112369744Y-105187138D01*
X112369723Y-105187126D01*
X111984629Y-104990910D01*
X111984608Y-104990900D01*
X111585306Y-104825505D01*
X111585298Y-104825502D01*
X111585286Y-104825497D01*
X111585276Y-104825493D01*
X111585266Y-104825490D01*
X111174220Y-104691933D01*
X111174192Y-104691925D01*
X110753940Y-104591031D01*
X110753915Y-104591026D01*
X110327010Y-104523411D01*
X110318692Y-104522757D01*
X110268229Y-104497043D01*
X110250500Y-104448985D01*
X110250500Y-82956862D01*
X110799500Y-82956862D01*
X110799500Y-83383137D01*
X110805740Y-83430543D01*
X110805741Y-83430545D01*
X110854253Y-83534579D01*
X110937348Y-83617674D01*
X110959022Y-83670000D01*
X110937348Y-83722326D01*
X110854253Y-83805420D01*
X110805740Y-83909456D01*
X110799500Y-83956862D01*
X110799500Y-84383137D01*
X110805740Y-84430543D01*
X110805741Y-84430545D01*
X110854253Y-84534579D01*
X110937348Y-84617674D01*
X110959022Y-84670000D01*
X110937348Y-84722326D01*
X110854253Y-84805420D01*
X110805740Y-84909456D01*
X110799500Y-84956862D01*
X110799500Y-85383137D01*
X110805740Y-85430543D01*
X110805741Y-85430545D01*
X110854253Y-85534579D01*
X110937348Y-85617674D01*
X110959022Y-85670000D01*
X110937348Y-85722326D01*
X110854253Y-85805420D01*
X110805740Y-85909456D01*
X110799500Y-85956862D01*
X110799500Y-86383137D01*
X110805740Y-86430543D01*
X110805741Y-86430545D01*
X110854253Y-86534579D01*
X110937348Y-86617674D01*
X110959022Y-86670000D01*
X110937348Y-86722326D01*
X110854253Y-86805420D01*
X110805740Y-86909456D01*
X110799500Y-86956862D01*
X110799500Y-87383137D01*
X110805740Y-87430543D01*
X110805741Y-87430545D01*
X110854253Y-87534579D01*
X110937348Y-87617674D01*
X110959022Y-87670000D01*
X110937348Y-87722326D01*
X110854253Y-87805420D01*
X110805740Y-87909456D01*
X110799500Y-87956862D01*
X110799500Y-88383137D01*
X110805740Y-88430543D01*
X110805741Y-88430545D01*
X110854253Y-88534579D01*
X110937348Y-88617674D01*
X110959022Y-88670000D01*
X110937348Y-88722326D01*
X110854253Y-88805420D01*
X110805740Y-88909456D01*
X110799500Y-88956862D01*
X110799500Y-89383137D01*
X110805740Y-89430543D01*
X110805741Y-89430545D01*
X110854253Y-89534579D01*
X110937348Y-89617674D01*
X110959022Y-89670000D01*
X110937348Y-89722326D01*
X110854253Y-89805420D01*
X110805740Y-89909456D01*
X110799500Y-89956862D01*
X110799500Y-90383137D01*
X110805740Y-90430543D01*
X110805741Y-90430545D01*
X110854253Y-90534579D01*
X110937348Y-90617674D01*
X110959022Y-90670000D01*
X110937348Y-90722326D01*
X110854253Y-90805420D01*
X110805740Y-90909456D01*
X110799500Y-90956862D01*
X110799500Y-91383137D01*
X110805740Y-91430543D01*
X110805741Y-91430545D01*
X110854253Y-91534579D01*
X110937348Y-91617674D01*
X110959022Y-91670000D01*
X110937348Y-91722326D01*
X110854253Y-91805420D01*
X110805740Y-91909456D01*
X110799500Y-91956862D01*
X110799500Y-92383137D01*
X110805740Y-92430543D01*
X110805741Y-92430545D01*
X110854253Y-92534579D01*
X110937348Y-92617674D01*
X110959022Y-92670000D01*
X110937348Y-92722326D01*
X110854253Y-92805420D01*
X110805740Y-92909456D01*
X110799500Y-92956862D01*
X110799500Y-93383137D01*
X110805740Y-93430543D01*
X110805741Y-93430545D01*
X110854253Y-93534579D01*
X110937348Y-93617674D01*
X110959022Y-93670000D01*
X110937348Y-93722326D01*
X110854253Y-93805420D01*
X110805740Y-93909456D01*
X110799500Y-93956862D01*
X110799500Y-94383137D01*
X110805740Y-94430543D01*
X110805741Y-94430545D01*
X110854253Y-94534579D01*
X110935421Y-94615747D01*
X111039455Y-94664259D01*
X111086861Y-94670500D01*
X112613138Y-94670499D01*
X112660545Y-94664259D01*
X112764579Y-94615747D01*
X112845747Y-94534579D01*
X112876688Y-94468225D01*
X112918446Y-94429963D01*
X112943755Y-94425500D01*
X113527277Y-94425500D01*
X113579603Y-94447174D01*
X113591362Y-94462499D01*
X113599511Y-94476613D01*
X113683387Y-94560489D01*
X113683389Y-94560490D01*
X113683390Y-94560491D01*
X113779094Y-94615746D01*
X113786114Y-94619799D01*
X113786115Y-94619799D01*
X113786117Y-94619800D01*
X113843402Y-94635149D01*
X113900688Y-94650499D01*
X113900689Y-94650500D01*
X113900691Y-94650500D01*
X114019311Y-94650500D01*
X114019311Y-94650499D01*
X114133886Y-94619799D01*
X114184484Y-94590585D01*
X114240814Y-94558064D01*
X114241755Y-94559695D01*
X114290142Y-94546719D01*
X114339198Y-94575026D01*
X114354500Y-94620088D01*
X114354500Y-96575942D01*
X114332826Y-96628268D01*
X112780018Y-98181075D01*
X112727692Y-98202749D01*
X112713259Y-98201328D01*
X112704069Y-98199500D01*
X112575931Y-98199500D01*
X112544726Y-98205707D01*
X112450260Y-98224497D01*
X112450257Y-98224498D01*
X112331876Y-98273533D01*
X112225331Y-98344723D01*
X112225330Y-98344725D01*
X112134725Y-98435330D01*
X112134723Y-98435331D01*
X112063533Y-98541876D01*
X112014498Y-98660257D01*
X112014497Y-98660260D01*
X111989500Y-98785932D01*
X111989500Y-98914067D01*
X112014497Y-99039739D01*
X112014498Y-99039742D01*
X112046964Y-99118123D01*
X112063535Y-99158127D01*
X112107996Y-99224668D01*
X112128041Y-99254668D01*
X112134724Y-99264669D01*
X112225331Y-99355276D01*
X112331873Y-99426465D01*
X112450256Y-99475501D01*
X112450258Y-99475501D01*
X112450260Y-99475502D01*
X112492903Y-99483984D01*
X112575931Y-99500500D01*
X112575933Y-99500500D01*
X112704067Y-99500500D01*
X112704069Y-99500500D01*
X112829744Y-99475501D01*
X112948127Y-99426465D01*
X113054669Y-99355276D01*
X113145276Y-99264669D01*
X113216465Y-99158127D01*
X113265501Y-99039744D01*
X113290500Y-98914069D01*
X113290500Y-98785931D01*
X113265501Y-98660256D01*
X113216465Y-98541873D01*
X113186343Y-98496793D01*
X113175295Y-98441246D01*
X113195545Y-98403358D01*
X114438175Y-97160729D01*
X114490500Y-97139056D01*
X114542826Y-97160730D01*
X114564500Y-97213056D01*
X114564500Y-98171579D01*
X114542826Y-98223905D01*
X114518820Y-98239946D01*
X114461872Y-98263535D01*
X114355331Y-98334723D01*
X114355330Y-98334725D01*
X114264725Y-98425330D01*
X114264723Y-98425331D01*
X114193533Y-98531876D01*
X114144498Y-98650257D01*
X114144497Y-98650260D01*
X114125467Y-98745932D01*
X114119653Y-98775165D01*
X114119500Y-98775932D01*
X114119500Y-98904067D01*
X114144497Y-99029739D01*
X114144498Y-99029742D01*
X114181108Y-99118127D01*
X114193535Y-99148127D01*
X114200217Y-99158127D01*
X114246986Y-99228123D01*
X114264724Y-99254669D01*
X114355331Y-99345276D01*
X114461873Y-99416465D01*
X114580256Y-99465501D01*
X114580258Y-99465501D01*
X114580260Y-99465502D01*
X114622903Y-99473984D01*
X114705931Y-99490500D01*
X114705933Y-99490500D01*
X114834067Y-99490500D01*
X114834069Y-99490500D01*
X114959744Y-99465501D01*
X115078127Y-99416465D01*
X115184669Y-99345276D01*
X115275276Y-99254669D01*
X115346465Y-99148127D01*
X115395501Y-99029744D01*
X115420500Y-98904069D01*
X115420500Y-98775931D01*
X115397491Y-98660260D01*
X115395502Y-98650260D01*
X115395501Y-98650257D01*
X115383074Y-98620256D01*
X115346465Y-98531873D01*
X115275276Y-98425331D01*
X115184669Y-98334724D01*
X115139770Y-98304723D01*
X115078126Y-98263534D01*
X115061180Y-98256515D01*
X115021132Y-98216465D01*
X115015500Y-98188148D01*
X115015500Y-97653057D01*
X115037174Y-97600731D01*
X115089500Y-97579057D01*
X115141826Y-97600731D01*
X115578829Y-98037734D01*
X115578830Y-98037736D01*
X115642264Y-98101170D01*
X115666539Y-98111225D01*
X115725145Y-98135501D01*
X115725146Y-98135501D01*
X115823467Y-98135501D01*
X115823475Y-98135500D01*
X116115943Y-98135500D01*
X116168269Y-98157174D01*
X116398430Y-98387335D01*
X116420104Y-98439661D01*
X116407633Y-98480772D01*
X116393536Y-98501869D01*
X116344498Y-98620257D01*
X116344497Y-98620260D01*
X116319500Y-98745932D01*
X116319500Y-98874067D01*
X116344497Y-98999739D01*
X116344498Y-98999742D01*
X116390062Y-99109744D01*
X116393535Y-99118127D01*
X116464724Y-99224669D01*
X116555331Y-99315276D01*
X116661873Y-99386465D01*
X116780256Y-99435501D01*
X116780258Y-99435501D01*
X116780260Y-99435502D01*
X116822903Y-99443984D01*
X116905931Y-99460500D01*
X116905933Y-99460500D01*
X117034067Y-99460500D01*
X117034069Y-99460500D01*
X117159744Y-99435501D01*
X117278127Y-99386465D01*
X117384669Y-99315276D01*
X117475276Y-99224669D01*
X117546465Y-99118127D01*
X117595501Y-98999744D01*
X117620500Y-98874069D01*
X117620500Y-98745931D01*
X117597110Y-98628343D01*
X117595502Y-98620260D01*
X117595501Y-98620257D01*
X117592029Y-98611876D01*
X117546465Y-98501873D01*
X117475276Y-98395331D01*
X117384669Y-98304724D01*
X117278127Y-98233535D01*
X117278124Y-98233533D01*
X117278123Y-98233533D01*
X117159742Y-98184498D01*
X117159739Y-98184497D01*
X117069696Y-98166586D01*
X117034069Y-98159500D01*
X116905931Y-98159500D01*
X116869643Y-98166717D01*
X116863377Y-98167964D01*
X116807828Y-98156913D01*
X116796616Y-98147711D01*
X116630731Y-97981826D01*
X116609057Y-97929500D01*
X116630731Y-97877174D01*
X116683057Y-97855500D01*
X118415943Y-97855500D01*
X118468269Y-97877174D01*
X118928249Y-98337154D01*
X118949923Y-98389480D01*
X118928249Y-98441806D01*
X118864725Y-98505330D01*
X118864723Y-98505331D01*
X118793533Y-98611876D01*
X118744498Y-98730257D01*
X118744497Y-98730260D01*
X118719500Y-98855932D01*
X118719500Y-98984067D01*
X118744497Y-99109739D01*
X118744498Y-99109742D01*
X118792102Y-99224669D01*
X118793535Y-99228127D01*
X118864724Y-99334669D01*
X118955331Y-99425276D01*
X119061873Y-99496465D01*
X119180256Y-99545501D01*
X119180258Y-99545501D01*
X119180260Y-99545502D01*
X119222903Y-99553984D01*
X119305931Y-99570500D01*
X119305933Y-99570500D01*
X119434067Y-99570500D01*
X119434069Y-99570500D01*
X119559744Y-99545501D01*
X119678127Y-99496465D01*
X119784669Y-99425276D01*
X119875276Y-99334669D01*
X119946465Y-99228127D01*
X119995501Y-99109744D01*
X120020500Y-98984069D01*
X120020500Y-98855931D01*
X119995501Y-98730256D01*
X119946465Y-98611873D01*
X119875276Y-98505331D01*
X119784669Y-98414724D01*
X119678127Y-98343535D01*
X119678124Y-98343533D01*
X119678123Y-98343533D01*
X119559742Y-98294498D01*
X119559739Y-98294497D01*
X119531734Y-98288927D01*
X119492670Y-98267473D01*
X119483490Y-98257866D01*
X119481170Y-98252264D01*
X119417736Y-98188830D01*
X119417734Y-98188829D01*
X118970731Y-97741826D01*
X118949057Y-97689500D01*
X118970731Y-97637174D01*
X119023057Y-97615500D01*
X119715943Y-97615500D01*
X119768269Y-97637174D01*
X119994609Y-97863514D01*
X119994612Y-97863518D01*
X119998830Y-97867736D01*
X120062264Y-97931170D01*
X120096595Y-97945390D01*
X120145146Y-97965501D01*
X120145147Y-97965501D01*
X120243467Y-97965501D01*
X120243475Y-97965500D01*
X120495943Y-97965500D01*
X120548269Y-97987174D01*
X121040446Y-98479351D01*
X121062120Y-98531677D01*
X121049649Y-98572788D01*
X121023536Y-98611869D01*
X120974498Y-98730257D01*
X120974497Y-98730260D01*
X120949500Y-98855932D01*
X120949500Y-98984067D01*
X120974497Y-99109739D01*
X120974498Y-99109742D01*
X121022102Y-99224669D01*
X121023535Y-99228127D01*
X121094724Y-99334669D01*
X121185331Y-99425276D01*
X121291873Y-99496465D01*
X121410256Y-99545501D01*
X121410258Y-99545501D01*
X121410260Y-99545502D01*
X121452903Y-99553984D01*
X121535931Y-99570500D01*
X121535933Y-99570500D01*
X121664067Y-99570500D01*
X121664069Y-99570500D01*
X121789744Y-99545501D01*
X121908127Y-99496465D01*
X122014669Y-99425276D01*
X122105276Y-99334669D01*
X122176465Y-99228127D01*
X122225501Y-99109744D01*
X122250500Y-98984069D01*
X122250500Y-98855931D01*
X122225501Y-98730256D01*
X122176465Y-98611873D01*
X122105276Y-98505331D01*
X122014669Y-98414724D01*
X121908127Y-98343535D01*
X121908124Y-98343533D01*
X121908123Y-98343533D01*
X121789742Y-98294498D01*
X121789739Y-98294497D01*
X121699696Y-98276586D01*
X121664069Y-98269500D01*
X121535931Y-98269500D01*
X121527448Y-98271187D01*
X121518398Y-98272987D01*
X121462850Y-98261935D01*
X121451639Y-98252734D01*
X120821578Y-97622673D01*
X120821578Y-97622672D01*
X120747738Y-97548832D01*
X120747736Y-97548830D01*
X120723460Y-97538774D01*
X120723458Y-97538773D01*
X120723458Y-97538772D01*
X120664855Y-97514499D01*
X120575145Y-97514499D01*
X120566533Y-97514499D01*
X120566525Y-97514500D01*
X120314057Y-97514500D01*
X120261731Y-97492826D01*
X120041578Y-97272673D01*
X120041578Y-97272672D01*
X119967737Y-97198831D01*
X119967733Y-97198828D01*
X119940950Y-97187735D01*
X119884855Y-97164499D01*
X119795145Y-97164499D01*
X119786533Y-97164499D01*
X119786525Y-97164500D01*
X117664057Y-97164500D01*
X117611731Y-97142826D01*
X117463615Y-96994710D01*
X117441941Y-96942384D01*
X117463615Y-96890058D01*
X117515941Y-96868384D01*
X117525591Y-96869016D01*
X117536861Y-96870500D01*
X117670940Y-96870499D01*
X117723267Y-96892173D01*
X117772264Y-96941170D01*
X117855145Y-96975500D01*
X117855146Y-96975500D01*
X117944854Y-96975500D01*
X117944855Y-96975500D01*
X118027736Y-96941170D01*
X118091170Y-96877736D01*
X118112817Y-96825471D01*
X118128853Y-96801471D01*
X118195747Y-96734579D01*
X118195748Y-96734575D01*
X118197673Y-96732651D01*
X118249999Y-96710977D01*
X118302325Y-96732651D01*
X118304253Y-96734579D01*
X118385421Y-96815747D01*
X118489455Y-96864259D01*
X118536861Y-96870500D01*
X118670940Y-96870499D01*
X118723267Y-96892173D01*
X118772264Y-96941170D01*
X118855145Y-96975500D01*
X118855146Y-96975500D01*
X118944854Y-96975500D01*
X118944855Y-96975500D01*
X119027736Y-96941170D01*
X119091170Y-96877736D01*
X119112817Y-96825471D01*
X119128853Y-96801471D01*
X119195747Y-96734579D01*
X119195748Y-96734575D01*
X119197673Y-96732651D01*
X119249999Y-96710977D01*
X119302325Y-96732651D01*
X119304253Y-96734579D01*
X119385421Y-96815747D01*
X119489455Y-96864259D01*
X119536861Y-96870500D01*
X119963138Y-96870499D01*
X120010545Y-96864259D01*
X120114579Y-96815747D01*
X120195747Y-96734579D01*
X120195747Y-96734578D01*
X120197674Y-96732652D01*
X120250000Y-96710978D01*
X120302326Y-96732652D01*
X120304253Y-96734579D01*
X120385421Y-96815747D01*
X120489455Y-96864259D01*
X120536861Y-96870500D01*
X120963138Y-96870499D01*
X121010545Y-96864259D01*
X121114579Y-96815747D01*
X121195747Y-96734579D01*
X121195747Y-96734578D01*
X121197674Y-96732652D01*
X121250000Y-96710978D01*
X121302326Y-96732652D01*
X121304253Y-96734579D01*
X121385421Y-96815747D01*
X121489455Y-96864259D01*
X121536861Y-96870500D01*
X121963138Y-96870499D01*
X122010545Y-96864259D01*
X122114579Y-96815747D01*
X122195747Y-96734579D01*
X122195747Y-96734578D01*
X122197674Y-96732652D01*
X122250000Y-96710978D01*
X122302326Y-96732652D01*
X122304253Y-96734579D01*
X122385421Y-96815747D01*
X122489455Y-96864259D01*
X122536861Y-96870500D01*
X122963138Y-96870499D01*
X123010545Y-96864259D01*
X123114579Y-96815747D01*
X123195747Y-96734579D01*
X123244259Y-96630545D01*
X123250500Y-96583139D01*
X123250499Y-95056862D01*
X123244259Y-95009455D01*
X123195747Y-94905421D01*
X123114579Y-94824253D01*
X123010545Y-94775741D01*
X123010543Y-94775740D01*
X122975619Y-94771142D01*
X122963139Y-94769500D01*
X122963137Y-94769500D01*
X122536862Y-94769500D01*
X122489456Y-94775740D01*
X122489454Y-94775741D01*
X122385420Y-94824253D01*
X122302326Y-94907348D01*
X122250000Y-94929022D01*
X122197674Y-94907348D01*
X122114579Y-94824253D01*
X122094498Y-94814889D01*
X122010545Y-94775741D01*
X122010543Y-94775740D01*
X121975619Y-94771142D01*
X121963139Y-94769500D01*
X121963137Y-94769500D01*
X121536862Y-94769500D01*
X121489456Y-94775740D01*
X121489454Y-94775741D01*
X121385420Y-94824253D01*
X121302326Y-94907348D01*
X121250000Y-94929022D01*
X121197674Y-94907348D01*
X121114579Y-94824253D01*
X121094498Y-94814889D01*
X121010545Y-94775741D01*
X121010543Y-94775740D01*
X120975619Y-94771142D01*
X120963139Y-94769500D01*
X120963137Y-94769500D01*
X120536862Y-94769500D01*
X120489456Y-94775740D01*
X120489454Y-94775741D01*
X120385420Y-94824253D01*
X120302326Y-94907348D01*
X120250000Y-94929022D01*
X120197674Y-94907348D01*
X120114579Y-94824253D01*
X120094498Y-94814889D01*
X120010545Y-94775741D01*
X120010543Y-94775740D01*
X119975619Y-94771142D01*
X119963139Y-94769500D01*
X119963137Y-94769500D01*
X119536862Y-94769500D01*
X119489456Y-94775740D01*
X119489454Y-94775741D01*
X119385420Y-94824253D01*
X119302326Y-94907348D01*
X119250000Y-94929022D01*
X119197674Y-94907348D01*
X119114579Y-94824253D01*
X119094498Y-94814889D01*
X119010545Y-94775741D01*
X119010543Y-94775740D01*
X118975619Y-94771142D01*
X118963139Y-94769500D01*
X118963137Y-94769500D01*
X118536862Y-94769500D01*
X118489456Y-94775740D01*
X118489454Y-94775741D01*
X118385420Y-94824253D01*
X118302326Y-94907348D01*
X118250000Y-94929022D01*
X118197674Y-94907348D01*
X118114579Y-94824253D01*
X118094498Y-94814889D01*
X118010545Y-94775741D01*
X118010543Y-94775740D01*
X117975619Y-94771142D01*
X117963139Y-94769500D01*
X117963137Y-94769500D01*
X117536862Y-94769500D01*
X117489456Y-94775740D01*
X117489454Y-94775741D01*
X117385420Y-94824253D01*
X117302326Y-94907348D01*
X117250000Y-94929022D01*
X117197674Y-94907348D01*
X117114579Y-94824253D01*
X117094498Y-94814889D01*
X117010545Y-94775741D01*
X117010543Y-94775740D01*
X116975619Y-94771142D01*
X116963139Y-94769500D01*
X116963137Y-94769500D01*
X116536862Y-94769500D01*
X116489456Y-94775740D01*
X116489454Y-94775741D01*
X116385420Y-94824253D01*
X116302326Y-94907348D01*
X116250000Y-94929022D01*
X116197674Y-94907348D01*
X116114579Y-94824253D01*
X116094498Y-94814889D01*
X116010545Y-94775741D01*
X116010543Y-94775740D01*
X115975619Y-94771142D01*
X115963139Y-94769500D01*
X115963137Y-94769500D01*
X115536862Y-94769500D01*
X115489157Y-94775780D01*
X115434450Y-94761120D01*
X115406133Y-94712070D01*
X115405500Y-94702413D01*
X115405500Y-94140688D01*
X124579500Y-94140688D01*
X124579500Y-94259311D01*
X124610199Y-94373882D01*
X124610201Y-94373887D01*
X124669508Y-94476609D01*
X124669509Y-94476610D01*
X124669511Y-94476613D01*
X124753387Y-94560489D01*
X124753389Y-94560490D01*
X124753390Y-94560491D01*
X124849094Y-94615746D01*
X124856114Y-94619799D01*
X124856115Y-94619799D01*
X124856117Y-94619800D01*
X124913402Y-94635149D01*
X124970688Y-94650499D01*
X124970689Y-94650500D01*
X124970691Y-94650500D01*
X125089311Y-94650500D01*
X125089311Y-94650499D01*
X125203886Y-94619799D01*
X125245045Y-94596035D01*
X125306744Y-94560414D01*
X125343744Y-94550500D01*
X125639522Y-94550500D01*
X125691848Y-94572174D01*
X125735421Y-94615747D01*
X125839455Y-94664259D01*
X125886861Y-94670500D01*
X127413138Y-94670499D01*
X127460545Y-94664259D01*
X127564579Y-94615747D01*
X127645747Y-94534579D01*
X127694259Y-94430545D01*
X127700500Y-94383139D01*
X127700499Y-93956862D01*
X127694259Y-93909455D01*
X127645747Y-93805421D01*
X127564579Y-93724253D01*
X127562652Y-93722326D01*
X127540978Y-93670000D01*
X127562652Y-93617674D01*
X127564579Y-93615747D01*
X127645747Y-93534579D01*
X127694259Y-93430545D01*
X127700500Y-93383139D01*
X127700499Y-92956862D01*
X127694259Y-92909455D01*
X127645747Y-92805421D01*
X127564579Y-92724253D01*
X127562652Y-92722326D01*
X127540978Y-92670000D01*
X127562652Y-92617674D01*
X127564579Y-92615747D01*
X127645747Y-92534579D01*
X127694259Y-92430545D01*
X127700500Y-92383139D01*
X127700499Y-91956862D01*
X127694259Y-91909455D01*
X127645747Y-91805421D01*
X127564579Y-91724253D01*
X127562652Y-91722326D01*
X127540978Y-91670000D01*
X127562652Y-91617674D01*
X127564579Y-91615747D01*
X127645747Y-91534579D01*
X127694259Y-91430545D01*
X127700500Y-91383139D01*
X127700499Y-90956862D01*
X127694259Y-90909455D01*
X127645747Y-90805421D01*
X127564579Y-90724253D01*
X127562652Y-90722326D01*
X127540978Y-90670000D01*
X127562652Y-90617674D01*
X127564579Y-90615747D01*
X127645747Y-90534579D01*
X127694259Y-90430545D01*
X127700500Y-90383139D01*
X127700499Y-89956862D01*
X127694259Y-89909455D01*
X127645747Y-89805421D01*
X127564579Y-89724253D01*
X127460545Y-89675741D01*
X127460543Y-89675740D01*
X127425619Y-89671142D01*
X127413139Y-89669500D01*
X127413137Y-89669500D01*
X125886862Y-89669500D01*
X125839456Y-89675740D01*
X125839454Y-89675741D01*
X125735420Y-89724253D01*
X125654253Y-89805420D01*
X125605740Y-89909456D01*
X125599500Y-89956862D01*
X125599500Y-90383137D01*
X125605740Y-90430543D01*
X125605741Y-90430545D01*
X125654253Y-90534579D01*
X125737348Y-90617674D01*
X125759022Y-90670000D01*
X125737348Y-90722326D01*
X125654253Y-90805420D01*
X125605740Y-90909456D01*
X125599500Y-90956862D01*
X125599500Y-91383137D01*
X125605740Y-91430543D01*
X125605741Y-91430545D01*
X125654253Y-91534579D01*
X125737348Y-91617674D01*
X125759022Y-91670000D01*
X125737348Y-91722326D01*
X125654253Y-91805420D01*
X125605740Y-91909456D01*
X125599500Y-91956862D01*
X125599500Y-92383137D01*
X125605740Y-92430543D01*
X125605741Y-92430545D01*
X125654253Y-92534579D01*
X125737348Y-92617674D01*
X125759022Y-92670000D01*
X125737348Y-92722326D01*
X125654253Y-92805420D01*
X125605740Y-92909456D01*
X125599500Y-92956862D01*
X125599500Y-93383137D01*
X125605740Y-93430543D01*
X125605741Y-93430545D01*
X125654253Y-93534579D01*
X125737348Y-93617674D01*
X125747733Y-93642747D01*
X125758978Y-93667450D01*
X125758484Y-93668702D01*
X125759022Y-93670000D01*
X125739120Y-93720492D01*
X125735755Y-93724097D01*
X125735421Y-93724253D01*
X125654253Y-93805421D01*
X125648662Y-93817410D01*
X125640653Y-93825992D01*
X125624746Y-93833232D01*
X125611862Y-93845038D01*
X125590559Y-93848793D01*
X125589105Y-93849456D01*
X125588368Y-93849180D01*
X125586555Y-93849500D01*
X125343744Y-93849500D01*
X125306744Y-93839586D01*
X125203887Y-93780201D01*
X125203882Y-93780199D01*
X125089311Y-93749500D01*
X125089309Y-93749500D01*
X124970691Y-93749500D01*
X124970689Y-93749500D01*
X124856117Y-93780199D01*
X124856112Y-93780201D01*
X124753390Y-93839508D01*
X124669508Y-93923390D01*
X124610201Y-94026112D01*
X124610199Y-94026117D01*
X124579500Y-94140688D01*
X115405500Y-94140688D01*
X115405500Y-91385145D01*
X115405499Y-91385143D01*
X115371171Y-91302266D01*
X115371169Y-91302263D01*
X115303521Y-91234615D01*
X115303514Y-91234609D01*
X113151578Y-89082673D01*
X113151578Y-89082672D01*
X113077738Y-89008832D01*
X113077736Y-89008830D01*
X113053460Y-88998774D01*
X113053458Y-88998773D01*
X113053458Y-88998772D01*
X112994855Y-88974499D01*
X112967718Y-88974499D01*
X112915392Y-88952825D01*
X112896579Y-88914673D01*
X112895842Y-88914888D01*
X112894623Y-88910706D01*
X112894351Y-88910154D01*
X112894259Y-88909456D01*
X112894259Y-88909455D01*
X112845747Y-88805421D01*
X112764579Y-88724253D01*
X112762652Y-88722326D01*
X112740978Y-88670000D01*
X112762652Y-88617674D01*
X112764579Y-88615747D01*
X112845747Y-88534579D01*
X112894259Y-88430545D01*
X112900500Y-88383139D01*
X112900499Y-87956862D01*
X112894259Y-87909455D01*
X112845747Y-87805421D01*
X112764579Y-87724253D01*
X112762652Y-87722326D01*
X112740978Y-87670000D01*
X112762652Y-87617674D01*
X112764579Y-87615747D01*
X112845747Y-87534579D01*
X112894259Y-87430545D01*
X112900500Y-87383139D01*
X112900499Y-86956862D01*
X112894259Y-86909455D01*
X112845747Y-86805421D01*
X112764579Y-86724253D01*
X112762652Y-86722326D01*
X112740978Y-86670000D01*
X112762652Y-86617674D01*
X112764579Y-86615747D01*
X112845747Y-86534579D01*
X112894259Y-86430545D01*
X112900500Y-86383139D01*
X112900499Y-85956862D01*
X112894259Y-85909455D01*
X112845747Y-85805421D01*
X112764579Y-85724253D01*
X112762652Y-85722326D01*
X112740978Y-85670000D01*
X112762652Y-85617674D01*
X112764580Y-85615746D01*
X112845747Y-85534579D01*
X112894259Y-85430545D01*
X112900500Y-85383139D01*
X112900499Y-84956862D01*
X112894259Y-84909455D01*
X112845747Y-84805421D01*
X112764579Y-84724253D01*
X112762652Y-84722326D01*
X112740978Y-84670000D01*
X112762652Y-84617674D01*
X112764579Y-84615747D01*
X112845747Y-84534579D01*
X112894259Y-84430545D01*
X112900500Y-84383139D01*
X112900499Y-83956862D01*
X112894259Y-83909455D01*
X112845747Y-83805421D01*
X112764579Y-83724253D01*
X112762652Y-83722326D01*
X112740978Y-83670000D01*
X112762652Y-83617674D01*
X112764579Y-83615747D01*
X112845747Y-83534579D01*
X112894259Y-83430545D01*
X112900500Y-83383139D01*
X112900499Y-82956862D01*
X125599500Y-82956862D01*
X125599500Y-83383137D01*
X125605740Y-83430543D01*
X125605741Y-83430545D01*
X125654253Y-83534579D01*
X125737348Y-83617674D01*
X125759022Y-83670000D01*
X125737348Y-83722326D01*
X125654253Y-83805420D01*
X125605740Y-83909456D01*
X125599500Y-83956862D01*
X125599500Y-84383137D01*
X125605740Y-84430543D01*
X125605741Y-84430545D01*
X125654253Y-84534579D01*
X125737348Y-84617674D01*
X125759022Y-84670000D01*
X125737348Y-84722326D01*
X125654253Y-84805420D01*
X125605740Y-84909456D01*
X125599500Y-84956862D01*
X125599500Y-85383137D01*
X125605740Y-85430543D01*
X125605741Y-85430545D01*
X125654253Y-85534579D01*
X125735421Y-85615747D01*
X125839455Y-85664259D01*
X125886861Y-85670500D01*
X127413138Y-85670499D01*
X127460545Y-85664259D01*
X127564579Y-85615747D01*
X127645747Y-85534579D01*
X127694259Y-85430545D01*
X127700500Y-85383139D01*
X127700499Y-84956862D01*
X127694259Y-84909455D01*
X127645747Y-84805421D01*
X127564579Y-84724253D01*
X127562652Y-84722326D01*
X127540978Y-84670000D01*
X127562652Y-84617674D01*
X127564579Y-84615747D01*
X127645747Y-84534579D01*
X127694259Y-84430545D01*
X127700500Y-84383139D01*
X127700499Y-83956862D01*
X127694259Y-83909455D01*
X127645747Y-83805421D01*
X127564579Y-83724253D01*
X127562652Y-83722326D01*
X127540978Y-83670000D01*
X127562652Y-83617674D01*
X127564579Y-83615747D01*
X127645747Y-83534579D01*
X127694259Y-83430545D01*
X127700500Y-83383139D01*
X127700499Y-82956862D01*
X127694259Y-82909455D01*
X127645747Y-82805421D01*
X127564579Y-82724253D01*
X127460545Y-82675741D01*
X127460543Y-82675740D01*
X127425619Y-82671142D01*
X127413139Y-82669500D01*
X127413137Y-82669500D01*
X125886862Y-82669500D01*
X125839456Y-82675740D01*
X125839454Y-82675741D01*
X125735420Y-82724253D01*
X125654253Y-82805420D01*
X125605740Y-82909456D01*
X125599500Y-82956862D01*
X112900499Y-82956862D01*
X112894259Y-82909455D01*
X112845747Y-82805421D01*
X112764579Y-82724253D01*
X112660545Y-82675741D01*
X112660543Y-82675740D01*
X112625619Y-82671142D01*
X112613139Y-82669500D01*
X112613137Y-82669500D01*
X111086862Y-82669500D01*
X111039456Y-82675740D01*
X111039454Y-82675741D01*
X110935420Y-82724253D01*
X110854253Y-82805420D01*
X110805740Y-82909456D01*
X110799500Y-82956862D01*
X110250500Y-82956862D01*
X110250500Y-80256862D01*
X119249500Y-80256862D01*
X119249500Y-81783137D01*
X119255740Y-81830543D01*
X119255741Y-81830545D01*
X119304253Y-81934579D01*
X119385421Y-82015747D01*
X119489455Y-82064259D01*
X119536861Y-82070500D01*
X119963138Y-82070499D01*
X120010545Y-82064259D01*
X120114579Y-82015747D01*
X120195747Y-81934579D01*
X120195747Y-81934578D01*
X120197674Y-81932652D01*
X120250000Y-81910978D01*
X120302326Y-81932652D01*
X120304253Y-81934579D01*
X120385421Y-82015747D01*
X120489455Y-82064259D01*
X120536861Y-82070500D01*
X120963138Y-82070499D01*
X121010545Y-82064259D01*
X121114579Y-82015747D01*
X121195747Y-81934579D01*
X121195747Y-81934578D01*
X121197674Y-81932652D01*
X121250000Y-81910978D01*
X121302326Y-81932652D01*
X121304253Y-81934579D01*
X121385421Y-82015747D01*
X121489455Y-82064259D01*
X121536861Y-82070500D01*
X121963138Y-82070499D01*
X122010545Y-82064259D01*
X122114579Y-82015747D01*
X122195747Y-81934579D01*
X122195747Y-81934578D01*
X122197674Y-81932652D01*
X122250000Y-81910978D01*
X122302326Y-81932652D01*
X122304253Y-81934579D01*
X122385421Y-82015747D01*
X122489455Y-82064259D01*
X122536861Y-82070500D01*
X122963138Y-82070499D01*
X123010545Y-82064259D01*
X123114579Y-82015747D01*
X123195747Y-81934579D01*
X123244259Y-81830545D01*
X123250500Y-81783139D01*
X123250499Y-80256862D01*
X123244259Y-80209455D01*
X123195747Y-80105421D01*
X123114579Y-80024253D01*
X123010545Y-79975741D01*
X123010543Y-79975740D01*
X122975619Y-79971142D01*
X122963139Y-79969500D01*
X122963137Y-79969500D01*
X122536862Y-79969500D01*
X122489456Y-79975740D01*
X122489454Y-79975741D01*
X122385420Y-80024253D01*
X122302326Y-80107348D01*
X122250000Y-80129022D01*
X122197674Y-80107348D01*
X122114579Y-80024253D01*
X122010545Y-79975741D01*
X122010543Y-79975740D01*
X121975619Y-79971142D01*
X121963139Y-79969500D01*
X121963137Y-79969500D01*
X121536862Y-79969500D01*
X121489456Y-79975740D01*
X121489454Y-79975741D01*
X121385420Y-80024253D01*
X121302326Y-80107348D01*
X121250000Y-80129022D01*
X121197674Y-80107348D01*
X121114579Y-80024253D01*
X121010545Y-79975741D01*
X121010543Y-79975740D01*
X120975619Y-79971142D01*
X120963139Y-79969500D01*
X120963137Y-79969500D01*
X120536862Y-79969500D01*
X120489456Y-79975740D01*
X120489454Y-79975741D01*
X120385420Y-80024253D01*
X120302326Y-80107348D01*
X120250000Y-80129022D01*
X120197674Y-80107348D01*
X120114579Y-80024253D01*
X120010545Y-79975741D01*
X120010543Y-79975740D01*
X119975619Y-79971142D01*
X119963139Y-79969500D01*
X119963137Y-79969500D01*
X119536862Y-79969500D01*
X119489456Y-79975740D01*
X119489454Y-79975741D01*
X119385420Y-80024253D01*
X119304253Y-80105420D01*
X119255740Y-80209456D01*
X119250321Y-80250621D01*
X119250000Y-80253067D01*
X119249500Y-80256862D01*
X110250500Y-80256862D01*
X110250500Y-73824843D01*
X110251132Y-73815191D01*
X110252620Y-73803897D01*
X110257618Y-73785247D01*
X110260102Y-73779250D01*
X110269762Y-73762519D01*
X110276871Y-73753255D01*
X110283231Y-73746004D01*
X110331182Y-73698058D01*
X110331182Y-73698056D01*
X110334975Y-73694265D01*
X110335013Y-73694220D01*
X111478047Y-72551187D01*
X111478058Y-72551181D01*
X111526191Y-72503043D01*
X111533443Y-72496683D01*
X111542501Y-72489732D01*
X111559223Y-72480075D01*
X111565238Y-72477584D01*
X111583887Y-72472586D01*
X111594926Y-72471132D01*
X111604576Y-72470500D01*
X120332736Y-72470500D01*
X120385062Y-72492174D01*
X120406736Y-72544500D01*
X120398670Y-72578095D01*
X120344354Y-72684695D01*
X120344353Y-72684696D01*
X120329500Y-72778480D01*
X120329500Y-72835500D01*
X120307826Y-72887826D01*
X120255500Y-72909500D01*
X119953744Y-72909500D01*
X119916744Y-72899586D01*
X119813887Y-72840201D01*
X119813882Y-72840199D01*
X119699311Y-72809500D01*
X119699309Y-72809500D01*
X119580691Y-72809500D01*
X119580689Y-72809500D01*
X119466117Y-72840199D01*
X119466112Y-72840201D01*
X119363390Y-72899508D01*
X119279508Y-72983390D01*
X119220201Y-73086112D01*
X119220199Y-73086117D01*
X119189500Y-73200688D01*
X119189500Y-73319311D01*
X119220199Y-73433882D01*
X119220201Y-73433887D01*
X119279508Y-73536609D01*
X119279509Y-73536610D01*
X119279511Y-73536613D01*
X119363387Y-73620489D01*
X119363389Y-73620490D01*
X119363390Y-73620491D01*
X119466112Y-73679798D01*
X119466114Y-73679799D01*
X119466115Y-73679799D01*
X119466117Y-73679800D01*
X119523402Y-73695149D01*
X119580688Y-73710499D01*
X119580689Y-73710500D01*
X119580691Y-73710500D01*
X119699311Y-73710500D01*
X119699311Y-73710499D01*
X119813886Y-73679799D01*
X119855045Y-73656035D01*
X119916744Y-73620414D01*
X119953744Y-73610500D01*
X120255501Y-73610500D01*
X120307827Y-73632174D01*
X120329501Y-73684500D01*
X120329501Y-73741519D01*
X120344353Y-73835304D01*
X120344354Y-73835306D01*
X120375990Y-73897393D01*
X120401950Y-73948342D01*
X120491658Y-74038050D01*
X120604696Y-74095646D01*
X120698481Y-74110500D01*
X121461518Y-74110499D01*
X121461519Y-74110499D01*
X121555304Y-74095646D01*
X121555306Y-74095645D01*
X121557419Y-74094568D01*
X121668342Y-74038050D01*
X121758050Y-73948342D01*
X121815646Y-73835304D01*
X121830500Y-73741519D01*
X121830499Y-72778482D01*
X121815646Y-72684696D01*
X121815646Y-72684695D01*
X121815645Y-72684694D01*
X121761330Y-72578096D01*
X121756886Y-72521633D01*
X121793668Y-72478566D01*
X121827264Y-72470500D01*
X122332736Y-72470500D01*
X122385062Y-72492174D01*
X122406736Y-72544500D01*
X122398670Y-72578095D01*
X122344354Y-72684695D01*
X122344353Y-72684696D01*
X122329500Y-72778480D01*
X122329500Y-73741519D01*
X122344353Y-73835304D01*
X122344354Y-73835306D01*
X122375990Y-73897393D01*
X122401950Y-73948342D01*
X122491658Y-74038050D01*
X122604696Y-74095646D01*
X122698481Y-74110500D01*
X123461518Y-74110499D01*
X123461519Y-74110499D01*
X123555304Y-74095646D01*
X123555306Y-74095645D01*
X123557419Y-74094568D01*
X123668342Y-74038050D01*
X123758050Y-73948342D01*
X123815646Y-73835304D01*
X123830500Y-73741519D01*
X123830500Y-73684500D01*
X123852174Y-73632174D01*
X123904500Y-73610500D01*
X124196256Y-73610500D01*
X124233256Y-73620414D01*
X124336112Y-73679798D01*
X124336114Y-73679799D01*
X124336115Y-73679799D01*
X124336117Y-73679800D01*
X124393402Y-73695149D01*
X124450688Y-73710499D01*
X124450689Y-73710500D01*
X124450691Y-73710500D01*
X124569311Y-73710500D01*
X124569311Y-73710499D01*
X124683886Y-73679799D01*
X124786613Y-73620489D01*
X124870489Y-73536613D01*
X124929799Y-73433886D01*
X124960499Y-73319311D01*
X124960500Y-73319311D01*
X124960500Y-73200689D01*
X124960499Y-73200688D01*
X124929800Y-73086117D01*
X124929798Y-73086112D01*
X124870491Y-72983390D01*
X124870490Y-72983389D01*
X124870489Y-72983387D01*
X124786613Y-72899511D01*
X124786610Y-72899509D01*
X124786609Y-72899508D01*
X124683887Y-72840201D01*
X124683882Y-72840199D01*
X124569311Y-72809500D01*
X124569309Y-72809500D01*
X124450691Y-72809500D01*
X124450689Y-72809500D01*
X124336117Y-72840199D01*
X124336112Y-72840201D01*
X124233256Y-72899586D01*
X124196256Y-72909500D01*
X123904499Y-72909500D01*
X123852173Y-72887826D01*
X123830499Y-72835500D01*
X123830499Y-72778480D01*
X123815646Y-72684695D01*
X123815645Y-72684694D01*
X123757045Y-72569686D01*
X123752601Y-72513223D01*
X123789383Y-72470156D01*
X123803816Y-72464614D01*
X123934578Y-72429577D01*
X123984697Y-72400639D01*
X124071509Y-72350520D01*
X124183313Y-72238716D01*
X124183314Y-72238713D01*
X126971986Y-69450041D01*
X126987309Y-69438285D01*
X126995923Y-69433313D01*
X127107727Y-69321509D01*
X127107728Y-69321507D01*
X127450520Y-68978716D01*
X127529577Y-68841784D01*
X127570500Y-68689059D01*
X127570501Y-68689059D01*
X127570501Y-68526413D01*
X127570500Y-68526395D01*
X127570500Y-54832230D01*
X127590503Y-54783937D01*
X127589482Y-54783100D01*
X127591784Y-54780293D01*
X127591789Y-54780289D01*
X127679394Y-54649179D01*
X127739737Y-54503497D01*
X127770500Y-54348842D01*
X127770500Y-54191158D01*
X127739737Y-54036503D01*
X127736354Y-54028335D01*
X127679396Y-53890825D01*
X127679395Y-53890823D01*
X127679394Y-53890821D01*
X127591789Y-53759711D01*
X127480289Y-53648211D01*
X127349179Y-53560606D01*
X127349175Y-53560604D01*
X127349173Y-53560603D01*
X127349174Y-53560603D01*
X127203501Y-53500264D01*
X127203491Y-53500261D01*
X127099925Y-53479661D01*
X127048842Y-53469500D01*
X126891158Y-53469500D01*
X126861844Y-53475331D01*
X126736508Y-53500261D01*
X126736498Y-53500264D01*
X126590825Y-53560603D01*
X126459711Y-53648210D01*
X126459710Y-53648212D01*
X126348212Y-53759710D01*
X126348210Y-53759711D01*
X126260603Y-53890825D01*
X126200264Y-54036498D01*
X126200261Y-54036508D01*
X126177727Y-54149798D01*
X126169500Y-54191158D01*
X126169500Y-54348842D01*
X126177453Y-54388824D01*
X126200261Y-54503491D01*
X126200264Y-54503501D01*
X126260603Y-54649174D01*
X126260605Y-54649177D01*
X126260606Y-54649179D01*
X126296658Y-54703134D01*
X126348210Y-54780288D01*
X126350518Y-54783100D01*
X126349496Y-54783937D01*
X126369500Y-54832230D01*
X126369500Y-68330613D01*
X126347826Y-68382938D01*
X126275224Y-68455539D01*
X126259903Y-68467296D01*
X126251283Y-68472273D01*
X123475732Y-71247826D01*
X123423406Y-71269500D01*
X111677391Y-71269500D01*
X111672838Y-71269499D01*
X111672819Y-71269495D01*
X111630584Y-71269497D01*
X111630500Y-71269463D01*
X111497555Y-71269471D01*
X111295379Y-71301506D01*
X111295374Y-71301507D01*
X111295373Y-71301508D01*
X111228768Y-71323153D01*
X111100688Y-71364778D01*
X111100681Y-71364781D01*
X110918308Y-71457719D01*
X110752703Y-71578054D01*
X110680338Y-71650426D01*
X110680336Y-71650429D01*
X109371282Y-72959482D01*
X109370966Y-72959842D01*
X109358083Y-72972724D01*
X109237751Y-73138325D01*
X109144815Y-73320694D01*
X109144812Y-73320701D01*
X109081543Y-73515382D01*
X109081541Y-73515387D01*
X109049507Y-73717556D01*
X109049507Y-73717557D01*
X109049506Y-73736309D01*
X109049506Y-73740868D01*
X109049500Y-73740892D01*
X109049500Y-73815183D01*
X109049500Y-73819910D01*
X109049495Y-73897312D01*
X109049500Y-73897393D01*
X109049500Y-104457594D01*
X109027826Y-104509920D01*
X108987076Y-104530683D01*
X108606085Y-104591026D01*
X108606059Y-104591031D01*
X108185807Y-104691925D01*
X108185779Y-104691933D01*
X107774733Y-104825490D01*
X107774693Y-104825505D01*
X107375391Y-104990900D01*
X107375370Y-104990910D01*
X106990276Y-105187126D01*
X106990255Y-105187138D01*
X106621742Y-105412964D01*
X106621726Y-105412974D01*
X106272047Y-105667029D01*
X105943381Y-105947738D01*
X105637738Y-106253381D01*
X105357029Y-106582047D01*
X105102974Y-106931726D01*
X105102964Y-106931742D01*
X104877138Y-107300255D01*
X104877126Y-107300276D01*
X104680910Y-107685370D01*
X104680900Y-107685391D01*
X104515505Y-108084693D01*
X104515490Y-108084733D01*
X104381933Y-108495779D01*
X104381925Y-108495807D01*
X104281031Y-108916059D01*
X104281026Y-108916084D01*
X104213411Y-109342989D01*
X104213411Y-109342992D01*
X104179500Y-109773885D01*
X98689266Y-109773885D01*
X98689228Y-108495807D01*
X98689180Y-106876973D01*
X98689180Y-106876971D01*
X98689181Y-106723546D01*
X98656199Y-106409727D01*
X98590594Y-106101074D01*
X98493086Y-105800970D01*
X98493079Y-105800954D01*
X98364747Y-105512712D01*
X98364744Y-105512707D01*
X98364742Y-105512702D01*
X98206968Y-105239430D01*
X98021494Y-104984146D01*
X97810352Y-104749648D01*
X97575854Y-104538506D01*
X97575851Y-104538503D01*
X97575849Y-104538502D01*
X97320572Y-104353033D01*
X97320567Y-104353030D01*
X97047303Y-104195261D01*
X97047287Y-104195252D01*
X96759045Y-104066920D01*
X96759032Y-104066915D01*
X96759030Y-104066914D01*
X96543204Y-103996789D01*
X96458927Y-103969406D01*
X96150279Y-103903802D01*
X96150276Y-103903801D01*
X96150273Y-103903801D01*
X95836454Y-103870819D01*
X95836449Y-103870819D01*
X95678680Y-103870820D01*
X93480626Y-103870820D01*
X93476754Y-103870719D01*
X93455177Y-103869588D01*
X93170061Y-103854643D01*
X93162359Y-103853833D01*
X92860956Y-103806095D01*
X92853379Y-103804484D01*
X92558625Y-103725503D01*
X92551259Y-103723110D01*
X92266364Y-103613748D01*
X92259287Y-103610597D01*
X91987391Y-103472058D01*
X91980684Y-103468186D01*
X91724755Y-103301983D01*
X91718488Y-103297430D01*
X91481332Y-103105384D01*
X91475576Y-103100201D01*
X91259798Y-102884423D01*
X91254615Y-102878667D01*
X91062569Y-102641511D01*
X91058016Y-102635244D01*
X90891813Y-102379315D01*
X90887941Y-102372608D01*
X90749402Y-102100712D01*
X90746251Y-102093635D01*
X90636889Y-101808740D01*
X90634496Y-101801374D01*
X90555511Y-101506605D01*
X90553907Y-101499058D01*
X90506165Y-101197638D01*
X90505356Y-101189937D01*
X90489282Y-100883265D01*
X90489181Y-100879392D01*
X90489181Y-89658481D01*
X94589500Y-89658481D01*
X94589500Y-92621518D01*
X94604353Y-92715303D01*
X94637420Y-92780199D01*
X94661950Y-92828342D01*
X94751658Y-92918050D01*
X94789831Y-92937500D01*
X94864696Y-92975646D01*
X94958481Y-92990500D01*
X94958482Y-92990500D01*
X96021519Y-92990500D01*
X96115303Y-92975646D01*
X96122502Y-92971978D01*
X96228342Y-92918050D01*
X96318050Y-92828342D01*
X96375646Y-92715303D01*
X96390500Y-92621518D01*
X96390500Y-89658482D01*
X96383732Y-89615747D01*
X96375646Y-89564696D01*
X96345091Y-89504729D01*
X96318050Y-89451658D01*
X96228342Y-89361950D01*
X96115303Y-89304353D01*
X96021519Y-89289500D01*
X96021518Y-89289500D01*
X94958482Y-89289500D01*
X94958481Y-89289500D01*
X94864696Y-89304353D01*
X94751657Y-89361950D01*
X94661950Y-89451657D01*
X94604353Y-89564696D01*
X94589500Y-89658481D01*
X90489181Y-89658481D01*
X90489181Y-63555981D01*
X92590000Y-63555981D01*
X92590000Y-63684018D01*
X92614977Y-63809591D01*
X92614979Y-63809598D01*
X92663975Y-63927885D01*
X92686407Y-63961457D01*
X92990000Y-63657865D01*
X92990000Y-63669728D01*
X93028060Y-63761614D01*
X93098386Y-63831940D01*
X93190272Y-63870000D01*
X93202132Y-63870000D01*
X92898540Y-64173590D01*
X92898540Y-64173591D01*
X92932112Y-64196023D01*
X93050401Y-64245020D01*
X93050408Y-64245022D01*
X93175982Y-64270000D01*
X93304018Y-64270000D01*
X93429591Y-64245022D01*
X93429598Y-64245020D01*
X93547888Y-64196022D01*
X93581459Y-64173591D01*
X93277868Y-63870000D01*
X93289728Y-63870000D01*
X93381614Y-63831940D01*
X93451940Y-63761614D01*
X93490000Y-63669728D01*
X93490000Y-63657868D01*
X93793591Y-63961459D01*
X93816022Y-63927888D01*
X93865020Y-63809598D01*
X93865022Y-63809591D01*
X93890000Y-63684018D01*
X93890000Y-63555981D01*
X93865022Y-63430408D01*
X93865020Y-63430401D01*
X93816023Y-63312112D01*
X93793590Y-63278540D01*
X93490000Y-63582130D01*
X93490000Y-63570272D01*
X93451940Y-63478386D01*
X93381614Y-63408060D01*
X93289728Y-63370000D01*
X93277866Y-63370000D01*
X93581458Y-63066408D01*
X93547885Y-63043975D01*
X93429598Y-62994979D01*
X93429591Y-62994977D01*
X93304018Y-62970000D01*
X93175982Y-62970000D01*
X93050408Y-62994977D01*
X93050401Y-62994979D01*
X92932106Y-63043979D01*
X92898540Y-63066406D01*
X92898540Y-63066407D01*
X93202132Y-63370000D01*
X93190272Y-63370000D01*
X93098386Y-63408060D01*
X93028060Y-63478386D01*
X92990000Y-63570272D01*
X92990000Y-63582132D01*
X92686407Y-63278540D01*
X92686406Y-63278540D01*
X92663979Y-63312106D01*
X92614979Y-63430401D01*
X92614977Y-63430408D01*
X92590000Y-63555981D01*
X90489181Y-63555981D01*
X90489181Y-61045931D01*
X92589500Y-61045931D01*
X92589500Y-61174069D01*
X92596586Y-61209696D01*
X92614497Y-61299739D01*
X92614498Y-61299742D01*
X92614499Y-61299744D01*
X92663535Y-61418127D01*
X92734724Y-61524669D01*
X92825331Y-61615276D01*
X92931873Y-61686465D01*
X93050256Y-61735501D01*
X93050258Y-61735501D01*
X93050260Y-61735502D01*
X93092903Y-61743984D01*
X93175931Y-61760500D01*
X93966334Y-61760500D01*
X94018660Y-61782174D01*
X95720826Y-63484340D01*
X95742500Y-63536666D01*
X95742500Y-66866068D01*
X95753141Y-66919562D01*
X95767497Y-66991738D01*
X95767499Y-66991744D01*
X95816535Y-67110127D01*
X95887722Y-67216668D01*
X97167826Y-68496772D01*
X97189500Y-68549098D01*
X97189500Y-98421519D01*
X97204353Y-98515304D01*
X97204354Y-98515306D01*
X97253560Y-98611876D01*
X97261950Y-98628342D01*
X97351658Y-98718050D01*
X97464696Y-98775646D01*
X97558481Y-98790500D01*
X98121518Y-98790499D01*
X98121519Y-98790499D01*
X98215304Y-98775646D01*
X98215306Y-98775645D01*
X98217419Y-98774568D01*
X98328342Y-98718050D01*
X98418050Y-98628342D01*
X98475646Y-98515304D01*
X98490500Y-98421519D01*
X98490500Y-98421482D01*
X99190001Y-98421482D01*
X99204834Y-98515148D01*
X99204835Y-98515149D01*
X99262360Y-98628046D01*
X99351953Y-98717639D01*
X99464850Y-98775164D01*
X99558518Y-98789999D01*
X99690000Y-98789999D01*
X99990000Y-98789999D01*
X100121481Y-98789999D01*
X100215148Y-98775165D01*
X100215149Y-98775164D01*
X100328046Y-98717639D01*
X100417639Y-98628046D01*
X100475164Y-98515149D01*
X100475164Y-98515148D01*
X100490000Y-98421481D01*
X100490000Y-97040000D01*
X99990000Y-97040000D01*
X99990000Y-98789999D01*
X99690000Y-98789999D01*
X99690000Y-97040000D01*
X99190001Y-97040000D01*
X99190001Y-98421482D01*
X98490500Y-98421482D01*
X98490500Y-96891170D01*
X98490500Y-95358518D01*
X99190000Y-95358518D01*
X99190000Y-96740000D01*
X99690000Y-96740000D01*
X99990000Y-96740000D01*
X100489999Y-96740000D01*
X100489999Y-95358517D01*
X100475165Y-95264851D01*
X100475164Y-95264850D01*
X100417639Y-95151953D01*
X100328046Y-95062360D01*
X100215149Y-95004835D01*
X100121482Y-94990000D01*
X99990000Y-94990000D01*
X99990000Y-96740000D01*
X99690000Y-96740000D01*
X99690000Y-94990000D01*
X99558518Y-94990000D01*
X99558517Y-94990001D01*
X99464851Y-95004834D01*
X99464850Y-95004835D01*
X99351953Y-95062360D01*
X99262360Y-95151953D01*
X99204835Y-95264850D01*
X99204835Y-95264851D01*
X99190000Y-95358518D01*
X98490500Y-95358518D01*
X98490500Y-89658481D01*
X101289500Y-89658481D01*
X101289500Y-92621518D01*
X101304353Y-92715303D01*
X101337420Y-92780199D01*
X101361950Y-92828342D01*
X101451658Y-92918050D01*
X101489831Y-92937500D01*
X101564696Y-92975646D01*
X101658481Y-92990500D01*
X101658482Y-92990500D01*
X102721519Y-92990500D01*
X102815303Y-92975646D01*
X102822502Y-92971978D01*
X102928342Y-92918050D01*
X103018050Y-92828342D01*
X103075646Y-92715303D01*
X103090500Y-92621518D01*
X103090500Y-89658482D01*
X103083732Y-89615747D01*
X103075646Y-89564696D01*
X103045091Y-89504729D01*
X103018050Y-89451658D01*
X102928342Y-89361950D01*
X102815303Y-89304353D01*
X102721519Y-89289500D01*
X102721518Y-89289500D01*
X101658482Y-89289500D01*
X101658481Y-89289500D01*
X101564696Y-89304353D01*
X101451657Y-89361950D01*
X101361950Y-89451657D01*
X101304353Y-89564696D01*
X101289500Y-89658481D01*
X98490500Y-89658481D01*
X98490500Y-69880688D01*
X122439500Y-69880688D01*
X122439500Y-69999311D01*
X122470199Y-70113882D01*
X122470201Y-70113887D01*
X122529508Y-70216609D01*
X122529509Y-70216610D01*
X122529511Y-70216613D01*
X122613387Y-70300489D01*
X122716114Y-70359799D01*
X122716115Y-70359799D01*
X122716117Y-70359800D01*
X122773402Y-70375149D01*
X122830688Y-70390499D01*
X122830689Y-70390500D01*
X122830691Y-70390500D01*
X122949311Y-70390500D01*
X122949311Y-70390499D01*
X123063886Y-70359799D01*
X123166613Y-70300489D01*
X123250489Y-70216613D01*
X123309799Y-70113886D01*
X123340499Y-69999311D01*
X123340500Y-69999311D01*
X123340500Y-69880689D01*
X123340499Y-69880688D01*
X123309800Y-69766117D01*
X123309798Y-69766112D01*
X123250491Y-69663390D01*
X123250490Y-69663389D01*
X123250489Y-69663387D01*
X123166613Y-69579511D01*
X123166610Y-69579509D01*
X123166609Y-69579508D01*
X123063887Y-69520201D01*
X123063882Y-69520199D01*
X122949311Y-69489500D01*
X122949309Y-69489500D01*
X122830691Y-69489500D01*
X122830689Y-69489500D01*
X122716117Y-69520199D01*
X122716112Y-69520201D01*
X122613390Y-69579508D01*
X122529508Y-69663390D01*
X122470201Y-69766112D01*
X122470199Y-69766117D01*
X122439500Y-69880688D01*
X98490500Y-69880688D01*
X98490500Y-68184931D01*
X98470301Y-68083387D01*
X98465502Y-68059260D01*
X98465501Y-68059257D01*
X98450648Y-68023398D01*
X98416465Y-67940873D01*
X98412875Y-67935500D01*
X98345277Y-67834331D01*
X97065174Y-66554228D01*
X97043500Y-66501902D01*
X97043500Y-65745931D01*
X98609501Y-65745931D01*
X98609501Y-65749101D01*
X98609501Y-65874068D01*
X98634497Y-65999737D01*
X98634499Y-65999744D01*
X98683535Y-66118127D01*
X98748040Y-66214668D01*
X98754723Y-66224669D01*
X98845331Y-66315277D01*
X98951873Y-66386465D01*
X99070256Y-66435501D01*
X99195931Y-66460499D01*
X99195932Y-66460499D01*
X99324068Y-66460499D01*
X99324069Y-66460499D01*
X99449744Y-66435501D01*
X99568127Y-66386465D01*
X99674669Y-66315277D01*
X99775276Y-66214669D01*
X99846465Y-66108127D01*
X99895501Y-65989744D01*
X99900198Y-65966131D01*
X99920500Y-65864069D01*
X99920500Y-60670688D01*
X101409500Y-60670688D01*
X101409500Y-60789311D01*
X101440199Y-60903882D01*
X101440201Y-60903887D01*
X101499508Y-61006609D01*
X101499509Y-61006610D01*
X101499511Y-61006613D01*
X101583387Y-61090489D01*
X101686114Y-61149799D01*
X101686115Y-61149799D01*
X101686117Y-61149800D01*
X101743402Y-61165149D01*
X101800688Y-61180499D01*
X101800689Y-61180500D01*
X101800691Y-61180500D01*
X101919311Y-61180500D01*
X101919311Y-61180499D01*
X102033886Y-61149799D01*
X102136613Y-61090489D01*
X102220489Y-61006613D01*
X102279799Y-60903886D01*
X102284656Y-60885756D01*
X102303806Y-60852585D01*
X102790219Y-60366174D01*
X102842545Y-60344500D01*
X110953855Y-60344500D01*
X111006181Y-60366174D01*
X111134626Y-60494619D01*
X111156300Y-60546945D01*
X111156300Y-61926658D01*
X111146386Y-61963657D01*
X111137003Y-61979908D01*
X111136999Y-61979917D01*
X111106300Y-62094488D01*
X111106300Y-62213111D01*
X111136999Y-62327682D01*
X111137002Y-62327688D01*
X111166338Y-62378500D01*
X111173730Y-62434653D01*
X111139252Y-62479586D01*
X111102252Y-62489500D01*
X110171248Y-62489500D01*
X110094826Y-62509977D01*
X110094821Y-62509979D01*
X110026300Y-62549540D01*
X107179540Y-65396300D01*
X107139979Y-65464821D01*
X107139977Y-65464826D01*
X107123845Y-65525032D01*
X107104693Y-65558204D01*
X107059511Y-65603386D01*
X107059509Y-65603389D01*
X107000201Y-65706112D01*
X107000199Y-65706117D01*
X106969500Y-65820688D01*
X106969500Y-65939311D01*
X107000199Y-66053882D01*
X107000201Y-66053887D01*
X107059508Y-66156609D01*
X107059509Y-66156610D01*
X107059511Y-66156613D01*
X107143387Y-66240489D01*
X107143389Y-66240490D01*
X107143390Y-66240491D01*
X107246100Y-66299791D01*
X107246114Y-66299799D01*
X107246115Y-66299799D01*
X107246117Y-66299800D01*
X107259870Y-66303485D01*
X107360688Y-66330499D01*
X107360689Y-66330500D01*
X107360691Y-66330500D01*
X107479311Y-66330500D01*
X107479311Y-66330499D01*
X107593886Y-66299799D01*
X107638500Y-66274041D01*
X107694652Y-66266648D01*
X107739586Y-66301127D01*
X107749500Y-66338127D01*
X107749500Y-66539564D01*
X107769977Y-66615985D01*
X107769978Y-66615987D01*
X107769979Y-66615989D01*
X107776284Y-66626909D01*
X107809540Y-66684511D01*
X108107826Y-66982797D01*
X108129500Y-67035123D01*
X108129500Y-67992746D01*
X108107827Y-68045071D01*
X108069508Y-68083390D01*
X108010201Y-68186112D01*
X108010199Y-68186117D01*
X107979500Y-68300688D01*
X107979500Y-68419311D01*
X108010199Y-68533882D01*
X108010201Y-68533887D01*
X108069508Y-68636609D01*
X108069509Y-68636610D01*
X108069511Y-68636613D01*
X108153387Y-68720489D01*
X108153389Y-68720490D01*
X108153390Y-68720491D01*
X108221473Y-68759799D01*
X108256114Y-68779799D01*
X108256115Y-68779799D01*
X108256117Y-68779800D01*
X108296050Y-68790500D01*
X108370688Y-68810499D01*
X108370689Y-68810500D01*
X108370691Y-68810500D01*
X108489311Y-68810500D01*
X108489311Y-68810499D01*
X108603886Y-68779799D01*
X108706613Y-68720489D01*
X108790489Y-68636613D01*
X108849799Y-68533886D01*
X108863522Y-68482673D01*
X108898000Y-68437740D01*
X108954153Y-68430348D01*
X108999086Y-68464826D01*
X109006478Y-68482673D01*
X109020199Y-68533882D01*
X109020201Y-68533887D01*
X109079508Y-68636609D01*
X109079509Y-68636610D01*
X109079511Y-68636613D01*
X109163387Y-68720489D01*
X109163389Y-68720490D01*
X109163390Y-68720491D01*
X109231473Y-68759799D01*
X109266114Y-68779799D01*
X109266115Y-68779799D01*
X109266117Y-68779800D01*
X109306050Y-68790500D01*
X109380688Y-68810499D01*
X109380689Y-68810500D01*
X109380691Y-68810500D01*
X109499311Y-68810500D01*
X109499311Y-68810499D01*
X109613886Y-68779799D01*
X109716613Y-68720489D01*
X109800489Y-68636613D01*
X109859799Y-68533886D01*
X109866201Y-68509992D01*
X109900678Y-68465061D01*
X109956831Y-68457667D01*
X110001764Y-68492145D01*
X110009156Y-68509989D01*
X110010199Y-68513880D01*
X110010201Y-68513887D01*
X110069508Y-68616609D01*
X110069509Y-68616610D01*
X110069511Y-68616613D01*
X110153387Y-68700489D01*
X110153389Y-68700490D01*
X110153390Y-68700491D01*
X110188031Y-68720491D01*
X110256114Y-68759799D01*
X110256115Y-68759799D01*
X110256117Y-68759800D01*
X110313402Y-68775149D01*
X110370688Y-68790499D01*
X110370689Y-68790500D01*
X110370691Y-68790500D01*
X110489311Y-68790500D01*
X110489311Y-68790499D01*
X110603886Y-68759799D01*
X110706613Y-68700489D01*
X110790489Y-68616613D01*
X110849799Y-68513886D01*
X110880499Y-68399311D01*
X110880500Y-68399311D01*
X110880500Y-68280689D01*
X110880499Y-68280688D01*
X110849800Y-68166117D01*
X110849798Y-68166112D01*
X110790491Y-68063390D01*
X110790490Y-68063389D01*
X110790489Y-68063387D01*
X110752173Y-68025071D01*
X110730500Y-67972746D01*
X110730500Y-66821594D01*
X110752174Y-66769268D01*
X110894536Y-66626906D01*
X111040460Y-66480982D01*
X111052321Y-66460438D01*
X111080021Y-66412460D01*
X111100499Y-66336035D01*
X111100500Y-66336035D01*
X111100500Y-65725123D01*
X111122174Y-65672797D01*
X111432797Y-65362174D01*
X111485123Y-65340500D01*
X120061544Y-65340500D01*
X120061544Y-65340499D01*
X120137969Y-65320021D01*
X120206491Y-65280460D01*
X120262440Y-65224511D01*
X122550460Y-62936491D01*
X122558309Y-62922894D01*
X122568071Y-62905989D01*
X122579046Y-62886978D01*
X122590021Y-62867969D01*
X122610499Y-62791544D01*
X122610500Y-62791544D01*
X122610500Y-54869551D01*
X122632174Y-54817225D01*
X122645011Y-54804388D01*
X122690372Y-54785598D01*
X122690076Y-54783347D01*
X122694877Y-54782714D01*
X122694883Y-54782714D01*
X122771310Y-54762235D01*
X122839832Y-54722674D01*
X122895781Y-54666725D01*
X123121306Y-54441200D01*
X123173632Y-54419526D01*
X123227820Y-54419526D01*
X123227820Y-54419525D01*
X123342395Y-54388825D01*
X123445122Y-54329515D01*
X123528998Y-54245639D01*
X123588308Y-54142912D01*
X123619008Y-54028337D01*
X123619009Y-54028337D01*
X123619009Y-53909715D01*
X123619008Y-53909714D01*
X123617446Y-53903886D01*
X123596559Y-53825932D01*
X123588309Y-53795143D01*
X123588307Y-53795138D01*
X123529000Y-53692416D01*
X123528999Y-53692415D01*
X123528998Y-53692413D01*
X123445122Y-53608537D01*
X123445119Y-53608535D01*
X123445118Y-53608534D01*
X123342396Y-53549227D01*
X123342391Y-53549225D01*
X123227820Y-53518526D01*
X123227818Y-53518526D01*
X123109200Y-53518526D01*
X123109198Y-53518526D01*
X122994626Y-53549225D01*
X122994621Y-53549227D01*
X122891894Y-53608538D01*
X122888047Y-53611490D01*
X122886416Y-53609364D01*
X122842009Y-53627732D01*
X122789695Y-53606030D01*
X122782769Y-53596997D01*
X122782453Y-53597241D01*
X122779498Y-53593391D01*
X122779496Y-53593389D01*
X122779495Y-53593387D01*
X122695619Y-53509511D01*
X122695616Y-53509509D01*
X122695615Y-53509508D01*
X122592893Y-53450201D01*
X122592888Y-53450199D01*
X122478317Y-53419500D01*
X122478315Y-53419500D01*
X122359697Y-53419500D01*
X122359695Y-53419500D01*
X122245123Y-53450199D01*
X122245118Y-53450201D01*
X122142396Y-53509508D01*
X122096579Y-53555324D01*
X122044252Y-53576997D01*
X121991929Y-53555323D01*
X121946116Y-53509511D01*
X121946113Y-53509509D01*
X121843390Y-53450201D01*
X121843385Y-53450199D01*
X121728814Y-53419500D01*
X121728812Y-53419500D01*
X121610194Y-53419500D01*
X121610192Y-53419500D01*
X121495620Y-53450199D01*
X121495615Y-53450201D01*
X121392893Y-53509508D01*
X121347076Y-53555324D01*
X121294749Y-53576997D01*
X121242426Y-53555323D01*
X121196613Y-53509511D01*
X121196610Y-53509509D01*
X121093887Y-53450201D01*
X121093882Y-53450199D01*
X120979311Y-53419500D01*
X120979309Y-53419500D01*
X120860691Y-53419500D01*
X120860689Y-53419500D01*
X120746117Y-53450199D01*
X120746112Y-53450201D01*
X120643390Y-53509508D01*
X120597573Y-53555324D01*
X120545246Y-53576997D01*
X120492923Y-53555323D01*
X120447110Y-53509511D01*
X120447107Y-53509509D01*
X120344384Y-53450201D01*
X120344379Y-53450199D01*
X120229808Y-53419500D01*
X120229806Y-53419500D01*
X120111188Y-53419500D01*
X120111186Y-53419500D01*
X119996614Y-53450199D01*
X119996609Y-53450201D01*
X119893887Y-53509508D01*
X119857541Y-53545854D01*
X119805215Y-53567527D01*
X119752891Y-53545853D01*
X119697841Y-53490803D01*
X119697838Y-53490801D01*
X119697837Y-53490800D01*
X119595115Y-53431493D01*
X119595110Y-53431491D01*
X119480539Y-53400792D01*
X119480537Y-53400792D01*
X119361919Y-53400792D01*
X119361917Y-53400792D01*
X119247345Y-53431491D01*
X119247340Y-53431493D01*
X119144618Y-53490800D01*
X119060736Y-53574682D01*
X119001429Y-53677404D01*
X119001427Y-53677409D01*
X118970728Y-53791980D01*
X118970728Y-53910603D01*
X119001427Y-54025174D01*
X119001429Y-54025179D01*
X119060736Y-54127901D01*
X119060737Y-54127902D01*
X119060739Y-54127905D01*
X119144615Y-54211781D01*
X119247342Y-54271091D01*
X119297510Y-54284533D01*
X119330682Y-54303685D01*
X119708457Y-54681460D01*
X119730131Y-54733786D01*
X119730131Y-61694246D01*
X119708457Y-61746572D01*
X118987203Y-62467826D01*
X118934877Y-62489500D01*
X112011348Y-62489500D01*
X111959022Y-62467826D01*
X111937348Y-62415500D01*
X111947262Y-62378500D01*
X111960986Y-62354727D01*
X111976599Y-62327686D01*
X112007299Y-62213111D01*
X112007300Y-62213111D01*
X112007300Y-62094489D01*
X112007299Y-62094488D01*
X111976600Y-61979917D01*
X111976596Y-61979908D01*
X111967214Y-61963657D01*
X111957300Y-61926658D01*
X111957300Y-60659523D01*
X111978974Y-60607197D01*
X112219997Y-60366174D01*
X112272323Y-60344500D01*
X116740326Y-60344500D01*
X116740327Y-60344500D01*
X116842188Y-60317207D01*
X116933513Y-60264480D01*
X117760480Y-59437513D01*
X117813207Y-59346188D01*
X117840500Y-59244327D01*
X117840500Y-59138873D01*
X117840500Y-54929140D01*
X117850414Y-54892140D01*
X117859799Y-54875886D01*
X117890499Y-54761311D01*
X117890500Y-54761311D01*
X117890500Y-54712527D01*
X117912174Y-54660201D01*
X117964500Y-54638527D01*
X118001500Y-54648441D01*
X118046114Y-54674199D01*
X118046115Y-54674199D01*
X118046117Y-54674200D01*
X118073212Y-54681460D01*
X118160688Y-54704899D01*
X118160689Y-54704900D01*
X118160691Y-54704900D01*
X118279311Y-54704900D01*
X118279311Y-54704899D01*
X118393886Y-54674199D01*
X118496613Y-54614889D01*
X118580489Y-54531013D01*
X118639799Y-54428286D01*
X118670499Y-54313711D01*
X118670500Y-54313711D01*
X118670500Y-54195089D01*
X118670499Y-54195088D01*
X118639800Y-54080517D01*
X118639798Y-54080512D01*
X118580491Y-53977790D01*
X118580490Y-53977789D01*
X118580489Y-53977787D01*
X118496613Y-53893911D01*
X118496610Y-53893909D01*
X118496609Y-53893908D01*
X118393887Y-53834601D01*
X118393882Y-53834599D01*
X118279311Y-53803900D01*
X118279309Y-53803900D01*
X118160691Y-53803900D01*
X118160689Y-53803900D01*
X118046117Y-53834599D01*
X118046112Y-53834601D01*
X117943390Y-53893908D01*
X117859508Y-53977790D01*
X117800201Y-54080512D01*
X117800199Y-54080517D01*
X117769500Y-54195088D01*
X117769500Y-54243872D01*
X117747826Y-54296198D01*
X117695500Y-54317872D01*
X117658501Y-54307958D01*
X117613891Y-54282203D01*
X117613882Y-54282199D01*
X117499311Y-54251500D01*
X117499309Y-54251500D01*
X117380691Y-54251500D01*
X117380689Y-54251500D01*
X117266117Y-54282199D01*
X117266112Y-54282201D01*
X117163390Y-54341508D01*
X117079508Y-54425390D01*
X117020201Y-54528112D01*
X117020199Y-54528117D01*
X116989500Y-54642688D01*
X116989500Y-54761311D01*
X117020199Y-54875882D01*
X117020200Y-54875884D01*
X117020201Y-54875886D01*
X117029585Y-54892140D01*
X117039500Y-54929140D01*
X117039500Y-58995055D01*
X117017826Y-59047381D01*
X116543381Y-59521826D01*
X116491055Y-59543500D01*
X112092127Y-59543500D01*
X111203127Y-59543500D01*
X102698727Y-59543500D01*
X102593273Y-59543500D01*
X102542342Y-59557146D01*
X102491411Y-59570793D01*
X102491407Y-59570795D01*
X102400090Y-59623517D01*
X101737415Y-60286190D01*
X101704245Y-60305342D01*
X101686113Y-60310201D01*
X101686112Y-60310201D01*
X101583390Y-60369508D01*
X101499508Y-60453390D01*
X101440201Y-60556112D01*
X101440199Y-60556117D01*
X101409500Y-60670688D01*
X99920500Y-60670688D01*
X99920500Y-58719040D01*
X114023352Y-58719040D01*
X114023352Y-58837663D01*
X114054051Y-58952234D01*
X114054053Y-58952239D01*
X114113360Y-59054961D01*
X114113361Y-59054962D01*
X114113363Y-59054965D01*
X114197239Y-59138841D01*
X114299966Y-59198151D01*
X114299967Y-59198151D01*
X114299969Y-59198152D01*
X114357254Y-59213501D01*
X114414540Y-59228851D01*
X114414541Y-59228852D01*
X114414543Y-59228852D01*
X114533163Y-59228852D01*
X114533163Y-59228851D01*
X114647738Y-59198151D01*
X114750465Y-59138841D01*
X114834341Y-59054965D01*
X114893651Y-58952238D01*
X114924351Y-58837663D01*
X114924352Y-58837663D01*
X114924352Y-58719041D01*
X114924351Y-58719040D01*
X114893652Y-58604469D01*
X114893650Y-58604464D01*
X114834343Y-58501742D01*
X114834342Y-58501741D01*
X114834341Y-58501739D01*
X114750465Y-58417863D01*
X114750462Y-58417861D01*
X114750461Y-58417860D01*
X114647739Y-58358553D01*
X114647734Y-58358551D01*
X114533163Y-58327852D01*
X114533161Y-58327852D01*
X114414543Y-58327852D01*
X114414541Y-58327852D01*
X114299969Y-58358551D01*
X114299964Y-58358553D01*
X114197242Y-58417860D01*
X114113360Y-58501742D01*
X114054053Y-58604464D01*
X114054051Y-58604469D01*
X114023352Y-58719040D01*
X99920500Y-58719040D01*
X99920500Y-54860098D01*
X99942174Y-54807772D01*
X100187772Y-54562174D01*
X100240098Y-54540500D01*
X106534067Y-54540500D01*
X106534069Y-54540500D01*
X106659744Y-54515501D01*
X106778127Y-54466465D01*
X106884669Y-54395276D01*
X106975276Y-54304669D01*
X107046465Y-54198127D01*
X107095501Y-54079744D01*
X107120500Y-53954069D01*
X107120500Y-53825931D01*
X107095501Y-53700256D01*
X107046465Y-53581873D01*
X106975276Y-53475331D01*
X106896771Y-53396826D01*
X106875097Y-53344500D01*
X106896771Y-53292174D01*
X106949097Y-53270500D01*
X108242745Y-53270500D01*
X108295071Y-53292174D01*
X108737826Y-53734929D01*
X108759500Y-53787255D01*
X108759500Y-57516310D01*
X108776539Y-57579898D01*
X108776539Y-57579899D01*
X108776540Y-57579899D01*
X108790202Y-57630888D01*
X108790203Y-57630890D01*
X108849508Y-57733609D01*
X108849509Y-57733610D01*
X108849511Y-57733613D01*
X109486563Y-58370665D01*
X109515047Y-58387110D01*
X109568312Y-58417863D01*
X109589291Y-58429975D01*
X109589292Y-58429975D01*
X109589294Y-58429976D01*
X109646579Y-58445325D01*
X109703865Y-58460675D01*
X109703866Y-58460676D01*
X109703868Y-58460676D01*
X112508533Y-58460676D01*
X112598897Y-58436462D01*
X112598898Y-58436462D01*
X112609574Y-58433601D01*
X112623111Y-58429975D01*
X112725838Y-58370665D01*
X113644490Y-57452013D01*
X113703799Y-57349286D01*
X113708556Y-57331531D01*
X113734500Y-57234709D01*
X113734500Y-57116091D01*
X113734500Y-57116089D01*
X113734499Y-57116088D01*
X113712025Y-57032214D01*
X113712025Y-57032212D01*
X113703800Y-57001517D01*
X113703799Y-57001513D01*
X113644490Y-56898786D01*
X113560614Y-56814910D01*
X113457885Y-56755599D01*
X113427187Y-56747374D01*
X113427186Y-56747374D01*
X113343309Y-56724900D01*
X113224691Y-56724900D01*
X113224689Y-56724900D01*
X113110116Y-56755599D01*
X113007386Y-56814910D01*
X112284295Y-57538002D01*
X112231969Y-57559676D01*
X109980432Y-57559676D01*
X109928106Y-57538002D01*
X109682174Y-57292070D01*
X109660500Y-57239744D01*
X109660500Y-56967970D01*
X109682174Y-56915644D01*
X109734500Y-56893970D01*
X109786826Y-56915644D01*
X109798586Y-56930970D01*
X109850108Y-57020209D01*
X109850109Y-57020210D01*
X109850111Y-57020213D01*
X109933987Y-57104089D01*
X109933989Y-57104090D01*
X109933990Y-57104091D01*
X110036712Y-57163398D01*
X110036714Y-57163399D01*
X110036715Y-57163399D01*
X110036717Y-57163400D01*
X110094002Y-57178749D01*
X110151288Y-57194099D01*
X110151289Y-57194100D01*
X110151291Y-57194100D01*
X110269911Y-57194100D01*
X110269911Y-57194099D01*
X110384486Y-57163399D01*
X110487213Y-57104089D01*
X110571089Y-57020213D01*
X110575052Y-57013348D01*
X110610826Y-56981974D01*
X110622458Y-56977157D01*
X110699957Y-56899658D01*
X110699956Y-56899658D01*
X110953558Y-56646058D01*
X110995500Y-56544800D01*
X110995500Y-56435200D01*
X110995500Y-55660200D01*
X110960578Y-55575892D01*
X110953557Y-55558941D01*
X110472174Y-55077558D01*
X110450500Y-55025232D01*
X110450500Y-52929767D01*
X110472174Y-52877441D01*
X110487441Y-52862174D01*
X110539767Y-52840500D01*
X110629311Y-52840500D01*
X110629311Y-52840499D01*
X110743886Y-52809799D01*
X110846613Y-52750489D01*
X110930489Y-52666613D01*
X110989799Y-52563886D01*
X111020499Y-52449311D01*
X111020500Y-52449311D01*
X111020500Y-52330689D01*
X111020499Y-52330688D01*
X110989800Y-52216117D01*
X110989798Y-52216112D01*
X110930491Y-52113390D01*
X110930490Y-52113389D01*
X110930489Y-52113387D01*
X110846613Y-52029511D01*
X110846610Y-52029509D01*
X110846609Y-52029508D01*
X110743887Y-51970201D01*
X110743882Y-51970199D01*
X110629311Y-51939500D01*
X110629309Y-51939500D01*
X110510691Y-51939500D01*
X110510689Y-51939500D01*
X110396117Y-51970199D01*
X110396112Y-51970201D01*
X110293390Y-52029508D01*
X110209508Y-52113390D01*
X110193586Y-52140969D01*
X110148652Y-52175448D01*
X110092500Y-52168055D01*
X110058021Y-52123121D01*
X110055500Y-52103969D01*
X110055500Y-49655623D01*
X110077174Y-49603297D01*
X110110344Y-49584145D01*
X110163886Y-49569799D01*
X110266613Y-49510489D01*
X110350489Y-49426613D01*
X110409799Y-49323886D01*
X110440499Y-49209311D01*
X110440500Y-49209311D01*
X110440500Y-49090689D01*
X110440499Y-49090688D01*
X110409800Y-48976117D01*
X110409798Y-48976112D01*
X110350491Y-48873390D01*
X110350490Y-48873389D01*
X110350489Y-48873387D01*
X110266613Y-48789511D01*
X110266610Y-48789509D01*
X110266609Y-48789508D01*
X110163887Y-48730201D01*
X110163882Y-48730199D01*
X110049311Y-48699500D01*
X110049309Y-48699500D01*
X109930691Y-48699500D01*
X109930689Y-48699500D01*
X109816117Y-48730199D01*
X109816112Y-48730201D01*
X109713390Y-48789508D01*
X109629508Y-48873390D01*
X109570201Y-48976112D01*
X109570199Y-48976117D01*
X109539500Y-49090688D01*
X109539500Y-49205982D01*
X109533867Y-49234300D01*
X109504500Y-49305198D01*
X109504500Y-53048745D01*
X109482826Y-53101071D01*
X109430500Y-53122745D01*
X109378174Y-53101071D01*
X109086901Y-52809798D01*
X108736614Y-52459511D01*
X108736611Y-52459509D01*
X108736610Y-52459508D01*
X108633891Y-52400203D01*
X108633889Y-52400202D01*
X108633887Y-52400201D01*
X108632585Y-52399852D01*
X108609674Y-52393712D01*
X108609674Y-52393713D01*
X108519309Y-52369500D01*
X108499309Y-52369500D01*
X99880691Y-52369500D01*
X99880689Y-52369500D01*
X99766117Y-52400199D01*
X99766112Y-52400201D01*
X99663390Y-52459508D01*
X99579508Y-52543390D01*
X99520201Y-52646112D01*
X99520199Y-52646117D01*
X99489500Y-52760688D01*
X99489500Y-52879311D01*
X99520199Y-52993882D01*
X99520201Y-52993887D01*
X99579508Y-53096609D01*
X99579509Y-53096610D01*
X99579511Y-53096613D01*
X99663387Y-53180489D01*
X99663389Y-53180490D01*
X99666817Y-53183918D01*
X99665852Y-53184882D01*
X99691576Y-53229439D01*
X99676917Y-53284146D01*
X99646530Y-53307463D01*
X99631873Y-53313534D01*
X99525331Y-53384722D01*
X99525330Y-53384724D01*
X98764724Y-54145330D01*
X98764722Y-54145331D01*
X98729449Y-54198123D01*
X98703133Y-54237509D01*
X98695422Y-54249049D01*
X98693535Y-54251872D01*
X98693535Y-54251873D01*
X98644498Y-54370257D01*
X98644497Y-54370260D01*
X98619500Y-54495932D01*
X98619500Y-65688374D01*
X98618199Y-65701579D01*
X98618260Y-65701866D01*
X98618177Y-65702308D01*
X98609501Y-65745931D01*
X97043500Y-65745931D01*
X97043500Y-63172500D01*
X97018502Y-63046828D01*
X97018501Y-63046825D01*
X97017322Y-63043979D01*
X96969465Y-62928441D01*
X96954463Y-62905989D01*
X96898276Y-62821898D01*
X94681101Y-60604723D01*
X94608351Y-60556114D01*
X94574559Y-60533535D01*
X94532933Y-60516293D01*
X94456176Y-60484499D01*
X94456174Y-60484498D01*
X94456173Y-60484498D01*
X94454110Y-60484088D01*
X94454106Y-60484087D01*
X94412903Y-60475891D01*
X94330501Y-60459500D01*
X93175931Y-60459500D01*
X93144726Y-60465707D01*
X93050260Y-60484497D01*
X93050257Y-60484498D01*
X92931876Y-60533533D01*
X92825331Y-60604723D01*
X92825330Y-60604725D01*
X92734725Y-60695330D01*
X92734723Y-60695331D01*
X92663533Y-60801876D01*
X92614498Y-60920257D01*
X92614497Y-60920260D01*
X92597322Y-61006609D01*
X92589500Y-61045931D01*
X90489181Y-61045931D01*
X90489181Y-53324799D01*
X95364499Y-53324799D01*
X95398267Y-53406320D01*
X95398267Y-53406321D01*
X95406440Y-53426053D01*
X95406442Y-53426056D01*
X95406443Y-53426058D01*
X95627826Y-53647442D01*
X95649500Y-53699767D01*
X95649500Y-53789311D01*
X95680199Y-53903882D01*
X95680201Y-53903887D01*
X95739508Y-54006609D01*
X95739509Y-54006610D01*
X95739511Y-54006613D01*
X95823387Y-54090489D01*
X95823389Y-54090490D01*
X95823390Y-54090491D01*
X95918375Y-54145331D01*
X95926114Y-54149799D01*
X95926115Y-54149799D01*
X95926117Y-54149800D01*
X95983402Y-54165149D01*
X96040688Y-54180499D01*
X96040689Y-54180500D01*
X96040691Y-54180500D01*
X96159311Y-54180500D01*
X96159311Y-54180499D01*
X96273886Y-54149799D01*
X96283499Y-54144248D01*
X96339651Y-54136855D01*
X96384585Y-54171332D01*
X96394500Y-54208334D01*
X96394500Y-56475231D01*
X96372826Y-56527557D01*
X96295727Y-56604655D01*
X96243401Y-56626329D01*
X96218587Y-56621394D01*
X96218571Y-56621456D01*
X96217628Y-56621203D01*
X96215087Y-56620698D01*
X96213886Y-56620200D01*
X96099311Y-56589500D01*
X96099309Y-56589500D01*
X95980691Y-56589500D01*
X95980689Y-56589500D01*
X95866117Y-56620199D01*
X95866112Y-56620201D01*
X95763390Y-56679508D01*
X95679508Y-56763390D01*
X95620201Y-56866112D01*
X95620199Y-56866117D01*
X95589500Y-56980688D01*
X95589500Y-57099311D01*
X95620199Y-57213882D01*
X95620201Y-57213887D01*
X95679508Y-57316609D01*
X95679509Y-57316610D01*
X95679511Y-57316613D01*
X95763387Y-57400489D01*
X95866114Y-57459799D01*
X95866115Y-57459799D01*
X95866117Y-57459800D01*
X95923402Y-57475149D01*
X95980688Y-57490499D01*
X95980689Y-57490500D01*
X95980691Y-57490500D01*
X96099311Y-57490500D01*
X96099311Y-57490499D01*
X96213886Y-57459799D01*
X96316613Y-57400489D01*
X96400489Y-57316613D01*
X96446827Y-57236352D01*
X96458581Y-57221032D01*
X96483557Y-57196058D01*
X96483556Y-57196058D01*
X96903558Y-56776058D01*
X96945500Y-56674800D01*
X96945500Y-56565200D01*
X96945500Y-53350200D01*
X96928932Y-53310201D01*
X96903558Y-53248942D01*
X96332174Y-52677558D01*
X96310500Y-52625232D01*
X96310500Y-47916932D01*
X96596500Y-47916932D01*
X96596500Y-48045067D01*
X96621497Y-48170739D01*
X96621498Y-48170742D01*
X96670503Y-48289051D01*
X96670535Y-48289127D01*
X96716287Y-48357600D01*
X96738804Y-48391300D01*
X96741724Y-48395669D01*
X96832331Y-48486276D01*
X96938873Y-48557465D01*
X97057256Y-48606501D01*
X97057258Y-48606501D01*
X97057260Y-48606502D01*
X97099903Y-48614984D01*
X97182931Y-48631500D01*
X97182933Y-48631500D01*
X98411067Y-48631500D01*
X98411069Y-48631500D01*
X98536744Y-48606501D01*
X98655127Y-48557465D01*
X98761669Y-48486276D01*
X98852276Y-48395669D01*
X98923465Y-48289127D01*
X98972501Y-48170744D01*
X98997500Y-48045069D01*
X98997500Y-47916931D01*
X98972501Y-47791256D01*
X98923465Y-47672873D01*
X98852276Y-47566331D01*
X98761669Y-47475724D01*
X98761169Y-47475390D01*
X98726473Y-47452207D01*
X98655127Y-47404535D01*
X98655124Y-47404533D01*
X98655123Y-47404533D01*
X98536742Y-47355498D01*
X98536739Y-47355497D01*
X98446696Y-47337586D01*
X98411069Y-47330500D01*
X97182931Y-47330500D01*
X97151726Y-47336707D01*
X97057260Y-47355497D01*
X97057257Y-47355498D01*
X96938876Y-47404533D01*
X96832331Y-47475723D01*
X96832330Y-47475725D01*
X96741725Y-47566330D01*
X96741723Y-47566331D01*
X96670533Y-47672876D01*
X96621498Y-47791257D01*
X96621497Y-47791260D01*
X96596500Y-47916932D01*
X96310500Y-47916932D01*
X96310500Y-46474704D01*
X96717500Y-46474704D01*
X96717500Y-46627295D01*
X96756990Y-46774674D01*
X96756992Y-46774679D01*
X96789254Y-46830558D01*
X96833285Y-46906821D01*
X96941179Y-47014715D01*
X97073322Y-47091008D01*
X97073323Y-47091008D01*
X97073325Y-47091009D01*
X97117319Y-47102797D01*
X97220704Y-47130499D01*
X97220705Y-47130500D01*
X97220707Y-47130500D01*
X97373295Y-47130500D01*
X97373295Y-47130499D01*
X97520678Y-47091008D01*
X97652821Y-47014715D01*
X97760715Y-46906821D01*
X97837008Y-46774678D01*
X97876499Y-46627295D01*
X97876500Y-46627295D01*
X97876500Y-46474705D01*
X97876499Y-46474704D01*
X97837009Y-46327325D01*
X97837007Y-46327320D01*
X97760714Y-46195178D01*
X97652821Y-46087285D01*
X97520679Y-46010992D01*
X97520674Y-46010990D01*
X97373295Y-45971500D01*
X97373293Y-45971500D01*
X97220707Y-45971500D01*
X97220705Y-45971500D01*
X97073325Y-46010990D01*
X97073320Y-46010992D01*
X96941178Y-46087285D01*
X96833285Y-46195178D01*
X96756992Y-46327320D01*
X96756990Y-46327325D01*
X96717500Y-46474704D01*
X96310500Y-46474704D01*
X96310500Y-45650435D01*
X101289500Y-45650435D01*
X101289500Y-45729564D01*
X101309977Y-45805985D01*
X101309979Y-45805990D01*
X101332784Y-45845489D01*
X101349540Y-45874511D01*
X101405489Y-45930460D01*
X101474011Y-45970021D01*
X101474012Y-45970021D01*
X101474014Y-45970022D01*
X101505165Y-45978369D01*
X101550435Y-45990499D01*
X101550436Y-45990500D01*
X101550438Y-45990500D01*
X102354877Y-45990500D01*
X102407203Y-46012174D01*
X102527826Y-46132797D01*
X102549500Y-46185123D01*
X102549500Y-48318992D01*
X102541680Y-48337870D01*
X102527826Y-48371317D01*
X102527825Y-48371318D01*
X102492769Y-48406373D01*
X102440443Y-48428046D01*
X102388119Y-48406372D01*
X102375372Y-48393625D01*
X102375369Y-48393623D01*
X102375368Y-48393622D01*
X102272646Y-48334315D01*
X102272641Y-48334313D01*
X102158070Y-48303614D01*
X102158068Y-48303614D01*
X102039450Y-48303614D01*
X102039448Y-48303614D01*
X101924876Y-48334313D01*
X101924871Y-48334315D01*
X101822149Y-48393622D01*
X101738267Y-48477504D01*
X101678960Y-48580226D01*
X101678958Y-48580231D01*
X101648259Y-48694802D01*
X101648259Y-48813425D01*
X101678958Y-48927996D01*
X101678960Y-48928001D01*
X101738267Y-49030723D01*
X101738268Y-49030724D01*
X101738270Y-49030727D01*
X101822146Y-49114603D01*
X101924873Y-49173913D01*
X101924874Y-49173913D01*
X101924876Y-49173914D01*
X101982161Y-49189263D01*
X102039447Y-49204613D01*
X102039448Y-49204614D01*
X102039450Y-49204614D01*
X102158070Y-49204614D01*
X102158070Y-49204613D01*
X102272645Y-49173913D01*
X102375372Y-49114603D01*
X102387853Y-49102121D01*
X102427156Y-49085841D01*
X102440177Y-49080447D01*
X102440178Y-49080447D01*
X102453201Y-49085841D01*
X102492503Y-49102119D01*
X102492504Y-49102120D01*
X102527825Y-49137440D01*
X102549500Y-49189766D01*
X102549500Y-50352746D01*
X102527827Y-50405071D01*
X102499508Y-50433390D01*
X102440201Y-50536112D01*
X102440199Y-50536117D01*
X102409500Y-50650688D01*
X102409500Y-50769311D01*
X102440199Y-50883882D01*
X102440201Y-50883887D01*
X102499508Y-50986609D01*
X102499509Y-50986610D01*
X102499511Y-50986613D01*
X102583387Y-51070489D01*
X102686114Y-51129799D01*
X102686115Y-51129799D01*
X102686117Y-51129800D01*
X102743402Y-51145149D01*
X102800688Y-51160499D01*
X102800689Y-51160500D01*
X102800691Y-51160500D01*
X102919311Y-51160500D01*
X102919311Y-51160499D01*
X103033886Y-51129799D01*
X103136613Y-51070489D01*
X103220489Y-50986613D01*
X103279799Y-50883886D01*
X103310499Y-50769311D01*
X103310500Y-50769311D01*
X103310500Y-50650689D01*
X103310499Y-50650688D01*
X103279800Y-50536117D01*
X103279798Y-50536112D01*
X103220490Y-50433389D01*
X103220488Y-50433386D01*
X103172174Y-50385071D01*
X103150500Y-50332746D01*
X103150500Y-48403888D01*
X107245500Y-48403888D01*
X107245500Y-48522511D01*
X107276199Y-48637082D01*
X107276201Y-48637087D01*
X107335508Y-48739809D01*
X107335509Y-48739810D01*
X107335511Y-48739813D01*
X107419387Y-48823689D01*
X107419389Y-48823690D01*
X107419390Y-48823691D01*
X107505471Y-48873390D01*
X107522114Y-48882999D01*
X107522115Y-48882999D01*
X107522117Y-48883000D01*
X107576232Y-48897500D01*
X107636688Y-48913699D01*
X107636689Y-48913700D01*
X107636691Y-48913700D01*
X107755311Y-48913700D01*
X107755311Y-48913699D01*
X107869886Y-48882999D01*
X107972613Y-48823689D01*
X108056489Y-48739813D01*
X108115799Y-48637086D01*
X108146499Y-48522511D01*
X108146500Y-48522511D01*
X108146500Y-48403889D01*
X108146499Y-48403888D01*
X108144296Y-48395668D01*
X108115799Y-48289314D01*
X108115647Y-48289051D01*
X108056491Y-48186590D01*
X108056490Y-48186589D01*
X108056489Y-48186587D01*
X107972613Y-48102711D01*
X107972610Y-48102709D01*
X107972609Y-48102708D01*
X107869887Y-48043401D01*
X107869882Y-48043399D01*
X107755311Y-48012700D01*
X107755309Y-48012700D01*
X107636691Y-48012700D01*
X107636689Y-48012700D01*
X107522117Y-48043399D01*
X107522112Y-48043401D01*
X107419390Y-48102708D01*
X107335508Y-48186590D01*
X107276201Y-48289312D01*
X107276199Y-48289317D01*
X107245500Y-48403888D01*
X103150500Y-48403888D01*
X103150500Y-47155123D01*
X103172174Y-47102797D01*
X103292797Y-46982174D01*
X103345123Y-46960500D01*
X104722843Y-46960500D01*
X104775169Y-46982174D01*
X104786929Y-46997500D01*
X104809511Y-47036613D01*
X104893387Y-47120489D01*
X104893389Y-47120490D01*
X104893390Y-47120491D01*
X104910726Y-47130500D01*
X104996114Y-47179799D01*
X104996115Y-47179799D01*
X104996117Y-47179800D01*
X105021122Y-47186500D01*
X105110688Y-47210499D01*
X105110689Y-47210500D01*
X105110691Y-47210500D01*
X105229311Y-47210500D01*
X105229311Y-47210499D01*
X105343886Y-47179799D01*
X105446613Y-47120489D01*
X105530489Y-47036613D01*
X105589799Y-46933886D01*
X105620499Y-46819311D01*
X105620500Y-46819311D01*
X105620500Y-46700689D01*
X105620499Y-46700688D01*
X105589800Y-46586117D01*
X105589798Y-46586112D01*
X105530491Y-46483390D01*
X105530490Y-46483389D01*
X105530489Y-46483387D01*
X105446613Y-46399511D01*
X105446610Y-46399509D01*
X105446609Y-46399508D01*
X105343887Y-46340201D01*
X105343882Y-46340199D01*
X105229311Y-46309500D01*
X105229309Y-46309500D01*
X105110691Y-46309500D01*
X105110689Y-46309500D01*
X104996117Y-46340199D01*
X104996109Y-46340202D01*
X104979860Y-46349585D01*
X104942859Y-46359500D01*
X103285123Y-46359500D01*
X103232797Y-46337826D01*
X103172174Y-46277203D01*
X103150500Y-46224877D01*
X103150500Y-45990436D01*
X103147267Y-45978374D01*
X103147267Y-45978370D01*
X103130023Y-45914016D01*
X103130022Y-45914012D01*
X103090460Y-45845489D01*
X102694511Y-45449540D01*
X102694508Y-45449538D01*
X102694504Y-45449535D01*
X102685509Y-45444342D01*
X102625987Y-45409978D01*
X102625988Y-45409978D01*
X102549564Y-45389500D01*
X102549562Y-45389500D01*
X102459562Y-45389500D01*
X101550438Y-45389500D01*
X101550436Y-45389500D01*
X101474014Y-45409977D01*
X101474009Y-45409979D01*
X101405488Y-45449540D01*
X101349540Y-45505488D01*
X101309979Y-45574009D01*
X101309977Y-45574014D01*
X101289500Y-45650435D01*
X96310500Y-45650435D01*
X96310500Y-43530688D01*
X103759500Y-43530688D01*
X103759500Y-43649311D01*
X103790199Y-43763882D01*
X103790201Y-43763887D01*
X103849508Y-43866609D01*
X103849509Y-43866610D01*
X103849511Y-43866613D01*
X103933387Y-43950489D01*
X103933389Y-43950490D01*
X103933390Y-43950491D01*
X104033045Y-44008027D01*
X104036114Y-44009799D01*
X104036115Y-44009799D01*
X104036117Y-44009800D01*
X104081969Y-44022086D01*
X104150688Y-44040499D01*
X104150689Y-44040500D01*
X104150691Y-44040500D01*
X104269311Y-44040500D01*
X104269311Y-44040499D01*
X104383886Y-44009799D01*
X104486613Y-43950489D01*
X104570489Y-43866613D01*
X104570489Y-43866612D01*
X104573919Y-43863183D01*
X104575842Y-43865106D01*
X104617349Y-43841134D01*
X104627019Y-43840500D01*
X105355587Y-43840500D01*
X105407913Y-43862174D01*
X105567826Y-44022086D01*
X105589500Y-44074412D01*
X105589500Y-44782981D01*
X105567826Y-44835307D01*
X105565917Y-44836980D01*
X105479508Y-44923390D01*
X105420201Y-45026112D01*
X105420199Y-45026117D01*
X105389500Y-45140688D01*
X105389500Y-45259311D01*
X105420199Y-45373882D01*
X105420201Y-45373887D01*
X105479508Y-45476609D01*
X105479509Y-45476610D01*
X105479511Y-45476613D01*
X105563387Y-45560489D01*
X105563389Y-45560490D01*
X105563390Y-45560491D01*
X105638644Y-45603939D01*
X105666114Y-45619799D01*
X105666115Y-45619799D01*
X105666117Y-45619800D01*
X105723402Y-45635149D01*
X105780688Y-45650499D01*
X105780689Y-45650500D01*
X105780691Y-45650500D01*
X105899311Y-45650500D01*
X105899311Y-45650499D01*
X106013886Y-45619799D01*
X106116613Y-45560489D01*
X106200489Y-45476613D01*
X106259799Y-45373886D01*
X106290499Y-45259311D01*
X106290500Y-45259311D01*
X106290500Y-45140689D01*
X106290499Y-45140688D01*
X106259800Y-45026117D01*
X106259798Y-45026112D01*
X106200491Y-44923390D01*
X106200490Y-44923389D01*
X106200489Y-44923387D01*
X106116613Y-44839511D01*
X106116612Y-44839510D01*
X106113184Y-44836082D01*
X106115105Y-44834160D01*
X106091133Y-44792640D01*
X106090500Y-44782981D01*
X106090500Y-43998448D01*
X106090501Y-43998439D01*
X106090501Y-43890171D01*
X106060908Y-43818731D01*
X106052364Y-43798103D01*
X105981897Y-43727636D01*
X105977682Y-43723421D01*
X105977675Y-43723415D01*
X105631897Y-43377636D01*
X105631894Y-43377634D01*
X105539828Y-43339500D01*
X104627019Y-43339500D01*
X104574693Y-43317826D01*
X104573019Y-43315917D01*
X104559210Y-43302108D01*
X104486613Y-43229511D01*
X104486610Y-43229509D01*
X104486609Y-43229508D01*
X104383887Y-43170201D01*
X104383882Y-43170199D01*
X104269311Y-43139500D01*
X104269309Y-43139500D01*
X104150691Y-43139500D01*
X104150689Y-43139500D01*
X104036117Y-43170199D01*
X104036112Y-43170201D01*
X103933390Y-43229508D01*
X103849508Y-43313390D01*
X103790201Y-43416112D01*
X103790199Y-43416117D01*
X103759500Y-43530688D01*
X96310500Y-43530688D01*
X96310500Y-43149767D01*
X96332174Y-43097441D01*
X96802442Y-42627174D01*
X96854768Y-42605500D01*
X113455233Y-42605500D01*
X113507558Y-42627173D01*
X113713942Y-42833558D01*
X113815200Y-42875500D01*
X113924800Y-42875500D01*
X114222856Y-42875500D01*
X114275182Y-42897174D01*
X114338497Y-42960489D01*
X114338499Y-42960490D01*
X114338500Y-42960491D01*
X114399340Y-42995617D01*
X114441224Y-43019799D01*
X114441225Y-43019799D01*
X114441227Y-43019800D01*
X114456514Y-43023896D01*
X114555798Y-43050499D01*
X114555799Y-43050500D01*
X114555801Y-43050500D01*
X114674421Y-43050500D01*
X114674421Y-43050499D01*
X114773706Y-43023896D01*
X114829859Y-43031288D01*
X114864337Y-43076221D01*
X114866835Y-43097242D01*
X114866612Y-43106037D01*
X114865500Y-43110191D01*
X114865500Y-43150123D01*
X114865476Y-43151074D01*
X114854332Y-43176166D01*
X114843826Y-43201532D01*
X114842897Y-43201916D01*
X114842489Y-43202836D01*
X114816872Y-43212696D01*
X114791500Y-43223206D01*
X114790061Y-43223016D01*
X114789632Y-43223182D01*
X114788921Y-43222866D01*
X114772347Y-43220684D01*
X114740311Y-43212100D01*
X114740309Y-43212100D01*
X114621691Y-43212100D01*
X114621689Y-43212100D01*
X114507117Y-43242799D01*
X114507112Y-43242801D01*
X114404390Y-43302108D01*
X114320508Y-43385990D01*
X114261201Y-43488712D01*
X114261199Y-43488717D01*
X114230500Y-43603288D01*
X114230500Y-43692831D01*
X114208826Y-43745157D01*
X114078442Y-43875543D01*
X114000942Y-43953043D01*
X113959000Y-44054300D01*
X113959000Y-44734411D01*
X113937326Y-44786737D01*
X113885000Y-44808411D01*
X113848001Y-44798498D01*
X113836978Y-44792134D01*
X113824822Y-44785116D01*
X113824820Y-44785115D01*
X113824818Y-44785114D01*
X113710247Y-44754415D01*
X113710245Y-44754415D01*
X113591627Y-44754415D01*
X113591625Y-44754415D01*
X113477053Y-44785114D01*
X113477048Y-44785116D01*
X113374326Y-44844423D01*
X113311008Y-44907741D01*
X113258682Y-44929415D01*
X108410285Y-44929415D01*
X108356652Y-44951631D01*
X108356651Y-44951631D01*
X108309028Y-44971356D01*
X107920941Y-45359443D01*
X107666942Y-45613443D01*
X107589442Y-45690943D01*
X107547500Y-45792200D01*
X107547500Y-46343746D01*
X107525826Y-46396072D01*
X107462508Y-46459390D01*
X107403201Y-46562112D01*
X107403199Y-46562117D01*
X107372500Y-46676688D01*
X107372500Y-46795311D01*
X107403199Y-46909882D01*
X107403201Y-46909887D01*
X107462508Y-47012609D01*
X107462509Y-47012610D01*
X107462511Y-47012613D01*
X107546387Y-47096489D01*
X107546389Y-47096490D01*
X107546390Y-47096491D01*
X107605295Y-47130500D01*
X107649114Y-47155799D01*
X107649115Y-47155799D01*
X107649117Y-47155800D01*
X107706402Y-47171149D01*
X107763688Y-47186499D01*
X107763689Y-47186500D01*
X107763691Y-47186500D01*
X107882311Y-47186500D01*
X107882311Y-47186499D01*
X107996886Y-47155799D01*
X108099613Y-47096489D01*
X108183489Y-47012613D01*
X108242799Y-46909886D01*
X108273499Y-46795311D01*
X108273500Y-46795311D01*
X108273500Y-46676689D01*
X108273499Y-46676688D01*
X108242800Y-46562117D01*
X108242798Y-46562112D01*
X108183491Y-46459390D01*
X108183490Y-46459389D01*
X108183489Y-46459387D01*
X108120174Y-46396072D01*
X108098500Y-46343746D01*
X108098500Y-45991767D01*
X108120174Y-45939441D01*
X108185104Y-45874511D01*
X108310557Y-45749059D01*
X108310557Y-45749058D01*
X108320962Y-45738653D01*
X108320963Y-45738650D01*
X108557527Y-45502089D01*
X108609853Y-45480415D01*
X113258682Y-45480415D01*
X113311008Y-45502089D01*
X113374323Y-45565404D01*
X113374325Y-45565405D01*
X113374326Y-45565406D01*
X113477048Y-45624713D01*
X113477050Y-45624714D01*
X113477051Y-45624714D01*
X113477053Y-45624715D01*
X113528190Y-45638417D01*
X113591624Y-45655414D01*
X113591625Y-45655415D01*
X113591627Y-45655415D01*
X113710247Y-45655415D01*
X113710247Y-45655414D01*
X113824822Y-45624714D01*
X113848000Y-45611331D01*
X113904152Y-45603939D01*
X113949086Y-45638417D01*
X113959000Y-45675418D01*
X113959000Y-46529732D01*
X113937326Y-46582058D01*
X112340542Y-48178843D01*
X112263042Y-48256343D01*
X112221100Y-48357600D01*
X112221100Y-51906674D01*
X112199426Y-51959000D01*
X112196759Y-51961338D01*
X112110708Y-52047390D01*
X112051401Y-52150112D01*
X112051399Y-52150117D01*
X112020700Y-52264688D01*
X112020700Y-52383311D01*
X112051399Y-52497882D01*
X112051401Y-52497887D01*
X112110708Y-52600609D01*
X112110709Y-52600610D01*
X112110711Y-52600613D01*
X112194587Y-52684489D01*
X112297314Y-52743799D01*
X112297315Y-52743799D01*
X112297317Y-52743800D01*
X112354602Y-52759149D01*
X112411888Y-52774499D01*
X112411889Y-52774500D01*
X112411891Y-52774500D01*
X112530511Y-52774500D01*
X112530511Y-52774499D01*
X112645086Y-52743799D01*
X112747813Y-52684489D01*
X112831689Y-52600613D01*
X112890999Y-52497886D01*
X112921699Y-52383311D01*
X112921700Y-52383311D01*
X112921700Y-52264689D01*
X112921699Y-52264688D01*
X112891000Y-52150117D01*
X112890998Y-52150112D01*
X112831691Y-52047390D01*
X112831690Y-52047389D01*
X112831689Y-52047387D01*
X112793773Y-52009471D01*
X112772100Y-51957146D01*
X112772100Y-51690688D01*
X119359500Y-51690688D01*
X119359500Y-51809311D01*
X119390199Y-51923882D01*
X119390201Y-51923887D01*
X119449508Y-52026609D01*
X119449509Y-52026610D01*
X119449511Y-52026613D01*
X119533387Y-52110489D01*
X119533389Y-52110490D01*
X119533390Y-52110491D01*
X119555266Y-52123121D01*
X119636114Y-52169799D01*
X119636115Y-52169799D01*
X119636117Y-52169800D01*
X119657196Y-52175448D01*
X119750688Y-52200499D01*
X119750689Y-52200500D01*
X119750691Y-52200500D01*
X119869311Y-52200500D01*
X119869311Y-52200499D01*
X119983886Y-52169799D01*
X120086613Y-52110489D01*
X120170489Y-52026613D01*
X120229799Y-51923886D01*
X120260499Y-51809311D01*
X120260500Y-51809311D01*
X120260500Y-51690689D01*
X120260499Y-51690688D01*
X120229800Y-51576117D01*
X120229798Y-51576112D01*
X120170491Y-51473390D01*
X120170490Y-51473389D01*
X120170489Y-51473387D01*
X120086613Y-51389511D01*
X120086610Y-51389509D01*
X120086609Y-51389508D01*
X119983887Y-51330201D01*
X119983882Y-51330199D01*
X119869311Y-51299500D01*
X119869309Y-51299500D01*
X119750691Y-51299500D01*
X119750689Y-51299500D01*
X119636117Y-51330199D01*
X119636112Y-51330201D01*
X119533390Y-51389508D01*
X119449508Y-51473390D01*
X119390201Y-51576112D01*
X119390199Y-51576117D01*
X119359500Y-51690688D01*
X112772100Y-51690688D01*
X112772100Y-49720688D01*
X119409500Y-49720688D01*
X119409500Y-49839311D01*
X119440199Y-49953882D01*
X119440201Y-49953887D01*
X119499508Y-50056609D01*
X119499509Y-50056610D01*
X119499511Y-50056613D01*
X119583387Y-50140489D01*
X119686114Y-50199799D01*
X119686115Y-50199799D01*
X119686117Y-50199800D01*
X119743402Y-50215149D01*
X119800688Y-50230499D01*
X119800689Y-50230500D01*
X119800691Y-50230500D01*
X119919311Y-50230500D01*
X119919311Y-50230499D01*
X120033886Y-50199799D01*
X120136613Y-50140489D01*
X120220489Y-50056613D01*
X120279799Y-49953886D01*
X120310499Y-49839311D01*
X120310500Y-49839311D01*
X120310500Y-49720689D01*
X120310499Y-49720688D01*
X120279800Y-49606117D01*
X120279798Y-49606112D01*
X120220491Y-49503390D01*
X120220490Y-49503389D01*
X120220489Y-49503387D01*
X120136613Y-49419511D01*
X120136610Y-49419509D01*
X120136609Y-49419508D01*
X120033887Y-49360201D01*
X120033882Y-49360199D01*
X119919311Y-49329500D01*
X119919309Y-49329500D01*
X119800691Y-49329500D01*
X119800689Y-49329500D01*
X119686117Y-49360199D01*
X119686112Y-49360201D01*
X119583390Y-49419508D01*
X119499508Y-49503390D01*
X119440201Y-49606112D01*
X119440199Y-49606117D01*
X119409500Y-49720688D01*
X112772100Y-49720688D01*
X112772100Y-48557167D01*
X112793774Y-48504841D01*
X113605927Y-47692688D01*
X114468058Y-46830558D01*
X114510000Y-46729300D01*
X114510000Y-46619700D01*
X114510000Y-46199289D01*
X114531674Y-46146963D01*
X114584000Y-46125289D01*
X114621000Y-46135203D01*
X114630614Y-46140754D01*
X114630616Y-46140754D01*
X114630617Y-46140755D01*
X114653786Y-46146963D01*
X114745188Y-46171454D01*
X114745189Y-46171455D01*
X114745191Y-46171455D01*
X114863811Y-46171455D01*
X114863811Y-46171454D01*
X114978386Y-46140754D01*
X114987999Y-46135203D01*
X115044151Y-46127810D01*
X115089085Y-46162287D01*
X115099000Y-46199289D01*
X115099000Y-49084500D01*
X115132138Y-49164500D01*
X115140943Y-49185758D01*
X115140944Y-49185759D01*
X115528741Y-49573557D01*
X115528740Y-49573557D01*
X115554302Y-49584144D01*
X115558399Y-49585841D01*
X115630000Y-49615500D01*
X118603598Y-49615500D01*
X118603600Y-49615500D01*
X118704858Y-49573557D01*
X118782357Y-49496058D01*
X118782356Y-49496058D01*
X118817317Y-49461097D01*
X118817316Y-49461097D01*
X119396242Y-48882174D01*
X119448568Y-48860500D01*
X122460015Y-48860500D01*
X122512341Y-48882174D01*
X122524101Y-48897500D01*
X122540641Y-48926149D01*
X122540642Y-48926150D01*
X122540644Y-48926153D01*
X122624520Y-49010029D01*
X122624522Y-49010030D01*
X122624523Y-49010031D01*
X122727245Y-49069338D01*
X122727247Y-49069339D01*
X122727248Y-49069339D01*
X122727250Y-49069340D01*
X122768702Y-49080447D01*
X122841821Y-49100039D01*
X122841822Y-49100040D01*
X122841824Y-49100040D01*
X122960444Y-49100040D01*
X122960444Y-49100039D01*
X123075019Y-49069339D01*
X123177746Y-49010029D01*
X123261622Y-48926153D01*
X123320932Y-48823426D01*
X123351632Y-48708851D01*
X123351633Y-48708851D01*
X123351633Y-48590229D01*
X123351632Y-48590228D01*
X123350530Y-48586117D01*
X123320932Y-48475654D01*
X123315070Y-48465500D01*
X123261624Y-48372930D01*
X123261623Y-48372929D01*
X123261622Y-48372927D01*
X123177746Y-48289051D01*
X123177743Y-48289049D01*
X123177742Y-48289048D01*
X123120023Y-48255724D01*
X123085544Y-48210790D01*
X123092937Y-48154638D01*
X123120024Y-48127552D01*
X123146108Y-48112492D01*
X123146108Y-48112491D01*
X123146113Y-48112489D01*
X123229989Y-48028613D01*
X123289299Y-47925886D01*
X123319999Y-47811311D01*
X123320000Y-47811311D01*
X123320000Y-47692689D01*
X123319999Y-47692688D01*
X123314690Y-47672876D01*
X123289299Y-47578114D01*
X123282496Y-47566331D01*
X123229991Y-47475390D01*
X123229990Y-47475389D01*
X123229989Y-47475387D01*
X123146113Y-47391511D01*
X123146110Y-47391509D01*
X123146109Y-47391508D01*
X123043387Y-47332201D01*
X123043382Y-47332199D01*
X122928811Y-47301500D01*
X122928809Y-47301500D01*
X122810191Y-47301500D01*
X122810189Y-47301500D01*
X122695617Y-47332199D01*
X122695612Y-47332201D01*
X122592890Y-47391508D01*
X122509008Y-47475390D01*
X122449701Y-47578112D01*
X122449699Y-47578117D01*
X122419000Y-47692688D01*
X122419000Y-47746877D01*
X122397326Y-47799203D01*
X122353703Y-47842826D01*
X122301377Y-47864500D01*
X117965162Y-47864500D01*
X117886038Y-47864500D01*
X117809612Y-47884978D01*
X117809611Y-47884978D01*
X117809609Y-47884979D01*
X117809607Y-47884980D01*
X117741092Y-47924537D01*
X117296003Y-48369626D01*
X117243677Y-48391300D01*
X116597654Y-48391300D01*
X116545329Y-48369627D01*
X116533302Y-48357600D01*
X116507013Y-48331311D01*
X116507010Y-48331309D01*
X116507009Y-48331308D01*
X116404287Y-48272001D01*
X116404282Y-48271999D01*
X116289711Y-48241300D01*
X116289709Y-48241300D01*
X116171091Y-48241300D01*
X116171089Y-48241300D01*
X116056517Y-48271999D01*
X116056512Y-48272001D01*
X115953790Y-48331308D01*
X115869908Y-48415190D01*
X115810601Y-48517912D01*
X115810599Y-48517917D01*
X115795478Y-48574351D01*
X115761000Y-48619284D01*
X115704847Y-48626676D01*
X115659914Y-48592198D01*
X115650000Y-48555198D01*
X115650000Y-45670688D01*
X124679500Y-45670688D01*
X124679500Y-45789311D01*
X124710199Y-45903882D01*
X124710201Y-45903887D01*
X124769508Y-46006609D01*
X124769509Y-46006610D01*
X124769511Y-46006613D01*
X124853387Y-46090489D01*
X124853389Y-46090490D01*
X124853390Y-46090491D01*
X124940449Y-46140755D01*
X124956114Y-46149799D01*
X124956115Y-46149799D01*
X124956117Y-46149800D01*
X125013402Y-46165149D01*
X125070688Y-46180499D01*
X125070689Y-46180500D01*
X125070691Y-46180500D01*
X125189311Y-46180500D01*
X125189311Y-46180499D01*
X125303886Y-46149799D01*
X125406613Y-46090489D01*
X125490489Y-46006613D01*
X125549799Y-45903886D01*
X125580499Y-45789311D01*
X125580500Y-45789311D01*
X125580500Y-45670689D01*
X125580499Y-45670688D01*
X125576406Y-45655414D01*
X125549799Y-45556114D01*
X125537004Y-45533953D01*
X125490491Y-45453390D01*
X125490490Y-45453389D01*
X125490489Y-45453387D01*
X125406613Y-45369511D01*
X125406610Y-45369509D01*
X125406609Y-45369508D01*
X125303887Y-45310201D01*
X125303882Y-45310199D01*
X125189311Y-45279500D01*
X125189309Y-45279500D01*
X125070691Y-45279500D01*
X125070689Y-45279500D01*
X124956117Y-45310199D01*
X124956112Y-45310201D01*
X124853390Y-45369508D01*
X124769508Y-45453390D01*
X124710201Y-45556112D01*
X124710199Y-45556117D01*
X124679500Y-45670688D01*
X115650000Y-45670688D01*
X115650000Y-43503253D01*
X115671673Y-43450928D01*
X115676489Y-43446113D01*
X115735799Y-43343386D01*
X115766499Y-43228811D01*
X115766500Y-43228811D01*
X115766500Y-43110189D01*
X115766499Y-43110188D01*
X115763083Y-43097441D01*
X115742280Y-43019800D01*
X115735800Y-42995617D01*
X115735798Y-42995612D01*
X115676491Y-42892890D01*
X115676490Y-42892889D01*
X115676489Y-42892887D01*
X115592613Y-42809011D01*
X115592610Y-42809009D01*
X115592609Y-42809008D01*
X115489887Y-42749701D01*
X115489882Y-42749699D01*
X115375311Y-42719000D01*
X115375309Y-42719000D01*
X115256691Y-42719000D01*
X115157402Y-42745604D01*
X115101250Y-42738211D01*
X115066771Y-42693277D01*
X115066800Y-42664359D01*
X115064977Y-42664120D01*
X115065610Y-42659311D01*
X115065610Y-42540689D01*
X115065609Y-42540688D01*
X115034910Y-42426117D01*
X115034908Y-42426112D01*
X114974510Y-42321500D01*
X114967117Y-42265347D01*
X115001596Y-42220414D01*
X115038596Y-42210500D01*
X115363894Y-42210500D01*
X115416220Y-42232174D01*
X115427980Y-42247500D01*
X115459511Y-42302113D01*
X115543387Y-42385989D01*
X115543389Y-42385990D01*
X115543390Y-42385991D01*
X115612881Y-42426112D01*
X115646114Y-42445299D01*
X115646115Y-42445299D01*
X115646117Y-42445300D01*
X115703402Y-42460649D01*
X115760688Y-42475999D01*
X115760689Y-42476000D01*
X115760691Y-42476000D01*
X115879311Y-42476000D01*
X115879311Y-42475999D01*
X115993886Y-42445299D01*
X116096613Y-42385989D01*
X116180489Y-42302113D01*
X116239799Y-42199386D01*
X116270499Y-42084811D01*
X116270500Y-42084811D01*
X116270500Y-41966189D01*
X116270499Y-41966188D01*
X116239800Y-41851617D01*
X116239798Y-41851612D01*
X116180491Y-41748890D01*
X116180490Y-41748889D01*
X116180489Y-41748887D01*
X116096613Y-41665011D01*
X116096610Y-41665009D01*
X116096609Y-41665008D01*
X115993887Y-41605701D01*
X115993882Y-41605699D01*
X115879311Y-41575000D01*
X115879309Y-41575000D01*
X115760691Y-41575000D01*
X115760689Y-41575000D01*
X115646117Y-41605699D01*
X115646112Y-41605701D01*
X115570103Y-41649586D01*
X115533103Y-41659500D01*
X96491586Y-41659500D01*
X96437564Y-41681877D01*
X96429300Y-41685300D01*
X96390327Y-41701442D01*
X96390326Y-41701443D01*
X95483942Y-42607829D01*
X95406442Y-42685329D01*
X95364500Y-42786586D01*
X95364500Y-53324799D01*
X95364499Y-53324799D01*
X90489181Y-53324799D01*
X90489181Y-47916932D01*
X92666500Y-47916932D01*
X92666500Y-48045067D01*
X92691497Y-48170739D01*
X92691498Y-48170742D01*
X92740503Y-48289051D01*
X92740535Y-48289127D01*
X92786287Y-48357600D01*
X92808804Y-48391300D01*
X92811724Y-48395669D01*
X92902331Y-48486276D01*
X93008873Y-48557465D01*
X93127256Y-48606501D01*
X93127258Y-48606501D01*
X93127260Y-48606502D01*
X93169903Y-48614984D01*
X93252931Y-48631500D01*
X93252933Y-48631500D01*
X93981067Y-48631500D01*
X93981069Y-48631500D01*
X94106744Y-48606501D01*
X94225127Y-48557465D01*
X94331669Y-48486276D01*
X94422276Y-48395669D01*
X94493465Y-48289127D01*
X94542501Y-48170744D01*
X94567500Y-48045069D01*
X94567500Y-47916931D01*
X94542501Y-47791256D01*
X94493465Y-47672873D01*
X94422276Y-47566331D01*
X94331669Y-47475724D01*
X94331169Y-47475390D01*
X94296473Y-47452207D01*
X94225127Y-47404535D01*
X94225124Y-47404533D01*
X94225123Y-47404533D01*
X94106742Y-47355498D01*
X94106739Y-47355497D01*
X94016696Y-47337586D01*
X93981069Y-47330500D01*
X93252931Y-47330500D01*
X93221726Y-47336707D01*
X93127260Y-47355497D01*
X93127257Y-47355498D01*
X93008876Y-47404533D01*
X92902331Y-47475723D01*
X92902330Y-47475725D01*
X92811725Y-47566330D01*
X92811723Y-47566331D01*
X92740533Y-47672876D01*
X92691498Y-47791257D01*
X92691497Y-47791260D01*
X92666500Y-47916932D01*
X90489181Y-47916932D01*
X90489181Y-40694704D01*
X96717500Y-40694704D01*
X96717500Y-40847295D01*
X96756990Y-40994674D01*
X96756992Y-40994679D01*
X96833285Y-41126821D01*
X96941179Y-41234715D01*
X97073322Y-41311008D01*
X97073323Y-41311008D01*
X97073325Y-41311009D01*
X97147014Y-41330754D01*
X97220704Y-41350499D01*
X97220705Y-41350500D01*
X97220707Y-41350500D01*
X97373295Y-41350500D01*
X97373295Y-41350499D01*
X97520678Y-41311008D01*
X97652821Y-41234715D01*
X97760715Y-41126821D01*
X97837008Y-40994678D01*
X97876499Y-40847295D01*
X97876500Y-40847295D01*
X97876500Y-40694705D01*
X97876499Y-40694704D01*
X97859099Y-40629768D01*
X97837008Y-40547322D01*
X97760715Y-40415179D01*
X97652821Y-40307285D01*
X97604596Y-40279442D01*
X97520679Y-40230992D01*
X97520674Y-40230990D01*
X97373295Y-40191500D01*
X97373293Y-40191500D01*
X97220707Y-40191500D01*
X97220705Y-40191500D01*
X97073325Y-40230990D01*
X97073320Y-40230992D01*
X96941178Y-40307285D01*
X96833285Y-40415178D01*
X96756992Y-40547320D01*
X96756990Y-40547325D01*
X96717500Y-40694704D01*
X90489181Y-40694704D01*
X90489181Y-39276932D01*
X92666500Y-39276932D01*
X92666500Y-39405067D01*
X92691497Y-39530739D01*
X92691498Y-39530742D01*
X92739027Y-39645488D01*
X92740535Y-39649127D01*
X92788207Y-39720473D01*
X92806742Y-39748214D01*
X92811724Y-39755669D01*
X92902331Y-39846276D01*
X93008873Y-39917465D01*
X93127256Y-39966501D01*
X93127258Y-39966501D01*
X93127260Y-39966502D01*
X93165377Y-39974084D01*
X93252931Y-39991500D01*
X93252933Y-39991500D01*
X93981067Y-39991500D01*
X93981069Y-39991500D01*
X94106744Y-39966501D01*
X94225127Y-39917465D01*
X94331669Y-39846276D01*
X94422276Y-39755669D01*
X94493465Y-39649127D01*
X94542501Y-39530744D01*
X94567500Y-39405069D01*
X94567500Y-39276932D01*
X96596500Y-39276932D01*
X96596500Y-39405067D01*
X96621497Y-39530739D01*
X96621498Y-39530742D01*
X96669027Y-39645488D01*
X96670535Y-39649127D01*
X96718207Y-39720473D01*
X96736742Y-39748214D01*
X96741724Y-39755669D01*
X96832331Y-39846276D01*
X96938873Y-39917465D01*
X97057256Y-39966501D01*
X97057258Y-39966501D01*
X97057260Y-39966502D01*
X97095377Y-39974084D01*
X97182931Y-39991500D01*
X97182933Y-39991500D01*
X98411067Y-39991500D01*
X98411069Y-39991500D01*
X98536744Y-39966501D01*
X98655127Y-39917465D01*
X98761669Y-39846276D01*
X98852276Y-39755669D01*
X98923465Y-39649127D01*
X98972501Y-39530744D01*
X98997500Y-39405069D01*
X98997500Y-39276931D01*
X98972501Y-39151256D01*
X98923465Y-39032873D01*
X98852276Y-38926331D01*
X98761669Y-38835724D01*
X98655127Y-38764535D01*
X98655124Y-38764533D01*
X98655123Y-38764533D01*
X98536742Y-38715498D01*
X98536739Y-38715497D01*
X98446696Y-38697586D01*
X98411069Y-38690500D01*
X97182931Y-38690500D01*
X97151726Y-38696707D01*
X97057260Y-38715497D01*
X97057257Y-38715498D01*
X96938876Y-38764533D01*
X96832331Y-38835723D01*
X96832330Y-38835725D01*
X96741725Y-38926330D01*
X96741723Y-38926331D01*
X96670533Y-39032876D01*
X96621498Y-39151257D01*
X96621497Y-39151260D01*
X96596500Y-39276932D01*
X94567500Y-39276932D01*
X94567500Y-39276931D01*
X94542501Y-39151256D01*
X94493465Y-39032873D01*
X94422276Y-38926331D01*
X94331669Y-38835724D01*
X94225127Y-38764535D01*
X94225124Y-38764533D01*
X94225123Y-38764533D01*
X94106742Y-38715498D01*
X94106739Y-38715497D01*
X94016696Y-38697586D01*
X93981069Y-38690500D01*
X93252931Y-38690500D01*
X93221726Y-38696707D01*
X93127260Y-38715497D01*
X93127257Y-38715498D01*
X93008876Y-38764533D01*
X92902331Y-38835723D01*
X92902330Y-38835725D01*
X92811725Y-38926330D01*
X92811723Y-38926331D01*
X92740533Y-39032876D01*
X92691498Y-39151257D01*
X92691497Y-39151260D01*
X92666500Y-39276932D01*
X90489181Y-39276932D01*
X90489181Y-36012553D01*
X90489359Y-36012276D01*
X90489181Y-36009166D01*
X90489181Y-36005122D01*
X90489181Y-35990807D01*
X90489108Y-35990449D01*
X90488246Y-35699039D01*
X90488657Y-35691056D01*
X90520883Y-35386932D01*
X90522156Y-35379040D01*
X90587134Y-35080203D01*
X90589252Y-35072499D01*
X90686225Y-34782443D01*
X90689166Y-34775014D01*
X90816977Y-34497190D01*
X90820717Y-34490102D01*
X90977867Y-34227762D01*
X90982354Y-34221116D01*
X91167001Y-33977339D01*
X91172165Y-33971239D01*
X91382134Y-33748892D01*
X91387941Y-33743375D01*
X91471875Y-33671888D01*
X101200300Y-33671888D01*
X101200300Y-33790511D01*
X101230999Y-33905082D01*
X101231001Y-33905087D01*
X101290308Y-34007809D01*
X101290309Y-34007810D01*
X101290311Y-34007813D01*
X101374187Y-34091689D01*
X101374189Y-34091690D01*
X101374190Y-34091691D01*
X101468444Y-34146109D01*
X101476914Y-34150999D01*
X101476915Y-34150999D01*
X101476917Y-34151000D01*
X101534202Y-34166349D01*
X101591488Y-34181699D01*
X101591489Y-34181700D01*
X101591491Y-34181700D01*
X101710111Y-34181700D01*
X101710111Y-34181699D01*
X101824686Y-34150999D01*
X101927413Y-34091689D01*
X101965729Y-34053373D01*
X102018054Y-34031700D01*
X103265501Y-34031700D01*
X103317827Y-34053374D01*
X103339501Y-34105700D01*
X103339501Y-34197776D01*
X103349973Y-34250428D01*
X103389867Y-34310133D01*
X103389870Y-34310135D01*
X103395021Y-34315286D01*
X103393171Y-34317135D01*
X103418848Y-34355572D01*
X103407792Y-34411119D01*
X103394609Y-34424302D01*
X103395021Y-34424714D01*
X103389866Y-34429868D01*
X103349973Y-34489571D01*
X103349183Y-34493542D01*
X103343227Y-34523489D01*
X103339500Y-34542224D01*
X103339500Y-35017771D01*
X103339501Y-35017776D01*
X103349973Y-35070428D01*
X103379592Y-35114756D01*
X103393916Y-35136192D01*
X103391748Y-35137640D01*
X103409444Y-35180361D01*
X103391943Y-35222610D01*
X103394277Y-35224169D01*
X103350444Y-35289767D01*
X103340000Y-35342274D01*
X103340000Y-35430000D01*
X103666000Y-35430000D01*
X103718326Y-35451674D01*
X103740000Y-35504000D01*
X103740000Y-35656000D01*
X103718326Y-35708326D01*
X103666000Y-35730000D01*
X103340000Y-35730000D01*
X103340000Y-35817725D01*
X103350444Y-35870232D01*
X103394277Y-35935831D01*
X103391943Y-35937389D01*
X103409444Y-35979639D01*
X103395956Y-36022233D01*
X103391217Y-36028964D01*
X103389867Y-36029867D01*
X103376477Y-36049905D01*
X103375931Y-36050682D01*
X103352720Y-36065388D01*
X103329852Y-36080667D01*
X103328667Y-36080628D01*
X103328089Y-36080995D01*
X103326075Y-36080543D01*
X103296266Y-36079567D01*
X103183309Y-36049300D01*
X103064691Y-36049300D01*
X103064689Y-36049300D01*
X102950117Y-36079999D01*
X102950112Y-36080001D01*
X102847390Y-36139308D01*
X102763508Y-36223190D01*
X102704201Y-36325912D01*
X102704199Y-36325917D01*
X102673500Y-36440488D01*
X102673500Y-36559111D01*
X102704199Y-36673682D01*
X102704201Y-36673687D01*
X102763508Y-36776409D01*
X102763509Y-36776410D01*
X102763511Y-36776413D01*
X102847387Y-36860289D01*
X102950114Y-36919599D01*
X102950115Y-36919599D01*
X102950117Y-36919600D01*
X102987281Y-36929558D01*
X103064688Y-36950299D01*
X103064689Y-36950300D01*
X103064691Y-36950300D01*
X103183311Y-36950300D01*
X103183311Y-36950299D01*
X103297886Y-36919599D01*
X103400613Y-36860289D01*
X103427274Y-36833627D01*
X103479599Y-36811954D01*
X103531925Y-36833628D01*
X104348836Y-37650540D01*
X104400495Y-37680365D01*
X104415822Y-37692125D01*
X105295186Y-38571489D01*
X105397913Y-38630799D01*
X105397915Y-38630799D01*
X105397916Y-38630800D01*
X105405984Y-38632961D01*
X105422126Y-38637286D01*
X105494418Y-38656657D01*
X105512490Y-38661500D01*
X105512491Y-38661500D01*
X110907745Y-38661500D01*
X110960071Y-38683174D01*
X111237026Y-38960129D01*
X111258700Y-39012455D01*
X111258700Y-39530908D01*
X111277495Y-39601054D01*
X111277494Y-39601054D01*
X111289399Y-39645483D01*
X111289401Y-39645488D01*
X111348708Y-39748210D01*
X111348709Y-39748211D01*
X111348711Y-39748214D01*
X111508786Y-39908289D01*
X111611513Y-39967599D01*
X111611515Y-39967599D01*
X111611516Y-39967600D01*
X111619584Y-39969761D01*
X111635726Y-39974086D01*
X111700714Y-39991500D01*
X111726090Y-39998300D01*
X111726091Y-39998300D01*
X111844709Y-39998300D01*
X111935073Y-39974086D01*
X111935074Y-39974086D01*
X111945750Y-39971225D01*
X111959287Y-39967599D01*
X112062014Y-39908289D01*
X112145889Y-39824414D01*
X112205199Y-39721687D01*
X112211686Y-39697473D01*
X112235900Y-39607109D01*
X112235900Y-39488491D01*
X112235900Y-39488489D01*
X112227781Y-39458192D01*
X112211686Y-39398126D01*
X112205199Y-39373913D01*
X112168164Y-39309767D01*
X112166910Y-39307138D01*
X112166587Y-39300981D01*
X112159700Y-39275278D01*
X112159700Y-38961655D01*
X112181374Y-38909329D01*
X112407530Y-38683174D01*
X112459856Y-38661500D01*
X116856891Y-38661500D01*
X117463335Y-38661500D01*
X117515661Y-38683174D01*
X117537335Y-38735500D01*
X117537335Y-40576518D01*
X117527421Y-40613517D01*
X117518038Y-40629768D01*
X117518034Y-40629777D01*
X117487335Y-40744348D01*
X117487335Y-40862971D01*
X117518034Y-40977542D01*
X117518036Y-40977547D01*
X117577343Y-41080269D01*
X117577344Y-41080270D01*
X117577346Y-41080273D01*
X117661222Y-41164149D01*
X117691136Y-41181419D01*
X117706460Y-41193177D01*
X118391493Y-41878211D01*
X118492751Y-41920153D01*
X121372121Y-41920153D01*
X121424447Y-41941827D01*
X121535861Y-42053241D01*
X121557535Y-42105567D01*
X121557535Y-43931746D01*
X121535861Y-43984072D01*
X121472543Y-44047390D01*
X121413236Y-44150112D01*
X121413234Y-44150117D01*
X121382535Y-44264688D01*
X121382535Y-44383311D01*
X121413234Y-44497882D01*
X121413236Y-44497887D01*
X121472543Y-44600609D01*
X121472544Y-44600610D01*
X121472546Y-44600613D01*
X121556422Y-44684489D01*
X121556424Y-44684490D01*
X121556425Y-44684491D01*
X121659147Y-44743798D01*
X121659149Y-44743799D01*
X121659150Y-44743799D01*
X121659152Y-44743800D01*
X121698768Y-44754415D01*
X121773723Y-44774499D01*
X121773724Y-44774500D01*
X121773726Y-44774500D01*
X121892346Y-44774500D01*
X121892346Y-44774499D01*
X122006921Y-44743799D01*
X122109648Y-44684489D01*
X122193524Y-44600613D01*
X122252834Y-44497886D01*
X122283534Y-44383311D01*
X122283535Y-44383311D01*
X122283535Y-44264689D01*
X122283534Y-44264688D01*
X122252835Y-44150117D01*
X122252833Y-44150112D01*
X122193526Y-44047390D01*
X122193525Y-44047389D01*
X122193524Y-44047387D01*
X122130209Y-43984072D01*
X122108535Y-43931746D01*
X122108535Y-41789420D01*
X122130209Y-41737094D01*
X122163419Y-41703884D01*
X122215745Y-41682210D01*
X122305289Y-41682210D01*
X122305289Y-41682209D01*
X122419864Y-41651509D01*
X122522591Y-41592199D01*
X122606467Y-41508323D01*
X122665777Y-41405596D01*
X122696477Y-41291021D01*
X122696478Y-41291021D01*
X122696478Y-41172399D01*
X122696477Y-41172398D01*
X122694266Y-41164148D01*
X122665777Y-41057824D01*
X122629320Y-40994679D01*
X122606469Y-40955100D01*
X122606468Y-40955099D01*
X122606467Y-40955097D01*
X122566194Y-40914824D01*
X122544521Y-40862500D01*
X122566195Y-40810174D01*
X122618521Y-40788500D01*
X126021233Y-40788500D01*
X126073559Y-40810174D01*
X126122826Y-40859441D01*
X126144500Y-40911767D01*
X126144500Y-45901232D01*
X126122826Y-45953558D01*
X124507142Y-47569243D01*
X124429642Y-47646743D01*
X124387700Y-47748000D01*
X124387700Y-53785946D01*
X124366026Y-53838272D01*
X124302708Y-53901590D01*
X124243401Y-54004312D01*
X124243399Y-54004317D01*
X124212700Y-54118888D01*
X124212700Y-54237511D01*
X124243399Y-54352082D01*
X124243401Y-54352087D01*
X124302708Y-54454809D01*
X124302709Y-54454810D01*
X124302711Y-54454813D01*
X124386587Y-54538689D01*
X124386589Y-54538690D01*
X124386590Y-54538691D01*
X124489312Y-54597998D01*
X124489314Y-54597999D01*
X124489315Y-54597999D01*
X124489317Y-54598000D01*
X124546602Y-54613349D01*
X124603888Y-54628699D01*
X124603889Y-54628700D01*
X124603891Y-54628700D01*
X124722511Y-54628700D01*
X124722511Y-54628699D01*
X124837086Y-54597999D01*
X124939813Y-54538689D01*
X125023689Y-54454813D01*
X125082999Y-54352086D01*
X125113699Y-54237511D01*
X125113700Y-54237511D01*
X125113700Y-54118889D01*
X125113699Y-54118888D01*
X125103210Y-54079744D01*
X125089436Y-54028337D01*
X125083000Y-54004317D01*
X125082998Y-54004312D01*
X125023691Y-53901590D01*
X125023690Y-53901589D01*
X125023689Y-53901587D01*
X124960374Y-53838272D01*
X124938700Y-53785946D01*
X124938700Y-47947567D01*
X124960374Y-47895241D01*
X125764608Y-47091007D01*
X126653557Y-46202059D01*
X126666233Y-46171455D01*
X126695500Y-46100800D01*
X126695500Y-42541000D01*
X126695500Y-42033000D01*
X126695500Y-41901488D01*
X127667100Y-41901488D01*
X127667100Y-42020111D01*
X127697799Y-42134682D01*
X127697801Y-42134687D01*
X127757108Y-42237409D01*
X127757109Y-42237410D01*
X127757111Y-42237413D01*
X127840987Y-42321289D01*
X127840989Y-42321290D01*
X127840990Y-42321291D01*
X127943712Y-42380598D01*
X127943714Y-42380599D01*
X127943715Y-42380599D01*
X127943717Y-42380600D01*
X127963837Y-42385991D01*
X128058288Y-42411299D01*
X128058289Y-42411300D01*
X128058291Y-42411300D01*
X128176911Y-42411300D01*
X128176911Y-42411299D01*
X128291486Y-42380599D01*
X128394213Y-42321289D01*
X128478089Y-42237413D01*
X128537399Y-42134686D01*
X128568099Y-42020111D01*
X128568100Y-42020111D01*
X128568100Y-41901489D01*
X128568099Y-41901488D01*
X128537400Y-41786917D01*
X128537398Y-41786912D01*
X128478091Y-41684190D01*
X128478090Y-41684189D01*
X128478089Y-41684187D01*
X128394213Y-41600311D01*
X128394210Y-41600309D01*
X128394209Y-41600308D01*
X128291487Y-41541001D01*
X128291482Y-41540999D01*
X128176911Y-41510300D01*
X128176909Y-41510300D01*
X128058291Y-41510300D01*
X128058289Y-41510300D01*
X127943717Y-41540999D01*
X127943712Y-41541001D01*
X127840990Y-41600308D01*
X127757108Y-41684190D01*
X127697801Y-41786912D01*
X127697799Y-41786917D01*
X127667100Y-41901488D01*
X126695500Y-41901488D01*
X126695500Y-40712200D01*
X126695500Y-40483600D01*
X126695500Y-40255000D01*
X126695500Y-37599053D01*
X126717173Y-37546728D01*
X126776289Y-37487613D01*
X126835599Y-37384886D01*
X126866299Y-37270311D01*
X126866300Y-37270311D01*
X126866300Y-37151689D01*
X126866299Y-37151688D01*
X126835600Y-37037117D01*
X126835598Y-37037112D01*
X126776291Y-36934390D01*
X126776290Y-36934389D01*
X126776289Y-36934387D01*
X126692413Y-36850511D01*
X126692410Y-36850509D01*
X126692409Y-36850508D01*
X126589687Y-36791201D01*
X126589682Y-36791199D01*
X126475111Y-36760500D01*
X126475109Y-36760500D01*
X126356491Y-36760500D01*
X126356489Y-36760500D01*
X126241917Y-36791199D01*
X126241912Y-36791201D01*
X126139190Y-36850508D01*
X126055308Y-36934390D01*
X125996001Y-37037112D01*
X125995999Y-37037117D01*
X125965300Y-37151688D01*
X125965300Y-37270311D01*
X125995999Y-37384882D01*
X125996001Y-37384887D01*
X126055308Y-37487609D01*
X126055309Y-37487610D01*
X126055311Y-37487613D01*
X126122826Y-37555128D01*
X126144500Y-37607453D01*
X126144500Y-40110032D01*
X126122826Y-40162357D01*
X126069359Y-40215825D01*
X126017034Y-40237500D01*
X121941400Y-40237500D01*
X121840144Y-40279440D01*
X121840141Y-40279442D01*
X121268759Y-40850826D01*
X121216433Y-40872500D01*
X119281414Y-40872500D01*
X119229088Y-40850826D01*
X119217328Y-40835500D01*
X119195990Y-40798542D01*
X119195989Y-40798540D01*
X119112113Y-40714664D01*
X119112110Y-40714662D01*
X119112109Y-40714661D01*
X119009387Y-40655354D01*
X119009382Y-40655352D01*
X118894811Y-40624653D01*
X118894809Y-40624653D01*
X118776191Y-40624653D01*
X118776189Y-40624653D01*
X118661617Y-40655352D01*
X118661612Y-40655354D01*
X118558889Y-40714662D01*
X118558886Y-40714664D01*
X118508733Y-40764817D01*
X118492551Y-40771519D01*
X118479225Y-40782885D01*
X118467383Y-40781944D01*
X118456407Y-40786491D01*
X118440224Y-40779787D01*
X118422766Y-40778401D01*
X118415650Y-40769608D01*
X118404082Y-40764816D01*
X118386014Y-40735308D01*
X118385425Y-40733490D01*
X118357634Y-40629774D01*
X118344348Y-40606762D01*
X118341941Y-40599335D01*
X118342514Y-40592115D01*
X118338335Y-40576518D01*
X118338335Y-38504243D01*
X118348250Y-38467242D01*
X118395797Y-38384890D01*
X118395800Y-38384882D01*
X118426499Y-38270311D01*
X118426500Y-38270311D01*
X118426500Y-38151689D01*
X118426499Y-38151688D01*
X118395800Y-38037117D01*
X118395798Y-38037112D01*
X118336491Y-37934390D01*
X118336490Y-37934389D01*
X118336489Y-37934387D01*
X118252613Y-37850511D01*
X118252610Y-37850509D01*
X118252609Y-37850508D01*
X118149887Y-37791201D01*
X118149882Y-37791199D01*
X118035311Y-37760500D01*
X118035309Y-37760500D01*
X116975509Y-37760500D01*
X112301909Y-37760500D01*
X111768509Y-37760500D01*
X111184309Y-37760500D01*
X105789055Y-37760500D01*
X105736729Y-37738826D01*
X105382785Y-37384882D01*
X104927464Y-36929561D01*
X104927461Y-36929559D01*
X104927460Y-36929558D01*
X104875805Y-36899735D01*
X104860479Y-36887975D01*
X104590229Y-36617725D01*
X105740000Y-36617725D01*
X105750444Y-36670232D01*
X105790227Y-36729770D01*
X105790229Y-36729772D01*
X105849767Y-36769555D01*
X105902275Y-36780000D01*
X105990000Y-36780000D01*
X106290000Y-36780000D01*
X106377725Y-36780000D01*
X106430232Y-36769555D01*
X106489770Y-36729772D01*
X106489772Y-36729770D01*
X106529555Y-36670232D01*
X106540000Y-36617725D01*
X106540000Y-36530000D01*
X106290000Y-36530000D01*
X106290000Y-36780000D01*
X105990000Y-36780000D01*
X105990000Y-36530000D01*
X105740000Y-36530000D01*
X105740000Y-36617725D01*
X104590229Y-36617725D01*
X104360872Y-36388368D01*
X104339198Y-36336042D01*
X104360872Y-36283716D01*
X104421401Y-36223187D01*
X104804860Y-35839730D01*
X104808815Y-35832880D01*
X104809685Y-35831374D01*
X104811084Y-35828949D01*
X104819437Y-35814480D01*
X104864367Y-35780001D01*
X104920520Y-35787390D01*
X104935850Y-35799152D01*
X105006387Y-35869689D01*
X105006389Y-35869690D01*
X105006390Y-35869691D01*
X105109112Y-35928998D01*
X105109114Y-35928999D01*
X105109115Y-35928999D01*
X105109117Y-35929000D01*
X105150170Y-35940000D01*
X105223688Y-35959699D01*
X105223689Y-35959700D01*
X105223691Y-35959700D01*
X105342311Y-35959700D01*
X105342311Y-35959699D01*
X105456886Y-35928999D01*
X105559613Y-35869689D01*
X105597929Y-35831373D01*
X105650254Y-35809700D01*
X105677163Y-35809700D01*
X105729489Y-35831374D01*
X105746838Y-35863834D01*
X105747182Y-35863692D01*
X105748626Y-35867178D01*
X105749741Y-35869265D01*
X105749973Y-35870428D01*
X105789109Y-35928999D01*
X105793916Y-35936192D01*
X105791748Y-35937640D01*
X105809444Y-35980361D01*
X105791943Y-36022610D01*
X105794277Y-36024169D01*
X105750444Y-36089767D01*
X105740000Y-36142274D01*
X105740000Y-36230000D01*
X106540000Y-36230000D01*
X106540000Y-36142274D01*
X106529555Y-36089767D01*
X106485723Y-36024169D01*
X106488056Y-36022610D01*
X106470556Y-35980361D01*
X106488251Y-35937640D01*
X106486084Y-35936192D01*
X106490132Y-35930133D01*
X106490133Y-35930133D01*
X106530027Y-35870428D01*
X106540500Y-35817777D01*
X106540499Y-35505143D01*
X106562173Y-35452818D01*
X106614499Y-35431144D01*
X106666825Y-35452818D01*
X106667991Y-35453984D01*
X106687142Y-35487154D01*
X106691963Y-35505144D01*
X106692002Y-35505288D01*
X106751308Y-35608009D01*
X106751309Y-35608010D01*
X106751311Y-35608013D01*
X106835187Y-35691889D01*
X106835189Y-35691890D01*
X106835190Y-35691891D01*
X106937912Y-35751198D01*
X106937914Y-35751199D01*
X106937915Y-35751199D01*
X106937917Y-35751200D01*
X106995202Y-35766549D01*
X107052488Y-35781899D01*
X107052489Y-35781900D01*
X107052491Y-35781900D01*
X107171111Y-35781900D01*
X107171111Y-35781899D01*
X107285686Y-35751199D01*
X107388413Y-35691889D01*
X107472289Y-35608013D01*
X107531599Y-35505286D01*
X107562299Y-35390711D01*
X107562300Y-35390711D01*
X107562300Y-35272089D01*
X107562299Y-35272088D01*
X107549041Y-35222610D01*
X107545314Y-35208700D01*
X107531600Y-35157517D01*
X107531598Y-35157512D01*
X107472291Y-35054790D01*
X107472290Y-35054789D01*
X107472289Y-35054787D01*
X107388413Y-34970911D01*
X107388410Y-34970909D01*
X107388409Y-34970908D01*
X107285688Y-34911602D01*
X107285687Y-34911601D01*
X107285686Y-34911601D01*
X107267554Y-34906742D01*
X107234384Y-34887591D01*
X107084739Y-34737946D01*
X107063065Y-34685620D01*
X107084739Y-34633294D01*
X107117913Y-34614141D01*
X107120305Y-34613500D01*
X107120309Y-34613500D01*
X107234886Y-34582799D01*
X107337613Y-34523489D01*
X107421489Y-34439613D01*
X107480799Y-34336886D01*
X107511499Y-34222311D01*
X107511500Y-34222311D01*
X107511500Y-34103689D01*
X107511499Y-34103688D01*
X107508284Y-34091691D01*
X107491081Y-34027488D01*
X107480800Y-33989117D01*
X107480798Y-33989112D01*
X107421491Y-33886390D01*
X107421490Y-33886389D01*
X107421489Y-33886387D01*
X107337613Y-33802511D01*
X107337610Y-33802509D01*
X107337609Y-33802508D01*
X107234887Y-33743201D01*
X107225898Y-33740792D01*
X107207110Y-33735758D01*
X107185148Y-33725806D01*
X107085572Y-33659257D01*
X106958102Y-33606442D01*
X106958094Y-33606440D01*
X106822773Y-33579507D01*
X106822774Y-33579507D01*
X106811434Y-33579506D01*
X106811434Y-33579505D01*
X106806479Y-33579504D01*
X106806463Y-33579500D01*
X106753784Y-33579500D01*
X106690853Y-33579493D01*
X106690757Y-33579500D01*
X105902228Y-33579500D01*
X105849571Y-33589973D01*
X105789868Y-33629866D01*
X105789866Y-33629868D01*
X105749973Y-33689571D01*
X105739500Y-33742224D01*
X105739500Y-34217771D01*
X105739501Y-34217776D01*
X105749973Y-34270428D01*
X105780222Y-34315699D01*
X105793916Y-34336192D01*
X105791582Y-34337750D01*
X105809083Y-34380000D01*
X105791582Y-34422249D01*
X105793916Y-34423808D01*
X105789867Y-34429866D01*
X105789867Y-34429867D01*
X105779588Y-34445250D01*
X105749973Y-34489571D01*
X105749183Y-34493542D01*
X105743227Y-34523489D01*
X105739500Y-34542224D01*
X105739500Y-35017771D01*
X105739501Y-35017776D01*
X105749973Y-35070428D01*
X105762650Y-35089401D01*
X105765448Y-35093587D01*
X105769659Y-35114756D01*
X105777920Y-35134700D01*
X105775019Y-35141702D01*
X105776498Y-35149135D01*
X105764507Y-35167081D01*
X105756246Y-35187026D01*
X105749243Y-35189926D01*
X105745033Y-35196228D01*
X105703920Y-35208700D01*
X105650254Y-35208700D01*
X105597929Y-35187027D01*
X105580929Y-35170027D01*
X105559613Y-35148711D01*
X105559610Y-35148709D01*
X105559609Y-35148708D01*
X105456887Y-35089401D01*
X105456882Y-35089399D01*
X105342311Y-35058700D01*
X105342309Y-35058700D01*
X105223691Y-35058700D01*
X105223689Y-35058700D01*
X105109117Y-35089399D01*
X105109112Y-35089401D01*
X105006390Y-35148708D01*
X105006387Y-35148710D01*
X105006387Y-35148711D01*
X104991224Y-35163873D01*
X104938900Y-35185547D01*
X104886574Y-35163873D01*
X104864900Y-35111547D01*
X104864900Y-34935122D01*
X104886573Y-34882797D01*
X105091660Y-34677711D01*
X105099570Y-34664011D01*
X105131221Y-34609189D01*
X105151699Y-34532764D01*
X105151700Y-34532764D01*
X105151700Y-34454053D01*
X105173373Y-34401728D01*
X105211689Y-34363413D01*
X105270999Y-34260686D01*
X105301699Y-34146111D01*
X105301700Y-34146111D01*
X105301700Y-34027489D01*
X105301699Y-34027488D01*
X105271000Y-33912917D01*
X105270998Y-33912912D01*
X105211691Y-33810190D01*
X105211690Y-33810189D01*
X105211689Y-33810187D01*
X105127813Y-33726311D01*
X105127810Y-33726309D01*
X105127809Y-33726308D01*
X105025087Y-33667001D01*
X105025082Y-33666999D01*
X104910511Y-33636300D01*
X104910509Y-33636300D01*
X104791891Y-33636300D01*
X104791889Y-33636300D01*
X104677317Y-33666999D01*
X104677312Y-33667001D01*
X104574590Y-33726308D01*
X104490708Y-33810190D01*
X104431401Y-33912912D01*
X104431399Y-33912917D01*
X104400700Y-34027488D01*
X104400700Y-34146111D01*
X104431399Y-34260682D01*
X104431401Y-34260687D01*
X104486222Y-34355639D01*
X104488743Y-34374789D01*
X104496136Y-34392633D01*
X104492309Y-34401873D01*
X104493615Y-34411792D01*
X104474466Y-34444961D01*
X104461607Y-34457822D01*
X104409283Y-34479500D01*
X104162850Y-34479500D01*
X104110524Y-34457826D01*
X104101328Y-34446622D01*
X104090133Y-34429867D01*
X104090129Y-34429864D01*
X104084979Y-34424714D01*
X104086829Y-34422863D01*
X104061153Y-34384438D01*
X104072202Y-34328889D01*
X104085392Y-34315699D01*
X104084979Y-34315286D01*
X104090126Y-34310137D01*
X104090133Y-34310133D01*
X104130027Y-34250428D01*
X104140500Y-34197777D01*
X104140499Y-33722224D01*
X104130027Y-33669572D01*
X104090133Y-33609867D01*
X104030428Y-33569973D01*
X103977777Y-33559500D01*
X103977775Y-33559500D01*
X103795123Y-33559500D01*
X103746328Y-33541133D01*
X103744505Y-33539534D01*
X103695711Y-33490740D01*
X103682012Y-33482831D01*
X103675699Y-33479186D01*
X103627190Y-33451179D01*
X103627185Y-33451177D01*
X103550764Y-33430700D01*
X103550762Y-33430700D01*
X102018054Y-33430700D01*
X101965729Y-33409027D01*
X101927413Y-33370711D01*
X101927410Y-33370709D01*
X101927409Y-33370708D01*
X101824687Y-33311401D01*
X101824682Y-33311399D01*
X101710111Y-33280700D01*
X101710109Y-33280700D01*
X101591491Y-33280700D01*
X101591489Y-33280700D01*
X101476917Y-33311399D01*
X101476912Y-33311401D01*
X101374190Y-33370708D01*
X101290308Y-33454590D01*
X101231001Y-33557312D01*
X101230999Y-33557317D01*
X101200300Y-33671888D01*
X91471875Y-33671888D01*
X91620761Y-33545080D01*
X91627119Y-33540235D01*
X91880048Y-33368327D01*
X91886898Y-33364195D01*
X92156959Y-33220697D01*
X92164241Y-33217322D01*
X92448235Y-33103930D01*
X92455824Y-33101367D01*
X92750444Y-33019401D01*
X92758265Y-33017675D01*
X93060022Y-32968106D01*
X93067997Y-32967237D01*
X93374029Y-32950609D01*
X93378044Y-32950500D01*
X93380772Y-32950500D01*
X110647800Y-32950500D01*
X110700126Y-32972174D01*
G37*
%TD.AperFunction*%
%TD*%
M02*
