M48
; DRILL file {KiCad 9.0.2} date 2025-09-29T10:12:57+0200
; FORMAT={-:-/ absolute / metric / decimal}
; #@! TF.CreationDate,2025-09-29T10:12:57+02:00
; #@! TF.GenerationSoftware,Kicad,Pcbnew,9.0.2
; #@! TF.FileFunction,Plated,1,4,PTH
FMAT,2
METRIC
; #@! TA.AperFunction,Plated,PTH,ViaDrill
T1C0.300
; #@! TA.AperFunction,Plated,PTH,ComponentDrill
T2C0.500
; #@! TA.AperFunction,Plated,PTH,ComponentDrill
T3C0.600
%
G90
G05
T1
X91.23Y-60.85
X91.28Y-71.3
X91.36Y-67.94
X91.38Y-64.76
X91.67Y-36.28
X91.76Y-74.14
X91.77Y-58.15
X91.973Y-37.795
X92.3Y-46.4
X92.38Y-44.18
X92.39Y-41.51
X92.46Y-34.42
X93.4Y-36.86
X93.65Y-74.08
X93.726Y-35.408
X94.54Y-45.9
X94.64Y-34.036
X94.68Y-62.86
X94.692Y-43.661
X94.84Y-41.26
X94.869Y-64.237
X95.199Y-70.561
X95.377Y-36.271
X95.682Y-73.33
X96.0Y-60.95
X96.04Y-57.04
X96.1Y-53.73
X96.164Y-34.95
X96.22Y-33.56
X96.495Y-37.516
X96.8Y-59.79
X97.33Y-50.84
X97.409Y-36.22
X97.49Y-55.1
X97.866Y-34.646
X97.99Y-64.45
X98.09Y-65.78
X98.54Y-33.75
X99.136Y-35.839
X99.25Y-64.2
X99.26Y-65.02
X99.26Y-65.81
X99.593Y-37.567
X99.62Y-39.1
X99.83Y-48.17
X99.88Y-33.47
X99.94Y-52.82
X100.12Y-43.63
X100.18Y-34.79
X100.34Y-58.03
X100.9Y-41.27
X100.93Y-67.63
X100.95Y-72.77
X100.96Y-70.08
X101.64Y-44.93
X101.651Y-33.731
X101.71Y-50.86
X101.854Y-62.687
X101.86Y-60.73
X102.099Y-48.754
X102.33Y-63.83
X102.75Y-73.82
X102.77Y-38.12
X102.82Y-39.76
X102.86Y-50.71
X103.124Y-36.5
X103.22Y-41.25
X103.34Y-68.46
X104.21Y-43.59
X104.82Y-69.22
X104.851Y-34.087
X105.17Y-46.76
X105.283Y-35.509
X105.334Y-47.879
X105.41Y-55.72
X105.44Y-74.03
X105.5Y-58.2
X105.84Y-45.2
X105.88Y-51.7
X106.01Y-50.71
X106.06Y-49.72
X106.14Y-61.84
X106.41Y-68.74
X106.47Y-53.89
X106.629Y-46.253
X106.72Y-56.96
X106.8Y-44.49
X106.909Y-39.446
X107.061Y-34.163
X107.112Y-35.331
X107.42Y-65.88
X107.51Y-64.12
X107.544Y-40.97
X107.696Y-48.463
X107.823Y-46.736
X107.94Y-58.21
X107.95Y-55.73
X108.204Y-34.468
X108.25Y-74.03
X108.31Y-69.44
X108.43Y-68.36
X108.65Y-65.88
X108.763Y-36.474
X108.91Y-62.0
X109.144Y-33.579
X109.144Y-35.204
X109.44Y-68.36
X109.763Y-58.01
X109.94Y-65.92
X109.99Y-49.15
X110.033Y-59.03
X110.06Y-36.47
X110.094Y-55.936
X110.095Y-33.324
X110.095Y-34.086
X110.095Y-34.848
X110.095Y-35.61
X110.211Y-56.744
X110.43Y-68.34
X110.57Y-52.39
X110.693Y-39.497
X110.75Y-69.33
X110.849Y-36.484
X110.97Y-74.14
X111.023Y-37.389
X111.277Y-47.523
X111.557Y-62.154
X111.611Y-36.484
X111.785Y-39.548
X111.805Y-66.14
X112.373Y-36.484
X112.471Y-52.324
X112.68Y-62.13
X113.12Y-74.14
X113.135Y-36.484
X113.284Y-57.175
X113.29Y-69.38
X113.309Y-54.407
X113.538Y-39.37
X113.651Y-45.205
X113.89Y-93.2
X113.897Y-36.484
X113.96Y-94.2
X114.42Y-49.81
X114.452Y-48.031
X114.452Y-51.562
X114.474Y-58.778
X114.615Y-42.6
X114.659Y-36.484
X114.681Y-43.663
X114.804Y-45.721
X115.14Y-74.09
X115.3Y-69.41
X115.316Y-43.169
X115.421Y-36.484
X115.82Y-42.026
X116.183Y-36.484
X116.23Y-48.692
X116.24Y-67.72
X116.945Y-36.484
X117.196Y-44.958
X117.196Y-45.999
X117.221Y-43.129
X117.221Y-44.145
X117.282Y-66.143
X117.44Y-54.702
X117.735Y-36.484
X117.938Y-40.804
X117.976Y-38.211
X118.22Y-48.76
X118.22Y-54.254
X118.4Y-61.09
X118.469Y-36.484
X118.58Y-44.958
X118.58Y-45.999
X118.605Y-43.129
X118.605Y-44.145
X118.835Y-41.075
X119.151Y-58.268
X119.228Y-56.998
X119.231Y-33.33
X119.231Y-34.044
X119.253Y-36.5
X119.421Y-53.851
X119.64Y-73.26
X119.659Y-35.738
X119.81Y-51.75
X119.86Y-49.78
X119.939Y-38.71
X119.964Y-34.341
X119.97Y-39.62
X120.04Y-36.5
X120.066Y-44.958
X120.066Y-45.999
X120.091Y-43.129
X120.091Y-44.145
X120.17Y-53.87
X120.31Y-67.23
X120.52Y-69.93
X120.675Y-34.798
X120.726Y-65.735
X120.802Y-33.782
X120.92Y-53.87
X121.158Y-35.535
X121.285Y-36.474
X121.44Y-39.3
X121.57Y-70.02
X121.63Y-38.08
X121.67Y-53.87
X121.742Y-34.519
X121.833Y-44.324
X121.895Y-64.719
X122.072Y-38.76
X122.246Y-41.232
X122.301Y-35.839
X122.33Y-33.6
X122.419Y-53.87
X122.81Y-34.78
X122.869Y-47.752
X122.869Y-49.51
X122.89Y-69.94
X122.901Y-48.65
X122.98Y-68.76
X123.169Y-53.969
X123.22Y-42.53
X123.56Y-33.78
X123.61Y-35.65
X123.723Y-64.897
X124.05Y-67.5
X124.51Y-73.26
X124.663Y-54.178
X124.68Y-33.59
X124.7Y-36.03
X124.76Y-34.83
X124.78Y-68.32
X125.03Y-94.2
X125.13Y-45.73
X125.16Y-43.69
X125.38Y-53.18
X125.81Y-58.37
X125.85Y-33.79
X125.85Y-54.42
X125.85Y-56.93
X125.87Y-62.14
X125.89Y-64.82
X125.94Y-60.27
X125.96Y-55.45
X126.01Y-35.15
X126.1Y-36.16
X126.27Y-72.15
X126.416Y-37.211
X126.97Y-54.27
X127.2Y-45.92
X127.23Y-34.77
X127.254Y-39.319
X127.381Y-40.513
X127.59Y-36.13
X127.61Y-48.8
X127.89Y-69.79
X127.91Y-74.26
X127.92Y-60.15
X127.97Y-72.01
X127.98Y-58.32
X128.0Y-56.86
X128.0Y-62.14
X128.03Y-63.8
X128.03Y-67.67
X128.04Y-55.46
X128.05Y-65.75
X128.118Y-41.961
T2
X93.24Y-61.11
X93.24Y-63.62
T3
G00X93.917Y-39.341
M15
G01X93.317Y-39.341
M16
G05
G00X93.917Y-47.981
M15
G01X93.317Y-47.981
M16
G05
G00X98.347Y-39.341
M15
G01X97.247Y-39.341
M16
G05
G00X98.347Y-47.981
M15
G01X97.247Y-47.981
M16
G05
M30
