%TF.GenerationSoftware,KiCad,Pcbnew,9.0.2*%
%TF.CreationDate,2025-09-29T10:12:53+02:00*%
%TF.ProjectId,plantpal,706c616e-7470-4616-9c2e-6b696361645f,1*%
%TF.SameCoordinates,Original*%
%TF.FileFunction,Paste,Bot*%
%TF.FilePolarity,Positive*%
%FSLAX46Y46*%
G04 Gerber Fmt 4.6, Leading zero omitted, Abs format (unit mm)*
G04 Created by KiCad (PCBNEW 9.0.2) date 2025-09-29 10:12:53*
%MOMM*%
%LPD*%
G01*
G04 APERTURE LIST*
G04 Aperture macros list*
%AMRoundRect*
0 Rectangle with rounded corners*
0 $1 Rounding radius*
0 $2 $3 $4 $5 $6 $7 $8 $9 X,Y pos of 4 corners*
0 Add a 4 corners polygon primitive as box body*
4,1,4,$2,$3,$4,$5,$6,$7,$8,$9,$2,$3,0*
0 Add four circle primitives for the rounded corners*
1,1,$1+$1,$2,$3*
1,1,$1+$1,$4,$5*
1,1,$1+$1,$6,$7*
1,1,$1+$1,$8,$9*
0 Add four rect primitives between the rounded corners*
20,1,$1+$1,$2,$3,$4,$5,0*
20,1,$1+$1,$4,$5,$6,$7,0*
20,1,$1+$1,$6,$7,$8,$9,0*
20,1,$1+$1,$8,$9,$2,$3,0*%
G04 Aperture macros list end*
%ADD10RoundRect,0.250000X0.350000X0.450000X-0.350000X0.450000X-0.350000X-0.450000X0.350000X-0.450000X0*%
%ADD11RoundRect,0.030000X-0.220000X-0.220000X0.220000X-0.220000X0.220000X0.220000X-0.220000X0.220000X0*%
%ADD12RoundRect,0.250000X-0.250000X-1.500000X0.250000X-1.500000X0.250000X1.500000X-0.250000X1.500000X0*%
%ADD13RoundRect,0.250001X-0.499999X-1.449999X0.499999X-1.449999X0.499999X1.449999X-0.499999X1.449999X0*%
%ADD14RoundRect,0.175000X0.725000X0.175000X-0.725000X0.175000X-0.725000X-0.175000X0.725000X-0.175000X0*%
%ADD15RoundRect,0.175000X0.175000X-0.725000X0.175000X0.725000X-0.175000X0.725000X-0.175000X-0.725000X0*%
G04 APERTURE END LIST*
D10*
%TO.C,REF\u002A\u002A*%
X123080000Y-73260000D03*
X121080000Y-73260000D03*
%TD*%
D11*
%TO.C,U7*%
X106140000Y-36380000D03*
X106140000Y-35580000D03*
X106140000Y-34780000D03*
X106140000Y-33980000D03*
X103740000Y-33960000D03*
X103740000Y-34780000D03*
X103740000Y-35580000D03*
X103740000Y-36380000D03*
%TD*%
D12*
%TO.C,BT1*%
X97840000Y-96890000D03*
X99840000Y-96890000D03*
D13*
X95490000Y-91140000D03*
X102190000Y-91140000D03*
%TD*%
D14*
%TO.C,U5*%
X111850000Y-94170000D03*
X111850000Y-93170000D03*
X111850000Y-92170000D03*
X111850000Y-91170000D03*
X111850000Y-90170000D03*
X111850000Y-89170000D03*
X111850000Y-88170000D03*
X111850000Y-87170000D03*
X111850000Y-86170000D03*
X111850000Y-85170000D03*
X111850000Y-84170000D03*
X111850000Y-83170000D03*
D15*
X119750000Y-81020000D03*
X120750000Y-81020000D03*
X121750000Y-81020000D03*
X122750000Y-81020000D03*
D14*
X126650000Y-83170000D03*
X126650000Y-84170000D03*
X126650000Y-85170000D03*
X126650000Y-90170000D03*
X126650000Y-91170000D03*
X126650000Y-92170000D03*
X126650000Y-93170000D03*
X126650000Y-94170000D03*
D15*
X122750000Y-95820000D03*
X121750000Y-95820000D03*
X120750000Y-95820000D03*
X119750000Y-95820000D03*
X118750000Y-95820000D03*
X117750000Y-95820000D03*
X116750000Y-95820000D03*
X115750000Y-95820000D03*
%TD*%
M02*
