%TF.GenerationSoftware,KiCad,Pcbnew,9.0.2*%
%TF.CreationDate,2025-09-29T10:12:53+02:00*%
%TF.ProjectId,plantpal,706c616e-7470-4616-9c2e-6b696361645f,1*%
%TF.SameCoordinates,Original*%
%TF.FileFunction,Legend,Bot*%
%TF.FilePolarity,Positive*%
%FSLAX46Y46*%
G04 Gerber Fmt 4.6, Leading zero omitted, Abs format (unit mm)*
G04 Created by KiCad (PCBNEW 9.0.2) date 2025-09-29 10:12:53*
%MOMM*%
%LPD*%
G01*
G04 APERTURE LIST*
%ADD10C,0.150000*%
%ADD11C,0.120000*%
%ADD12C,0.200000*%
%ADD13C,0.500000*%
%ADD14C,0.127000*%
G04 APERTURE END LIST*
D10*
X91970000Y-60410000D02*
X91970000Y-72380000D01*
D11*
X99680000Y-106990000D02*
X119680000Y-106990000D01*
D12*
X102890000Y-33440000D02*
X102890000Y-38927500D01*
D10*
X95243220Y-61168866D02*
X94481316Y-61168866D01*
X94862268Y-61549819D02*
X94862268Y-60787914D01*
D13*
X103144862Y-99167333D02*
X101621053Y-99167333D01*
D10*
G36*
X95964031Y-86629077D02*
G01*
X96035973Y-86701019D01*
X96076315Y-86862386D01*
X96076315Y-87177251D01*
X96035973Y-87338617D01*
X95964030Y-87410561D01*
X95895515Y-87444819D01*
X95740449Y-87444819D01*
X95671933Y-87410561D01*
X95599990Y-87338617D01*
X95559649Y-87177251D01*
X95559649Y-86862386D01*
X95599990Y-86701019D01*
X95671933Y-86629077D01*
X95740449Y-86594819D01*
X95895515Y-86594819D01*
X95964031Y-86629077D01*
G37*
G36*
X97028696Y-86968628D02*
G01*
X96740449Y-86968628D01*
X96671933Y-86934370D01*
X96641526Y-86903963D01*
X96607268Y-86835447D01*
X96607268Y-86728000D01*
X96641526Y-86659484D01*
X96671933Y-86629077D01*
X96740449Y-86594819D01*
X97028696Y-86594819D01*
X97028696Y-86968628D01*
G37*
G36*
X102193128Y-87705930D02*
G01*
X95298538Y-87705930D01*
X95298538Y-86853152D01*
X95409649Y-86853152D01*
X95409649Y-87186485D01*
X95409900Y-87189038D01*
X95409738Y-87190131D01*
X95410547Y-87195604D01*
X95411090Y-87201117D01*
X95411512Y-87202138D01*
X95411888Y-87204675D01*
X95459507Y-87395151D01*
X95464454Y-87408997D01*
X95467773Y-87413476D01*
X95469907Y-87418628D01*
X95479235Y-87429994D01*
X95574473Y-87525233D01*
X95580223Y-87529953D01*
X95581522Y-87531450D01*
X95583776Y-87532869D01*
X95585838Y-87534561D01*
X95587670Y-87535319D01*
X95593965Y-87539282D01*
X95689203Y-87586901D01*
X95702934Y-87592156D01*
X95705623Y-87592347D01*
X95708112Y-87593378D01*
X95722744Y-87594819D01*
X95913220Y-87594819D01*
X95927852Y-87593378D01*
X95930341Y-87592346D01*
X95933029Y-87592156D01*
X95946761Y-87586901D01*
X96041999Y-87539282D01*
X96048298Y-87535317D01*
X96050126Y-87534560D01*
X96052182Y-87532871D01*
X96054442Y-87531450D01*
X96055741Y-87529951D01*
X96061491Y-87525233D01*
X96156730Y-87429993D01*
X96166057Y-87418628D01*
X96168190Y-87413476D01*
X96171510Y-87408997D01*
X96176457Y-87395151D01*
X96224076Y-87204675D01*
X96224451Y-87202138D01*
X96224874Y-87201117D01*
X96225416Y-87195604D01*
X96226226Y-87190131D01*
X96226063Y-87189038D01*
X96226315Y-87186485D01*
X96226315Y-86853152D01*
X96226063Y-86850598D01*
X96226226Y-86849506D01*
X96225416Y-86844032D01*
X96224874Y-86838520D01*
X96224451Y-86837498D01*
X96224076Y-86834962D01*
X96192909Y-86710295D01*
X96457268Y-86710295D01*
X96457268Y-86853152D01*
X96458709Y-86867784D01*
X96459740Y-86870273D01*
X96459931Y-86872961D01*
X96465186Y-86886693D01*
X96512805Y-86981931D01*
X96516769Y-86988230D01*
X96517527Y-86990058D01*
X96519215Y-86992114D01*
X96520637Y-86994374D01*
X96522135Y-86995673D01*
X96526854Y-87001423D01*
X96574473Y-87049042D01*
X96580222Y-87053760D01*
X96581522Y-87055259D01*
X96583781Y-87056680D01*
X96585838Y-87058369D01*
X96587665Y-87059126D01*
X96593965Y-87063091D01*
X96689203Y-87110710D01*
X96702934Y-87115965D01*
X96705623Y-87116156D01*
X96708112Y-87117187D01*
X96722744Y-87118628D01*
X97028696Y-87118628D01*
X97028696Y-87519819D01*
X97030137Y-87534451D01*
X97041336Y-87561487D01*
X97062028Y-87582179D01*
X97089064Y-87593378D01*
X97118328Y-87593378D01*
X97145364Y-87582179D01*
X97166056Y-87561487D01*
X97177255Y-87534451D01*
X97178696Y-87519819D01*
X97178696Y-86519819D01*
X97504886Y-86519819D01*
X97504886Y-87519819D01*
X97506327Y-87534451D01*
X97517526Y-87561487D01*
X97538218Y-87582179D01*
X97565254Y-87593378D01*
X97594518Y-87593378D01*
X97621554Y-87582179D01*
X97642246Y-87561487D01*
X97653445Y-87534451D01*
X97654886Y-87519819D01*
X97654886Y-87505187D01*
X97839661Y-87505187D01*
X97839661Y-87534451D01*
X97850860Y-87561487D01*
X97871552Y-87582179D01*
X97898588Y-87593378D01*
X97913220Y-87594819D01*
X98389410Y-87594819D01*
X98404042Y-87593378D01*
X98431078Y-87582179D01*
X98451770Y-87561487D01*
X98462969Y-87534451D01*
X98464410Y-87519819D01*
X98464410Y-86519819D01*
X98463057Y-86506085D01*
X99458536Y-86506085D01*
X99458709Y-86520264D01*
X99458709Y-86534451D01*
X99458887Y-86534881D01*
X99458893Y-86535346D01*
X99463332Y-86549363D01*
X99891903Y-87549363D01*
X99898991Y-87562244D01*
X99919935Y-87582682D01*
X99947105Y-87593550D01*
X99976366Y-87593194D01*
X100003264Y-87581666D01*
X100023703Y-87560723D01*
X100034571Y-87533553D01*
X100034214Y-87504291D01*
X100029775Y-87490275D01*
X99646009Y-86594819D01*
X100198934Y-86594819D01*
X100213566Y-86593378D01*
X100240602Y-86582179D01*
X100261294Y-86561487D01*
X100272493Y-86534451D01*
X100272493Y-86529199D01*
X100362619Y-86529199D01*
X100365879Y-86543536D01*
X100699212Y-87543536D01*
X100705206Y-87556961D01*
X100708716Y-87561008D01*
X100711113Y-87565802D01*
X100718221Y-87571967D01*
X100724380Y-87579068D01*
X100729169Y-87581462D01*
X100733220Y-87584976D01*
X100742145Y-87587950D01*
X100750553Y-87592155D01*
X100755897Y-87592534D01*
X100760983Y-87594230D01*
X100770363Y-87593563D01*
X100779743Y-87594230D01*
X100784828Y-87592534D01*
X100790173Y-87592155D01*
X100798583Y-87587949D01*
X100807505Y-87584976D01*
X100811552Y-87581465D01*
X100816346Y-87579069D01*
X100822509Y-87571963D01*
X100829613Y-87565802D01*
X100832008Y-87561010D01*
X100835520Y-87556962D01*
X100841514Y-87543536D01*
X100992277Y-87091247D01*
X101314411Y-87091247D01*
X101314411Y-87329342D01*
X101315852Y-87343974D01*
X101316883Y-87346463D01*
X101317074Y-87349151D01*
X101322329Y-87362883D01*
X101369948Y-87458121D01*
X101373911Y-87464417D01*
X101374669Y-87466247D01*
X101376358Y-87468305D01*
X101377780Y-87470564D01*
X101379278Y-87471863D01*
X101383996Y-87477612D01*
X101431615Y-87525232D01*
X101437364Y-87529950D01*
X101438665Y-87531450D01*
X101440924Y-87532872D01*
X101442981Y-87534560D01*
X101444808Y-87535317D01*
X101451108Y-87539282D01*
X101546346Y-87586901D01*
X101560077Y-87592156D01*
X101562766Y-87592347D01*
X101565255Y-87593378D01*
X101579887Y-87594819D01*
X101865601Y-87594819D01*
X101880233Y-87593378D01*
X101882722Y-87592346D01*
X101885410Y-87592156D01*
X101899142Y-87586901D01*
X101994380Y-87539282D01*
X102000679Y-87535317D01*
X102002507Y-87534560D01*
X102004563Y-87532872D01*
X102006823Y-87531450D01*
X102008123Y-87529950D01*
X102013873Y-87525232D01*
X102061491Y-87477613D01*
X102070819Y-87466247D01*
X102082017Y-87439211D01*
X102082017Y-87409948D01*
X102070818Y-87382912D01*
X102050125Y-87362219D01*
X102023089Y-87351021D01*
X101993826Y-87351021D01*
X101966790Y-87362220D01*
X101955424Y-87371548D01*
X101916411Y-87410561D01*
X101847896Y-87444819D01*
X101597592Y-87444819D01*
X101529076Y-87410561D01*
X101498669Y-87380153D01*
X101464411Y-87311637D01*
X101464411Y-87108952D01*
X101498669Y-87040436D01*
X101529076Y-87010029D01*
X101597592Y-86975771D01*
X101722744Y-86975771D01*
X101730482Y-86975008D01*
X101732450Y-86975140D01*
X101733805Y-86974681D01*
X101737376Y-86974330D01*
X101748633Y-86969666D01*
X101760171Y-86965765D01*
X101762075Y-86964099D01*
X101764412Y-86963131D01*
X101773022Y-86954520D01*
X101782195Y-86946495D01*
X101783317Y-86944225D01*
X101785104Y-86942439D01*
X101789764Y-86931188D01*
X101795167Y-86920263D01*
X101795335Y-86917739D01*
X101796303Y-86915403D01*
X101796303Y-86903218D01*
X101797113Y-86891065D01*
X101796303Y-86888669D01*
X101796303Y-86886139D01*
X101791639Y-86874881D01*
X101787738Y-86863344D01*
X101785652Y-86860426D01*
X101785104Y-86859103D01*
X101783708Y-86857707D01*
X101779187Y-86851383D01*
X101554693Y-86594819D01*
X102008458Y-86594819D01*
X102023090Y-86593378D01*
X102050126Y-86582179D01*
X102070818Y-86561487D01*
X102082017Y-86534451D01*
X102082017Y-86505187D01*
X102070818Y-86478151D01*
X102050126Y-86457459D01*
X102023090Y-86446260D01*
X102008458Y-86444819D01*
X101389411Y-86444819D01*
X101381672Y-86445581D01*
X101379705Y-86445450D01*
X101378349Y-86445908D01*
X101374779Y-86446260D01*
X101363521Y-86450923D01*
X101351984Y-86454825D01*
X101350079Y-86456490D01*
X101347743Y-86457459D01*
X101339132Y-86466069D01*
X101329960Y-86474095D01*
X101328837Y-86476364D01*
X101327051Y-86478151D01*
X101322390Y-86489401D01*
X101316988Y-86500327D01*
X101316819Y-86502850D01*
X101315852Y-86505187D01*
X101315852Y-86517371D01*
X101315042Y-86529525D01*
X101315852Y-86531920D01*
X101315852Y-86534451D01*
X101320515Y-86545708D01*
X101324417Y-86557246D01*
X101326502Y-86560163D01*
X101327051Y-86561487D01*
X101328446Y-86562882D01*
X101332968Y-86569207D01*
X101559863Y-86828515D01*
X101546346Y-86833689D01*
X101451108Y-86881308D01*
X101444808Y-86885272D01*
X101442981Y-86886030D01*
X101440924Y-86887718D01*
X101438665Y-86889140D01*
X101437365Y-86890638D01*
X101431616Y-86895357D01*
X101383997Y-86942976D01*
X101379278Y-86948725D01*
X101377780Y-86950025D01*
X101376358Y-86952284D01*
X101374670Y-86954341D01*
X101373912Y-86956168D01*
X101369948Y-86962468D01*
X101322329Y-87057706D01*
X101317074Y-87071438D01*
X101316883Y-87074125D01*
X101315852Y-87076615D01*
X101314411Y-87091247D01*
X100992277Y-87091247D01*
X101174847Y-86543536D01*
X101178107Y-86529200D01*
X101176032Y-86500010D01*
X101162946Y-86473836D01*
X101140838Y-86454662D01*
X101113076Y-86445408D01*
X101083886Y-86447483D01*
X101057713Y-86460570D01*
X101038539Y-86482677D01*
X101032545Y-86496102D01*
X100770363Y-87282648D01*
X100508181Y-86496102D01*
X100502187Y-86482676D01*
X100483013Y-86460569D01*
X100456840Y-86447483D01*
X100427650Y-86445408D01*
X100399887Y-86454662D01*
X100377780Y-86473836D01*
X100364694Y-86500009D01*
X100362619Y-86529199D01*
X100272493Y-86529199D01*
X100272493Y-86505187D01*
X100261294Y-86478151D01*
X100240602Y-86457459D01*
X100213566Y-86446260D01*
X100198934Y-86444819D01*
X99532268Y-86444819D01*
X99517636Y-86446260D01*
X99517205Y-86446438D01*
X99516741Y-86446444D01*
X99503700Y-86452032D01*
X99490600Y-86457459D01*
X99490271Y-86457787D01*
X99489843Y-86457971D01*
X99479927Y-86468131D01*
X99469908Y-86478151D01*
X99469729Y-86478581D01*
X99469404Y-86478915D01*
X99464130Y-86492097D01*
X99458709Y-86505187D01*
X99458709Y-86505652D01*
X99458536Y-86506085D01*
X98463057Y-86506085D01*
X98462969Y-86505187D01*
X98451770Y-86478151D01*
X98431078Y-86457459D01*
X98404042Y-86446260D01*
X98374778Y-86446260D01*
X98347742Y-86457459D01*
X98327050Y-86478151D01*
X98315851Y-86505187D01*
X98314410Y-86519819D01*
X98314410Y-87444819D01*
X97913220Y-87444819D01*
X97898588Y-87446260D01*
X97871552Y-87457459D01*
X97850860Y-87478151D01*
X97839661Y-87505187D01*
X97654886Y-87505187D01*
X97654886Y-86519819D01*
X97653445Y-86505187D01*
X97642246Y-86478151D01*
X97621554Y-86457459D01*
X97594518Y-86446260D01*
X97565254Y-86446260D01*
X97538218Y-86457459D01*
X97517526Y-86478151D01*
X97506327Y-86505187D01*
X97504886Y-86519819D01*
X97178696Y-86519819D01*
X97177255Y-86505187D01*
X97166056Y-86478151D01*
X97145364Y-86457459D01*
X97118328Y-86446260D01*
X97103696Y-86444819D01*
X96722744Y-86444819D01*
X96708112Y-86446260D01*
X96705623Y-86447290D01*
X96702934Y-86447482D01*
X96689203Y-86452737D01*
X96593965Y-86500356D01*
X96587665Y-86504320D01*
X96585838Y-86505078D01*
X96583781Y-86506766D01*
X96581522Y-86508188D01*
X96580222Y-86509686D01*
X96574473Y-86514405D01*
X96526854Y-86562024D01*
X96522135Y-86567773D01*
X96520637Y-86569073D01*
X96519215Y-86571332D01*
X96517527Y-86573389D01*
X96516769Y-86575216D01*
X96512805Y-86581516D01*
X96465186Y-86676754D01*
X96459931Y-86690486D01*
X96459740Y-86693173D01*
X96458709Y-86695663D01*
X96457268Y-86710295D01*
X96192909Y-86710295D01*
X96176457Y-86644486D01*
X96171510Y-86630640D01*
X96168191Y-86626161D01*
X96166057Y-86621008D01*
X96156729Y-86609643D01*
X96061491Y-86514405D01*
X96055741Y-86509686D01*
X96054442Y-86508188D01*
X96052182Y-86506766D01*
X96050126Y-86505078D01*
X96048298Y-86504320D01*
X96041999Y-86500356D01*
X95946761Y-86452737D01*
X95933029Y-86447482D01*
X95930341Y-86447291D01*
X95927852Y-86446260D01*
X95913220Y-86444819D01*
X95722744Y-86444819D01*
X95708112Y-86446260D01*
X95705623Y-86447290D01*
X95702934Y-86447482D01*
X95689203Y-86452737D01*
X95593965Y-86500356D01*
X95587670Y-86504318D01*
X95585838Y-86505077D01*
X95583776Y-86506768D01*
X95581522Y-86508188D01*
X95580223Y-86509684D01*
X95574473Y-86514405D01*
X95479235Y-86609643D01*
X95469908Y-86621008D01*
X95467774Y-86626158D01*
X95464454Y-86630640D01*
X95459507Y-86644486D01*
X95411888Y-86834962D01*
X95411512Y-86837498D01*
X95411090Y-86838520D01*
X95410547Y-86844032D01*
X95409738Y-86849506D01*
X95409900Y-86850598D01*
X95409649Y-86853152D01*
X95298538Y-86853152D01*
X95298538Y-86333708D01*
X102193128Y-86333708D01*
X102193128Y-87705930D01*
G37*
D13*
X95864862Y-99167333D02*
X94341053Y-99167333D01*
X95102957Y-99929238D02*
X95102957Y-98405428D01*
D10*
G36*
X110572505Y-38779295D02*
G01*
X110360448Y-38779295D01*
X110310980Y-38754561D01*
X110290096Y-38733676D01*
X110265362Y-38684208D01*
X110265362Y-38605334D01*
X110290096Y-38555865D01*
X110307067Y-38538893D01*
X110393009Y-38510247D01*
X110572505Y-38510247D01*
X110572505Y-38779295D01*
G37*
G36*
X110572505Y-38360247D02*
G01*
X110398544Y-38360247D01*
X110349074Y-38335512D01*
X110328192Y-38314630D01*
X110303458Y-38265161D01*
X110303458Y-38224380D01*
X110328192Y-38174911D01*
X110349074Y-38154029D01*
X110398544Y-38129295D01*
X110572505Y-38129295D01*
X110572505Y-38360247D01*
G37*
G36*
X114374507Y-38154029D02*
G01*
X114427401Y-38206923D01*
X114458220Y-38330196D01*
X114458220Y-38578392D01*
X114427401Y-38701666D01*
X114374506Y-38754560D01*
X114325038Y-38779295D01*
X114208067Y-38779295D01*
X114158599Y-38754561D01*
X114105703Y-38701665D01*
X114074886Y-38578394D01*
X114074886Y-38330194D01*
X114105703Y-38206923D01*
X114158598Y-38154029D01*
X114208067Y-38129295D01*
X114325038Y-38129295D01*
X114374507Y-38154029D01*
G37*
G36*
X113582029Y-38398342D02*
G01*
X113369972Y-38398342D01*
X113320504Y-38373608D01*
X113299621Y-38352725D01*
X113274886Y-38303255D01*
X113274886Y-38224381D01*
X113299621Y-38174911D01*
X113320504Y-38154029D01*
X113369972Y-38129295D01*
X113582029Y-38129295D01*
X113582029Y-38398342D01*
G37*
G36*
X107229163Y-38550723D02*
G01*
X107056324Y-38550723D01*
X107142743Y-38291465D01*
X107229163Y-38550723D01*
G37*
G36*
X112181544Y-38550723D02*
G01*
X112008705Y-38550723D01*
X112095124Y-38291465D01*
X112181544Y-38550723D01*
G37*
G36*
X117782824Y-39018184D02*
G01*
X106066010Y-39018184D01*
X106066010Y-38839663D01*
X106154899Y-38839663D01*
X106154899Y-38868927D01*
X106166098Y-38895963D01*
X106186790Y-38916655D01*
X106213826Y-38927854D01*
X106228458Y-38929295D01*
X106609410Y-38929295D01*
X106624042Y-38927854D01*
X106651078Y-38916655D01*
X106671770Y-38895963D01*
X106682969Y-38868927D01*
X106684410Y-38854295D01*
X106684410Y-38844915D01*
X106801666Y-38844915D01*
X106803741Y-38874105D01*
X106816827Y-38900278D01*
X106838935Y-38919452D01*
X106866697Y-38928706D01*
X106895887Y-38926631D01*
X106922060Y-38913545D01*
X106941234Y-38891437D01*
X106947228Y-38878012D01*
X107006324Y-38700723D01*
X107279163Y-38700723D01*
X107338259Y-38878012D01*
X107344253Y-38891437D01*
X107363427Y-38913545D01*
X107389600Y-38926631D01*
X107418790Y-38928706D01*
X107446553Y-38919452D01*
X107468660Y-38900278D01*
X107481746Y-38874105D01*
X107483821Y-38844915D01*
X107480561Y-38830578D01*
X107216922Y-38039663D01*
X107488232Y-38039663D01*
X107488232Y-38068927D01*
X107499431Y-38095963D01*
X107520123Y-38116655D01*
X107547159Y-38127854D01*
X107561791Y-38129295D01*
X107715363Y-38129295D01*
X107715363Y-38854295D01*
X107716804Y-38868927D01*
X107728003Y-38895963D01*
X107748695Y-38916655D01*
X107775731Y-38927854D01*
X107804995Y-38927854D01*
X107832031Y-38916655D01*
X107852723Y-38895963D01*
X107863922Y-38868927D01*
X107865363Y-38854295D01*
X107865363Y-38129295D01*
X108018934Y-38129295D01*
X108033566Y-38127854D01*
X108060602Y-38116655D01*
X108081294Y-38095963D01*
X108092493Y-38068927D01*
X108092493Y-38054295D01*
X108210600Y-38054295D01*
X108210600Y-38854295D01*
X108210970Y-38858058D01*
X108210783Y-38859534D01*
X108211304Y-38861444D01*
X108212041Y-38868927D01*
X108215858Y-38878142D01*
X108218483Y-38887766D01*
X108221410Y-38891546D01*
X108223240Y-38895963D01*
X108230290Y-38903013D01*
X108236400Y-38910903D01*
X108240553Y-38913276D01*
X108243932Y-38916655D01*
X108253144Y-38920471D01*
X108261809Y-38925422D01*
X108266552Y-38926024D01*
X108270968Y-38927854D01*
X108280942Y-38927854D01*
X108290839Y-38929112D01*
X108295451Y-38927854D01*
X108300232Y-38927854D01*
X108309447Y-38924036D01*
X108319071Y-38921412D01*
X108322851Y-38918484D01*
X108327268Y-38916655D01*
X108334318Y-38909604D01*
X108342208Y-38903495D01*
X108346560Y-38897362D01*
X108347960Y-38895963D01*
X108348529Y-38894588D01*
X108350718Y-38891505D01*
X108667743Y-38336711D01*
X108667743Y-38854295D01*
X108669184Y-38868927D01*
X108680383Y-38895963D01*
X108701075Y-38916655D01*
X108728111Y-38927854D01*
X108757375Y-38927854D01*
X108784411Y-38916655D01*
X108805103Y-38895963D01*
X108816302Y-38868927D01*
X108817743Y-38854295D01*
X108817743Y-38054295D01*
X108817372Y-38050531D01*
X108817560Y-38049056D01*
X108817038Y-38047145D01*
X108816302Y-38039663D01*
X109012042Y-38039663D01*
X109012042Y-38068927D01*
X109023241Y-38095963D01*
X109043933Y-38116655D01*
X109070969Y-38127854D01*
X109085601Y-38129295D01*
X109391553Y-38129295D01*
X109391553Y-38360247D01*
X109199887Y-38360247D01*
X109185255Y-38361688D01*
X109158219Y-38372887D01*
X109137527Y-38393579D01*
X109126328Y-38420615D01*
X109126328Y-38449879D01*
X109137527Y-38476915D01*
X109158219Y-38497607D01*
X109185255Y-38508806D01*
X109199887Y-38510247D01*
X109391553Y-38510247D01*
X109391553Y-38779295D01*
X109085601Y-38779295D01*
X109070969Y-38780736D01*
X109043933Y-38791935D01*
X109023241Y-38812627D01*
X109012042Y-38839663D01*
X109012042Y-38868927D01*
X109023241Y-38895963D01*
X109043933Y-38916655D01*
X109070969Y-38927854D01*
X109085601Y-38929295D01*
X109466553Y-38929295D01*
X109481185Y-38927854D01*
X109508221Y-38916655D01*
X109528913Y-38895963D01*
X109540112Y-38868927D01*
X109541553Y-38854295D01*
X109541553Y-38054295D01*
X109772505Y-38054295D01*
X109772505Y-38854295D01*
X109773946Y-38868927D01*
X109785145Y-38895963D01*
X109805837Y-38916655D01*
X109832873Y-38927854D01*
X109862137Y-38927854D01*
X109889173Y-38916655D01*
X109909865Y-38895963D01*
X109921064Y-38868927D01*
X109922505Y-38854295D01*
X109922505Y-38587628D01*
X110115362Y-38587628D01*
X110115362Y-38701914D01*
X110116803Y-38716546D01*
X110117833Y-38719034D01*
X110118025Y-38721724D01*
X110123280Y-38735456D01*
X110161376Y-38811645D01*
X110165338Y-38817939D01*
X110166097Y-38819771D01*
X110167790Y-38821834D01*
X110169209Y-38824088D01*
X110170703Y-38825384D01*
X110175424Y-38831136D01*
X110213519Y-38869232D01*
X110219270Y-38873952D01*
X110220569Y-38875450D01*
X110222824Y-38876869D01*
X110224884Y-38878560D01*
X110226714Y-38879318D01*
X110233012Y-38883282D01*
X110309202Y-38921377D01*
X110322934Y-38926632D01*
X110325621Y-38926822D01*
X110328111Y-38927854D01*
X110342743Y-38929295D01*
X110647505Y-38929295D01*
X110662137Y-38927854D01*
X110689173Y-38916655D01*
X110709865Y-38895963D01*
X110721064Y-38868927D01*
X110722505Y-38854295D01*
X110722505Y-38054295D01*
X110953458Y-38054295D01*
X110953458Y-38854295D01*
X110954899Y-38868927D01*
X110966098Y-38895963D01*
X110986790Y-38916655D01*
X111013826Y-38927854D01*
X111043090Y-38927854D01*
X111070126Y-38916655D01*
X111090818Y-38895963D01*
X111102017Y-38868927D01*
X111103458Y-38854295D01*
X111103458Y-38392361D01*
X111227161Y-38657439D01*
X111230334Y-38662796D01*
X111230995Y-38664612D01*
X111232171Y-38665896D01*
X111234655Y-38670089D01*
X111243060Y-38677787D01*
X111250759Y-38686193D01*
X111253778Y-38687601D01*
X111256236Y-38689853D01*
X111266945Y-38693747D01*
X111277277Y-38698569D01*
X111280608Y-38698715D01*
X111283737Y-38699853D01*
X111295125Y-38699352D01*
X111306513Y-38699853D01*
X111309641Y-38698715D01*
X111312973Y-38698569D01*
X111323304Y-38693747D01*
X111334014Y-38689853D01*
X111336471Y-38687601D01*
X111339491Y-38686193D01*
X111347189Y-38677787D01*
X111355595Y-38670089D01*
X111358078Y-38665896D01*
X111359255Y-38664612D01*
X111359915Y-38662796D01*
X111363089Y-38657439D01*
X111486791Y-38392362D01*
X111486791Y-38854295D01*
X111488232Y-38868927D01*
X111499431Y-38895963D01*
X111520123Y-38916655D01*
X111547159Y-38927854D01*
X111576423Y-38927854D01*
X111603459Y-38916655D01*
X111624151Y-38895963D01*
X111635350Y-38868927D01*
X111636791Y-38854295D01*
X111636791Y-38844915D01*
X111754047Y-38844915D01*
X111756122Y-38874105D01*
X111769208Y-38900278D01*
X111791316Y-38919452D01*
X111819078Y-38928706D01*
X111848268Y-38926631D01*
X111874441Y-38913545D01*
X111893615Y-38891437D01*
X111899609Y-38878012D01*
X111958705Y-38700723D01*
X112231544Y-38700723D01*
X112290640Y-38878012D01*
X112296634Y-38891437D01*
X112315808Y-38913545D01*
X112341981Y-38926631D01*
X112371171Y-38928706D01*
X112398934Y-38919452D01*
X112421041Y-38900278D01*
X112434127Y-38874105D01*
X112436202Y-38844915D01*
X112432942Y-38830578D01*
X112224974Y-38206676D01*
X113124886Y-38206676D01*
X113124886Y-38320961D01*
X113126327Y-38335593D01*
X113127357Y-38338081D01*
X113127549Y-38340771D01*
X113132804Y-38354502D01*
X113170900Y-38430693D01*
X113174863Y-38436989D01*
X113175622Y-38438820D01*
X113177313Y-38440881D01*
X113178733Y-38443136D01*
X113180228Y-38444432D01*
X113184949Y-38450185D01*
X113223044Y-38488280D01*
X113228793Y-38492998D01*
X113230093Y-38494497D01*
X113232352Y-38495918D01*
X113234409Y-38497607D01*
X113236236Y-38498364D01*
X113242536Y-38502329D01*
X113318726Y-38540424D01*
X113326077Y-38543237D01*
X113138444Y-38811285D01*
X113131233Y-38824099D01*
X113124904Y-38852670D01*
X113129989Y-38881487D01*
X113145716Y-38906166D01*
X113169690Y-38922948D01*
X113198261Y-38929277D01*
X113227078Y-38924192D01*
X113251757Y-38908465D01*
X113261328Y-38897305D01*
X113505602Y-38548342D01*
X113582029Y-38548342D01*
X113582029Y-38854295D01*
X113583470Y-38868927D01*
X113594669Y-38895963D01*
X113615361Y-38916655D01*
X113642397Y-38927854D01*
X113671661Y-38927854D01*
X113698697Y-38916655D01*
X113719389Y-38895963D01*
X113730588Y-38868927D01*
X113732029Y-38854295D01*
X113732029Y-38320961D01*
X113924886Y-38320961D01*
X113924886Y-38587628D01*
X113925137Y-38590181D01*
X113924975Y-38591273D01*
X113925783Y-38596745D01*
X113926327Y-38602260D01*
X113926750Y-38603281D01*
X113927125Y-38605818D01*
X113965220Y-38758199D01*
X113970167Y-38772045D01*
X113973487Y-38776526D01*
X113975621Y-38781677D01*
X113984948Y-38793042D01*
X114061139Y-38869233D01*
X114066888Y-38873951D01*
X114068188Y-38875450D01*
X114070447Y-38876871D01*
X114072504Y-38878560D01*
X114074331Y-38879317D01*
X114080631Y-38883282D01*
X114156821Y-38921377D01*
X114170553Y-38926632D01*
X114173240Y-38926822D01*
X114175730Y-38927854D01*
X114190362Y-38929295D01*
X114342743Y-38929295D01*
X114357375Y-38927854D01*
X114359864Y-38926822D01*
X114362552Y-38926632D01*
X114376284Y-38921377D01*
X114452475Y-38883282D01*
X114458774Y-38879317D01*
X114460602Y-38878560D01*
X114462658Y-38876871D01*
X114464918Y-38875450D01*
X114466217Y-38873951D01*
X114471967Y-38869233D01*
X114548158Y-38793041D01*
X114557485Y-38781676D01*
X114559618Y-38776525D01*
X114562938Y-38772045D01*
X114567885Y-38758200D01*
X114601005Y-38625723D01*
X114762982Y-38625723D01*
X114762982Y-38701914D01*
X114764423Y-38716546D01*
X114765454Y-38719035D01*
X114765645Y-38721723D01*
X114770900Y-38735455D01*
X114808995Y-38811645D01*
X114812958Y-38817941D01*
X114813716Y-38819771D01*
X114815405Y-38821829D01*
X114816827Y-38824088D01*
X114818325Y-38825387D01*
X114823043Y-38831136D01*
X114861138Y-38869232D01*
X114866889Y-38873952D01*
X114868188Y-38875450D01*
X114870443Y-38876869D01*
X114872503Y-38878560D01*
X114874333Y-38879318D01*
X114880631Y-38883282D01*
X114956822Y-38921377D01*
X114970554Y-38926632D01*
X114973241Y-38926822D01*
X114975731Y-38927854D01*
X114990363Y-38929295D01*
X115180839Y-38929295D01*
X115188244Y-38928565D01*
X115190219Y-38928706D01*
X115192816Y-38928115D01*
X115195471Y-38927854D01*
X115197302Y-38927095D01*
X115204556Y-38925446D01*
X115318842Y-38887351D01*
X115332267Y-38881357D01*
X115354375Y-38862183D01*
X115367461Y-38836010D01*
X115369536Y-38806820D01*
X115360282Y-38779058D01*
X115341109Y-38756950D01*
X115314935Y-38743864D01*
X115285745Y-38741789D01*
X115271408Y-38745049D01*
X115168669Y-38779295D01*
X115008068Y-38779295D01*
X114958599Y-38754561D01*
X114937716Y-38733677D01*
X114912982Y-38684209D01*
X114912982Y-38643428D01*
X114937716Y-38593960D01*
X114958599Y-38573076D01*
X115016539Y-38544106D01*
X115160934Y-38508008D01*
X115162013Y-38507622D01*
X115162553Y-38507584D01*
X115168634Y-38505256D01*
X115174780Y-38503061D01*
X115175215Y-38502738D01*
X115176285Y-38502329D01*
X115252475Y-38464234D01*
X115258774Y-38460269D01*
X115260602Y-38459512D01*
X115262658Y-38457823D01*
X115264918Y-38456402D01*
X115266217Y-38454903D01*
X115271967Y-38450185D01*
X115310062Y-38412090D01*
X115314782Y-38406337D01*
X115316278Y-38405041D01*
X115317697Y-38402786D01*
X115319389Y-38400725D01*
X115320147Y-38398894D01*
X115324111Y-38392598D01*
X115362207Y-38316408D01*
X115367462Y-38302676D01*
X115367653Y-38299986D01*
X115368684Y-38297498D01*
X115370125Y-38282866D01*
X115370125Y-38206676D01*
X115368684Y-38192044D01*
X115367653Y-38189555D01*
X115367462Y-38186866D01*
X115362207Y-38173134D01*
X115324111Y-38096944D01*
X115320147Y-38090647D01*
X115319389Y-38088817D01*
X115317697Y-38086755D01*
X115316278Y-38084501D01*
X115314782Y-38083204D01*
X115310062Y-38077452D01*
X115286905Y-38054295D01*
X115562981Y-38054295D01*
X115562981Y-38854295D01*
X115563351Y-38858058D01*
X115563164Y-38859534D01*
X115563685Y-38861444D01*
X115564422Y-38868927D01*
X115568239Y-38878142D01*
X115570864Y-38887766D01*
X115573791Y-38891546D01*
X115575621Y-38895963D01*
X115582671Y-38903013D01*
X115588781Y-38910903D01*
X115592934Y-38913276D01*
X115596313Y-38916655D01*
X115605525Y-38920471D01*
X115614190Y-38925422D01*
X115618933Y-38926024D01*
X115623349Y-38927854D01*
X115633323Y-38927854D01*
X115643220Y-38929112D01*
X115647832Y-38927854D01*
X115652613Y-38927854D01*
X115661828Y-38924036D01*
X115671452Y-38921412D01*
X115675232Y-38918484D01*
X115679649Y-38916655D01*
X115686699Y-38909604D01*
X115694589Y-38903495D01*
X115698941Y-38897362D01*
X115700341Y-38895963D01*
X115700910Y-38894588D01*
X115703099Y-38891505D01*
X116020124Y-38336711D01*
X116020124Y-38854295D01*
X116021565Y-38868927D01*
X116032764Y-38895963D01*
X116053456Y-38916655D01*
X116080492Y-38927854D01*
X116109756Y-38927854D01*
X116136792Y-38916655D01*
X116157484Y-38895963D01*
X116168683Y-38868927D01*
X116170124Y-38854295D01*
X116170124Y-38054295D01*
X116169753Y-38050531D01*
X116169941Y-38049056D01*
X116169419Y-38047145D01*
X116168683Y-38039663D01*
X116364423Y-38039663D01*
X116364423Y-38068927D01*
X116375622Y-38095963D01*
X116396314Y-38116655D01*
X116423350Y-38127854D01*
X116437982Y-38129295D01*
X116743934Y-38129295D01*
X116743934Y-38360247D01*
X116552268Y-38360247D01*
X116537636Y-38361688D01*
X116510600Y-38372887D01*
X116489908Y-38393579D01*
X116478709Y-38420615D01*
X116478709Y-38449879D01*
X116489908Y-38476915D01*
X116510600Y-38497607D01*
X116537636Y-38508806D01*
X116552268Y-38510247D01*
X116743934Y-38510247D01*
X116743934Y-38779295D01*
X116437982Y-38779295D01*
X116423350Y-38780736D01*
X116396314Y-38791935D01*
X116375622Y-38812627D01*
X116364423Y-38839663D01*
X116364423Y-38868927D01*
X116375622Y-38895963D01*
X116396314Y-38916655D01*
X116423350Y-38927854D01*
X116437982Y-38929295D01*
X116818934Y-38929295D01*
X116833566Y-38927854D01*
X116860602Y-38916655D01*
X116881294Y-38895963D01*
X116892493Y-38868927D01*
X116893934Y-38854295D01*
X116893934Y-38625723D01*
X117086792Y-38625723D01*
X117086792Y-38701914D01*
X117088233Y-38716546D01*
X117089264Y-38719035D01*
X117089455Y-38721723D01*
X117094710Y-38735455D01*
X117132805Y-38811645D01*
X117136768Y-38817941D01*
X117137526Y-38819771D01*
X117139215Y-38821829D01*
X117140637Y-38824088D01*
X117142135Y-38825387D01*
X117146853Y-38831136D01*
X117184948Y-38869232D01*
X117190699Y-38873952D01*
X117191998Y-38875450D01*
X117194253Y-38876869D01*
X117196313Y-38878560D01*
X117198143Y-38879318D01*
X117204441Y-38883282D01*
X117280632Y-38921377D01*
X117294364Y-38926632D01*
X117297051Y-38926822D01*
X117299541Y-38927854D01*
X117314173Y-38929295D01*
X117504649Y-38929295D01*
X117512054Y-38928565D01*
X117514029Y-38928706D01*
X117516626Y-38928115D01*
X117519281Y-38927854D01*
X117521112Y-38927095D01*
X117528366Y-38925446D01*
X117642652Y-38887351D01*
X117656077Y-38881357D01*
X117678185Y-38862183D01*
X117691271Y-38836010D01*
X117693346Y-38806820D01*
X117684092Y-38779058D01*
X117664919Y-38756950D01*
X117638745Y-38743864D01*
X117609555Y-38741789D01*
X117595218Y-38745049D01*
X117492479Y-38779295D01*
X117331878Y-38779295D01*
X117282409Y-38754561D01*
X117261526Y-38733677D01*
X117236792Y-38684209D01*
X117236792Y-38643428D01*
X117261526Y-38593960D01*
X117282409Y-38573076D01*
X117340349Y-38544106D01*
X117484744Y-38508008D01*
X117485823Y-38507622D01*
X117486363Y-38507584D01*
X117492444Y-38505256D01*
X117498590Y-38503061D01*
X117499025Y-38502738D01*
X117500095Y-38502329D01*
X117576285Y-38464234D01*
X117582584Y-38460269D01*
X117584412Y-38459512D01*
X117586468Y-38457823D01*
X117588728Y-38456402D01*
X117590027Y-38454903D01*
X117595777Y-38450185D01*
X117633872Y-38412090D01*
X117638592Y-38406337D01*
X117640088Y-38405041D01*
X117641507Y-38402786D01*
X117643199Y-38400725D01*
X117643957Y-38398894D01*
X117647921Y-38392598D01*
X117686017Y-38316408D01*
X117691272Y-38302676D01*
X117691463Y-38299986D01*
X117692494Y-38297498D01*
X117693935Y-38282866D01*
X117693935Y-38206676D01*
X117692494Y-38192044D01*
X117691463Y-38189555D01*
X117691272Y-38186866D01*
X117686017Y-38173134D01*
X117647921Y-38096944D01*
X117643957Y-38090647D01*
X117643199Y-38088817D01*
X117641507Y-38086755D01*
X117640088Y-38084501D01*
X117638592Y-38083204D01*
X117633872Y-38077452D01*
X117595777Y-38039357D01*
X117590027Y-38034638D01*
X117588728Y-38033140D01*
X117586468Y-38031718D01*
X117584412Y-38030030D01*
X117582584Y-38029272D01*
X117576285Y-38025308D01*
X117500095Y-37987213D01*
X117486363Y-37981958D01*
X117483675Y-37981767D01*
X117481186Y-37980736D01*
X117466554Y-37979295D01*
X117276077Y-37979295D01*
X117268671Y-37980024D01*
X117266697Y-37979884D01*
X117264099Y-37980474D01*
X117261445Y-37980736D01*
X117259613Y-37981494D01*
X117252360Y-37983144D01*
X117138075Y-38021239D01*
X117124649Y-38027233D01*
X117102542Y-38046407D01*
X117089456Y-38072580D01*
X117087381Y-38101770D01*
X117096635Y-38129533D01*
X117115809Y-38151640D01*
X117141982Y-38164726D01*
X117171172Y-38166801D01*
X117185509Y-38163541D01*
X117288247Y-38129295D01*
X117448849Y-38129295D01*
X117498317Y-38154029D01*
X117519200Y-38174912D01*
X117543935Y-38224381D01*
X117543935Y-38265160D01*
X117519200Y-38314629D01*
X117498317Y-38335513D01*
X117440378Y-38364482D01*
X117295983Y-38400581D01*
X117294903Y-38400966D01*
X117294363Y-38401005D01*
X117288267Y-38403337D01*
X117282137Y-38405528D01*
X117281702Y-38405849D01*
X117280631Y-38406260D01*
X117204441Y-38444356D01*
X117198144Y-38448319D01*
X117196314Y-38449078D01*
X117194252Y-38450769D01*
X117191998Y-38452189D01*
X117190701Y-38453684D01*
X117184949Y-38458405D01*
X117146854Y-38496500D01*
X117142135Y-38502249D01*
X117140637Y-38503549D01*
X117139215Y-38505808D01*
X117137527Y-38507865D01*
X117136769Y-38509692D01*
X117132805Y-38515992D01*
X117094710Y-38592182D01*
X117089455Y-38605914D01*
X117089264Y-38608601D01*
X117088233Y-38611091D01*
X117086792Y-38625723D01*
X116893934Y-38625723D01*
X116893934Y-38054295D01*
X116892493Y-38039663D01*
X116881294Y-38012627D01*
X116860602Y-37991935D01*
X116833566Y-37980736D01*
X116818934Y-37979295D01*
X116437982Y-37979295D01*
X116423350Y-37980736D01*
X116396314Y-37991935D01*
X116375622Y-38012627D01*
X116364423Y-38039663D01*
X116168683Y-38039663D01*
X116164865Y-38030447D01*
X116162241Y-38020824D01*
X116159313Y-38017043D01*
X116157484Y-38012627D01*
X116150433Y-38005576D01*
X116144324Y-37997687D01*
X116140170Y-37995313D01*
X116136792Y-37991935D01*
X116127579Y-37988118D01*
X116118915Y-37983168D01*
X116114171Y-37982565D01*
X116109756Y-37980736D01*
X116099782Y-37980736D01*
X116089885Y-37979478D01*
X116085273Y-37980736D01*
X116080492Y-37980736D01*
X116071275Y-37984553D01*
X116061654Y-37987178D01*
X116057874Y-37990104D01*
X116053456Y-37991935D01*
X116046404Y-37998986D01*
X116038516Y-38005095D01*
X116034163Y-38011227D01*
X116032764Y-38012627D01*
X116032194Y-38014001D01*
X116030006Y-38017085D01*
X115712981Y-38571878D01*
X115712981Y-38054295D01*
X115711540Y-38039663D01*
X115700341Y-38012627D01*
X115679649Y-37991935D01*
X115652613Y-37980736D01*
X115623349Y-37980736D01*
X115596313Y-37991935D01*
X115575621Y-38012627D01*
X115564422Y-38039663D01*
X115562981Y-38054295D01*
X115286905Y-38054295D01*
X115271967Y-38039357D01*
X115266217Y-38034638D01*
X115264918Y-38033140D01*
X115262658Y-38031718D01*
X115260602Y-38030030D01*
X115258774Y-38029272D01*
X115252475Y-38025308D01*
X115176285Y-37987213D01*
X115162553Y-37981958D01*
X115159865Y-37981767D01*
X115157376Y-37980736D01*
X115142744Y-37979295D01*
X114952267Y-37979295D01*
X114944861Y-37980024D01*
X114942887Y-37979884D01*
X114940289Y-37980474D01*
X114937635Y-37980736D01*
X114935803Y-37981494D01*
X114928550Y-37983144D01*
X114814265Y-38021239D01*
X114800839Y-38027233D01*
X114778732Y-38046407D01*
X114765646Y-38072580D01*
X114763571Y-38101770D01*
X114772825Y-38129533D01*
X114791999Y-38151640D01*
X114818172Y-38164726D01*
X114847362Y-38166801D01*
X114861699Y-38163541D01*
X114964437Y-38129295D01*
X115125039Y-38129295D01*
X115174507Y-38154029D01*
X115195390Y-38174912D01*
X115220125Y-38224381D01*
X115220125Y-38265160D01*
X115195390Y-38314629D01*
X115174507Y-38335513D01*
X115116568Y-38364482D01*
X114972173Y-38400581D01*
X114971093Y-38400966D01*
X114970553Y-38401005D01*
X114964457Y-38403337D01*
X114958327Y-38405528D01*
X114957892Y-38405849D01*
X114956821Y-38406260D01*
X114880631Y-38444356D01*
X114874334Y-38448319D01*
X114872504Y-38449078D01*
X114870442Y-38450769D01*
X114868188Y-38452189D01*
X114866891Y-38453684D01*
X114861139Y-38458405D01*
X114823044Y-38496500D01*
X114818325Y-38502249D01*
X114816827Y-38503549D01*
X114815405Y-38505808D01*
X114813717Y-38507865D01*
X114812959Y-38509692D01*
X114808995Y-38515992D01*
X114770900Y-38592182D01*
X114765645Y-38605914D01*
X114765454Y-38608601D01*
X114764423Y-38611091D01*
X114762982Y-38625723D01*
X114601005Y-38625723D01*
X114605981Y-38605818D01*
X114606356Y-38603281D01*
X114606779Y-38602260D01*
X114607321Y-38596747D01*
X114608131Y-38591274D01*
X114607968Y-38590181D01*
X114608220Y-38587628D01*
X114608220Y-38320961D01*
X114607968Y-38318407D01*
X114608131Y-38317315D01*
X114607321Y-38311841D01*
X114606779Y-38306329D01*
X114606356Y-38305307D01*
X114605981Y-38302771D01*
X114567885Y-38150389D01*
X114562938Y-38136544D01*
X114559619Y-38132064D01*
X114557485Y-38126912D01*
X114548157Y-38115547D01*
X114471967Y-38039357D01*
X114466217Y-38034638D01*
X114464918Y-38033140D01*
X114462658Y-38031718D01*
X114460602Y-38030030D01*
X114458774Y-38029272D01*
X114452475Y-38025308D01*
X114376284Y-37987213D01*
X114362552Y-37981958D01*
X114359864Y-37981767D01*
X114357375Y-37980736D01*
X114342743Y-37979295D01*
X114190362Y-37979295D01*
X114175730Y-37980736D01*
X114173240Y-37981767D01*
X114170553Y-37981958D01*
X114156821Y-37987213D01*
X114080631Y-38025308D01*
X114074334Y-38029271D01*
X114072505Y-38030029D01*
X114070446Y-38031718D01*
X114068188Y-38033140D01*
X114066888Y-38034638D01*
X114061140Y-38039356D01*
X113984948Y-38115547D01*
X113975621Y-38126912D01*
X113973487Y-38132062D01*
X113970167Y-38136544D01*
X113965220Y-38150390D01*
X113927125Y-38302771D01*
X113926750Y-38305307D01*
X113926327Y-38306329D01*
X113925783Y-38311843D01*
X113924975Y-38317316D01*
X113925137Y-38318407D01*
X113924886Y-38320961D01*
X113732029Y-38320961D01*
X113732029Y-38054295D01*
X113730588Y-38039663D01*
X113719389Y-38012627D01*
X113698697Y-37991935D01*
X113671661Y-37980736D01*
X113657029Y-37979295D01*
X113352267Y-37979295D01*
X113337635Y-37980736D01*
X113335145Y-37981767D01*
X113332458Y-37981958D01*
X113318726Y-37987213D01*
X113242536Y-38025308D01*
X113236236Y-38029272D01*
X113234409Y-38030030D01*
X113232352Y-38031718D01*
X113230093Y-38033140D01*
X113228793Y-38034638D01*
X113223044Y-38039357D01*
X113184949Y-38077452D01*
X113180228Y-38083204D01*
X113178733Y-38084501D01*
X113177313Y-38086755D01*
X113175622Y-38088817D01*
X113174863Y-38090647D01*
X113170900Y-38096944D01*
X113132804Y-38173135D01*
X113127549Y-38186866D01*
X113127357Y-38189555D01*
X113126327Y-38192044D01*
X113124886Y-38206676D01*
X112224974Y-38206676D01*
X112166275Y-38030578D01*
X112160281Y-38017152D01*
X112156771Y-38013105D01*
X112154374Y-38008311D01*
X112147266Y-38002147D01*
X112141107Y-37995045D01*
X112136315Y-37992649D01*
X112132267Y-37989138D01*
X112123343Y-37986163D01*
X112114934Y-37981959D01*
X112109589Y-37981579D01*
X112104504Y-37979884D01*
X112095121Y-37980550D01*
X112085744Y-37979884D01*
X112080661Y-37981578D01*
X112075314Y-37981958D01*
X112066900Y-37986164D01*
X112057981Y-37989138D01*
X112053933Y-37992648D01*
X112049141Y-37995045D01*
X112042978Y-38002149D01*
X112035874Y-38008312D01*
X112033478Y-38013103D01*
X112029967Y-38017152D01*
X112023973Y-38030578D01*
X111757307Y-38830578D01*
X111754047Y-38844915D01*
X111636791Y-38844915D01*
X111636791Y-38054295D01*
X111635844Y-38044679D01*
X111635922Y-38042907D01*
X111635575Y-38041954D01*
X111635350Y-38039663D01*
X111630371Y-38027644D01*
X111625921Y-38015406D01*
X111624791Y-38014172D01*
X111624151Y-38012627D01*
X111614951Y-38003427D01*
X111606157Y-37993824D01*
X111604640Y-37993116D01*
X111603459Y-37991935D01*
X111591446Y-37986958D01*
X111579639Y-37981449D01*
X111577966Y-37981375D01*
X111576423Y-37980736D01*
X111563417Y-37980736D01*
X111550403Y-37980164D01*
X111548830Y-37980736D01*
X111547159Y-37980736D01*
X111535140Y-37985714D01*
X111522902Y-37990165D01*
X111521668Y-37991295D01*
X111520123Y-37991935D01*
X111510924Y-38001133D01*
X111501321Y-38009928D01*
X111500145Y-38011912D01*
X111499431Y-38012627D01*
X111498754Y-38014260D01*
X111493827Y-38022578D01*
X111295124Y-38448369D01*
X111096422Y-38022579D01*
X111091496Y-38014263D01*
X111090818Y-38012627D01*
X111090102Y-38011911D01*
X111088928Y-38009929D01*
X111079331Y-38001140D01*
X111070126Y-37991935D01*
X111068580Y-37991294D01*
X111067347Y-37990165D01*
X111055116Y-37985717D01*
X111043090Y-37980736D01*
X111041416Y-37980736D01*
X111039846Y-37980165D01*
X111026845Y-37980736D01*
X111013826Y-37980736D01*
X111012281Y-37981375D01*
X111010610Y-37981449D01*
X110998811Y-37986955D01*
X110986790Y-37991935D01*
X110985607Y-37993117D01*
X110984092Y-37993825D01*
X110975303Y-38003421D01*
X110966098Y-38012627D01*
X110965457Y-38014172D01*
X110964328Y-38015406D01*
X110959880Y-38027636D01*
X110954899Y-38039663D01*
X110954672Y-38041958D01*
X110954328Y-38042907D01*
X110954405Y-38044673D01*
X110953458Y-38054295D01*
X110722505Y-38054295D01*
X110721064Y-38039663D01*
X110709865Y-38012627D01*
X110689173Y-37991935D01*
X110662137Y-37980736D01*
X110647505Y-37979295D01*
X110380839Y-37979295D01*
X110366207Y-37980736D01*
X110363717Y-37981767D01*
X110361030Y-37981958D01*
X110347298Y-37987213D01*
X110271107Y-38025308D01*
X110264807Y-38029272D01*
X110262980Y-38030030D01*
X110260923Y-38031718D01*
X110258664Y-38033140D01*
X110257364Y-38034638D01*
X110251615Y-38039357D01*
X110213520Y-38077452D01*
X110208801Y-38083201D01*
X110207303Y-38084501D01*
X110205881Y-38086760D01*
X110204193Y-38088817D01*
X110203435Y-38090644D01*
X110199471Y-38096944D01*
X110161376Y-38173135D01*
X110156121Y-38186867D01*
X110155930Y-38189554D01*
X110154899Y-38192044D01*
X110153458Y-38206676D01*
X110153458Y-38282866D01*
X110154899Y-38297498D01*
X110155930Y-38299987D01*
X110156121Y-38302675D01*
X110161376Y-38316407D01*
X110199471Y-38392598D01*
X110203435Y-38398897D01*
X110204193Y-38400725D01*
X110205881Y-38402781D01*
X110207303Y-38405041D01*
X110208801Y-38406340D01*
X110213520Y-38412090D01*
X110218034Y-38416604D01*
X110213519Y-38420310D01*
X110175424Y-38458406D01*
X110170703Y-38464157D01*
X110169209Y-38465454D01*
X110167790Y-38467707D01*
X110166097Y-38469771D01*
X110165338Y-38471602D01*
X110161376Y-38477897D01*
X110123280Y-38554086D01*
X110118025Y-38567818D01*
X110117833Y-38570507D01*
X110116803Y-38572996D01*
X110115362Y-38587628D01*
X109922505Y-38587628D01*
X109922505Y-38054295D01*
X109921064Y-38039663D01*
X109909865Y-38012627D01*
X109889173Y-37991935D01*
X109862137Y-37980736D01*
X109832873Y-37980736D01*
X109805837Y-37991935D01*
X109785145Y-38012627D01*
X109773946Y-38039663D01*
X109772505Y-38054295D01*
X109541553Y-38054295D01*
X109540112Y-38039663D01*
X109528913Y-38012627D01*
X109508221Y-37991935D01*
X109481185Y-37980736D01*
X109466553Y-37979295D01*
X109085601Y-37979295D01*
X109070969Y-37980736D01*
X109043933Y-37991935D01*
X109023241Y-38012627D01*
X109012042Y-38039663D01*
X108816302Y-38039663D01*
X108812484Y-38030447D01*
X108809860Y-38020824D01*
X108806932Y-38017043D01*
X108805103Y-38012627D01*
X108798052Y-38005576D01*
X108791943Y-37997687D01*
X108787789Y-37995313D01*
X108784411Y-37991935D01*
X108775198Y-37988118D01*
X108766534Y-37983168D01*
X108761790Y-37982565D01*
X108757375Y-37980736D01*
X108747401Y-37980736D01*
X108737504Y-37979478D01*
X108732892Y-37980736D01*
X108728111Y-37980736D01*
X108718894Y-37984553D01*
X108709273Y-37987178D01*
X108705493Y-37990104D01*
X108701075Y-37991935D01*
X108694023Y-37998986D01*
X108686135Y-38005095D01*
X108681782Y-38011227D01*
X108680383Y-38012627D01*
X108679813Y-38014001D01*
X108677625Y-38017085D01*
X108360600Y-38571878D01*
X108360600Y-38054295D01*
X108359159Y-38039663D01*
X108347960Y-38012627D01*
X108327268Y-37991935D01*
X108300232Y-37980736D01*
X108270968Y-37980736D01*
X108243932Y-37991935D01*
X108223240Y-38012627D01*
X108212041Y-38039663D01*
X108210600Y-38054295D01*
X108092493Y-38054295D01*
X108092493Y-38039663D01*
X108081294Y-38012627D01*
X108060602Y-37991935D01*
X108033566Y-37980736D01*
X108018934Y-37979295D01*
X107561791Y-37979295D01*
X107547159Y-37980736D01*
X107520123Y-37991935D01*
X107499431Y-38012627D01*
X107488232Y-38039663D01*
X107216922Y-38039663D01*
X107213894Y-38030578D01*
X107207900Y-38017152D01*
X107204390Y-38013105D01*
X107201993Y-38008311D01*
X107194885Y-38002147D01*
X107188726Y-37995045D01*
X107183934Y-37992649D01*
X107179886Y-37989138D01*
X107170962Y-37986163D01*
X107162553Y-37981959D01*
X107157208Y-37981579D01*
X107152123Y-37979884D01*
X107142740Y-37980550D01*
X107133363Y-37979884D01*
X107128280Y-37981578D01*
X107122933Y-37981958D01*
X107114519Y-37986164D01*
X107105600Y-37989138D01*
X107101552Y-37992648D01*
X107096760Y-37995045D01*
X107090597Y-38002149D01*
X107083493Y-38008312D01*
X107081097Y-38013103D01*
X107077586Y-38017152D01*
X107071592Y-38030578D01*
X106804926Y-38830578D01*
X106801666Y-38844915D01*
X106684410Y-38844915D01*
X106684410Y-38054295D01*
X106682969Y-38039663D01*
X106671770Y-38012627D01*
X106651078Y-37991935D01*
X106624042Y-37980736D01*
X106594778Y-37980736D01*
X106567742Y-37991935D01*
X106547050Y-38012627D01*
X106535851Y-38039663D01*
X106534410Y-38054295D01*
X106534410Y-38779295D01*
X106228458Y-38779295D01*
X106213826Y-38780736D01*
X106186790Y-38791935D01*
X106166098Y-38812627D01*
X106154899Y-38839663D01*
X106066010Y-38839663D01*
X106066010Y-37890406D01*
X117782824Y-37890406D01*
X117782824Y-39018184D01*
G37*
X95323220Y-63728866D02*
X94561316Y-63728866D01*
G36*
X92968617Y-71714025D02*
G01*
X93040561Y-71785968D01*
X93074819Y-71854484D01*
X93074819Y-72009550D01*
X93040561Y-72078065D01*
X92968617Y-72150008D01*
X92807251Y-72190350D01*
X92492386Y-72190350D01*
X92331019Y-72150008D01*
X92259077Y-72078066D01*
X92224819Y-72009550D01*
X92224819Y-71854484D01*
X92259077Y-71785968D01*
X92331019Y-71714025D01*
X92492386Y-71673684D01*
X92807251Y-71673684D01*
X92968617Y-71714025D01*
G37*
G36*
X92598628Y-71009550D02*
G01*
X92564370Y-71078066D01*
X92533963Y-71108473D01*
X92465447Y-71142731D01*
X92358000Y-71142731D01*
X92289484Y-71108473D01*
X92259077Y-71078066D01*
X92224819Y-71009550D01*
X92224819Y-70721303D01*
X92598628Y-70721303D01*
X92598628Y-71009550D01*
G37*
G36*
X93335930Y-72451461D02*
G01*
X91963708Y-72451461D01*
X91963708Y-71836779D01*
X92074819Y-71836779D01*
X92074819Y-72027255D01*
X92076260Y-72041887D01*
X92077291Y-72044376D01*
X92077482Y-72047064D01*
X92082737Y-72060796D01*
X92130356Y-72156034D01*
X92134320Y-72162333D01*
X92135078Y-72164161D01*
X92136766Y-72166217D01*
X92138188Y-72168477D01*
X92139686Y-72169776D01*
X92144405Y-72175526D01*
X92239643Y-72270764D01*
X92251008Y-72280092D01*
X92256161Y-72282226D01*
X92260640Y-72285545D01*
X92274486Y-72290492D01*
X92464962Y-72338111D01*
X92467498Y-72338486D01*
X92468520Y-72338909D01*
X92474032Y-72339451D01*
X92479506Y-72340261D01*
X92480598Y-72340098D01*
X92483152Y-72340350D01*
X92816485Y-72340350D01*
X92819038Y-72340098D01*
X92820131Y-72340261D01*
X92825604Y-72339451D01*
X92831117Y-72338909D01*
X92832138Y-72338486D01*
X92834675Y-72338111D01*
X93025151Y-72290492D01*
X93038997Y-72285545D01*
X93043476Y-72282225D01*
X93048628Y-72280092D01*
X93059994Y-72270764D01*
X93155233Y-72175526D01*
X93159953Y-72169775D01*
X93161450Y-72168477D01*
X93162869Y-72166222D01*
X93164561Y-72164161D01*
X93165319Y-72162328D01*
X93169282Y-72156034D01*
X93216901Y-72060796D01*
X93222156Y-72047065D01*
X93222347Y-72044375D01*
X93223378Y-72041887D01*
X93224819Y-72027255D01*
X93224819Y-71836779D01*
X93223378Y-71822147D01*
X93222347Y-71819658D01*
X93222156Y-71816969D01*
X93216901Y-71803238D01*
X93169282Y-71708000D01*
X93165319Y-71701705D01*
X93164561Y-71699873D01*
X93162869Y-71697811D01*
X93161450Y-71695557D01*
X93159953Y-71694258D01*
X93155233Y-71688508D01*
X93059994Y-71593270D01*
X93048628Y-71583942D01*
X93043476Y-71581808D01*
X93038997Y-71578489D01*
X93025151Y-71573542D01*
X92834675Y-71525923D01*
X92832138Y-71525547D01*
X92831117Y-71525125D01*
X92825604Y-71524582D01*
X92820131Y-71523773D01*
X92819038Y-71523935D01*
X92816485Y-71523684D01*
X92483152Y-71523684D01*
X92480598Y-71523935D01*
X92479506Y-71523773D01*
X92474032Y-71524582D01*
X92468520Y-71525125D01*
X92467498Y-71525547D01*
X92464962Y-71525923D01*
X92274486Y-71573542D01*
X92260640Y-71578489D01*
X92256161Y-71581807D01*
X92251008Y-71583942D01*
X92239643Y-71593270D01*
X92144405Y-71688508D01*
X92139686Y-71694257D01*
X92138188Y-71695557D01*
X92136766Y-71697816D01*
X92135078Y-71699873D01*
X92134320Y-71701700D01*
X92130356Y-71708000D01*
X92082737Y-71803238D01*
X92077482Y-71816970D01*
X92077291Y-71819657D01*
X92076260Y-71822147D01*
X92074819Y-71836779D01*
X91963708Y-71836779D01*
X91963708Y-70646303D01*
X92074819Y-70646303D01*
X92074819Y-71027255D01*
X92076260Y-71041887D01*
X92077291Y-71044376D01*
X92077482Y-71047064D01*
X92082737Y-71060796D01*
X92130356Y-71156034D01*
X92134320Y-71162333D01*
X92135078Y-71164161D01*
X92136766Y-71166217D01*
X92138188Y-71168477D01*
X92139686Y-71169776D01*
X92144405Y-71175526D01*
X92192024Y-71223145D01*
X92197773Y-71227863D01*
X92199073Y-71229362D01*
X92201332Y-71230783D01*
X92203389Y-71232472D01*
X92205216Y-71233229D01*
X92211516Y-71237194D01*
X92306754Y-71284813D01*
X92320485Y-71290068D01*
X92323174Y-71290259D01*
X92325663Y-71291290D01*
X92340295Y-71292731D01*
X92483152Y-71292731D01*
X92497784Y-71291290D01*
X92500273Y-71290258D01*
X92502961Y-71290068D01*
X92516693Y-71284813D01*
X92611931Y-71237194D01*
X92618230Y-71233229D01*
X92620058Y-71232472D01*
X92622114Y-71230783D01*
X92624374Y-71229362D01*
X92625673Y-71227863D01*
X92631423Y-71223145D01*
X92679042Y-71175526D01*
X92683760Y-71169776D01*
X92685259Y-71168477D01*
X92686680Y-71166217D01*
X92688369Y-71164161D01*
X92689126Y-71162333D01*
X92693091Y-71156034D01*
X92740710Y-71060796D01*
X92745965Y-71047065D01*
X92746156Y-71044375D01*
X92747187Y-71041887D01*
X92748628Y-71027255D01*
X92748628Y-70721303D01*
X93149819Y-70721303D01*
X93164451Y-70719862D01*
X93191487Y-70708663D01*
X93212179Y-70687971D01*
X93223378Y-70660935D01*
X93223378Y-70631671D01*
X93212179Y-70604635D01*
X93191487Y-70583943D01*
X93164451Y-70572744D01*
X93149819Y-70571303D01*
X92149819Y-70571303D01*
X92135187Y-70572744D01*
X92108151Y-70583943D01*
X92087459Y-70604635D01*
X92076260Y-70631671D01*
X92074819Y-70646303D01*
X91963708Y-70646303D01*
X91963708Y-70155481D01*
X92076260Y-70155481D01*
X92076260Y-70184745D01*
X92087459Y-70211781D01*
X92108151Y-70232473D01*
X92135187Y-70243672D01*
X92149819Y-70245113D01*
X93149819Y-70245113D01*
X93164451Y-70243672D01*
X93191487Y-70232473D01*
X93212179Y-70211781D01*
X93223378Y-70184745D01*
X93223378Y-70155481D01*
X93212179Y-70128445D01*
X93191487Y-70107753D01*
X93164451Y-70096554D01*
X93149819Y-70095113D01*
X92149819Y-70095113D01*
X92135187Y-70096554D01*
X92108151Y-70107753D01*
X92087459Y-70128445D01*
X92076260Y-70155481D01*
X91963708Y-70155481D01*
X91963708Y-69345957D01*
X92076260Y-69345957D01*
X92076260Y-69375221D01*
X92087459Y-69402257D01*
X92108151Y-69422949D01*
X92135187Y-69434148D01*
X92149819Y-69435589D01*
X93074819Y-69435589D01*
X93074819Y-69836779D01*
X93076260Y-69851411D01*
X93087459Y-69878447D01*
X93108151Y-69899139D01*
X93135187Y-69910338D01*
X93164451Y-69910338D01*
X93191487Y-69899139D01*
X93212179Y-69878447D01*
X93223378Y-69851411D01*
X93224819Y-69836779D01*
X93224819Y-69360589D01*
X93223378Y-69345957D01*
X93212179Y-69318921D01*
X93191487Y-69298229D01*
X93164451Y-69287030D01*
X93149819Y-69285589D01*
X92149819Y-69285589D01*
X92135187Y-69287030D01*
X92108151Y-69298229D01*
X92087459Y-69318921D01*
X92076260Y-69345957D01*
X91963708Y-69345957D01*
X91963708Y-67551065D01*
X92074819Y-67551065D01*
X92074819Y-68217731D01*
X92076260Y-68232363D01*
X92076438Y-68232793D01*
X92076444Y-68233258D01*
X92082032Y-68246298D01*
X92087459Y-68259399D01*
X92087787Y-68259727D01*
X92087971Y-68260156D01*
X92098131Y-68270071D01*
X92108151Y-68280091D01*
X92108581Y-68280269D01*
X92108915Y-68280595D01*
X92122097Y-68285868D01*
X92135187Y-68291290D01*
X92135653Y-68291290D01*
X92136085Y-68291463D01*
X92150265Y-68291290D01*
X92164451Y-68291290D01*
X92164881Y-68291111D01*
X92165346Y-68291106D01*
X92179363Y-68286667D01*
X93179363Y-67858096D01*
X93192244Y-67851008D01*
X93212682Y-67830064D01*
X93223550Y-67802894D01*
X93223194Y-67773633D01*
X93211666Y-67746735D01*
X93190723Y-67726296D01*
X93163553Y-67715428D01*
X93134291Y-67715785D01*
X93120275Y-67720224D01*
X92224819Y-68103990D01*
X92224819Y-67551065D01*
X92223378Y-67536433D01*
X92212179Y-67509397D01*
X92191487Y-67488705D01*
X92164451Y-67477506D01*
X92135187Y-67477506D01*
X92108151Y-67488705D01*
X92087459Y-67509397D01*
X92076260Y-67536433D01*
X92074819Y-67551065D01*
X91963708Y-67551065D01*
X91963708Y-66636923D01*
X92075408Y-66636923D01*
X92077483Y-66666113D01*
X92090569Y-66692286D01*
X92112676Y-66711460D01*
X92126102Y-66717454D01*
X92912648Y-66979636D01*
X92126102Y-67241818D01*
X92112676Y-67247812D01*
X92090569Y-67266986D01*
X92077483Y-67293159D01*
X92075408Y-67322349D01*
X92084662Y-67350112D01*
X92103836Y-67372219D01*
X92130009Y-67385305D01*
X92159199Y-67387380D01*
X92173536Y-67384120D01*
X93173536Y-67050787D01*
X93186961Y-67044793D01*
X93191008Y-67041282D01*
X93195802Y-67038886D01*
X93201966Y-67031778D01*
X93209068Y-67025619D01*
X93211463Y-67020827D01*
X93214976Y-67016778D01*
X93217950Y-67007855D01*
X93222155Y-66999446D01*
X93222534Y-66994101D01*
X93224230Y-66989016D01*
X93223563Y-66979636D01*
X93224230Y-66970256D01*
X93222534Y-66965170D01*
X93222155Y-66959826D01*
X93217950Y-66951416D01*
X93214976Y-66942494D01*
X93211463Y-66938444D01*
X93209068Y-66933653D01*
X93201966Y-66927493D01*
X93195802Y-66920386D01*
X93191008Y-66917989D01*
X93186961Y-66914479D01*
X93173536Y-66908485D01*
X92173536Y-66575152D01*
X92159199Y-66571892D01*
X92130009Y-66573967D01*
X92103836Y-66587053D01*
X92084662Y-66609160D01*
X92075408Y-66636923D01*
X91963708Y-66636923D01*
X91963708Y-65741541D01*
X92074819Y-65741541D01*
X92074819Y-66360588D01*
X92075581Y-66368326D01*
X92075450Y-66370294D01*
X92075908Y-66371649D01*
X92076260Y-66375220D01*
X92080923Y-66386477D01*
X92084825Y-66398015D01*
X92086490Y-66399919D01*
X92087459Y-66402256D01*
X92096069Y-66410866D01*
X92104095Y-66420039D01*
X92106364Y-66421161D01*
X92108151Y-66422948D01*
X92119401Y-66427608D01*
X92130327Y-66433011D01*
X92132850Y-66433179D01*
X92135187Y-66434147D01*
X92147372Y-66434147D01*
X92159525Y-66434957D01*
X92161920Y-66434147D01*
X92164451Y-66434147D01*
X92175708Y-66429483D01*
X92187246Y-66425582D01*
X92190163Y-66423496D01*
X92191487Y-66422948D01*
X92192882Y-66421552D01*
X92199207Y-66417031D01*
X92458516Y-66190135D01*
X92463689Y-66203653D01*
X92511308Y-66298891D01*
X92515272Y-66305190D01*
X92516030Y-66307018D01*
X92517718Y-66309074D01*
X92519140Y-66311334D01*
X92520638Y-66312633D01*
X92525357Y-66318383D01*
X92572976Y-66366002D01*
X92578725Y-66370720D01*
X92580025Y-66372219D01*
X92582284Y-66373640D01*
X92584341Y-66375329D01*
X92586168Y-66376086D01*
X92592468Y-66380051D01*
X92687706Y-66427670D01*
X92701437Y-66432925D01*
X92704126Y-66433116D01*
X92706615Y-66434147D01*
X92721247Y-66435588D01*
X92959342Y-66435588D01*
X92973974Y-66434147D01*
X92976463Y-66433115D01*
X92979151Y-66432925D01*
X92992883Y-66427670D01*
X93088121Y-66380051D01*
X93094417Y-66376087D01*
X93096247Y-66375330D01*
X93098305Y-66373640D01*
X93100564Y-66372219D01*
X93101863Y-66370720D01*
X93107612Y-66366003D01*
X93155232Y-66318384D01*
X93159950Y-66312634D01*
X93161450Y-66311334D01*
X93162872Y-66309074D01*
X93164560Y-66307018D01*
X93165317Y-66305190D01*
X93169282Y-66298891D01*
X93216901Y-66203653D01*
X93222156Y-66189922D01*
X93222347Y-66187232D01*
X93223378Y-66184744D01*
X93224819Y-66170112D01*
X93224819Y-65884398D01*
X93223378Y-65869766D01*
X93222347Y-65867277D01*
X93222156Y-65864588D01*
X93216901Y-65850857D01*
X93169282Y-65755619D01*
X93165317Y-65749319D01*
X93164560Y-65747492D01*
X93162872Y-65745435D01*
X93161450Y-65743176D01*
X93159950Y-65741875D01*
X93155232Y-65736126D01*
X93107612Y-65688507D01*
X93096247Y-65679180D01*
X93069211Y-65667982D01*
X93039948Y-65667982D01*
X93012912Y-65679181D01*
X92992219Y-65699874D01*
X92981021Y-65726910D01*
X92981021Y-65756173D01*
X92992220Y-65783209D01*
X93001548Y-65794575D01*
X93040561Y-65833587D01*
X93074819Y-65902103D01*
X93074819Y-66152407D01*
X93040561Y-66220922D01*
X93010153Y-66251329D01*
X92941637Y-66285588D01*
X92738952Y-66285588D01*
X92670436Y-66251330D01*
X92640029Y-66220923D01*
X92605771Y-66152407D01*
X92605771Y-66027255D01*
X92605008Y-66019516D01*
X92605140Y-66017549D01*
X92604681Y-66016193D01*
X92604330Y-66012623D01*
X92599666Y-66001365D01*
X92595765Y-65989828D01*
X92594099Y-65987923D01*
X92593131Y-65985587D01*
X92584520Y-65976976D01*
X92576495Y-65967804D01*
X92574225Y-65966681D01*
X92572439Y-65964895D01*
X92561188Y-65960234D01*
X92550263Y-65954832D01*
X92547739Y-65954663D01*
X92545403Y-65953696D01*
X92533218Y-65953696D01*
X92521065Y-65952886D01*
X92518670Y-65953696D01*
X92516139Y-65953696D01*
X92504881Y-65958359D01*
X92493344Y-65962261D01*
X92490426Y-65964346D01*
X92489103Y-65964895D01*
X92487707Y-65966290D01*
X92481383Y-65970812D01*
X92224819Y-66195305D01*
X92224819Y-65741541D01*
X92223378Y-65726909D01*
X92212179Y-65699873D01*
X92191487Y-65679181D01*
X92164451Y-65667982D01*
X92135187Y-65667982D01*
X92108151Y-65679181D01*
X92087459Y-65699873D01*
X92076260Y-65726909D01*
X92074819Y-65741541D01*
X91963708Y-65741541D01*
X91963708Y-65556871D01*
X93335930Y-65556871D01*
X93335930Y-72451461D01*
G37*
X113511904Y-78374819D02*
X113511904Y-79184342D01*
X113511904Y-79184342D02*
X113464285Y-79279580D01*
X113464285Y-79279580D02*
X113416666Y-79327200D01*
X113416666Y-79327200D02*
X113321428Y-79374819D01*
X113321428Y-79374819D02*
X113130952Y-79374819D01*
X113130952Y-79374819D02*
X113035714Y-79327200D01*
X113035714Y-79327200D02*
X112988095Y-79279580D01*
X112988095Y-79279580D02*
X112940476Y-79184342D01*
X112940476Y-79184342D02*
X112940476Y-78374819D01*
X111988095Y-78374819D02*
X112464285Y-78374819D01*
X112464285Y-78374819D02*
X112511904Y-78851009D01*
X112511904Y-78851009D02*
X112464285Y-78803390D01*
X112464285Y-78803390D02*
X112369047Y-78755771D01*
X112369047Y-78755771D02*
X112130952Y-78755771D01*
X112130952Y-78755771D02*
X112035714Y-78803390D01*
X112035714Y-78803390D02*
X111988095Y-78851009D01*
X111988095Y-78851009D02*
X111940476Y-78946247D01*
X111940476Y-78946247D02*
X111940476Y-79184342D01*
X111940476Y-79184342D02*
X111988095Y-79279580D01*
X111988095Y-79279580D02*
X112035714Y-79327200D01*
X112035714Y-79327200D02*
X112130952Y-79374819D01*
X112130952Y-79374819D02*
X112369047Y-79374819D01*
X112369047Y-79374819D02*
X112464285Y-79327200D01*
X112464285Y-79327200D02*
X112511904Y-79279580D01*
D11*
%TO.C,TP15*%
X120070000Y-98920000D02*
G75*
G02*
X118670000Y-98920000I-700000J0D01*
G01*
X118670000Y-98920000D02*
G75*
G02*
X120070000Y-98920000I700000J0D01*
G01*
%TO.C,REF\u002A\u002A*%
X122307064Y-72525000D02*
X121852936Y-72525000D01*
X122307064Y-73995000D02*
X121852936Y-73995000D01*
%TO.C,TP16*%
X122300000Y-98920000D02*
G75*
G02*
X120900000Y-98920000I-700000J0D01*
G01*
X120900000Y-98920000D02*
G75*
G02*
X122300000Y-98920000I700000J0D01*
G01*
D14*
%TO.C,U7*%
X103410000Y-33410000D02*
X106470000Y-33410000D01*
X106470000Y-36950000D02*
X103410000Y-36950000D01*
D12*
X107085000Y-36380000D02*
G75*
G02*
X106885000Y-36380000I-100000J0D01*
G01*
X106885000Y-36380000D02*
G75*
G02*
X107085000Y-36380000I100000J0D01*
G01*
D11*
%TO.C,TP14*%
X117670000Y-98810000D02*
G75*
G02*
X116270000Y-98810000I-700000J0D01*
G01*
X116270000Y-98810000D02*
G75*
G02*
X117670000Y-98810000I700000J0D01*
G01*
%TO.C,TP13*%
X115470000Y-98840000D02*
G75*
G02*
X114070000Y-98840000I-700000J0D01*
G01*
X114070000Y-98840000D02*
G75*
G02*
X115470000Y-98840000I700000J0D01*
G01*
%TO.C,TP12*%
X113340000Y-98850000D02*
G75*
G02*
X111940000Y-98850000I-700000J0D01*
G01*
X111940000Y-98850000D02*
G75*
G02*
X113340000Y-98850000I700000J0D01*
G01*
%TO.C,BT1*%
X94780000Y-93100000D02*
X94780000Y-97350000D01*
X94780000Y-97350000D02*
X95800000Y-97350000D01*
X95800000Y-95750000D02*
X97080000Y-95750000D01*
X95800000Y-97350000D02*
X95800000Y-95750000D01*
X96500000Y-89530000D02*
X101180000Y-89530000D01*
X97080000Y-95750000D02*
X97080000Y-98640000D01*
X101880000Y-95750000D02*
X100600000Y-95750000D01*
X101880000Y-97350000D02*
X101880000Y-95750000D01*
X102900000Y-93100000D02*
X102900000Y-97350000D01*
X102900000Y-97350000D02*
X101880000Y-97350000D01*
%TO.C,U5*%
X111600000Y-80520000D02*
X119150000Y-80520000D01*
X111600000Y-82570000D02*
X111600000Y-80520000D01*
X111600000Y-96270000D02*
X111600000Y-95570000D01*
X111600000Y-96320000D02*
X115150000Y-96320000D01*
X123350000Y-80520000D02*
X126900000Y-80520000D01*
X126900000Y-80520000D02*
X126900000Y-82570000D01*
X126900000Y-85770000D02*
X126900000Y-89570000D01*
X126900000Y-94820000D02*
X126900000Y-96320000D01*
X126900000Y-96320000D02*
X123300000Y-96320000D01*
X111600000Y-95270000D02*
X111100000Y-94770000D01*
X111600000Y-94770000D01*
X111600000Y-95270000D01*
G36*
X111600000Y-95270000D02*
G01*
X111100000Y-94770000D01*
X111600000Y-94770000D01*
X111600000Y-95270000D01*
G37*
%TD*%
M02*
