%TF.GenerationSoftware,KiCad,Pcbnew,9.0.6*%
%TF.CreationDate,2026-01-02T16:48:08+05:30*%
%TF.ProjectId,A3144_Hall Sensor_Ring_50x50_19mm,41333134-345f-4486-916c-6c2053656e73,rev?*%
%TF.SameCoordinates,Original*%
%TF.FileFunction,Drillmap*%
%TF.FilePolarity,Positive*%
%FSLAX45Y45*%
G04 Gerber Fmt 4.5, Leading zero omitted, Abs format (unit mm)*
G04 Created by KiCad (PCBNEW 9.0.6) date 2026-01-02 16:48:08*
%MOMM*%
%LPD*%
G01*
G04 APERTURE LIST*
%ADD10C,0.050000*%
%ADD11C,0.200000*%
%ADD12C,0.550000*%
G04 APERTURE END LIST*
D10*
X18522000Y-11632000D02*
G75*
G02*
X18222000Y-11932000I-300000J0D01*
G01*
X13822000Y-11932000D02*
G75*
G02*
X13522000Y-11632000I0J300000D01*
G01*
X18222000Y-6932000D02*
G75*
G02*
X18522000Y-7232000I0J-300000D01*
G01*
X13522000Y-7232000D02*
G75*
G02*
X13822000Y-6932000I300000J0D01*
G01*
X18222000Y-11932000D02*
X13822000Y-11932000D01*
X18522000Y-7232000D02*
X18522000Y-11632000D01*
X13522000Y-11632000D02*
X13522000Y-7232000D01*
X13822000Y-6932000D02*
X18222000Y-6932000D01*
D11*
D12*
X13825000Y-7245000D02*
X14375000Y-7795000D01*
X14375000Y-7245000D02*
X13825000Y-7795000D01*
X13825000Y-11085000D02*
X14375000Y-11635000D01*
X14375000Y-11085000D02*
X13825000Y-11635000D01*
X17685000Y-7225000D02*
X18235000Y-7775000D01*
X18235000Y-7225000D02*
X17685000Y-7775000D01*
X17825000Y-11205000D02*
X18375000Y-11755000D01*
X18375000Y-11205000D02*
X17825000Y-11755000D01*
D11*
X13780277Y-12245984D02*
X13780277Y-12045984D01*
X13780277Y-12045984D02*
X13827896Y-12045984D01*
X13827896Y-12045984D02*
X13856467Y-12055508D01*
X13856467Y-12055508D02*
X13875515Y-12074555D01*
X13875515Y-12074555D02*
X13885039Y-12093603D01*
X13885039Y-12093603D02*
X13894562Y-12131698D01*
X13894562Y-12131698D02*
X13894562Y-12160269D01*
X13894562Y-12160269D02*
X13885039Y-12198365D01*
X13885039Y-12198365D02*
X13875515Y-12217412D01*
X13875515Y-12217412D02*
X13856467Y-12236460D01*
X13856467Y-12236460D02*
X13827896Y-12245984D01*
X13827896Y-12245984D02*
X13780277Y-12245984D01*
X13980277Y-12245984D02*
X13980277Y-12112650D01*
X13980277Y-12150746D02*
X13989801Y-12131698D01*
X13989801Y-12131698D02*
X13999324Y-12122174D01*
X13999324Y-12122174D02*
X14018372Y-12112650D01*
X14018372Y-12112650D02*
X14037420Y-12112650D01*
X14104086Y-12245984D02*
X14104086Y-12112650D01*
X14104086Y-12045984D02*
X14094562Y-12055508D01*
X14094562Y-12055508D02*
X14104086Y-12065031D01*
X14104086Y-12065031D02*
X14113610Y-12055508D01*
X14113610Y-12055508D02*
X14104086Y-12045984D01*
X14104086Y-12045984D02*
X14104086Y-12065031D01*
X14227896Y-12245984D02*
X14208848Y-12236460D01*
X14208848Y-12236460D02*
X14199324Y-12217412D01*
X14199324Y-12217412D02*
X14199324Y-12045984D01*
X14332658Y-12245984D02*
X14313610Y-12236460D01*
X14313610Y-12236460D02*
X14304086Y-12217412D01*
X14304086Y-12217412D02*
X14304086Y-12045984D01*
X14561229Y-12245984D02*
X14561229Y-12045984D01*
X14561229Y-12045984D02*
X14627896Y-12188841D01*
X14627896Y-12188841D02*
X14694562Y-12045984D01*
X14694562Y-12045984D02*
X14694562Y-12245984D01*
X14875515Y-12245984D02*
X14875515Y-12141222D01*
X14875515Y-12141222D02*
X14865991Y-12122174D01*
X14865991Y-12122174D02*
X14846943Y-12112650D01*
X14846943Y-12112650D02*
X14808848Y-12112650D01*
X14808848Y-12112650D02*
X14789801Y-12122174D01*
X14875515Y-12236460D02*
X14856467Y-12245984D01*
X14856467Y-12245984D02*
X14808848Y-12245984D01*
X14808848Y-12245984D02*
X14789801Y-12236460D01*
X14789801Y-12236460D02*
X14780277Y-12217412D01*
X14780277Y-12217412D02*
X14780277Y-12198365D01*
X14780277Y-12198365D02*
X14789801Y-12179317D01*
X14789801Y-12179317D02*
X14808848Y-12169793D01*
X14808848Y-12169793D02*
X14856467Y-12169793D01*
X14856467Y-12169793D02*
X14875515Y-12160269D01*
X14970753Y-12112650D02*
X14970753Y-12312650D01*
X14970753Y-12122174D02*
X14989801Y-12112650D01*
X14989801Y-12112650D02*
X15027896Y-12112650D01*
X15027896Y-12112650D02*
X15046943Y-12122174D01*
X15046943Y-12122174D02*
X15056467Y-12131698D01*
X15056467Y-12131698D02*
X15065991Y-12150746D01*
X15065991Y-12150746D02*
X15065991Y-12207888D01*
X15065991Y-12207888D02*
X15056467Y-12226936D01*
X15056467Y-12226936D02*
X15046943Y-12236460D01*
X15046943Y-12236460D02*
X15027896Y-12245984D01*
X15027896Y-12245984D02*
X14989801Y-12245984D01*
X14989801Y-12245984D02*
X14970753Y-12236460D01*
X15151705Y-12226936D02*
X15161229Y-12236460D01*
X15161229Y-12236460D02*
X15151705Y-12245984D01*
X15151705Y-12245984D02*
X15142182Y-12236460D01*
X15142182Y-12236460D02*
X15151705Y-12226936D01*
X15151705Y-12226936D02*
X15151705Y-12245984D01*
X15151705Y-12122174D02*
X15161229Y-12131698D01*
X15161229Y-12131698D02*
X15151705Y-12141222D01*
X15151705Y-12141222D02*
X15142182Y-12131698D01*
X15142182Y-12131698D02*
X15151705Y-12122174D01*
X15151705Y-12122174D02*
X15151705Y-12141222D01*
X13319500Y-12474500D02*
X13519500Y-12674500D01*
X13519500Y-12474500D02*
X13319500Y-12674500D01*
X13875515Y-12465984D02*
X13780277Y-12465984D01*
X13780277Y-12465984D02*
X13770753Y-12561222D01*
X13770753Y-12561222D02*
X13780277Y-12551698D01*
X13780277Y-12551698D02*
X13799324Y-12542174D01*
X13799324Y-12542174D02*
X13846943Y-12542174D01*
X13846943Y-12542174D02*
X13865991Y-12551698D01*
X13865991Y-12551698D02*
X13875515Y-12561222D01*
X13875515Y-12561222D02*
X13885039Y-12580269D01*
X13885039Y-12580269D02*
X13885039Y-12627888D01*
X13885039Y-12627888D02*
X13875515Y-12646936D01*
X13875515Y-12646936D02*
X13865991Y-12656460D01*
X13865991Y-12656460D02*
X13846943Y-12665984D01*
X13846943Y-12665984D02*
X13799324Y-12665984D01*
X13799324Y-12665984D02*
X13780277Y-12656460D01*
X13780277Y-12656460D02*
X13770753Y-12646936D01*
X13970753Y-12646936D02*
X13980277Y-12656460D01*
X13980277Y-12656460D02*
X13970753Y-12665984D01*
X13970753Y-12665984D02*
X13961229Y-12656460D01*
X13961229Y-12656460D02*
X13970753Y-12646936D01*
X13970753Y-12646936D02*
X13970753Y-12665984D01*
X14161229Y-12465984D02*
X14065991Y-12465984D01*
X14065991Y-12465984D02*
X14056467Y-12561222D01*
X14056467Y-12561222D02*
X14065991Y-12551698D01*
X14065991Y-12551698D02*
X14085039Y-12542174D01*
X14085039Y-12542174D02*
X14132658Y-12542174D01*
X14132658Y-12542174D02*
X14151705Y-12551698D01*
X14151705Y-12551698D02*
X14161229Y-12561222D01*
X14161229Y-12561222D02*
X14170753Y-12580269D01*
X14170753Y-12580269D02*
X14170753Y-12627888D01*
X14170753Y-12627888D02*
X14161229Y-12646936D01*
X14161229Y-12646936D02*
X14151705Y-12656460D01*
X14151705Y-12656460D02*
X14132658Y-12665984D01*
X14132658Y-12665984D02*
X14085039Y-12665984D01*
X14085039Y-12665984D02*
X14065991Y-12656460D01*
X14065991Y-12656460D02*
X14056467Y-12646936D01*
X14294562Y-12465984D02*
X14313610Y-12465984D01*
X14313610Y-12465984D02*
X14332658Y-12475508D01*
X14332658Y-12475508D02*
X14342182Y-12485031D01*
X14342182Y-12485031D02*
X14351705Y-12504079D01*
X14351705Y-12504079D02*
X14361229Y-12542174D01*
X14361229Y-12542174D02*
X14361229Y-12589793D01*
X14361229Y-12589793D02*
X14351705Y-12627888D01*
X14351705Y-12627888D02*
X14342182Y-12646936D01*
X14342182Y-12646936D02*
X14332658Y-12656460D01*
X14332658Y-12656460D02*
X14313610Y-12665984D01*
X14313610Y-12665984D02*
X14294562Y-12665984D01*
X14294562Y-12665984D02*
X14275515Y-12656460D01*
X14275515Y-12656460D02*
X14265991Y-12646936D01*
X14265991Y-12646936D02*
X14256467Y-12627888D01*
X14256467Y-12627888D02*
X14246943Y-12589793D01*
X14246943Y-12589793D02*
X14246943Y-12542174D01*
X14246943Y-12542174D02*
X14256467Y-12504079D01*
X14256467Y-12504079D02*
X14265991Y-12485031D01*
X14265991Y-12485031D02*
X14275515Y-12475508D01*
X14275515Y-12475508D02*
X14294562Y-12465984D01*
X14485039Y-12465984D02*
X14504086Y-12465984D01*
X14504086Y-12465984D02*
X14523134Y-12475508D01*
X14523134Y-12475508D02*
X14532658Y-12485031D01*
X14532658Y-12485031D02*
X14542182Y-12504079D01*
X14542182Y-12504079D02*
X14551705Y-12542174D01*
X14551705Y-12542174D02*
X14551705Y-12589793D01*
X14551705Y-12589793D02*
X14542182Y-12627888D01*
X14542182Y-12627888D02*
X14532658Y-12646936D01*
X14532658Y-12646936D02*
X14523134Y-12656460D01*
X14523134Y-12656460D02*
X14504086Y-12665984D01*
X14504086Y-12665984D02*
X14485039Y-12665984D01*
X14485039Y-12665984D02*
X14465991Y-12656460D01*
X14465991Y-12656460D02*
X14456467Y-12646936D01*
X14456467Y-12646936D02*
X14446943Y-12627888D01*
X14446943Y-12627888D02*
X14437420Y-12589793D01*
X14437420Y-12589793D02*
X14437420Y-12542174D01*
X14437420Y-12542174D02*
X14446943Y-12504079D01*
X14446943Y-12504079D02*
X14456467Y-12485031D01*
X14456467Y-12485031D02*
X14465991Y-12475508D01*
X14465991Y-12475508D02*
X14485039Y-12465984D01*
X14637420Y-12665984D02*
X14637420Y-12532650D01*
X14637420Y-12551698D02*
X14646943Y-12542174D01*
X14646943Y-12542174D02*
X14665991Y-12532650D01*
X14665991Y-12532650D02*
X14694563Y-12532650D01*
X14694563Y-12532650D02*
X14713610Y-12542174D01*
X14713610Y-12542174D02*
X14723134Y-12561222D01*
X14723134Y-12561222D02*
X14723134Y-12665984D01*
X14723134Y-12561222D02*
X14732658Y-12542174D01*
X14732658Y-12542174D02*
X14751705Y-12532650D01*
X14751705Y-12532650D02*
X14780277Y-12532650D01*
X14780277Y-12532650D02*
X14799324Y-12542174D01*
X14799324Y-12542174D02*
X14808848Y-12561222D01*
X14808848Y-12561222D02*
X14808848Y-12665984D01*
X14904086Y-12665984D02*
X14904086Y-12532650D01*
X14904086Y-12551698D02*
X14913610Y-12542174D01*
X14913610Y-12542174D02*
X14932658Y-12532650D01*
X14932658Y-12532650D02*
X14961229Y-12532650D01*
X14961229Y-12532650D02*
X14980277Y-12542174D01*
X14980277Y-12542174D02*
X14989801Y-12561222D01*
X14989801Y-12561222D02*
X14989801Y-12665984D01*
X14989801Y-12561222D02*
X14999324Y-12542174D01*
X14999324Y-12542174D02*
X15018372Y-12532650D01*
X15018372Y-12532650D02*
X15046943Y-12532650D01*
X15046943Y-12532650D02*
X15065991Y-12542174D01*
X15065991Y-12542174D02*
X15075515Y-12561222D01*
X15075515Y-12561222D02*
X15075515Y-12665984D01*
X15465991Y-12456460D02*
X15294563Y-12713603D01*
X15723134Y-12465984D02*
X15742182Y-12465984D01*
X15742182Y-12465984D02*
X15761229Y-12475508D01*
X15761229Y-12475508D02*
X15770753Y-12485031D01*
X15770753Y-12485031D02*
X15780277Y-12504079D01*
X15780277Y-12504079D02*
X15789801Y-12542174D01*
X15789801Y-12542174D02*
X15789801Y-12589793D01*
X15789801Y-12589793D02*
X15780277Y-12627888D01*
X15780277Y-12627888D02*
X15770753Y-12646936D01*
X15770753Y-12646936D02*
X15761229Y-12656460D01*
X15761229Y-12656460D02*
X15742182Y-12665984D01*
X15742182Y-12665984D02*
X15723134Y-12665984D01*
X15723134Y-12665984D02*
X15704086Y-12656460D01*
X15704086Y-12656460D02*
X15694563Y-12646936D01*
X15694563Y-12646936D02*
X15685039Y-12627888D01*
X15685039Y-12627888D02*
X15675515Y-12589793D01*
X15675515Y-12589793D02*
X15675515Y-12542174D01*
X15675515Y-12542174D02*
X15685039Y-12504079D01*
X15685039Y-12504079D02*
X15694563Y-12485031D01*
X15694563Y-12485031D02*
X15704086Y-12475508D01*
X15704086Y-12475508D02*
X15723134Y-12465984D01*
X15875515Y-12646936D02*
X15885039Y-12656460D01*
X15885039Y-12656460D02*
X15875515Y-12665984D01*
X15875515Y-12665984D02*
X15865991Y-12656460D01*
X15865991Y-12656460D02*
X15875515Y-12646936D01*
X15875515Y-12646936D02*
X15875515Y-12665984D01*
X15961229Y-12485031D02*
X15970753Y-12475508D01*
X15970753Y-12475508D02*
X15989801Y-12465984D01*
X15989801Y-12465984D02*
X16037420Y-12465984D01*
X16037420Y-12465984D02*
X16056467Y-12475508D01*
X16056467Y-12475508D02*
X16065991Y-12485031D01*
X16065991Y-12485031D02*
X16075515Y-12504079D01*
X16075515Y-12504079D02*
X16075515Y-12523127D01*
X16075515Y-12523127D02*
X16065991Y-12551698D01*
X16065991Y-12551698D02*
X15951706Y-12665984D01*
X15951706Y-12665984D02*
X16075515Y-12665984D01*
X16265991Y-12665984D02*
X16151706Y-12665984D01*
X16208848Y-12665984D02*
X16208848Y-12465984D01*
X16208848Y-12465984D02*
X16189801Y-12494555D01*
X16189801Y-12494555D02*
X16170753Y-12513603D01*
X16170753Y-12513603D02*
X16151706Y-12523127D01*
X16437420Y-12465984D02*
X16399325Y-12465984D01*
X16399325Y-12465984D02*
X16380277Y-12475508D01*
X16380277Y-12475508D02*
X16370753Y-12485031D01*
X16370753Y-12485031D02*
X16351706Y-12513603D01*
X16351706Y-12513603D02*
X16342182Y-12551698D01*
X16342182Y-12551698D02*
X16342182Y-12627888D01*
X16342182Y-12627888D02*
X16351706Y-12646936D01*
X16351706Y-12646936D02*
X16361229Y-12656460D01*
X16361229Y-12656460D02*
X16380277Y-12665984D01*
X16380277Y-12665984D02*
X16418372Y-12665984D01*
X16418372Y-12665984D02*
X16437420Y-12656460D01*
X16437420Y-12656460D02*
X16446944Y-12646936D01*
X16446944Y-12646936D02*
X16456467Y-12627888D01*
X16456467Y-12627888D02*
X16456467Y-12580269D01*
X16456467Y-12580269D02*
X16446944Y-12561222D01*
X16446944Y-12561222D02*
X16437420Y-12551698D01*
X16437420Y-12551698D02*
X16418372Y-12542174D01*
X16418372Y-12542174D02*
X16380277Y-12542174D01*
X16380277Y-12542174D02*
X16361229Y-12551698D01*
X16361229Y-12551698D02*
X16351706Y-12561222D01*
X16351706Y-12561222D02*
X16342182Y-12580269D01*
X16637420Y-12465984D02*
X16542182Y-12465984D01*
X16542182Y-12465984D02*
X16532658Y-12561222D01*
X16532658Y-12561222D02*
X16542182Y-12551698D01*
X16542182Y-12551698D02*
X16561229Y-12542174D01*
X16561229Y-12542174D02*
X16608848Y-12542174D01*
X16608848Y-12542174D02*
X16627896Y-12551698D01*
X16627896Y-12551698D02*
X16637420Y-12561222D01*
X16637420Y-12561222D02*
X16646944Y-12580269D01*
X16646944Y-12580269D02*
X16646944Y-12627888D01*
X16646944Y-12627888D02*
X16637420Y-12646936D01*
X16637420Y-12646936D02*
X16627896Y-12656460D01*
X16627896Y-12656460D02*
X16608848Y-12665984D01*
X16608848Y-12665984D02*
X16561229Y-12665984D01*
X16561229Y-12665984D02*
X16542182Y-12656460D01*
X16542182Y-12656460D02*
X16532658Y-12646936D01*
X16723134Y-12465984D02*
X16723134Y-12504079D01*
X16799325Y-12465984D02*
X16799325Y-12504079D01*
X17094563Y-12742174D02*
X17085039Y-12732650D01*
X17085039Y-12732650D02*
X17065991Y-12704079D01*
X17065991Y-12704079D02*
X17056468Y-12685031D01*
X17056468Y-12685031D02*
X17046944Y-12656460D01*
X17046944Y-12656460D02*
X17037420Y-12608841D01*
X17037420Y-12608841D02*
X17037420Y-12570746D01*
X17037420Y-12570746D02*
X17046944Y-12523127D01*
X17046944Y-12523127D02*
X17056468Y-12494555D01*
X17056468Y-12494555D02*
X17065991Y-12475508D01*
X17065991Y-12475508D02*
X17085039Y-12446936D01*
X17085039Y-12446936D02*
X17094563Y-12437412D01*
X17256468Y-12532650D02*
X17256468Y-12665984D01*
X17208849Y-12456460D02*
X17161230Y-12599317D01*
X17161230Y-12599317D02*
X17285039Y-12599317D01*
X17513611Y-12665984D02*
X17513611Y-12465984D01*
X17599325Y-12665984D02*
X17599325Y-12561222D01*
X17599325Y-12561222D02*
X17589801Y-12542174D01*
X17589801Y-12542174D02*
X17570753Y-12532650D01*
X17570753Y-12532650D02*
X17542182Y-12532650D01*
X17542182Y-12532650D02*
X17523134Y-12542174D01*
X17523134Y-12542174D02*
X17513611Y-12551698D01*
X17723134Y-12665984D02*
X17704087Y-12656460D01*
X17704087Y-12656460D02*
X17694563Y-12646936D01*
X17694563Y-12646936D02*
X17685039Y-12627888D01*
X17685039Y-12627888D02*
X17685039Y-12570746D01*
X17685039Y-12570746D02*
X17694563Y-12551698D01*
X17694563Y-12551698D02*
X17704087Y-12542174D01*
X17704087Y-12542174D02*
X17723134Y-12532650D01*
X17723134Y-12532650D02*
X17751706Y-12532650D01*
X17751706Y-12532650D02*
X17770753Y-12542174D01*
X17770753Y-12542174D02*
X17780277Y-12551698D01*
X17780277Y-12551698D02*
X17789801Y-12570746D01*
X17789801Y-12570746D02*
X17789801Y-12627888D01*
X17789801Y-12627888D02*
X17780277Y-12646936D01*
X17780277Y-12646936D02*
X17770753Y-12656460D01*
X17770753Y-12656460D02*
X17751706Y-12665984D01*
X17751706Y-12665984D02*
X17723134Y-12665984D01*
X17904087Y-12665984D02*
X17885039Y-12656460D01*
X17885039Y-12656460D02*
X17875515Y-12637412D01*
X17875515Y-12637412D02*
X17875515Y-12465984D01*
X18056468Y-12656460D02*
X18037420Y-12665984D01*
X18037420Y-12665984D02*
X17999325Y-12665984D01*
X17999325Y-12665984D02*
X17980277Y-12656460D01*
X17980277Y-12656460D02*
X17970753Y-12637412D01*
X17970753Y-12637412D02*
X17970753Y-12561222D01*
X17970753Y-12561222D02*
X17980277Y-12542174D01*
X17980277Y-12542174D02*
X17999325Y-12532650D01*
X17999325Y-12532650D02*
X18037420Y-12532650D01*
X18037420Y-12532650D02*
X18056468Y-12542174D01*
X18056468Y-12542174D02*
X18065992Y-12561222D01*
X18065992Y-12561222D02*
X18065992Y-12580269D01*
X18065992Y-12580269D02*
X17970753Y-12599317D01*
X18142182Y-12656460D02*
X18161230Y-12665984D01*
X18161230Y-12665984D02*
X18199325Y-12665984D01*
X18199325Y-12665984D02*
X18218373Y-12656460D01*
X18218373Y-12656460D02*
X18227896Y-12637412D01*
X18227896Y-12637412D02*
X18227896Y-12627888D01*
X18227896Y-12627888D02*
X18218373Y-12608841D01*
X18218373Y-12608841D02*
X18199325Y-12599317D01*
X18199325Y-12599317D02*
X18170753Y-12599317D01*
X18170753Y-12599317D02*
X18151706Y-12589793D01*
X18151706Y-12589793D02*
X18142182Y-12570746D01*
X18142182Y-12570746D02*
X18142182Y-12561222D01*
X18142182Y-12561222D02*
X18151706Y-12542174D01*
X18151706Y-12542174D02*
X18170753Y-12532650D01*
X18170753Y-12532650D02*
X18199325Y-12532650D01*
X18199325Y-12532650D02*
X18218373Y-12542174D01*
X18294563Y-12742174D02*
X18304087Y-12732650D01*
X18304087Y-12732650D02*
X18323134Y-12704079D01*
X18323134Y-12704079D02*
X18332658Y-12685031D01*
X18332658Y-12685031D02*
X18342182Y-12656460D01*
X18342182Y-12656460D02*
X18351706Y-12608841D01*
X18351706Y-12608841D02*
X18351706Y-12570746D01*
X18351706Y-12570746D02*
X18342182Y-12523127D01*
X18342182Y-12523127D02*
X18332658Y-12494555D01*
X18332658Y-12494555D02*
X18323134Y-12475508D01*
X18323134Y-12475508D02*
X18304087Y-12446936D01*
X18304087Y-12446936D02*
X18294563Y-12437412D01*
X18656468Y-12742174D02*
X18646944Y-12732650D01*
X18646944Y-12732650D02*
X18627896Y-12704079D01*
X18627896Y-12704079D02*
X18618373Y-12685031D01*
X18618373Y-12685031D02*
X18608849Y-12656460D01*
X18608849Y-12656460D02*
X18599325Y-12608841D01*
X18599325Y-12608841D02*
X18599325Y-12570746D01*
X18599325Y-12570746D02*
X18608849Y-12523127D01*
X18608849Y-12523127D02*
X18618373Y-12494555D01*
X18618373Y-12494555D02*
X18627896Y-12475508D01*
X18627896Y-12475508D02*
X18646944Y-12446936D01*
X18646944Y-12446936D02*
X18656468Y-12437412D01*
X18732658Y-12532650D02*
X18732658Y-12665984D01*
X18732658Y-12551698D02*
X18742182Y-12542174D01*
X18742182Y-12542174D02*
X18761230Y-12532650D01*
X18761230Y-12532650D02*
X18789801Y-12532650D01*
X18789801Y-12532650D02*
X18808849Y-12542174D01*
X18808849Y-12542174D02*
X18818373Y-12561222D01*
X18818373Y-12561222D02*
X18818373Y-12665984D01*
X18942182Y-12665984D02*
X18923134Y-12656460D01*
X18923134Y-12656460D02*
X18913611Y-12646936D01*
X18913611Y-12646936D02*
X18904087Y-12627888D01*
X18904087Y-12627888D02*
X18904087Y-12570746D01*
X18904087Y-12570746D02*
X18913611Y-12551698D01*
X18913611Y-12551698D02*
X18923134Y-12542174D01*
X18923134Y-12542174D02*
X18942182Y-12532650D01*
X18942182Y-12532650D02*
X18970754Y-12532650D01*
X18970754Y-12532650D02*
X18989801Y-12542174D01*
X18989801Y-12542174D02*
X18999325Y-12551698D01*
X18999325Y-12551698D02*
X19008849Y-12570746D01*
X19008849Y-12570746D02*
X19008849Y-12627888D01*
X19008849Y-12627888D02*
X18999325Y-12646936D01*
X18999325Y-12646936D02*
X18989801Y-12656460D01*
X18989801Y-12656460D02*
X18970754Y-12665984D01*
X18970754Y-12665984D02*
X18942182Y-12665984D01*
X19065992Y-12532650D02*
X19142182Y-12532650D01*
X19094563Y-12465984D02*
X19094563Y-12637412D01*
X19094563Y-12637412D02*
X19104087Y-12656460D01*
X19104087Y-12656460D02*
X19123134Y-12665984D01*
X19123134Y-12665984D02*
X19142182Y-12665984D01*
X19361230Y-12532650D02*
X19361230Y-12732650D01*
X19361230Y-12542174D02*
X19380277Y-12532650D01*
X19380277Y-12532650D02*
X19418373Y-12532650D01*
X19418373Y-12532650D02*
X19437420Y-12542174D01*
X19437420Y-12542174D02*
X19446944Y-12551698D01*
X19446944Y-12551698D02*
X19456468Y-12570746D01*
X19456468Y-12570746D02*
X19456468Y-12627888D01*
X19456468Y-12627888D02*
X19446944Y-12646936D01*
X19446944Y-12646936D02*
X19437420Y-12656460D01*
X19437420Y-12656460D02*
X19418373Y-12665984D01*
X19418373Y-12665984D02*
X19380277Y-12665984D01*
X19380277Y-12665984D02*
X19361230Y-12656460D01*
X19570754Y-12665984D02*
X19551706Y-12656460D01*
X19551706Y-12656460D02*
X19542182Y-12637412D01*
X19542182Y-12637412D02*
X19542182Y-12465984D01*
X19732658Y-12665984D02*
X19732658Y-12561222D01*
X19732658Y-12561222D02*
X19723135Y-12542174D01*
X19723135Y-12542174D02*
X19704087Y-12532650D01*
X19704087Y-12532650D02*
X19665992Y-12532650D01*
X19665992Y-12532650D02*
X19646944Y-12542174D01*
X19732658Y-12656460D02*
X19713611Y-12665984D01*
X19713611Y-12665984D02*
X19665992Y-12665984D01*
X19665992Y-12665984D02*
X19646944Y-12656460D01*
X19646944Y-12656460D02*
X19637420Y-12637412D01*
X19637420Y-12637412D02*
X19637420Y-12618365D01*
X19637420Y-12618365D02*
X19646944Y-12599317D01*
X19646944Y-12599317D02*
X19665992Y-12589793D01*
X19665992Y-12589793D02*
X19713611Y-12589793D01*
X19713611Y-12589793D02*
X19732658Y-12580269D01*
X19799325Y-12532650D02*
X19875515Y-12532650D01*
X19827896Y-12465984D02*
X19827896Y-12637412D01*
X19827896Y-12637412D02*
X19837420Y-12656460D01*
X19837420Y-12656460D02*
X19856468Y-12665984D01*
X19856468Y-12665984D02*
X19875515Y-12665984D01*
X20018373Y-12656460D02*
X19999325Y-12665984D01*
X19999325Y-12665984D02*
X19961230Y-12665984D01*
X19961230Y-12665984D02*
X19942182Y-12656460D01*
X19942182Y-12656460D02*
X19932658Y-12637412D01*
X19932658Y-12637412D02*
X19932658Y-12561222D01*
X19932658Y-12561222D02*
X19942182Y-12542174D01*
X19942182Y-12542174D02*
X19961230Y-12532650D01*
X19961230Y-12532650D02*
X19999325Y-12532650D01*
X19999325Y-12532650D02*
X20018373Y-12542174D01*
X20018373Y-12542174D02*
X20027896Y-12561222D01*
X20027896Y-12561222D02*
X20027896Y-12580269D01*
X20027896Y-12580269D02*
X19932658Y-12599317D01*
X20199325Y-12665984D02*
X20199325Y-12465984D01*
X20199325Y-12656460D02*
X20180277Y-12665984D01*
X20180277Y-12665984D02*
X20142182Y-12665984D01*
X20142182Y-12665984D02*
X20123135Y-12656460D01*
X20123135Y-12656460D02*
X20113611Y-12646936D01*
X20113611Y-12646936D02*
X20104087Y-12627888D01*
X20104087Y-12627888D02*
X20104087Y-12570746D01*
X20104087Y-12570746D02*
X20113611Y-12551698D01*
X20113611Y-12551698D02*
X20123135Y-12542174D01*
X20123135Y-12542174D02*
X20142182Y-12532650D01*
X20142182Y-12532650D02*
X20180277Y-12532650D01*
X20180277Y-12532650D02*
X20199325Y-12542174D01*
X20275516Y-12742174D02*
X20285039Y-12732650D01*
X20285039Y-12732650D02*
X20304087Y-12704079D01*
X20304087Y-12704079D02*
X20313611Y-12685031D01*
X20313611Y-12685031D02*
X20323135Y-12656460D01*
X20323135Y-12656460D02*
X20332658Y-12608841D01*
X20332658Y-12608841D02*
X20332658Y-12570746D01*
X20332658Y-12570746D02*
X20323135Y-12523127D01*
X20323135Y-12523127D02*
X20313611Y-12494555D01*
X20313611Y-12494555D02*
X20304087Y-12475508D01*
X20304087Y-12475508D02*
X20285039Y-12446936D01*
X20285039Y-12446936D02*
X20275516Y-12437412D01*
M02*
