%TF.GenerationSoftware,KiCad,Pcbnew,9.0.6*%
%TF.CreationDate,2026-01-02T16:48:05+05:30*%
%TF.ProjectId,A3144_Hall Sensor_Ring_50x50_19mm,41333134-345f-4486-916c-6c2053656e73,rev?*%
%TF.SameCoordinates,Original*%
%TF.FileFunction,Copper,L1,Top*%
%TF.FilePolarity,Positive*%
%FSLAX46Y46*%
G04 Gerber Fmt 4.6, Leading zero omitted, Abs format (unit mm)*
G04 Created by KiCad (PCBNEW 9.0.6) date 2026-01-02 16:48:05*
%MOMM*%
%LPD*%
G01*
G04 APERTURE LIST*
G04 APERTURE END LIST*
%TA.AperFunction,Conductor*%
%TO.N,VCC*%
G36*
X182224043Y-70320765D02*
G01*
X182472895Y-70337075D01*
X182488953Y-70339190D01*
X182696105Y-70380395D01*
X182729535Y-70387045D01*
X182745202Y-70391243D01*
X182914947Y-70448863D01*
X182977481Y-70470091D01*
X182992458Y-70476294D01*
X183201799Y-70579529D01*
X183212460Y-70584787D01*
X183226508Y-70592897D01*
X183430464Y-70729177D01*
X183443328Y-70739048D01*
X183627749Y-70900781D01*
X183639218Y-70912250D01*
X183757669Y-71047318D01*
X183800951Y-71096671D01*
X183810825Y-71109539D01*
X183947102Y-71313492D01*
X183955212Y-71327539D01*
X184063702Y-71547534D01*
X184069909Y-71562520D01*
X184148756Y-71794797D01*
X184152954Y-71810464D01*
X184200807Y-72051035D01*
X184202925Y-72067116D01*
X184219235Y-72315956D01*
X184219500Y-72324066D01*
X184219500Y-114367148D01*
X184199815Y-114434187D01*
X184147011Y-114479942D01*
X184077853Y-114489886D01*
X184014297Y-114460861D01*
X183976523Y-114402083D01*
X183972280Y-114381032D01*
X183962768Y-114296618D01*
X183962767Y-114296606D01*
X183887776Y-113968046D01*
X183776469Y-113649949D01*
X183630246Y-113346314D01*
X183450946Y-113060961D01*
X183240825Y-112797477D01*
X183002523Y-112559175D01*
X182739039Y-112349054D01*
X182453686Y-112169754D01*
X182453683Y-112169752D01*
X182150054Y-112023532D01*
X181831965Y-111912227D01*
X181831953Y-111912223D01*
X181503397Y-111837233D01*
X181503381Y-111837231D01*
X181168508Y-111799500D01*
X181168504Y-111799500D01*
X180831496Y-111799500D01*
X180831491Y-111799500D01*
X180496618Y-111837231D01*
X180496602Y-111837233D01*
X180168046Y-111912223D01*
X180168034Y-111912227D01*
X179849945Y-112023532D01*
X179546316Y-112169752D01*
X179260962Y-112349053D01*
X178997477Y-112559174D01*
X178759174Y-112797477D01*
X178549053Y-113060962D01*
X178369752Y-113346316D01*
X178223532Y-113649945D01*
X178112227Y-113968034D01*
X178112223Y-113968046D01*
X178037233Y-114296602D01*
X178037231Y-114296618D01*
X177999500Y-114631491D01*
X177999500Y-114968508D01*
X178037231Y-115303381D01*
X178037233Y-115303397D01*
X178112223Y-115631953D01*
X178112227Y-115631965D01*
X178223532Y-115950054D01*
X178369752Y-116253683D01*
X178369754Y-116253686D01*
X178549054Y-116539039D01*
X178759175Y-116802523D01*
X178997477Y-117040825D01*
X179260961Y-117250946D01*
X179546314Y-117430246D01*
X179849949Y-117576469D01*
X180088848Y-117660063D01*
X180168034Y-117687772D01*
X180168046Y-117687776D01*
X180496606Y-117762767D01*
X180831492Y-117800499D01*
X180831493Y-117800500D01*
X180831496Y-117800500D01*
X181168507Y-117800500D01*
X181168507Y-117800499D01*
X181503394Y-117762767D01*
X181831954Y-117687776D01*
X182150051Y-117576469D01*
X182453686Y-117430246D01*
X182739039Y-117250946D01*
X183002523Y-117040825D01*
X183240825Y-116802523D01*
X183450946Y-116539039D01*
X183630246Y-116253686D01*
X183776469Y-115950051D01*
X183887776Y-115631954D01*
X183962767Y-115303394D01*
X183962768Y-115303384D01*
X183962769Y-115303379D01*
X183972280Y-115218968D01*
X183999346Y-115154554D01*
X184056941Y-115114998D01*
X184126778Y-115112861D01*
X184186685Y-115148819D01*
X184217640Y-115211457D01*
X184219500Y-115232851D01*
X184219500Y-116315933D01*
X184219235Y-116324043D01*
X184202925Y-116572883D01*
X184200807Y-116588964D01*
X184152954Y-116829535D01*
X184148756Y-116845202D01*
X184069909Y-117077479D01*
X184063702Y-117092465D01*
X183955212Y-117312460D01*
X183947102Y-117326507D01*
X183810825Y-117530460D01*
X183800951Y-117543328D01*
X183639218Y-117727749D01*
X183627749Y-117739218D01*
X183443328Y-117900951D01*
X183430460Y-117910825D01*
X183226507Y-118047102D01*
X183212460Y-118055212D01*
X182992465Y-118163702D01*
X182977479Y-118169909D01*
X182745202Y-118248756D01*
X182729535Y-118252954D01*
X182488964Y-118300807D01*
X182472883Y-118302925D01*
X182224043Y-118319235D01*
X182215933Y-118319500D01*
X138224067Y-118319500D01*
X138215957Y-118319235D01*
X137967116Y-118302925D01*
X137951035Y-118300807D01*
X137710464Y-118252954D01*
X137694797Y-118248756D01*
X137462520Y-118169909D01*
X137447534Y-118163702D01*
X137227539Y-118055212D01*
X137213492Y-118047102D01*
X137009539Y-117910825D01*
X136996671Y-117900951D01*
X136812250Y-117739218D01*
X136800781Y-117727749D01*
X136739648Y-117658040D01*
X136639045Y-117543325D01*
X136629174Y-117530460D01*
X136492897Y-117326507D01*
X136484787Y-117312460D01*
X136447522Y-117236895D01*
X136376294Y-117092458D01*
X136370090Y-117077479D01*
X136291243Y-116845202D01*
X136287045Y-116829535D01*
X136241487Y-116600500D01*
X136239190Y-116588953D01*
X136237075Y-116572895D01*
X136220765Y-116324043D01*
X136220500Y-116315933D01*
X136220500Y-113431491D01*
X137999500Y-113431491D01*
X137999500Y-113768508D01*
X138037231Y-114103381D01*
X138037233Y-114103397D01*
X138112223Y-114431953D01*
X138112227Y-114431965D01*
X138223532Y-114750054D01*
X138369752Y-115053683D01*
X138369754Y-115053686D01*
X138549054Y-115339039D01*
X138759175Y-115602523D01*
X138997477Y-115840825D01*
X139260961Y-116050946D01*
X139546314Y-116230246D01*
X139849949Y-116376469D01*
X140088848Y-116460063D01*
X140168034Y-116487772D01*
X140168046Y-116487776D01*
X140496606Y-116562767D01*
X140831492Y-116600499D01*
X140831493Y-116600500D01*
X140831496Y-116600500D01*
X141168507Y-116600500D01*
X141168507Y-116600499D01*
X141503394Y-116562767D01*
X141831954Y-116487776D01*
X142150051Y-116376469D01*
X142453686Y-116230246D01*
X142739039Y-116050946D01*
X143002523Y-115840825D01*
X143240825Y-115602523D01*
X143450946Y-115339039D01*
X143630246Y-115053686D01*
X143776469Y-114750051D01*
X143887776Y-114431954D01*
X143962767Y-114103394D01*
X144000500Y-113768504D01*
X144000500Y-113431496D01*
X143962767Y-113096606D01*
X143887776Y-112768046D01*
X143776469Y-112449949D01*
X143630246Y-112146314D01*
X143450946Y-111860961D01*
X143240825Y-111597477D01*
X143002523Y-111359175D01*
X142739039Y-111149054D01*
X142453686Y-110969754D01*
X142453683Y-110969752D01*
X142150054Y-110823532D01*
X141831965Y-110712227D01*
X141831953Y-110712223D01*
X141503397Y-110637233D01*
X141503381Y-110637231D01*
X141168508Y-110599500D01*
X141168504Y-110599500D01*
X140831496Y-110599500D01*
X140831491Y-110599500D01*
X140496618Y-110637231D01*
X140496602Y-110637233D01*
X140168046Y-110712223D01*
X140168034Y-110712227D01*
X139849945Y-110823532D01*
X139546316Y-110969752D01*
X139260962Y-111149053D01*
X138997477Y-111359174D01*
X138759174Y-111597477D01*
X138549053Y-111860962D01*
X138369752Y-112146316D01*
X138223532Y-112449945D01*
X138112227Y-112768034D01*
X138112223Y-112768046D01*
X138037233Y-113096602D01*
X138037231Y-113096618D01*
X137999500Y-113431491D01*
X136220500Y-113431491D01*
X136220500Y-75031491D01*
X137999500Y-75031491D01*
X137999500Y-75368508D01*
X138037231Y-75703381D01*
X138037233Y-75703397D01*
X138112223Y-76031953D01*
X138112227Y-76031965D01*
X138223532Y-76350054D01*
X138369752Y-76653683D01*
X138369754Y-76653686D01*
X138549054Y-76939039D01*
X138759175Y-77202523D01*
X138997477Y-77440825D01*
X139260961Y-77650946D01*
X139546314Y-77830246D01*
X139849949Y-77976469D01*
X140088848Y-78060063D01*
X140168034Y-78087772D01*
X140168046Y-78087776D01*
X140496606Y-78162767D01*
X140831492Y-78200499D01*
X140831493Y-78200500D01*
X140831496Y-78200500D01*
X141168507Y-78200500D01*
X141168507Y-78200499D01*
X141503394Y-78162767D01*
X141831954Y-78087776D01*
X142150051Y-77976469D01*
X142453686Y-77830246D01*
X142739039Y-77650946D01*
X143002523Y-77440825D01*
X143240825Y-77202523D01*
X143450946Y-76939039D01*
X143630246Y-76653686D01*
X143776469Y-76350051D01*
X143887776Y-76031954D01*
X143962767Y-75703394D01*
X144000500Y-75368504D01*
X144000500Y-75031496D01*
X143979138Y-74841900D01*
X143977965Y-74831491D01*
X176599500Y-74831491D01*
X176599500Y-75168508D01*
X176637231Y-75503381D01*
X176637233Y-75503397D01*
X176712223Y-75831953D01*
X176712227Y-75831965D01*
X176823532Y-76150054D01*
X176969752Y-76453683D01*
X176969754Y-76453686D01*
X177149054Y-76739039D01*
X177359175Y-77002523D01*
X177597477Y-77240825D01*
X177860961Y-77450946D01*
X178146314Y-77630246D01*
X178449949Y-77776469D01*
X178603635Y-77830246D01*
X178768034Y-77887772D01*
X178768046Y-77887776D01*
X179096606Y-77962767D01*
X179431492Y-78000499D01*
X179431493Y-78000500D01*
X179431496Y-78000500D01*
X179768507Y-78000500D01*
X179768507Y-78000499D01*
X180103394Y-77962767D01*
X180431954Y-77887776D01*
X180750051Y-77776469D01*
X181053686Y-77630246D01*
X181339039Y-77450946D01*
X181602523Y-77240825D01*
X181840825Y-77002523D01*
X182050946Y-76739039D01*
X182230246Y-76453686D01*
X182376469Y-76150051D01*
X182487776Y-75831954D01*
X182562767Y-75503394D01*
X182600500Y-75168504D01*
X182600500Y-74831496D01*
X182562767Y-74496606D01*
X182487776Y-74168046D01*
X182376469Y-73849949D01*
X182230246Y-73546314D01*
X182050946Y-73260961D01*
X181840825Y-72997477D01*
X181602523Y-72759175D01*
X181589830Y-72749053D01*
X181535606Y-72705811D01*
X181339039Y-72549054D01*
X181053686Y-72369754D01*
X181053683Y-72369752D01*
X180750054Y-72223532D01*
X180431965Y-72112227D01*
X180431953Y-72112223D01*
X180103397Y-72037233D01*
X180103381Y-72037231D01*
X179768508Y-71999500D01*
X179768504Y-71999500D01*
X179431496Y-71999500D01*
X179431491Y-71999500D01*
X179096618Y-72037231D01*
X179096602Y-72037233D01*
X178768046Y-72112223D01*
X178768034Y-72112227D01*
X178449945Y-72223532D01*
X178146316Y-72369752D01*
X177860962Y-72549053D01*
X177597477Y-72759174D01*
X177359174Y-72997477D01*
X177149053Y-73260962D01*
X176969752Y-73546316D01*
X176823532Y-73849945D01*
X176712227Y-74168034D01*
X176712223Y-74168046D01*
X176637233Y-74496602D01*
X176637231Y-74496618D01*
X176599500Y-74831491D01*
X143977965Y-74831491D01*
X143962769Y-74696620D01*
X143962766Y-74696602D01*
X143887776Y-74368046D01*
X143887772Y-74368034D01*
X143817793Y-74168046D01*
X143776469Y-74049949D01*
X143630246Y-73746314D01*
X143450946Y-73460961D01*
X143240825Y-73197477D01*
X143002523Y-72959175D01*
X142739039Y-72749054D01*
X142453686Y-72569754D01*
X142453683Y-72569752D01*
X142150054Y-72423532D01*
X141831965Y-72312227D01*
X141831953Y-72312223D01*
X141503397Y-72237233D01*
X141503381Y-72237231D01*
X141168508Y-72199500D01*
X141168504Y-72199500D01*
X140831496Y-72199500D01*
X140831491Y-72199500D01*
X140496618Y-72237231D01*
X140496602Y-72237233D01*
X140168046Y-72312223D01*
X140168034Y-72312227D01*
X139849945Y-72423532D01*
X139546316Y-72569752D01*
X139260962Y-72749053D01*
X138997477Y-72959174D01*
X138759174Y-73197477D01*
X138549053Y-73460962D01*
X138369752Y-73746316D01*
X138223532Y-74049945D01*
X138112227Y-74368034D01*
X138112223Y-74368046D01*
X138037233Y-74696602D01*
X138037231Y-74696618D01*
X137999500Y-75031491D01*
X136220500Y-75031491D01*
X136220500Y-72324066D01*
X136220765Y-72315956D01*
X136225925Y-72237231D01*
X136237075Y-72067102D01*
X136239190Y-72051048D01*
X136287045Y-71810462D01*
X136291243Y-71794797D01*
X136314337Y-71726762D01*
X136370093Y-71562512D01*
X136376291Y-71547547D01*
X136484790Y-71327533D01*
X136492893Y-71313498D01*
X136629182Y-71109527D01*
X136639039Y-71096681D01*
X136800786Y-70912244D01*
X136812244Y-70900786D01*
X136996681Y-70739039D01*
X137009527Y-70729182D01*
X137213498Y-70592893D01*
X137227533Y-70584790D01*
X137447547Y-70476291D01*
X137462512Y-70470093D01*
X137626762Y-70414337D01*
X137694797Y-70391243D01*
X137710464Y-70387045D01*
X137951048Y-70339190D01*
X137967102Y-70337075D01*
X138215957Y-70320765D01*
X138224067Y-70320500D01*
X138312710Y-70320500D01*
X182127290Y-70320500D01*
X182215933Y-70320500D01*
X182224043Y-70320765D01*
G37*
%TD.AperFunction*%
%TD*%
M02*
