%TF.GenerationSoftware,KiCad,Pcbnew,9.0.7*%
%TF.CreationDate,2026-04-13T23:53:30+05:30*%
%TF.ProjectId,Atomic01 PCB,41746f6d-6963-4303-9120-5043422e6b69,rev?*%
%TF.SameCoordinates,Original*%
%TF.FileFunction,Component,L1,Top*%
%TF.FilePolarity,Positive*%
%FSLAX46Y46*%
G04 Gerber Fmt 4.6, Leading zero omitted, Abs format (unit mm)*
G04 Created by KiCad (PCBNEW 9.0.7) date 2026-04-13 23:53:30*
%MOMM*%
%LPD*%
G01*
G04 APERTURE LIST*
%TA.AperFunction,ComponentMain*%
%ADD10C,0.300000*%
%TD*%
%TA.AperFunction,ComponentOutline,Courtyard*%
%ADD11C,0.100000*%
%TD*%
%TA.AperFunction,ComponentPin*%
%ADD12P,0.360000X4X0.000000*%
%TD*%
%TA.AperFunction,ComponentPin*%
%ADD13C,0.100000*%
%TD*%
%TA.AperFunction,ComponentOutline,Footprint*%
%ADD14C,0.100000*%
%TD*%
G04 APERTURE END LIST*
D10*
%TO.C,U1*%
%TO.CFtp,SOIC-8-1EP_3.9x4.9mm_P1.27mm_EP2.41x3.3mm_ThermalVias*%
%TO.CVal,TP4056-42-ESOP8*%
%TO.CLbN,Package_SO*%
%TO.CMnt,SMD*%
%TO.CRot,0*%
X197325000Y-67695000D03*
D11*
X199520000Y-65000000D02*
X199520000Y-65240000D01*
X201020000Y-65240000D01*
X201020000Y-70150000D01*
X199520000Y-70150000D01*
X199520000Y-70390000D01*
X195130000Y-70390000D01*
X195130000Y-70150000D01*
X193630000Y-70150000D01*
X193630000Y-65240000D01*
X195130000Y-65240000D01*
X195130000Y-65000000D01*
X199520000Y-65000000D01*
D12*
%TO.P,U1,1,TEMP*%
X194850000Y-65790000D03*
D13*
%TO.P,U1,2,PROG*%
X194850000Y-67060000D03*
%TO.P,U1,3,GND*%
X194850000Y-68330000D03*
%TO.P,U1,4,V_{CC}*%
X194850000Y-69600000D03*
%TO.P,U1,5,BAT*%
X199800000Y-69600000D03*
%TO.P,U1,6,~{STDBY}*%
X199800000Y-68330000D03*
%TO.P,U1,7,~{CHRG}*%
X199800000Y-67060000D03*
%TO.P,U1,8,CE*%
X199800000Y-65790000D03*
%TO.P,U1,9,EPAD*%
X196625000Y-66495000D03*
X196625000Y-67695000D03*
X196625000Y-68895000D03*
X197325000Y-67695000D03*
X198025000Y-66495000D03*
X198025000Y-67695000D03*
X198025000Y-68895000D03*
%TD*%
D10*
%TO.C,R2*%
%TO.CFtp,R_0603*%
%TO.CVal,5.1k*%
%TO.CLbN,PCM_4ms_Resistor*%
%TO.CMnt,SMD*%
%TO.CRot,-90*%
X181375000Y-66120000D03*
D11*
X182120000Y-64525000D02*
X182120000Y-67715000D01*
X180630000Y-67715000D01*
X180630000Y-64525000D01*
X182120000Y-64525000D01*
D12*
%TO.P,R2,1,+*%
X181375000Y-65270000D03*
D13*
%TO.P,R2,2,-*%
X181375000Y-66970000D03*
%TD*%
D10*
%TO.C,R1*%
%TO.CFtp,R_0603*%
%TO.CVal,5.1k*%
%TO.CLbN,PCM_4ms_Resistor*%
%TO.CMnt,SMD*%
%TO.CRot,-90*%
X184375000Y-66120000D03*
D11*
X185120000Y-64525000D02*
X185120000Y-67715000D01*
X183630000Y-67715000D01*
X183630000Y-64525000D01*
X185120000Y-64525000D01*
D12*
%TO.P,R1,1,+*%
X184375000Y-65270000D03*
D13*
%TO.P,R1,2,-*%
X184375000Y-66970000D03*
%TD*%
D10*
%TO.C,L1*%
%TO.CFtp,L_10.4x10.4_H4.8*%
%TO.CVal,22uH*%
%TO.CLbN,Inductor_SMD*%
%TO.CMnt,SMD*%
%TO.CRot,0*%
X185150000Y-91000000D03*
D11*
X190895000Y-85555000D02*
X190895000Y-96445000D01*
X179405000Y-96445000D01*
X179405000Y-85555000D01*
X190895000Y-85555000D01*
D12*
%TO.P,L1,1,1*%
X181000000Y-91000000D03*
D13*
%TO.P,L1,2,2*%
X189300000Y-91000000D03*
%TD*%
D10*
%TO.C,J16*%
%TO.CFtp,LIMIT SWITCH*%
%TO.CVal,Conn_01x02*%
%TO.CLbN,untitled*%
%TO.CMnt,SMD*%
%TO.CRot,90*%
X221350000Y-69850000D03*
D14*
X213100000Y-80600000D02*
X218100000Y-80600000D01*
X218100000Y-61450000D01*
X213100000Y-61450000D01*
X213100000Y-80600000D01*
D12*
%TO.P,J16,1,Pin_1*%
X215600000Y-79100000D03*
D13*
%TO.P,J16,2,Pin_2*%
X215600000Y-71850000D03*
%TO.P,J16,3*%
X215600000Y-62950000D03*
%TD*%
D10*
%TO.C,J1*%
%TO.CFtp,USB_C_Receptacle_GCT_USB4105-xx-A_16P_TopMnt_Horizontal*%
%TO.CVal,USB_C_Receptacle_USB2.0_16P*%
%TO.CLbN,Connector_USB*%
%TO.CMnt,SMD*%
%TO.CRot,180*%
X183125000Y-57670000D03*
D11*
X188440000Y-53495000D02*
X188440000Y-62425000D01*
X177810000Y-62425000D01*
X177810000Y-53495000D01*
X188440000Y-53495000D01*
D12*
%TO.P,J1,A1,GND*%
X186325000Y-61350000D03*
D13*
%TO.P,J1,*%
X186015000Y-60275000D03*
X180235000Y-60275000D03*
%TO.P,J1,A4,VBUS*%
X185525000Y-61350000D03*
%TO.P,J1,A5,CC1*%
X184375000Y-61350000D03*
%TO.P,J1,A6,D+*%
X183375000Y-61350000D03*
%TO.P,J1,A7,D-*%
X182875000Y-61350000D03*
%TO.P,J1,A8,SBU1*%
X181875000Y-61350000D03*
%TO.P,J1,A9,VBUS*%
X180725000Y-61350000D03*
%TO.P,J1,A12,GND*%
X179925000Y-61350000D03*
%TO.P,J1,B1,GND*%
X179925000Y-61350000D03*
%TO.P,J1,B4,VBUS*%
X180725000Y-61350000D03*
%TO.P,J1,B5,CC2*%
X181375000Y-61350000D03*
%TO.P,J1,B6,D+*%
X182375000Y-61350000D03*
%TO.P,J1,B7,D-*%
X183875000Y-61350000D03*
%TO.P,J1,B8,SBU2*%
X184875000Y-61350000D03*
%TO.P,J1,B9,VBUS*%
X185525000Y-61350000D03*
%TO.P,J1,B12,GND*%
X186325000Y-61350000D03*
%TO.P,J1,S1,SHIELD*%
X187445000Y-60775000D03*
X187445000Y-56595000D03*
X178805000Y-60775000D03*
X178805000Y-56595000D03*
%TD*%
D10*
%TO.C,R5*%
%TO.CFtp,R_0603_1608Metric_Pad0.98x0.95mm_HandSolder*%
%TO.CVal,10k*%
%TO.CLbN,Resistor_SMD*%
%TO.CMnt,SMD*%
%TO.CRot,180*%
X193887500Y-63000000D03*
D11*
X195532500Y-62275000D02*
X195532500Y-63725000D01*
X192242500Y-63725000D01*
X192242500Y-62275000D01*
X195532500Y-62275000D01*
D12*
%TO.P,R5,1,+*%
X194800000Y-63000000D03*
D13*
%TO.P,R5,2,-*%
X192975000Y-63000000D03*
%TD*%
D10*
%TO.C,mouse-bite-1mm-3mm*%
%TO.CFtp,mouse-bite-1mm-3mm*%
%TO.CVal,VAL\u002A\u002A*%
%TO.CLbN,mouse-bite*%
%TO.CMnt,TH*%
%TO.CRot,90*%
X165960000Y-98040000D03*
D14*
X165410000Y-99000000D02*
X166510000Y-99000000D01*
X166510000Y-97080000D01*
X165410000Y-97080000D01*
X165410000Y-99000000D01*
D13*
%TO.P,mouse-bite-1mm-3mm,*%
X165660000Y-98750000D03*
X166260000Y-98750000D03*
X165660000Y-98040000D03*
X166260000Y-98040000D03*
X166260000Y-97340000D03*
X165660000Y-97330000D03*
%TD*%
D10*
%TO.C,J8*%
%TO.CFtp,PinHeader_1x07_P2.54mm_Vertical*%
%TO.CVal,Conn_01x07_Socket*%
%TO.CLbN,Connector_PinHeader_2.54mm*%
%TO.CMnt,TH*%
%TO.CRot,0*%
X207200000Y-99440000D03*
D11*
X208965000Y-97665000D02*
X208965000Y-116455000D01*
X205435000Y-116455000D01*
X205435000Y-97665000D01*
X208965000Y-97665000D01*
D12*
%TO.P,J8,1,Pin_1*%
X207200000Y-99440000D03*
D13*
%TO.P,J8,2,Pin_2*%
X207200000Y-101980000D03*
%TO.P,J8,3,Pin_3*%
X207200000Y-104520000D03*
%TO.P,J8,4,Pin_4*%
X207200000Y-107060000D03*
%TO.P,J8,5,Pin_5*%
X207200000Y-109600000D03*
%TO.P,J8,6,Pin_6*%
X207200000Y-112140000D03*
%TO.P,J8,7,Pin_7*%
X207200000Y-114680000D03*
%TD*%
D10*
%TO.C,C4*%
%TO.CFtp,C_0603_1608Metric_Pad1.08x0.95mm_HandSolder*%
%TO.CVal,10u*%
%TO.CLbN,Capacitor_SMD*%
%TO.CMnt,SMD*%
%TO.CRot,90*%
X182060000Y-81400000D03*
D11*
X182785000Y-79755000D02*
X182785000Y-83045000D01*
X181335000Y-83045000D01*
X181335000Y-79755000D01*
X182785000Y-79755000D01*
D12*
%TO.P,C4,1*%
X182060000Y-82262500D03*
D13*
%TO.P,C4,2*%
X182060000Y-80537500D03*
%TD*%
D10*
%TO.C,R6*%
%TO.CFtp,R_0603_1608Metric_Pad0.98x0.95mm_HandSolder*%
%TO.CVal,10k*%
%TO.CLbN,Resistor_SMD*%
%TO.CMnt,SMD*%
%TO.CRot,90*%
X184550000Y-81400000D03*
D11*
X185275000Y-79755000D02*
X185275000Y-83045000D01*
X183825000Y-83045000D01*
X183825000Y-79755000D01*
X185275000Y-79755000D01*
D12*
%TO.P,R6,1,+*%
X184550000Y-82312500D03*
D13*
%TO.P,R6,2,-*%
X184550000Y-80487500D03*
%TD*%
D10*
%TO.C,J4*%
%TO.CFtp,JST_XH_B4B-XH-A_1x04_P2.50mm_Vertical*%
%TO.CVal,TM1637*%
%TO.CLbN,Connector_JST*%
%TO.CMnt,TH*%
%TO.CRot,0*%
X195300000Y-121940000D03*
D11*
X205745000Y-119095000D02*
X205745000Y-125835000D01*
X192355000Y-125835000D01*
X192355000Y-119095000D01*
X205745000Y-119095000D01*
D12*
%TO.P,J4,1,Pin_1*%
X195300000Y-121940000D03*
D13*
%TO.P,J4,2,Pin_2*%
X197800000Y-121940000D03*
%TO.P,J4,3,Pin_3*%
X200300000Y-121940000D03*
%TO.P,J4,4,Pin_4*%
X202800000Y-121940000D03*
%TD*%
D10*
%TO.C,J2*%
%TO.CFtp,PinSocket_1x02_P2.54mm_Vertical*%
%TO.CVal,Conn_01x02_Socket*%
%TO.CLbN,Connector_PinSocket_2.54mm*%
%TO.CMnt,TH*%
%TO.CRot,90*%
X196000000Y-57800000D03*
D11*
X200295000Y-56055000D02*
X200295000Y-59595000D01*
X194205000Y-59595000D01*
X194205000Y-56055000D01*
X200295000Y-56055000D01*
D12*
%TO.P,J2,1,Pin_1*%
X196000000Y-57800000D03*
D13*
%TO.P,J2,2,Pin_2*%
X198540000Y-57800000D03*
%TD*%
D10*
%TO.C,J10*%
%TO.CFtp,PinHeader_1x06_P2.54mm_Vertical*%
%TO.CVal,MOTOR_DRIVER*%
%TO.CLbN,Connector_PinHeader_2.54mm*%
%TO.CMnt,TH*%
%TO.CRot,0*%
X207540000Y-78600000D03*
D11*
X209305000Y-76835000D02*
X209305000Y-93065000D01*
X205775000Y-93065000D01*
X205775000Y-76835000D01*
X209305000Y-76835000D01*
D12*
%TO.P,J10,1,Pin_1*%
X207540000Y-78600000D03*
D13*
%TO.P,J10,2,Pin_2*%
X207540000Y-81140000D03*
%TO.P,J10,3,Pin_3*%
X207540000Y-83680000D03*
%TO.P,J10,4,Pin_4*%
X207540000Y-86220000D03*
%TO.P,J10,5,Pin_5*%
X207540000Y-88760000D03*
%TO.P,J10,6,Pin_6*%
X207540000Y-91300000D03*
%TD*%
D10*
%TO.C,R7*%
%TO.CFtp,R_0603_1608Metric_Pad0.98x0.95mm_HandSolder*%
%TO.CVal,10k*%
%TO.CLbN,Resistor_SMD*%
%TO.CMnt,SMD*%
%TO.CRot,90*%
X193150000Y-94400000D03*
D11*
X193875000Y-92755000D02*
X193875000Y-96045000D01*
X192425000Y-96045000D01*
X192425000Y-92755000D01*
X193875000Y-92755000D01*
D12*
%TO.P,R7,1,+*%
X193150000Y-95312500D03*
D13*
%TO.P,R7,2,-*%
X193150000Y-93487500D03*
%TD*%
D10*
%TO.C,D3*%
%TO.CFtp,D_SMA*%
%TO.CVal,SS14*%
%TO.CLbN,Diode_SMD*%
%TO.CMnt,SMD*%
%TO.CRot,0*%
X186950000Y-99400000D03*
D11*
X190445000Y-97655000D02*
X190445000Y-101145000D01*
X183455000Y-101145000D01*
X183455000Y-97655000D01*
X190445000Y-97655000D01*
D12*
%TO.P,D3,1,K*%
X184950000Y-99400000D03*
D13*
%TO.P,D3,2,A*%
X188950000Y-99400000D03*
%TD*%
D10*
%TO.C,J3*%
%TO.CFtp,JST_XH_B6B-XH-A_1x06_P2.50mm_Vertical*%
%TO.CVal,INMP441*%
%TO.CLbN,Connector_JST*%
%TO.CMnt,TH*%
%TO.CRot,-90*%
X170725000Y-106100000D03*
D11*
X173570000Y-103155000D02*
X173570000Y-121545000D01*
X166830000Y-121545000D01*
X166830000Y-103155000D01*
X173570000Y-103155000D01*
D12*
%TO.P,J3,1,Pin_1*%
X170725000Y-106100000D03*
D13*
%TO.P,J3,2,Pin_2*%
X170725000Y-108600000D03*
%TO.P,J3,3,Pin_3*%
X170725000Y-111100000D03*
%TO.P,J3,4,Pin_4*%
X170725000Y-113600000D03*
%TO.P,J3,5,Pin_5*%
X170725000Y-116100000D03*
%TO.P,J3,6,Pin_6*%
X170725000Y-118600000D03*
%TD*%
D10*
%TO.C,C5*%
%TO.CFtp,C_0603_1608Metric_Pad1.08x0.95mm_HandSolder*%
%TO.CVal,0u1*%
%TO.CLbN,Capacitor_SMD*%
%TO.CMnt,SMD*%
%TO.CRot,0*%
X193200000Y-99200000D03*
D11*
X194845000Y-98475000D02*
X194845000Y-99925000D01*
X191555000Y-99925000D01*
X191555000Y-98475000D01*
X194845000Y-98475000D01*
D12*
%TO.P,C5,1*%
X192337500Y-99200000D03*
D13*
%TO.P,C5,2*%
X194062500Y-99200000D03*
%TD*%
D10*
%TO.C,C6*%
%TO.CFtp,C_0603_1608Metric_Pad1.08x0.95mm_HandSolder*%
%TO.CVal,10u*%
%TO.CLbN,Capacitor_SMD*%
%TO.CMnt,SMD*%
%TO.CRot,0*%
X193200000Y-101710000D03*
D11*
X194845000Y-100985000D02*
X194845000Y-102435000D01*
X191555000Y-102435000D01*
X191555000Y-100985000D01*
X194845000Y-100985000D01*
D12*
%TO.P,C6,1*%
X192337500Y-101710000D03*
D13*
%TO.P,C6,2*%
X194062500Y-101710000D03*
%TD*%
D10*
%TO.C,J7*%
%TO.CFtp,Harwin_LTek-Male_2x02_P2.00mm_Vertical*%
%TO.CVal,Conn_02x02_Odd_Even*%
%TO.CLbN,Connector_Harwin*%
%TO.CMnt,TH*%
%TO.CRot,0*%
X170800000Y-60000000D03*
D11*
X176345000Y-55505000D02*
X176345000Y-62495000D01*
X167255000Y-62495000D01*
X167255000Y-55505000D01*
X176345000Y-55505000D01*
D12*
%TO.P,J7,1,Pin_1*%
X170800000Y-60000000D03*
D13*
%TO.P,J7,2,Pin_2*%
X172800000Y-60000000D03*
%TO.P,J7,3,Pin_3*%
X170800000Y-58000000D03*
%TO.P,J7,4,Pin_4*%
X172800000Y-58000000D03*
%TD*%
D10*
%TO.C,J20*%
%TO.CFtp,Potentiometer_Piher_T-16H_Single_Horizontal*%
%TO.CVal,Potentiometer*%
%TO.CLbN,Potentiometer_THT*%
%TO.CMnt,TH*%
%TO.CRot,0*%
X225610000Y-104100000D03*
D11*
X242355000Y-90855000D02*
X242355000Y-107345000D01*
X219365000Y-107345000D01*
X219365000Y-90855000D01*
X242355000Y-90855000D01*
D12*
%TO.P,J20,1,Pin_1*%
X225610000Y-104100000D03*
D13*
%TO.P,J20,2,Pin_2*%
X225610000Y-99100000D03*
%TO.P,J20,3,Pin_3*%
X225610000Y-94100000D03*
%TD*%
D10*
%TO.C,mouse-bite-1mm-3mm*%
%TO.CFtp,mouse-bite-1mm-3mm*%
%TO.CVal,VAL\u002A\u002A*%
%TO.CLbN,mouse-bite*%
%TO.CMnt,TH*%
%TO.CRot,90*%
X210600000Y-99870000D03*
D14*
X210050000Y-100830000D02*
X211150000Y-100830000D01*
X211150000Y-98910000D01*
X210050000Y-98910000D01*
X210050000Y-100830000D01*
D13*
%TO.P,mouse-bite-1mm-3mm,*%
X210300000Y-100580000D03*
X210900000Y-100580000D03*
X210300000Y-99870000D03*
X210900000Y-99870000D03*
X210900000Y-99170000D03*
X210300000Y-99160000D03*
%TD*%
D10*
%TO.C,J6*%
%TO.CFtp,JST_XH_B2B-XH-A_1x02_P2.50mm_Vertical*%
%TO.CVal,ROCKER SWITCH*%
%TO.CLbN,Connector_JST*%
%TO.CMnt,TH*%
%TO.CRot,90*%
X206400000Y-61900000D03*
D11*
X210295000Y-56455000D02*
X210295000Y-64845000D01*
X203555000Y-64845000D01*
X203555000Y-56455000D01*
X210295000Y-56455000D01*
D12*
%TO.P,J6,1,Pin_1*%
X206400000Y-61900000D03*
D13*
%TO.P,J6,2,Pin_2*%
X206400000Y-59400000D03*
%TD*%
D10*
%TO.C,J14*%
%TO.CFtp,inmp441*%
%TO.CVal,Conn_01x06*%
%TO.CLbN,untitled*%
%TO.CMnt,SMD*%
%TO.CRot,90*%
X240400000Y-136184933D03*
D14*
X221200000Y-121934933D02*
X229850000Y-121934933D01*
X229850000Y-115154933D01*
X221200000Y-115154933D01*
X221200000Y-121934933D01*
D12*
%TO.P,J14,1,Pin_1*%
X229000000Y-118544933D03*
D13*
%TO.P,J14,2,Pin_2*%
X229000000Y-116004933D03*
%TO.P,J14,3,Pin_3*%
X222050000Y-116004933D03*
%TO.P,J14,4,Pin_4*%
X222050000Y-118544933D03*
%TO.P,J14,5,Pin_5*%
X222050000Y-121084933D03*
%TO.P,J14,6,Pin_6*%
X229000000Y-121084933D03*
%TD*%
D10*
%TO.C,C3*%
%TO.CFtp,C_0603_1608Metric_Pad1.08x0.95mm_HandSolder*%
%TO.CVal,0u1*%
%TO.CLbN,Capacitor_SMD*%
%TO.CMnt,SMD*%
%TO.CRot,90*%
X179550000Y-81400000D03*
D11*
X180275000Y-79755000D02*
X180275000Y-83045000D01*
X178825000Y-83045000D01*
X178825000Y-79755000D01*
X180275000Y-79755000D01*
D12*
%TO.P,C3,1*%
X179550000Y-82262500D03*
D13*
%TO.P,C3,2*%
X179550000Y-80537500D03*
%TD*%
D10*
%TO.C,mouse-bite-1mm-3mm*%
%TO.CFtp,mouse-bite-1mm-3mm*%
%TO.CVal,VAL\u002A\u002A*%
%TO.CLbN,mouse-bite*%
%TO.CMnt,TH*%
%TO.CRot,90*%
X210600000Y-72360000D03*
D14*
X210050000Y-73320000D02*
X211150000Y-73320000D01*
X211150000Y-71400000D01*
X210050000Y-71400000D01*
X210050000Y-73320000D01*
D13*
%TO.P,mouse-bite-1mm-3mm,*%
X210300000Y-73070000D03*
X210900000Y-73070000D03*
X210300000Y-72360000D03*
X210900000Y-72360000D03*
X210900000Y-71660000D03*
X210300000Y-71650000D03*
%TD*%
D10*
%TO.C,D1*%
%TO.CFtp,D_SMA*%
%TO.CVal,SS14*%
%TO.CLbN,Diode_SMD*%
%TO.CMnt,SMD*%
%TO.CRot,90*%
X188325000Y-67270000D03*
D11*
X190070000Y-63775000D02*
X190070000Y-70765000D01*
X186580000Y-70765000D01*
X186580000Y-63775000D01*
X190070000Y-63775000D01*
D12*
%TO.P,D1,1,K*%
X188325000Y-69270000D03*
D13*
%TO.P,D1,2,A*%
X188325000Y-65270000D03*
%TD*%
D10*
%TO.C,J12*%
%TO.CFtp,JST_XH_B3B-XH-A_1x03_P2.50mm_Vertical*%
%TO.CVal,Potentiometer*%
%TO.CLbN,Connector_JST*%
%TO.CMnt,TH*%
%TO.CRot,-90*%
X170400000Y-85100000D03*
D11*
X173245000Y-82155000D02*
X173245000Y-93045000D01*
X166505000Y-93045000D01*
X166505000Y-82155000D01*
X173245000Y-82155000D01*
D12*
%TO.P,J12,1,Pin_1*%
X170400000Y-85100000D03*
D13*
%TO.P,J12,2,Pin_2*%
X170400000Y-87600000D03*
%TO.P,J12,3,Pin_3*%
X170400000Y-90100000D03*
%TD*%
D10*
%TO.C,*%
%TO.CFtp,1a135fdf-c24c-4a30-9e3c-1be9a8f490f3*%
%TO.CLbN,clipboard*%
%TO.CMnt,Other*%
%TO.CRot,90*%
X202372500Y-75062500D03*
D11*
X208067500Y-66117500D02*
X208067500Y-75057500D01*
X202377500Y-75057500D01*
X202377500Y-66117500D01*
X208067500Y-66117500D01*
D12*
%TO.P,,1*%
X203422500Y-71212500D03*
D13*
%TO.P,,2*%
X203422500Y-69962500D03*
%TO.P,,S1*%
X206322500Y-73762500D03*
%TO.P,,S2*%
X206322500Y-67412500D03*
%TD*%
D10*
%TO.C,U2*%
%TO.CFtp,SOT-23-6*%
%TO.CVal,MT3608*%
%TO.CLbN,Package_TO_SOT_SMD*%
%TO.CMnt,SMD*%
%TO.CRot,180*%
X188412500Y-82200000D03*
D11*
X189457500Y-80505000D02*
X189457500Y-80705000D01*
X190457500Y-80705000D01*
X190457500Y-83695000D01*
X189457500Y-83695000D01*
X189457500Y-83895000D01*
X187367500Y-83895000D01*
X187367500Y-83695000D01*
X186367500Y-83695000D01*
X186367500Y-80705000D01*
X187367500Y-80705000D01*
X187367500Y-80505000D01*
X189457500Y-80505000D01*
D12*
%TO.P,U2,1,SW*%
X189550000Y-83150000D03*
D13*
%TO.P,U2,2,GND*%
X189550000Y-82200000D03*
%TO.P,U2,3,FB*%
X189550000Y-81250000D03*
%TO.P,U2,4,EN*%
X187275000Y-81250000D03*
%TO.P,U2,5,IN*%
X187275000Y-82200000D03*
%TO.P,U2,6,NC*%
X187275000Y-83150000D03*
%TD*%
D10*
%TO.C,J13*%
%TO.CFtp,JST_XH_B6B-XH-A_1x06_P2.50mm_Vertical*%
%TO.CVal,INMP441*%
%TO.CLbN,Connector_JST*%
%TO.CMnt,TH*%
%TO.CRot,-90*%
X214800000Y-111900000D03*
D11*
X217645000Y-108955000D02*
X217645000Y-127345000D01*
X210905000Y-127345000D01*
X210905000Y-108955000D01*
X217645000Y-108955000D01*
D12*
%TO.P,J13,1,Pin_1*%
X214800000Y-111900000D03*
D13*
%TO.P,J13,2,Pin_2*%
X214800000Y-114400000D03*
%TO.P,J13,3,Pin_3*%
X214800000Y-116900000D03*
%TO.P,J13,4,Pin_4*%
X214800000Y-119400000D03*
%TO.P,J13,5,Pin_5*%
X214800000Y-121900000D03*
%TO.P,J13,6,Pin_6*%
X214800000Y-124400000D03*
%TD*%
D10*
%TO.C,mouse-bite-1mm-3mm*%
%TO.CFtp,mouse-bite-1mm-3mm*%
%TO.CVal,VAL\u002A\u002A*%
%TO.CLbN,mouse-bite*%
%TO.CMnt,TH*%
%TO.CRot,90*%
X165950000Y-83275000D03*
D14*
X165400000Y-84235000D02*
X166500000Y-84235000D01*
X166500000Y-82315000D01*
X165400000Y-82315000D01*
X165400000Y-84235000D01*
D13*
%TO.P,mouse-bite-1mm-3mm,*%
X165650000Y-83985000D03*
X166250000Y-83985000D03*
X165650000Y-83275000D03*
X166250000Y-83275000D03*
X166250000Y-82575000D03*
X165650000Y-82565000D03*
%TD*%
D10*
%TO.C,J21*%
%TO.CFtp,JST_XH_B3B-XH-A_1x03_P2.50mm_Vertical*%
%TO.CVal,Potentiometer*%
%TO.CLbN,Connector_JST*%
%TO.CMnt,TH*%
%TO.CRot,90*%
X214050000Y-101120000D03*
D11*
X217945000Y-93175000D02*
X217945000Y-104065000D01*
X211205000Y-104065000D01*
X211205000Y-93175000D01*
X217945000Y-93175000D01*
D12*
%TO.P,J21,1,Pin_1*%
X214050000Y-101120000D03*
D13*
%TO.P,J21,2,Pin_2*%
X214050000Y-98620000D03*
%TO.P,J21,3,Pin_3*%
X214050000Y-96120000D03*
%TD*%
D10*
%TO.C,D2*%
%TO.CFtp,D_SMA*%
%TO.CVal,SS14*%
%TO.CLbN,Diode_SMD*%
%TO.CMnt,SMD*%
%TO.CRot,0*%
X190400000Y-73800000D03*
D11*
X193895000Y-72055000D02*
X193895000Y-75545000D01*
X186905000Y-75545000D01*
X186905000Y-72055000D01*
X193895000Y-72055000D01*
D12*
%TO.P,D2,1,K*%
X188400000Y-73800000D03*
D13*
%TO.P,D2,2,A*%
X192400000Y-73800000D03*
%TD*%
D10*
%TO.C,J9*%
%TO.CFtp,PinHeader_1x04_P2.54mm_Vertical*%
%TO.CVal,Conn_01x04_Socket*%
%TO.CLbN,Connector_PinHeader_2.54mm*%
%TO.CMnt,TH*%
%TO.CRot,0*%
X170400000Y-66460000D03*
D11*
X172165000Y-64695000D02*
X172165000Y-75845000D01*
X168635000Y-75845000D01*
X168635000Y-64695000D01*
X172165000Y-64695000D01*
D12*
%TO.P,J9,1,Pin_1*%
X170400000Y-66460000D03*
D13*
%TO.P,J9,2,Pin_2*%
X170400000Y-69000000D03*
%TO.P,J9,3,Pin_3*%
X170400000Y-71540000D03*
%TO.P,J9,4,Pin_4*%
X170400000Y-74080000D03*
%TD*%
D10*
%TO.C,J5*%
%TO.CFtp,JST_XH_B2B-XH-A_1x02_P2.50mm_Vertical*%
%TO.CVal,LIMIT SWITCH*%
%TO.CLbN,Connector_JST*%
%TO.CMnt,TH*%
%TO.CRot,-90*%
X170400000Y-97000000D03*
D11*
X173245000Y-94055000D02*
X173245000Y-102445000D01*
X166505000Y-102445000D01*
X166505000Y-94055000D01*
X173245000Y-94055000D01*
D12*
%TO.P,J5,1,Pin_1*%
X170400000Y-97000000D03*
D13*
%TO.P,J5,2,Pin_2*%
X170400000Y-99500000D03*
%TD*%
D10*
%TO.C,J11*%
%TO.CFtp,PinHeader_1x07_P2.54mm_Vertical*%
%TO.CVal,AUDIO_AMP*%
%TO.CLbN,Connector_PinHeader_2.54mm*%
%TO.CMnt,TH*%
%TO.CRot,90*%
X172532242Y-123986090D03*
D11*
X189547242Y-122221090D02*
X189547242Y-125751090D01*
X170757242Y-125751090D01*
X170757242Y-122221090D01*
X189547242Y-122221090D01*
D12*
%TO.P,J11,1,Pin_1*%
X172532242Y-123986090D03*
D13*
%TO.P,J11,2,Pin_2*%
X175072242Y-123986090D03*
%TO.P,J11,3,Pin_3*%
X177612242Y-123986090D03*
%TO.P,J11,4,Pin_4*%
X180152242Y-123986090D03*
%TO.P,J11,5,Pin_5*%
X182692242Y-123986090D03*
%TO.P,J11,6,Pin_6*%
X185232242Y-123986090D03*
%TO.P,J11,7,Pin_7*%
X187772242Y-123986090D03*
%TD*%
D10*
%TO.C,R4*%
%TO.CFtp,R_0603_1608Metric_Pad0.98x0.95mm_HandSolder*%
%TO.CVal,2k*%
%TO.CLbN,Resistor_SMD*%
%TO.CMnt,SMD*%
%TO.CRot,-90*%
X191400000Y-66800000D03*
D11*
X192125000Y-65155000D02*
X192125000Y-68445000D01*
X190675000Y-68445000D01*
X190675000Y-65155000D01*
X192125000Y-65155000D01*
D12*
%TO.P,R4,1,+*%
X191400000Y-65887500D03*
D13*
%TO.P,R4,2,-*%
X191400000Y-67712500D03*
%TD*%
D10*
%TO.C,J18*%
%TO.CFtp,ROCKER SWITCH*%
%TO.CVal,ROCKER SWITCH*%
%TO.CLbN,SnapEDA_Footprints*%
%TO.CMnt,TH*%
%TO.CRot,90*%
X156400000Y-75200000D03*
D11*
X164145000Y-64455000D02*
X164145000Y-85945000D01*
X148655000Y-85945000D01*
X148655000Y-64455000D01*
X164145000Y-64455000D01*
D12*
%TO.P,J18,1,Pin_1*%
X156400000Y-82300000D03*
D13*
%TO.P,J18,2,Pin_2*%
X156400000Y-75200000D03*
%TD*%
D10*
%TO.C,C2*%
%TO.CFtp,C_0603_1608Metric_Pad1.08x0.95mm_HandSolder*%
%TO.CVal,10u*%
%TO.CLbN,Capacitor_SMD*%
%TO.CMnt,SMD*%
%TO.CRot,-90*%
X181665000Y-70132500D03*
D11*
X182390000Y-68487500D02*
X182390000Y-71777500D01*
X180940000Y-71777500D01*
X180940000Y-68487500D01*
X182390000Y-68487500D01*
D12*
%TO.P,C2,1*%
X181665000Y-69270000D03*
D13*
%TO.P,C2,2*%
X181665000Y-70995000D03*
%TD*%
D10*
%TO.C,C1*%
%TO.CFtp,C_0603_1608Metric_Pad1.08x0.95mm_HandSolder*%
%TO.CVal,0u1*%
%TO.CLbN,Capacitor_SMD*%
%TO.CMnt,SMD*%
%TO.CRot,-90*%
X184175000Y-70132500D03*
D11*
X184900000Y-68487500D02*
X184900000Y-71777500D01*
X183450000Y-71777500D01*
X183450000Y-68487500D01*
X184900000Y-68487500D01*
D12*
%TO.P,C1,1*%
X184175000Y-69270000D03*
D13*
%TO.P,C1,2*%
X184175000Y-70995000D03*
%TD*%
D10*
%TO.C,R3*%
%TO.CFtp,R_0603_1608Metric_Pad0.98x0.95mm_HandSolder*%
%TO.CVal,10k*%
%TO.CLbN,Resistor_SMD*%
%TO.CMnt,SMD*%
%TO.CRot,0*%
X198887500Y-63000000D03*
D11*
X200532500Y-62275000D02*
X200532500Y-63725000D01*
X197242500Y-63725000D01*
X197242500Y-62275000D01*
X200532500Y-62275000D01*
D12*
%TO.P,R3,1,+*%
X197975000Y-63000000D03*
D13*
%TO.P,R3,2,-*%
X199800000Y-63000000D03*
%TD*%
D10*
%TO.C,mouse-bite-1mm-3mm*%
%TO.CFtp,mouse-bite-1mm-3mm*%
%TO.CVal,VAL\u002A\u002A*%
%TO.CLbN,mouse-bite*%
%TO.CMnt,TH*%
%TO.CRot,90*%
X165950000Y-63640000D03*
D14*
X165400000Y-64600000D02*
X166500000Y-64600000D01*
X166500000Y-62680000D01*
X165400000Y-62680000D01*
X165400000Y-64600000D01*
D13*
%TO.P,mouse-bite-1mm-3mm,*%
X165650000Y-64350000D03*
X166250000Y-64350000D03*
X165650000Y-63640000D03*
X166250000Y-63640000D03*
X166250000Y-62940000D03*
X165650000Y-62930000D03*
%TD*%
D10*
%TO.C,R8*%
%TO.CFtp,R_0603_1608Metric_Pad0.98x0.95mm_HandSolder*%
%TO.CVal,10k*%
%TO.CLbN,Resistor_SMD*%
%TO.CMnt,SMD*%
%TO.CRot,90*%
X193150000Y-90487500D03*
D11*
X193875000Y-88842500D02*
X193875000Y-92132500D01*
X192425000Y-92132500D01*
X192425000Y-88842500D01*
X193875000Y-88842500D01*
D12*
%TO.P,R8,1,+*%
X193150000Y-91400000D03*
D13*
%TO.P,R8,2,-*%
X193150000Y-89575000D03*
%TD*%
D10*
%TO.C,mouse-bite-1mm-3mm*%
%TO.CFtp,mouse-bite-1mm-3mm*%
%TO.CVal,VAL\u002A\u002A*%
%TO.CLbN,mouse-bite*%
%TO.CMnt,TH*%
%TO.CRot,90*%
X210700000Y-120200000D03*
D14*
X210150000Y-121160000D02*
X211250000Y-121160000D01*
X211250000Y-119240000D01*
X210150000Y-119240000D01*
X210150000Y-121160000D01*
D13*
%TO.P,mouse-bite-1mm-3mm,*%
X210400000Y-120910000D03*
X211000000Y-120910000D03*
X210400000Y-120200000D03*
X211000000Y-120200000D03*
X211000000Y-119500000D03*
X210400000Y-119490000D03*
%TD*%
D10*
%TO.C,J17*%
%TO.CFtp,PinHeader_1x04_P2.54mm_Vertical*%
%TO.CVal,TM1637*%
%TO.CLbN,Connector_PinHeader_2.54mm*%
%TO.CMnt,TH*%
%TO.CRot,0*%
X154660000Y-92800000D03*
D11*
X156425000Y-91035000D02*
X156425000Y-102185000D01*
X152895000Y-102185000D01*
X152895000Y-91035000D01*
X156425000Y-91035000D01*
D12*
%TO.P,J17,1,Pin_1*%
X154660000Y-92800000D03*
D13*
%TO.P,J17,2,Pin_2*%
X154660000Y-95340000D03*
%TO.P,J17,3,Pin_3*%
X154660000Y-97880000D03*
%TO.P,J17,4,Pin_4*%
X154660000Y-100420000D03*
%TD*%
M02*
