%TF.GenerationSoftware,KiCad,Pcbnew,9.0.7*%
%TF.CreationDate,2026-04-13T23:53:30+05:30*%
%TF.ProjectId,Atomic01 PCB,41746f6d-6963-4303-9120-5043422e6b69,rev?*%
%TF.SameCoordinates,Original*%
%TF.FileFunction,Component,L2,Bot*%
%TF.FilePolarity,Positive*%
%FSLAX46Y46*%
G04 Gerber Fmt 4.6, Leading zero omitted, Abs format (unit mm)*
G04 Created by KiCad (PCBNEW 9.0.7) date 2026-04-13 23:53:30*
%MOMM*%
%LPD*%
G01*
G04 APERTURE LIST*
%TA.AperFunction,ComponentMain*%
%ADD10C,0.300000*%
%TD*%
%TA.AperFunction,ComponentOutline,Footprint*%
%ADD11C,0.100000*%
%TD*%
%TA.AperFunction,ComponentPin*%
%ADD12P,0.360000X4X0.000000*%
%TD*%
%TA.AperFunction,ComponentPin*%
%ADD13C,0.100000*%
%TD*%
%TA.AperFunction,ComponentOutline,Courtyard*%
%ADD14C,0.100000*%
%TD*%
G04 APERTURE END LIST*
D10*
%TO.C,U3*%
%TO.CFtp,ESP32 S3 LILYGO E TH LITE*%
%TO.CVal,Female SocketS*%
%TO.CLbN,Library*%
%TO.CMnt,TH*%
%TO.CRot,180*%
X175160000Y-114760000D03*
D11*
X174410000Y-115510000D02*
X174410000Y-75910000D01*
X201460000Y-75910000D01*
X201460000Y-115510000D01*
X174410000Y-115510000D01*
D12*
%TO.P,U3,1,3V3*%
X175160000Y-114760000D03*
D13*
%TO.P,U3,2,IO4*%
X175160000Y-112220000D03*
%TO.P,U3,3,IO5*%
X175160000Y-109680000D03*
%TO.P,U3,4,IO6*%
X175160000Y-107140000D03*
%TO.P,U3,5,IO7*%
X175160000Y-104600000D03*
%TO.P,U3,6,IO15*%
X175160000Y-102060000D03*
%TO.P,U3,7,IO16*%
X175160000Y-99520000D03*
%TO.P,U3,8,IO17*%
X175160000Y-96980000D03*
%TO.P,U3,9,IO18*%
X175160000Y-94440000D03*
%TO.P,U3,10,IO8*%
X175160000Y-91900000D03*
%TO.P,U3,11,IO19*%
X175160000Y-89360000D03*
%TO.P,U3,12,IO20*%
X175160000Y-86820000D03*
%TO.P,U3,13,IO3*%
X175160000Y-84280000D03*
%TO.P,U3,14,GND*%
X175160000Y-81740000D03*
%TO.P,U3,15,3V3*%
X175160000Y-79200000D03*
%TO.P,U3,16,5V_OP*%
X200710000Y-76660000D03*
%TO.P,U3,17,GND*%
X200710000Y-79200000D03*
%TO.P,U3,18,IO46*%
X200710000Y-81740000D03*
%TO.P,U3,19,IO21*%
X200710000Y-84280000D03*
%TO.P,U3,20,IO38*%
X200710000Y-86820000D03*
%TO.P,U3,21,IO39*%
X200710000Y-89360000D03*
%TO.P,U3,22,IO40*%
X200710000Y-91900000D03*
%TO.P,U3,23,IO41*%
X200710000Y-94440000D03*
%TO.P,U3,24,IO2*%
X200710000Y-96980000D03*
%TO.P,U3,25,IO1*%
X200710000Y-99520000D03*
%TO.P,U3,26,IO0*%
X200710000Y-102060000D03*
%TO.P,U3,27,RST*%
X200710000Y-104600000D03*
%TO.P,U3,28,RX*%
X200710000Y-107140000D03*
%TO.P,U3,29,TX*%
X200710000Y-109680000D03*
%TO.P,U3,30,GND*%
X200710000Y-112220000D03*
%TO.P,U3,31,5V_IN*%
X200710000Y-114760000D03*
%TO.P,U3,32,IO47*%
X198150000Y-89360000D03*
%TO.P,U3,33,IO48*%
X198150000Y-91900000D03*
%TO.P,U3,34,IO45*%
X198150000Y-94440000D03*
%TO.P,U3,35,VP*%
X198150000Y-79200000D03*
%TO.P,U3,36,TXCM*%
X198150000Y-81740000D03*
%TO.P,U3,37,GND*%
X198150000Y-84280000D03*
%TO.P,U3,38,GND*%
X198150000Y-86820000D03*
%TO.P,U3,39,VN*%
X195600000Y-79200000D03*
%TO.P,U3,40,MXCM*%
X195600000Y-81740000D03*
%TO.P,U3,41*%
X195600000Y-84280000D03*
%TO.P,U3,42*%
X195600000Y-86820000D03*
%TD*%
D10*
%TO.C,J19*%
%TO.CFtp,JST_XH_B2B-XH-A_1x02_P2.50mm_Vertical*%
%TO.CVal,ROCKER SWITCH*%
%TO.CLbN,Connector_JST*%
%TO.CMnt,TH*%
%TO.CRot,180*%
X155400000Y-61775000D03*
D14*
X160845000Y-57880000D02*
X160845000Y-64620000D01*
X152455000Y-64620000D01*
X152455000Y-57880000D01*
X160845000Y-57880000D01*
D12*
%TO.P,J19,1,Pin_1*%
X155400000Y-61775000D03*
D13*
%TO.P,J19,2,Pin_2*%
X157900000Y-61775000D03*
%TD*%
D10*
%TO.C,J15*%
%TO.CFtp,JST_XH_B2B-XH-A_1x02_P2.50mm_Vertical*%
%TO.CVal,LIMIT SWITCH*%
%TO.CLbN,Connector_JST*%
%TO.CMnt,TH*%
%TO.CRot,0*%
X216550000Y-83300000D03*
D14*
X219495000Y-80455000D02*
X219495000Y-87195000D01*
X211105000Y-87195000D01*
X211105000Y-80455000D01*
X219495000Y-80455000D01*
D12*
%TO.P,J15,1,Pin_1*%
X216550000Y-83300000D03*
D13*
%TO.P,J15,2,Pin_2*%
X214050000Y-83300000D03*
%TD*%
D10*
%TO.C,J22*%
%TO.CFtp,JST_XH_B4B-XH-A_1x04_P2.50mm_Vertical*%
%TO.CVal,TM1637*%
%TO.CLbN,Connector_JST*%
%TO.CMnt,TH*%
%TO.CRot,90*%
X162160000Y-93390000D03*
D14*
X166055000Y-90445000D02*
X166055000Y-103835000D01*
X159315000Y-103835000D01*
X159315000Y-90445000D01*
X166055000Y-90445000D01*
D12*
%TO.P,J22,1,Pin_1*%
X162160000Y-93390000D03*
D13*
%TO.P,J22,2,Pin_2*%
X162160000Y-95890000D03*
%TO.P,J22,3,Pin_3*%
X162160000Y-98390000D03*
%TO.P,J22,4,Pin_4*%
X162160000Y-100890000D03*
%TD*%
M02*
