%TF.GenerationSoftware,KiCad,Pcbnew,8.0.5*%
%TF.CreationDate,2024-10-16T14:35:45+05:30*%
%TF.ProjectId,SensorSouth,53656e73-6f72-4536-9f75-74682e6b6963,rev?*%
%TF.SameCoordinates,Original*%
%TF.FileFunction,Legend,Top*%
%TF.FilePolarity,Positive*%
%FSLAX46Y46*%
G04 Gerber Fmt 4.6, Leading zero omitted, Abs format (unit mm)*
G04 Created by KiCad (PCBNEW 8.0.5) date 2024-10-16 14:35:45*
%MOMM*%
%LPD*%
G01*
G04 APERTURE LIST*
%ADD10C,0.187500*%
%ADD11C,0.150000*%
%ADD12C,0.120000*%
G04 APERTURE END LIST*
D10*
X170837640Y-82306678D02*
X171194783Y-83806678D01*
X171194783Y-83806678D02*
X171480497Y-82735250D01*
X171480497Y-82735250D02*
X171766212Y-83806678D01*
X171766212Y-83806678D02*
X172123355Y-82306678D01*
X172694783Y-83806678D02*
X172694783Y-82306678D01*
X173409069Y-83806678D02*
X173409069Y-82306678D01*
X173409069Y-82306678D02*
X174266212Y-83806678D01*
X174266212Y-83806678D02*
X174266212Y-82306678D01*
X176123355Y-83020964D02*
X176623355Y-83020964D01*
X176837641Y-83806678D02*
X176123355Y-83806678D01*
X176123355Y-83806678D02*
X176123355Y-82306678D01*
X176123355Y-82306678D02*
X176837641Y-82306678D01*
X177480498Y-83235250D02*
X178623356Y-83235250D01*
X179123356Y-82306678D02*
X179980499Y-82306678D01*
X179551927Y-83806678D02*
X179551927Y-82306678D01*
X180409070Y-83378107D02*
X181123356Y-83378107D01*
X180266213Y-83806678D02*
X180766213Y-82306678D01*
X180766213Y-82306678D02*
X181266213Y-83806678D01*
X182623355Y-83806678D02*
X182123355Y-83092392D01*
X181766212Y-83806678D02*
X181766212Y-82306678D01*
X181766212Y-82306678D02*
X182337641Y-82306678D01*
X182337641Y-82306678D02*
X182480498Y-82378107D01*
X182480498Y-82378107D02*
X182551927Y-82449535D01*
X182551927Y-82449535D02*
X182623355Y-82592392D01*
X182623355Y-82592392D02*
X182623355Y-82806678D01*
X182623355Y-82806678D02*
X182551927Y-82949535D01*
X182551927Y-82949535D02*
X182480498Y-83020964D01*
X182480498Y-83020964D02*
X182337641Y-83092392D01*
X182337641Y-83092392D02*
X181766212Y-83092392D01*
X184051927Y-82378107D02*
X183909070Y-82306678D01*
X183909070Y-82306678D02*
X183694784Y-82306678D01*
X183694784Y-82306678D02*
X183480498Y-82378107D01*
X183480498Y-82378107D02*
X183337641Y-82520964D01*
X183337641Y-82520964D02*
X183266212Y-82663821D01*
X183266212Y-82663821D02*
X183194784Y-82949535D01*
X183194784Y-82949535D02*
X183194784Y-83163821D01*
X183194784Y-83163821D02*
X183266212Y-83449535D01*
X183266212Y-83449535D02*
X183337641Y-83592392D01*
X183337641Y-83592392D02*
X183480498Y-83735250D01*
X183480498Y-83735250D02*
X183694784Y-83806678D01*
X183694784Y-83806678D02*
X183837641Y-83806678D01*
X183837641Y-83806678D02*
X184051927Y-83735250D01*
X184051927Y-83735250D02*
X184123355Y-83663821D01*
X184123355Y-83663821D02*
X184123355Y-83163821D01*
X184123355Y-83163821D02*
X183837641Y-83163821D01*
X184766212Y-83020964D02*
X185266212Y-83020964D01*
X185480498Y-83806678D02*
X184766212Y-83806678D01*
X184766212Y-83806678D02*
X184766212Y-82306678D01*
X184766212Y-82306678D02*
X185480498Y-82306678D01*
X185909070Y-82306678D02*
X186766213Y-82306678D01*
X186337641Y-83806678D02*
X186337641Y-82306678D01*
X188337641Y-83735250D02*
X188551927Y-83806678D01*
X188551927Y-83806678D02*
X188909069Y-83806678D01*
X188909069Y-83806678D02*
X189051927Y-83735250D01*
X189051927Y-83735250D02*
X189123355Y-83663821D01*
X189123355Y-83663821D02*
X189194784Y-83520964D01*
X189194784Y-83520964D02*
X189194784Y-83378107D01*
X189194784Y-83378107D02*
X189123355Y-83235250D01*
X189123355Y-83235250D02*
X189051927Y-83163821D01*
X189051927Y-83163821D02*
X188909069Y-83092392D01*
X188909069Y-83092392D02*
X188623355Y-83020964D01*
X188623355Y-83020964D02*
X188480498Y-82949535D01*
X188480498Y-82949535D02*
X188409069Y-82878107D01*
X188409069Y-82878107D02*
X188337641Y-82735250D01*
X188337641Y-82735250D02*
X188337641Y-82592392D01*
X188337641Y-82592392D02*
X188409069Y-82449535D01*
X188409069Y-82449535D02*
X188480498Y-82378107D01*
X188480498Y-82378107D02*
X188623355Y-82306678D01*
X188623355Y-82306678D02*
X188980498Y-82306678D01*
X188980498Y-82306678D02*
X189194784Y-82378107D01*
X189837640Y-83020964D02*
X190337640Y-83020964D01*
X190551926Y-83806678D02*
X189837640Y-83806678D01*
X189837640Y-83806678D02*
X189837640Y-82306678D01*
X189837640Y-82306678D02*
X190551926Y-82306678D01*
X191194783Y-83806678D02*
X191194783Y-82306678D01*
X191194783Y-82306678D02*
X192051926Y-83806678D01*
X192051926Y-83806678D02*
X192051926Y-82306678D01*
X192694784Y-83735250D02*
X192909070Y-83806678D01*
X192909070Y-83806678D02*
X193266212Y-83806678D01*
X193266212Y-83806678D02*
X193409070Y-83735250D01*
X193409070Y-83735250D02*
X193480498Y-83663821D01*
X193480498Y-83663821D02*
X193551927Y-83520964D01*
X193551927Y-83520964D02*
X193551927Y-83378107D01*
X193551927Y-83378107D02*
X193480498Y-83235250D01*
X193480498Y-83235250D02*
X193409070Y-83163821D01*
X193409070Y-83163821D02*
X193266212Y-83092392D01*
X193266212Y-83092392D02*
X192980498Y-83020964D01*
X192980498Y-83020964D02*
X192837641Y-82949535D01*
X192837641Y-82949535D02*
X192766212Y-82878107D01*
X192766212Y-82878107D02*
X192694784Y-82735250D01*
X192694784Y-82735250D02*
X192694784Y-82592392D01*
X192694784Y-82592392D02*
X192766212Y-82449535D01*
X192766212Y-82449535D02*
X192837641Y-82378107D01*
X192837641Y-82378107D02*
X192980498Y-82306678D01*
X192980498Y-82306678D02*
X193337641Y-82306678D01*
X193337641Y-82306678D02*
X193551927Y-82378107D01*
X194480498Y-82306678D02*
X194766212Y-82306678D01*
X194766212Y-82306678D02*
X194909069Y-82378107D01*
X194909069Y-82378107D02*
X195051926Y-82520964D01*
X195051926Y-82520964D02*
X195123355Y-82806678D01*
X195123355Y-82806678D02*
X195123355Y-83306678D01*
X195123355Y-83306678D02*
X195051926Y-83592392D01*
X195051926Y-83592392D02*
X194909069Y-83735250D01*
X194909069Y-83735250D02*
X194766212Y-83806678D01*
X194766212Y-83806678D02*
X194480498Y-83806678D01*
X194480498Y-83806678D02*
X194337641Y-83735250D01*
X194337641Y-83735250D02*
X194194783Y-83592392D01*
X194194783Y-83592392D02*
X194123355Y-83306678D01*
X194123355Y-83306678D02*
X194123355Y-82806678D01*
X194123355Y-82806678D02*
X194194783Y-82520964D01*
X194194783Y-82520964D02*
X194337641Y-82378107D01*
X194337641Y-82378107D02*
X194480498Y-82306678D01*
X196623355Y-83806678D02*
X196123355Y-83092392D01*
X195766212Y-83806678D02*
X195766212Y-82306678D01*
X195766212Y-82306678D02*
X196337641Y-82306678D01*
X196337641Y-82306678D02*
X196480498Y-82378107D01*
X196480498Y-82378107D02*
X196551927Y-82449535D01*
X196551927Y-82449535D02*
X196623355Y-82592392D01*
X196623355Y-82592392D02*
X196623355Y-82806678D01*
X196623355Y-82806678D02*
X196551927Y-82949535D01*
X196551927Y-82949535D02*
X196480498Y-83020964D01*
X196480498Y-83020964D02*
X196337641Y-83092392D01*
X196337641Y-83092392D02*
X195766212Y-83092392D01*
X198337641Y-83735250D02*
X198551927Y-83806678D01*
X198551927Y-83806678D02*
X198909069Y-83806678D01*
X198909069Y-83806678D02*
X199051927Y-83735250D01*
X199051927Y-83735250D02*
X199123355Y-83663821D01*
X199123355Y-83663821D02*
X199194784Y-83520964D01*
X199194784Y-83520964D02*
X199194784Y-83378107D01*
X199194784Y-83378107D02*
X199123355Y-83235250D01*
X199123355Y-83235250D02*
X199051927Y-83163821D01*
X199051927Y-83163821D02*
X198909069Y-83092392D01*
X198909069Y-83092392D02*
X198623355Y-83020964D01*
X198623355Y-83020964D02*
X198480498Y-82949535D01*
X198480498Y-82949535D02*
X198409069Y-82878107D01*
X198409069Y-82878107D02*
X198337641Y-82735250D01*
X198337641Y-82735250D02*
X198337641Y-82592392D01*
X198337641Y-82592392D02*
X198409069Y-82449535D01*
X198409069Y-82449535D02*
X198480498Y-82378107D01*
X198480498Y-82378107D02*
X198623355Y-82306678D01*
X198623355Y-82306678D02*
X198980498Y-82306678D01*
X198980498Y-82306678D02*
X199194784Y-82378107D01*
X200123355Y-82306678D02*
X200409069Y-82306678D01*
X200409069Y-82306678D02*
X200551926Y-82378107D01*
X200551926Y-82378107D02*
X200694783Y-82520964D01*
X200694783Y-82520964D02*
X200766212Y-82806678D01*
X200766212Y-82806678D02*
X200766212Y-83306678D01*
X200766212Y-83306678D02*
X200694783Y-83592392D01*
X200694783Y-83592392D02*
X200551926Y-83735250D01*
X200551926Y-83735250D02*
X200409069Y-83806678D01*
X200409069Y-83806678D02*
X200123355Y-83806678D01*
X200123355Y-83806678D02*
X199980498Y-83735250D01*
X199980498Y-83735250D02*
X199837640Y-83592392D01*
X199837640Y-83592392D02*
X199766212Y-83306678D01*
X199766212Y-83306678D02*
X199766212Y-82806678D01*
X199766212Y-82806678D02*
X199837640Y-82520964D01*
X199837640Y-82520964D02*
X199980498Y-82378107D01*
X199980498Y-82378107D02*
X200123355Y-82306678D01*
X201409069Y-82306678D02*
X201409069Y-83520964D01*
X201409069Y-83520964D02*
X201480498Y-83663821D01*
X201480498Y-83663821D02*
X201551927Y-83735250D01*
X201551927Y-83735250D02*
X201694784Y-83806678D01*
X201694784Y-83806678D02*
X201980498Y-83806678D01*
X201980498Y-83806678D02*
X202123355Y-83735250D01*
X202123355Y-83735250D02*
X202194784Y-83663821D01*
X202194784Y-83663821D02*
X202266212Y-83520964D01*
X202266212Y-83520964D02*
X202266212Y-82306678D01*
X202766213Y-82306678D02*
X203623356Y-82306678D01*
X203194784Y-83806678D02*
X203194784Y-82306678D01*
X204123355Y-83806678D02*
X204123355Y-82306678D01*
X204123355Y-83020964D02*
X204980498Y-83020964D01*
X204980498Y-83806678D02*
X204980498Y-82306678D01*
D11*
X186333333Y-85609580D02*
X186285714Y-85657200D01*
X186285714Y-85657200D02*
X186142857Y-85704819D01*
X186142857Y-85704819D02*
X186047619Y-85704819D01*
X186047619Y-85704819D02*
X185904762Y-85657200D01*
X185904762Y-85657200D02*
X185809524Y-85561961D01*
X185809524Y-85561961D02*
X185761905Y-85466723D01*
X185761905Y-85466723D02*
X185714286Y-85276247D01*
X185714286Y-85276247D02*
X185714286Y-85133390D01*
X185714286Y-85133390D02*
X185761905Y-84942914D01*
X185761905Y-84942914D02*
X185809524Y-84847676D01*
X185809524Y-84847676D02*
X185904762Y-84752438D01*
X185904762Y-84752438D02*
X186047619Y-84704819D01*
X186047619Y-84704819D02*
X186142857Y-84704819D01*
X186142857Y-84704819D02*
X186285714Y-84752438D01*
X186285714Y-84752438D02*
X186333333Y-84800057D01*
X186666667Y-84704819D02*
X187285714Y-84704819D01*
X187285714Y-84704819D02*
X186952381Y-85085771D01*
X186952381Y-85085771D02*
X187095238Y-85085771D01*
X187095238Y-85085771D02*
X187190476Y-85133390D01*
X187190476Y-85133390D02*
X187238095Y-85181009D01*
X187238095Y-85181009D02*
X187285714Y-85276247D01*
X187285714Y-85276247D02*
X187285714Y-85514342D01*
X187285714Y-85514342D02*
X187238095Y-85609580D01*
X187238095Y-85609580D02*
X187190476Y-85657200D01*
X187190476Y-85657200D02*
X187095238Y-85704819D01*
X187095238Y-85704819D02*
X186809524Y-85704819D01*
X186809524Y-85704819D02*
X186714286Y-85657200D01*
X186714286Y-85657200D02*
X186666667Y-85609580D01*
X177833333Y-91897080D02*
X177785714Y-91944700D01*
X177785714Y-91944700D02*
X177642857Y-91992319D01*
X177642857Y-91992319D02*
X177547619Y-91992319D01*
X177547619Y-91992319D02*
X177404762Y-91944700D01*
X177404762Y-91944700D02*
X177309524Y-91849461D01*
X177309524Y-91849461D02*
X177261905Y-91754223D01*
X177261905Y-91754223D02*
X177214286Y-91563747D01*
X177214286Y-91563747D02*
X177214286Y-91420890D01*
X177214286Y-91420890D02*
X177261905Y-91230414D01*
X177261905Y-91230414D02*
X177309524Y-91135176D01*
X177309524Y-91135176D02*
X177404762Y-91039938D01*
X177404762Y-91039938D02*
X177547619Y-90992319D01*
X177547619Y-90992319D02*
X177642857Y-90992319D01*
X177642857Y-90992319D02*
X177785714Y-91039938D01*
X177785714Y-91039938D02*
X177833333Y-91087557D01*
X178214286Y-91087557D02*
X178261905Y-91039938D01*
X178261905Y-91039938D02*
X178357143Y-90992319D01*
X178357143Y-90992319D02*
X178595238Y-90992319D01*
X178595238Y-90992319D02*
X178690476Y-91039938D01*
X178690476Y-91039938D02*
X178738095Y-91087557D01*
X178738095Y-91087557D02*
X178785714Y-91182795D01*
X178785714Y-91182795D02*
X178785714Y-91278033D01*
X178785714Y-91278033D02*
X178738095Y-91420890D01*
X178738095Y-91420890D02*
X178166667Y-91992319D01*
X178166667Y-91992319D02*
X178785714Y-91992319D01*
X198896666Y-85044819D02*
X198896666Y-85759104D01*
X198896666Y-85759104D02*
X198849047Y-85901961D01*
X198849047Y-85901961D02*
X198753809Y-85997200D01*
X198753809Y-85997200D02*
X198610952Y-86044819D01*
X198610952Y-86044819D02*
X198515714Y-86044819D01*
X199896666Y-86044819D02*
X199325238Y-86044819D01*
X199610952Y-86044819D02*
X199610952Y-85044819D01*
X199610952Y-85044819D02*
X199515714Y-85187676D01*
X199515714Y-85187676D02*
X199420476Y-85282914D01*
X199420476Y-85282914D02*
X199325238Y-85330533D01*
X174583333Y-89304819D02*
X174250000Y-88828628D01*
X174011905Y-89304819D02*
X174011905Y-88304819D01*
X174011905Y-88304819D02*
X174392857Y-88304819D01*
X174392857Y-88304819D02*
X174488095Y-88352438D01*
X174488095Y-88352438D02*
X174535714Y-88400057D01*
X174535714Y-88400057D02*
X174583333Y-88495295D01*
X174583333Y-88495295D02*
X174583333Y-88638152D01*
X174583333Y-88638152D02*
X174535714Y-88733390D01*
X174535714Y-88733390D02*
X174488095Y-88781009D01*
X174488095Y-88781009D02*
X174392857Y-88828628D01*
X174392857Y-88828628D02*
X174011905Y-88828628D01*
X174964286Y-88400057D02*
X175011905Y-88352438D01*
X175011905Y-88352438D02*
X175107143Y-88304819D01*
X175107143Y-88304819D02*
X175345238Y-88304819D01*
X175345238Y-88304819D02*
X175440476Y-88352438D01*
X175440476Y-88352438D02*
X175488095Y-88400057D01*
X175488095Y-88400057D02*
X175535714Y-88495295D01*
X175535714Y-88495295D02*
X175535714Y-88590533D01*
X175535714Y-88590533D02*
X175488095Y-88733390D01*
X175488095Y-88733390D02*
X174916667Y-89304819D01*
X174916667Y-89304819D02*
X175535714Y-89304819D01*
X190583333Y-92804819D02*
X190250000Y-92328628D01*
X190011905Y-92804819D02*
X190011905Y-91804819D01*
X190011905Y-91804819D02*
X190392857Y-91804819D01*
X190392857Y-91804819D02*
X190488095Y-91852438D01*
X190488095Y-91852438D02*
X190535714Y-91900057D01*
X190535714Y-91900057D02*
X190583333Y-91995295D01*
X190583333Y-91995295D02*
X190583333Y-92138152D01*
X190583333Y-92138152D02*
X190535714Y-92233390D01*
X190535714Y-92233390D02*
X190488095Y-92281009D01*
X190488095Y-92281009D02*
X190392857Y-92328628D01*
X190392857Y-92328628D02*
X190011905Y-92328628D01*
X191440476Y-92138152D02*
X191440476Y-92804819D01*
X191202381Y-91757200D02*
X190964286Y-92471485D01*
X190964286Y-92471485D02*
X191583333Y-92471485D01*
X191011905Y-86204819D02*
X191011905Y-85204819D01*
X191011905Y-85204819D02*
X191250000Y-85204819D01*
X191250000Y-85204819D02*
X191392857Y-85252438D01*
X191392857Y-85252438D02*
X191488095Y-85347676D01*
X191488095Y-85347676D02*
X191535714Y-85442914D01*
X191535714Y-85442914D02*
X191583333Y-85633390D01*
X191583333Y-85633390D02*
X191583333Y-85776247D01*
X191583333Y-85776247D02*
X191535714Y-85966723D01*
X191535714Y-85966723D02*
X191488095Y-86061961D01*
X191488095Y-86061961D02*
X191392857Y-86157200D01*
X191392857Y-86157200D02*
X191250000Y-86204819D01*
X191250000Y-86204819D02*
X191011905Y-86204819D01*
X192535714Y-86204819D02*
X191964286Y-86204819D01*
X192250000Y-86204819D02*
X192250000Y-85204819D01*
X192250000Y-85204819D02*
X192154762Y-85347676D01*
X192154762Y-85347676D02*
X192059524Y-85442914D01*
X192059524Y-85442914D02*
X191964286Y-85490533D01*
X181833333Y-85804819D02*
X181500000Y-85328628D01*
X181261905Y-85804819D02*
X181261905Y-84804819D01*
X181261905Y-84804819D02*
X181642857Y-84804819D01*
X181642857Y-84804819D02*
X181738095Y-84852438D01*
X181738095Y-84852438D02*
X181785714Y-84900057D01*
X181785714Y-84900057D02*
X181833333Y-84995295D01*
X181833333Y-84995295D02*
X181833333Y-85138152D01*
X181833333Y-85138152D02*
X181785714Y-85233390D01*
X181785714Y-85233390D02*
X181738095Y-85281009D01*
X181738095Y-85281009D02*
X181642857Y-85328628D01*
X181642857Y-85328628D02*
X181261905Y-85328628D01*
X182166667Y-84804819D02*
X182785714Y-84804819D01*
X182785714Y-84804819D02*
X182452381Y-85185771D01*
X182452381Y-85185771D02*
X182595238Y-85185771D01*
X182595238Y-85185771D02*
X182690476Y-85233390D01*
X182690476Y-85233390D02*
X182738095Y-85281009D01*
X182738095Y-85281009D02*
X182785714Y-85376247D01*
X182785714Y-85376247D02*
X182785714Y-85614342D01*
X182785714Y-85614342D02*
X182738095Y-85709580D01*
X182738095Y-85709580D02*
X182690476Y-85757200D01*
X182690476Y-85757200D02*
X182595238Y-85804819D01*
X182595238Y-85804819D02*
X182309524Y-85804819D01*
X182309524Y-85804819D02*
X182214286Y-85757200D01*
X182214286Y-85757200D02*
X182166667Y-85709580D01*
X183308095Y-88459819D02*
X183308095Y-89269342D01*
X183308095Y-89269342D02*
X183355714Y-89364580D01*
X183355714Y-89364580D02*
X183403333Y-89412200D01*
X183403333Y-89412200D02*
X183498571Y-89459819D01*
X183498571Y-89459819D02*
X183689047Y-89459819D01*
X183689047Y-89459819D02*
X183784285Y-89412200D01*
X183784285Y-89412200D02*
X183831904Y-89364580D01*
X183831904Y-89364580D02*
X183879523Y-89269342D01*
X183879523Y-89269342D02*
X183879523Y-88459819D01*
X184879523Y-89459819D02*
X184308095Y-89459819D01*
X184593809Y-89459819D02*
X184593809Y-88459819D01*
X184593809Y-88459819D02*
X184498571Y-88602676D01*
X184498571Y-88602676D02*
X184403333Y-88697914D01*
X184403333Y-88697914D02*
X184308095Y-88745533D01*
X169333333Y-86054819D02*
X169000000Y-85578628D01*
X168761905Y-86054819D02*
X168761905Y-85054819D01*
X168761905Y-85054819D02*
X169142857Y-85054819D01*
X169142857Y-85054819D02*
X169238095Y-85102438D01*
X169238095Y-85102438D02*
X169285714Y-85150057D01*
X169285714Y-85150057D02*
X169333333Y-85245295D01*
X169333333Y-85245295D02*
X169333333Y-85388152D01*
X169333333Y-85388152D02*
X169285714Y-85483390D01*
X169285714Y-85483390D02*
X169238095Y-85531009D01*
X169238095Y-85531009D02*
X169142857Y-85578628D01*
X169142857Y-85578628D02*
X168761905Y-85578628D01*
X170285714Y-86054819D02*
X169714286Y-86054819D01*
X170000000Y-86054819D02*
X170000000Y-85054819D01*
X170000000Y-85054819D02*
X169904762Y-85197676D01*
X169904762Y-85197676D02*
X169809524Y-85292914D01*
X169809524Y-85292914D02*
X169714286Y-85340533D01*
X167190476Y-93954819D02*
X167190476Y-92954819D01*
X167190476Y-92954819D02*
X167523809Y-93669104D01*
X167523809Y-93669104D02*
X167857142Y-92954819D01*
X167857142Y-92954819D02*
X167857142Y-93954819D01*
X168333333Y-93954819D02*
X168333333Y-92954819D01*
X168904761Y-93954819D02*
X168476190Y-93383390D01*
X168904761Y-92954819D02*
X168333333Y-93526247D01*
X169857142Y-93954819D02*
X169285714Y-93954819D01*
X169571428Y-93954819D02*
X169571428Y-92954819D01*
X169571428Y-92954819D02*
X169476190Y-93097676D01*
X169476190Y-93097676D02*
X169380952Y-93192914D01*
X169380952Y-93192914D02*
X169285714Y-93240533D01*
X169333333Y-89429580D02*
X169285714Y-89477200D01*
X169285714Y-89477200D02*
X169142857Y-89524819D01*
X169142857Y-89524819D02*
X169047619Y-89524819D01*
X169047619Y-89524819D02*
X168904762Y-89477200D01*
X168904762Y-89477200D02*
X168809524Y-89381961D01*
X168809524Y-89381961D02*
X168761905Y-89286723D01*
X168761905Y-89286723D02*
X168714286Y-89096247D01*
X168714286Y-89096247D02*
X168714286Y-88953390D01*
X168714286Y-88953390D02*
X168761905Y-88762914D01*
X168761905Y-88762914D02*
X168809524Y-88667676D01*
X168809524Y-88667676D02*
X168904762Y-88572438D01*
X168904762Y-88572438D02*
X169047619Y-88524819D01*
X169047619Y-88524819D02*
X169142857Y-88524819D01*
X169142857Y-88524819D02*
X169285714Y-88572438D01*
X169285714Y-88572438D02*
X169333333Y-88620057D01*
X170285714Y-89524819D02*
X169714286Y-89524819D01*
X170000000Y-89524819D02*
X170000000Y-88524819D01*
X170000000Y-88524819D02*
X169904762Y-88667676D01*
X169904762Y-88667676D02*
X169809524Y-88762914D01*
X169809524Y-88762914D02*
X169714286Y-88810533D01*
D12*
%TO.C,C3*%
X186723752Y-86265000D02*
X186201248Y-86265000D01*
X186723752Y-87735000D02*
X186201248Y-87735000D01*
%TO.C,C2*%
X177265000Y-94548752D02*
X177265000Y-94026248D01*
X178735000Y-94548752D02*
X178735000Y-94026248D01*
%TO.C,J1*%
X196630000Y-86590000D02*
X197960000Y-86590000D01*
X196630000Y-87920000D02*
X196630000Y-86590000D01*
X196630000Y-89190000D02*
X196630000Y-99410000D01*
X196630000Y-89190000D02*
X199230000Y-89190000D01*
X196630000Y-99410000D02*
X201830000Y-99410000D01*
X199230000Y-86590000D02*
X201830000Y-86590000D01*
X199230000Y-89190000D02*
X199230000Y-86590000D01*
X201830000Y-86590000D02*
X201830000Y-99410000D01*
%TO.C,R2*%
X174522936Y-89765000D02*
X174977064Y-89765000D01*
X174522936Y-91235000D02*
X174977064Y-91235000D01*
%TO.C,R4*%
X190522936Y-93265000D02*
X190977064Y-93265000D01*
X190522936Y-94735000D02*
X190977064Y-94735000D01*
%TO.C,D1*%
X190220000Y-89947500D02*
X190220000Y-88487500D01*
X190220000Y-89947500D02*
X191150000Y-89947500D01*
X193380000Y-89147500D02*
X193380000Y-88347500D01*
X193380000Y-89147500D02*
X193380000Y-89947500D01*
X193380000Y-89947500D02*
X192450000Y-89947500D01*
X193740000Y-88087500D02*
X193410000Y-87847500D01*
X193740000Y-87607500D01*
X193740000Y-88087500D01*
G36*
X193740000Y-88087500D02*
G01*
X193410000Y-87847500D01*
X193740000Y-87607500D01*
X193740000Y-88087500D01*
G37*
%TO.C,R3*%
X181772936Y-86265000D02*
X182227064Y-86265000D01*
X181772936Y-87735000D02*
X182227064Y-87735000D01*
%TO.C,U1*%
X184070000Y-89845000D02*
X182120000Y-89845000D01*
X184070000Y-89845000D02*
X186020000Y-89845000D01*
X184070000Y-94965000D02*
X182120000Y-94965000D01*
X184070000Y-94965000D02*
X186020000Y-94965000D01*
X181370000Y-89940000D02*
X181130000Y-89610000D01*
X181610000Y-89610000D01*
X181370000Y-89940000D01*
G36*
X181370000Y-89940000D02*
G01*
X181130000Y-89610000D01*
X181610000Y-89610000D01*
X181370000Y-89940000D01*
G37*
%TO.C,R1*%
X169272936Y-86515000D02*
X169727064Y-86515000D01*
X169272936Y-87985000D02*
X169727064Y-87985000D01*
%TO.C,MK1*%
X167460000Y-98490000D02*
X165278000Y-98490000D01*
X167460000Y-98530000D02*
X165282000Y-98530000D01*
X167460000Y-98570000D02*
X165285000Y-98570000D01*
X167460000Y-98610000D02*
X165289000Y-98610000D01*
X167460000Y-98650000D02*
X165294000Y-98650000D01*
X167460000Y-98690000D02*
X165299000Y-98690000D01*
X167460000Y-98730000D02*
X165305000Y-98730000D01*
X167460000Y-98770000D02*
X165311000Y-98770000D01*
X167460000Y-98810000D02*
X165318000Y-98810000D01*
X167460000Y-98850000D02*
X165325000Y-98850000D01*
X167460000Y-98890000D02*
X165333000Y-98890000D01*
X167460000Y-98930000D02*
X165341000Y-98930000D01*
X167460000Y-98971000D02*
X165350000Y-98971000D01*
X167460000Y-99011000D02*
X165359000Y-99011000D01*
X167460000Y-99051000D02*
X165369000Y-99051000D01*
X167460000Y-99091000D02*
X165379000Y-99091000D01*
X167460000Y-99131000D02*
X165390000Y-99131000D01*
X167460000Y-99171000D02*
X165402000Y-99171000D01*
X167460000Y-99211000D02*
X165414000Y-99211000D01*
X167460000Y-99251000D02*
X165426000Y-99251000D01*
X167460000Y-99291000D02*
X165439000Y-99291000D01*
X167460000Y-99331000D02*
X165453000Y-99331000D01*
X167460000Y-99371000D02*
X165467000Y-99371000D01*
X167460000Y-99411000D02*
X165482000Y-99411000D01*
X167460000Y-99451000D02*
X165498000Y-99451000D01*
X167460000Y-99491000D02*
X165514000Y-99491000D01*
X167460000Y-99531000D02*
X165530000Y-99531000D01*
X167460000Y-99571000D02*
X165548000Y-99571000D01*
X167460000Y-99611000D02*
X165566000Y-99611000D01*
X167460000Y-99651000D02*
X165584000Y-99651000D01*
X167460000Y-99691000D02*
X165604000Y-99691000D01*
X167460000Y-99731000D02*
X165624000Y-99731000D01*
X167460000Y-99771000D02*
X165644000Y-99771000D01*
X167460000Y-99811000D02*
X165666000Y-99811000D01*
X167460000Y-99851000D02*
X165688000Y-99851000D01*
X167460000Y-99891000D02*
X165710000Y-99891000D01*
X167460000Y-99931000D02*
X165734000Y-99931000D01*
X167460000Y-99971000D02*
X165758000Y-99971000D01*
X167460000Y-100011000D02*
X165784000Y-100011000D01*
X167460000Y-100051000D02*
X165810000Y-100051000D01*
X167460000Y-100091000D02*
X165836000Y-100091000D01*
X167460000Y-100131000D02*
X165864000Y-100131000D01*
X167460000Y-100171000D02*
X165893000Y-100171000D01*
X167460000Y-100211000D02*
X165922000Y-100211000D01*
X167460000Y-100251000D02*
X165952000Y-100251000D01*
X167460000Y-100291000D02*
X165984000Y-100291000D01*
X167460000Y-100331000D02*
X166016000Y-100331000D01*
X167460000Y-100371000D02*
X166050000Y-100371000D01*
X167460000Y-100411000D02*
X166084000Y-100411000D01*
X167460000Y-100451000D02*
X166120000Y-100451000D01*
X167460000Y-100491000D02*
X166157000Y-100491000D01*
X167460000Y-100531000D02*
X166195000Y-100531000D01*
X168902000Y-101491000D02*
X168098000Y-101491000D01*
X169133000Y-101451000D02*
X167867000Y-101451000D01*
X169302000Y-101411000D02*
X167698000Y-101411000D01*
X169440000Y-101371000D02*
X167560000Y-101371000D01*
X169559000Y-101331000D02*
X167441000Y-101331000D01*
X169665000Y-101291000D02*
X167335000Y-101291000D01*
X169762000Y-101251000D02*
X167238000Y-101251000D01*
X169850000Y-101211000D02*
X167150000Y-101211000D01*
X169932000Y-101171000D02*
X167068000Y-101171000D01*
X170009000Y-101131000D02*
X166991000Y-101131000D01*
X170081000Y-101091000D02*
X166919000Y-101091000D01*
X170150000Y-101051000D02*
X166850000Y-101051000D01*
X170214000Y-101011000D02*
X166786000Y-101011000D01*
X170276000Y-100971000D02*
X166724000Y-100971000D01*
X170334000Y-100931000D02*
X166666000Y-100931000D01*
X170339000Y-94749759D02*
X170339000Y-95379759D01*
X170390000Y-100891000D02*
X166610000Y-100891000D01*
X170444000Y-100851000D02*
X166556000Y-100851000D01*
X170495000Y-100811000D02*
X166505000Y-100811000D01*
X170544000Y-100771000D02*
X166456000Y-100771000D01*
X170592000Y-100731000D02*
X166408000Y-100731000D01*
X170637000Y-100691000D02*
X166363000Y-100691000D01*
X170654000Y-95064759D02*
X170024000Y-95064759D01*
X170682000Y-100651000D02*
X166318000Y-100651000D01*
X170724000Y-100611000D02*
X166276000Y-100611000D01*
X170765000Y-100571000D02*
X166235000Y-100571000D01*
X170805000Y-100531000D02*
X169540000Y-100531000D01*
X170843000Y-100491000D02*
X169540000Y-100491000D01*
X170880000Y-100451000D02*
X169540000Y-100451000D01*
X170916000Y-100411000D02*
X169540000Y-100411000D01*
X170950000Y-100371000D02*
X169540000Y-100371000D01*
X170984000Y-100331000D02*
X169540000Y-100331000D01*
X171016000Y-100291000D02*
X169540000Y-100291000D01*
X171048000Y-100251000D02*
X169540000Y-100251000D01*
X171078000Y-100211000D02*
X169540000Y-100211000D01*
X171107000Y-100171000D02*
X169540000Y-100171000D01*
X171136000Y-100131000D02*
X169540000Y-100131000D01*
X171164000Y-100091000D02*
X169540000Y-100091000D01*
X171190000Y-100051000D02*
X169540000Y-100051000D01*
X171216000Y-100011000D02*
X169540000Y-100011000D01*
X171242000Y-99971000D02*
X169540000Y-99971000D01*
X171266000Y-99931000D02*
X169540000Y-99931000D01*
X171290000Y-99891000D02*
X169540000Y-99891000D01*
X171312000Y-99851000D02*
X169540000Y-99851000D01*
X171334000Y-99811000D02*
X169540000Y-99811000D01*
X171356000Y-99771000D02*
X169540000Y-99771000D01*
X171376000Y-99731000D02*
X169540000Y-99731000D01*
X171396000Y-99691000D02*
X169540000Y-99691000D01*
X171416000Y-99651000D02*
X169540000Y-99651000D01*
X171434000Y-99611000D02*
X169540000Y-99611000D01*
X171452000Y-99571000D02*
X169540000Y-99571000D01*
X171470000Y-99531000D02*
X169540000Y-99531000D01*
X171486000Y-99491000D02*
X169540000Y-99491000D01*
X171502000Y-99451000D02*
X169540000Y-99451000D01*
X171518000Y-99411000D02*
X169540000Y-99411000D01*
X171533000Y-99371000D02*
X169540000Y-99371000D01*
X171547000Y-99331000D02*
X169540000Y-99331000D01*
X171561000Y-99291000D02*
X169540000Y-99291000D01*
X171574000Y-99251000D02*
X169540000Y-99251000D01*
X171586000Y-99211000D02*
X169540000Y-99211000D01*
X171598000Y-99171000D02*
X169540000Y-99171000D01*
X171610000Y-99131000D02*
X169540000Y-99131000D01*
X171621000Y-99091000D02*
X169540000Y-99091000D01*
X171631000Y-99051000D02*
X169540000Y-99051000D01*
X171641000Y-99011000D02*
X169540000Y-99011000D01*
X171650000Y-98971000D02*
X169540000Y-98971000D01*
X171659000Y-98930000D02*
X169540000Y-98930000D01*
X171667000Y-98890000D02*
X169540000Y-98890000D01*
X171675000Y-98850000D02*
X169540000Y-98850000D01*
X171682000Y-98810000D02*
X169540000Y-98810000D01*
X171689000Y-98770000D02*
X169540000Y-98770000D01*
X171695000Y-98730000D02*
X169540000Y-98730000D01*
X171701000Y-98690000D02*
X169540000Y-98690000D01*
X171706000Y-98650000D02*
X169540000Y-98650000D01*
X171711000Y-98610000D02*
X169540000Y-98610000D01*
X171715000Y-98570000D02*
X169540000Y-98570000D01*
X171718000Y-98530000D02*
X169540000Y-98530000D01*
X171722000Y-98490000D02*
X169540000Y-98490000D01*
X171724000Y-98450000D02*
X165276000Y-98450000D01*
X171727000Y-98410000D02*
X165273000Y-98410000D01*
X171728000Y-98370000D02*
X165272000Y-98370000D01*
X171730000Y-98250000D02*
X165270000Y-98250000D01*
X171730000Y-98290000D02*
X165270000Y-98290000D01*
X171730000Y-98330000D02*
X165270000Y-98330000D01*
X171770000Y-98250000D02*
G75*
G02*
X165230000Y-98250000I-3270000J0D01*
G01*
X165230000Y-98250000D02*
G75*
G02*
X171770000Y-98250000I3270000J0D01*
G01*
%TO.C,C1*%
X169353733Y-89990000D02*
X169646267Y-89990000D01*
X169353733Y-91010000D02*
X169646267Y-91010000D01*
%TD*%
M02*
